<?xml version="1.0" encoding="utf-8"?>
<svg xmlns="http://www.w3.org/2000/svg" xmlns:xlink="http://www.w3.org/1999/xlink" width="600" height="400" viewBox="0 0 2400 1600">
<defs>
  <clipPath id="clip570">
    <rect x="0" y="0" width="2400" height="1600"/>
  </clipPath>
</defs>
<path clip-path="url(#clip570)" d="
M0 1600 L2400 1600 L2400 0 L0 0  Z
  " fill="#ffffff" fill-rule="evenodd" fill-opacity="1"/>
<defs>
  <clipPath id="clip571">
    <rect x="480" y="0" width="1681" height="1600"/>
  </clipPath>
</defs>
<path clip-path="url(#clip570)" d="
M223.103 1435.12 L2352.76 1435.12 L2352.76 123.472 L223.103 123.472  Z
  " fill="#ffffff" fill-rule="evenodd" fill-opacity="1"/>
<defs>
  <clipPath id="clip572">
    <rect x="223" y="123" width="2131" height="1313"/>
  </clipPath>
</defs>
<polyline clip-path="url(#clip572)" style="stroke:#000000; stroke-linecap:butt; stroke-linejoin:round; stroke-width:2; stroke-opacity:0.1; fill:none" points="
  283.376,1435.12 283.376,123.472 
  "/>
<polyline clip-path="url(#clip572)" style="stroke:#000000; stroke-linecap:butt; stroke-linejoin:round; stroke-width:2; stroke-opacity:0.1; fill:none" points="
  450.832,1435.12 450.832,123.472 
  "/>
<polyline clip-path="url(#clip572)" style="stroke:#000000; stroke-linecap:butt; stroke-linejoin:round; stroke-width:2; stroke-opacity:0.1; fill:none" points="
  618.289,1435.12 618.289,123.472 
  "/>
<polyline clip-path="url(#clip572)" style="stroke:#000000; stroke-linecap:butt; stroke-linejoin:round; stroke-width:2; stroke-opacity:0.1; fill:none" points="
  785.745,1435.12 785.745,123.472 
  "/>
<polyline clip-path="url(#clip572)" style="stroke:#000000; stroke-linecap:butt; stroke-linejoin:round; stroke-width:2; stroke-opacity:0.1; fill:none" points="
  953.202,1435.12 953.202,123.472 
  "/>
<polyline clip-path="url(#clip572)" style="stroke:#000000; stroke-linecap:butt; stroke-linejoin:round; stroke-width:2; stroke-opacity:0.1; fill:none" points="
  1120.66,1435.12 1120.66,123.472 
  "/>
<polyline clip-path="url(#clip572)" style="stroke:#000000; stroke-linecap:butt; stroke-linejoin:round; stroke-width:2; stroke-opacity:0.1; fill:none" points="
  1288.12,1435.12 1288.12,123.472 
  "/>
<polyline clip-path="url(#clip572)" style="stroke:#000000; stroke-linecap:butt; stroke-linejoin:round; stroke-width:2; stroke-opacity:0.1; fill:none" points="
  1455.57,1435.12 1455.57,123.472 
  "/>
<polyline clip-path="url(#clip572)" style="stroke:#000000; stroke-linecap:butt; stroke-linejoin:round; stroke-width:2; stroke-opacity:0.1; fill:none" points="
  1623.03,1435.12 1623.03,123.472 
  "/>
<polyline clip-path="url(#clip572)" style="stroke:#000000; stroke-linecap:butt; stroke-linejoin:round; stroke-width:2; stroke-opacity:0.1; fill:none" points="
  1790.49,1435.12 1790.49,123.472 
  "/>
<polyline clip-path="url(#clip572)" style="stroke:#000000; stroke-linecap:butt; stroke-linejoin:round; stroke-width:2; stroke-opacity:0.1; fill:none" points="
  1957.94,1435.12 1957.94,123.472 
  "/>
<polyline clip-path="url(#clip572)" style="stroke:#000000; stroke-linecap:butt; stroke-linejoin:round; stroke-width:2; stroke-opacity:0.1; fill:none" points="
  2125.4,1435.12 2125.4,123.472 
  "/>
<polyline clip-path="url(#clip570)" style="stroke:#000000; stroke-linecap:butt; stroke-linejoin:round; stroke-width:4; stroke-opacity:1; fill:none" points="
  223.103,1435.12 2352.76,1435.12 
  "/>
<polyline clip-path="url(#clip570)" style="stroke:#000000; stroke-linecap:butt; stroke-linejoin:round; stroke-width:4; stroke-opacity:1; fill:none" points="
  283.376,1435.12 283.376,1416.23 
  "/>
<polyline clip-path="url(#clip570)" style="stroke:#000000; stroke-linecap:butt; stroke-linejoin:round; stroke-width:4; stroke-opacity:1; fill:none" points="
  450.832,1435.12 450.832,1416.23 
  "/>
<polyline clip-path="url(#clip570)" style="stroke:#000000; stroke-linecap:butt; stroke-linejoin:round; stroke-width:4; stroke-opacity:1; fill:none" points="
  618.289,1435.12 618.289,1416.23 
  "/>
<polyline clip-path="url(#clip570)" style="stroke:#000000; stroke-linecap:butt; stroke-linejoin:round; stroke-width:4; stroke-opacity:1; fill:none" points="
  785.745,1435.12 785.745,1416.23 
  "/>
<polyline clip-path="url(#clip570)" style="stroke:#000000; stroke-linecap:butt; stroke-linejoin:round; stroke-width:4; stroke-opacity:1; fill:none" points="
  953.202,1435.12 953.202,1416.23 
  "/>
<polyline clip-path="url(#clip570)" style="stroke:#000000; stroke-linecap:butt; stroke-linejoin:round; stroke-width:4; stroke-opacity:1; fill:none" points="
  1120.66,1435.12 1120.66,1416.23 
  "/>
<polyline clip-path="url(#clip570)" style="stroke:#000000; stroke-linecap:butt; stroke-linejoin:round; stroke-width:4; stroke-opacity:1; fill:none" points="
  1288.12,1435.12 1288.12,1416.23 
  "/>
<polyline clip-path="url(#clip570)" style="stroke:#000000; stroke-linecap:butt; stroke-linejoin:round; stroke-width:4; stroke-opacity:1; fill:none" points="
  1455.57,1435.12 1455.57,1416.23 
  "/>
<polyline clip-path="url(#clip570)" style="stroke:#000000; stroke-linecap:butt; stroke-linejoin:round; stroke-width:4; stroke-opacity:1; fill:none" points="
  1623.03,1435.12 1623.03,1416.23 
  "/>
<polyline clip-path="url(#clip570)" style="stroke:#000000; stroke-linecap:butt; stroke-linejoin:round; stroke-width:4; stroke-opacity:1; fill:none" points="
  1790.49,1435.12 1790.49,1416.23 
  "/>
<polyline clip-path="url(#clip570)" style="stroke:#000000; stroke-linecap:butt; stroke-linejoin:round; stroke-width:4; stroke-opacity:1; fill:none" points="
  1957.94,1435.12 1957.94,1416.23 
  "/>
<polyline clip-path="url(#clip570)" style="stroke:#000000; stroke-linecap:butt; stroke-linejoin:round; stroke-width:4; stroke-opacity:1; fill:none" points="
  2125.4,1435.12 2125.4,1416.23 
  "/>
<path clip-path="url(#clip570)" d="M202.591 1572.31 L207.992 1566.91 L189.349 1548.27 L184.651 1555.32 L181.64 1552.31 L186.305 1545.29 L189.611 1541.98 L211.266 1563.63 L216.667 1558.23 L219.45 1561.02 L205.373 1575.09 L202.591 1572.31 Z" fill="#000000" fill-rule="evenodd" fill-opacity="1" /><path clip-path="url(#clip570)" d="M222.969 1531.14 Q225.85 1529.28 228.78 1529.56 Q231.726 1529.82 234.083 1532.18 Q237.7 1535.79 237.193 1540.26 Q236.686 1544.73 232.103 1549.31 Q230.564 1550.85 228.616 1552.18 Q226.701 1553.5 224.36 1554.63 L221.169 1551.44 Q223.346 1550.87 225.392 1549.64 Q227.438 1548.41 229.222 1546.63 Q232.332 1543.52 232.725 1540.67 Q233.134 1537.81 230.793 1535.47 Q228.633 1533.3 225.899 1533.62 Q223.166 1533.89 220.465 1536.59 L217.617 1539.44 L214.9 1536.73 L217.879 1533.75 Q220.318 1531.31 220.645 1529.05 Q220.956 1526.77 219.123 1524.94 Q217.24 1523.06 214.9 1523.4 Q212.559 1523.71 210.071 1526.2 Q208.713 1527.56 207.452 1529.41 Q206.192 1531.26 204.948 1533.75 L202.002 1530.8 Q203.36 1528.39 204.735 1526.5 Q206.126 1524.58 207.583 1523.12 Q211.348 1519.36 215.26 1518.88 Q219.155 1518.39 222.069 1521.31 Q224.099 1523.34 224.344 1525.91 Q224.573 1528.46 222.969 1531.14 Z" fill="#000000" fill-rule="evenodd" fill-opacity="1" /><path clip-path="url(#clip570)" d="M243.642 1528.51 L247.096 1525.06 L251.253 1529.21 L247.8 1532.67 L243.642 1528.51 M230.466 1515.33 L233.919 1511.88 L238.077 1516.04 L234.623 1519.49 L230.466 1515.33 Z" fill="#000000" fill-rule="evenodd" fill-opacity="1" /><path clip-path="url(#clip570)" d="M243.56 1492.38 Q241.007 1494.94 242.234 1498.75 Q243.462 1502.53 248.503 1507.57 Q253.528 1512.6 257.326 1513.84 Q261.123 1515.05 263.677 1512.5 Q266.246 1509.93 265.019 1506.15 Q263.791 1502.34 258.766 1497.31 Q253.725 1492.27 249.927 1491.06 Q246.13 1489.81 243.56 1492.38 M240.941 1489.77 Q245.05 1485.66 250.468 1486.75 Q255.885 1487.82 262.073 1494 Q268.243 1500.18 269.324 1505.61 Q270.404 1511.01 266.296 1515.12 Q262.187 1519.23 256.769 1518.16 Q251.351 1517.07 245.181 1510.9 Q238.994 1504.71 237.913 1499.31 Q236.833 1493.87 240.941 1489.77 Z" fill="#000000" fill-rule="evenodd" fill-opacity="1" /><path clip-path="url(#clip570)" d="M264.888 1471.06 Q262.334 1473.61 263.562 1477.42 Q264.79 1481.2 269.831 1486.25 Q274.856 1491.27 278.654 1492.52 Q282.451 1493.73 285.004 1491.17 Q287.574 1488.6 286.347 1484.82 Q285.119 1481.01 280.094 1475.98 Q275.053 1470.94 271.255 1469.73 Q267.458 1468.49 264.888 1471.06 M262.269 1468.44 Q266.377 1464.33 271.795 1465.43 Q277.213 1466.49 283.4 1472.68 Q289.571 1478.85 290.651 1484.28 Q291.732 1489.68 287.623 1493.79 Q283.515 1497.9 278.097 1496.84 Q272.679 1495.74 266.508 1489.57 Q260.321 1483.38 259.241 1477.98 Q258.161 1472.55 262.269 1468.44 Z" fill="#000000" fill-rule="evenodd" fill-opacity="1" /><path clip-path="url(#clip570)" d="M370.047 1572.31 L375.449 1566.91 L356.806 1548.27 L352.108 1555.32 L349.096 1552.31 L353.761 1545.29 L357.068 1541.98 L378.723 1563.63 L384.124 1558.23 L386.907 1561.02 L372.83 1575.09 L370.047 1572.31 Z" fill="#000000" fill-rule="evenodd" fill-opacity="1" /><path clip-path="url(#clip570)" d="M381.112 1523.7 L385.81 1545.09 L394.158 1536.74 L381.112 1523.7 M377.364 1521.68 L381.521 1517.53 L397.448 1533.45 L400.934 1529.97 L403.684 1532.72 L400.198 1536.2 L405.959 1541.96 L402.669 1545.25 L396.908 1539.49 L385.875 1550.52 L382.684 1547.33 L377.364 1521.68 Z" fill="#000000" fill-rule="evenodd" fill-opacity="1" /><path clip-path="url(#clip570)" d="M411.099 1528.51 L414.552 1525.06 L418.71 1529.21 L415.256 1532.67 L411.099 1528.51 M397.922 1515.33 L401.376 1511.88 L405.534 1516.04 L402.08 1519.49 L397.922 1515.33 Z" fill="#000000" fill-rule="evenodd" fill-opacity="1" /><path clip-path="url(#clip570)" d="M411.017 1492.38 Q408.463 1494.94 409.691 1498.75 Q410.919 1502.53 415.96 1507.57 Q420.985 1512.6 424.782 1513.84 Q428.58 1515.05 431.133 1512.5 Q433.703 1509.93 432.475 1506.15 Q431.248 1502.34 426.223 1497.31 Q421.181 1492.27 417.384 1491.06 Q413.587 1489.81 411.017 1492.38 M408.398 1489.77 Q412.506 1485.66 417.924 1486.75 Q423.342 1487.82 429.529 1494 Q435.7 1500.18 436.78 1505.61 Q437.861 1511.01 433.752 1515.12 Q429.644 1519.23 424.226 1518.16 Q418.808 1517.07 412.637 1510.9 Q406.45 1504.71 405.37 1499.31 Q404.29 1493.87 408.398 1489.77 Z" fill="#000000" fill-rule="evenodd" fill-opacity="1" /><path clip-path="url(#clip570)" d="M432.345 1471.06 Q429.791 1473.61 431.019 1477.42 Q432.246 1481.2 437.288 1486.25 Q442.313 1491.27 446.11 1492.52 Q449.908 1493.73 452.461 1491.17 Q455.031 1488.6 453.803 1484.82 Q452.576 1481.01 447.55 1475.98 Q442.509 1470.94 438.712 1469.73 Q434.914 1468.49 432.345 1471.06 M429.726 1468.44 Q433.834 1464.33 439.252 1465.43 Q444.67 1466.49 450.857 1472.68 Q457.028 1478.85 458.108 1484.28 Q459.188 1489.68 455.08 1493.79 Q450.971 1497.9 445.554 1496.84 Q440.136 1495.74 433.965 1489.57 Q427.778 1483.38 426.698 1477.98 Q425.617 1472.55 429.726 1468.44 Z" fill="#000000" fill-rule="evenodd" fill-opacity="1" /><path clip-path="url(#clip570)" d="M537.504 1572.31 L542.906 1566.91 L524.262 1548.27 L519.565 1555.32 L516.553 1552.31 L521.218 1545.29 L524.524 1541.98 L546.179 1563.63 L551.581 1558.23 L554.363 1561.02 L540.287 1575.09 L537.504 1572.31 Z" fill="#000000" fill-rule="evenodd" fill-opacity="1" /><path clip-path="url(#clip570)" d="M536.637 1529.87 L549.616 1516.89 L552.399 1519.67 L542.447 1529.62 L548.438 1535.61 Q548.913 1534.65 549.518 1533.81 Q550.107 1532.96 550.828 1532.24 Q554.92 1528.15 559.552 1528 Q564.184 1527.85 568.014 1531.68 Q571.959 1535.63 571.697 1540.28 Q571.419 1544.91 566.95 1549.38 Q565.412 1550.92 563.546 1552.26 Q561.696 1553.58 559.47 1554.76 L556.147 1551.44 Q558.422 1550.77 560.387 1549.59 Q562.351 1548.41 564.102 1546.66 Q566.934 1543.83 567.098 1540.69 Q567.261 1537.54 564.708 1534.99 Q562.154 1532.44 559.012 1532.6 Q555.869 1532.76 553.037 1535.6 Q551.712 1536.92 550.68 1538.54 Q549.666 1540.15 548.913 1542.14 L536.637 1529.87 Z" fill="#000000" fill-rule="evenodd" fill-opacity="1" /><path clip-path="url(#clip570)" d="M578.555 1528.51 L582.009 1525.06 L586.166 1529.21 L582.713 1532.67 L578.555 1528.51 M565.379 1515.33 L568.833 1511.88 L572.99 1516.04 L569.536 1519.49 L565.379 1515.33 Z" fill="#000000" fill-rule="evenodd" fill-opacity="1" /><path clip-path="url(#clip570)" d="M578.473 1492.38 Q575.92 1494.94 577.148 1498.75 Q578.375 1502.53 583.417 1507.57 Q588.442 1512.6 592.239 1513.84 Q596.036 1515.05 598.59 1512.5 Q601.16 1509.93 599.932 1506.15 Q598.704 1502.34 593.679 1497.31 Q588.638 1492.27 584.841 1491.06 Q581.043 1489.81 578.473 1492.38 M575.855 1489.77 Q579.963 1485.66 585.381 1486.75 Q590.799 1487.82 596.986 1494 Q603.157 1500.18 604.237 1505.61 Q605.317 1511.01 601.209 1515.12 Q597.1 1519.23 591.683 1518.16 Q586.265 1517.07 580.094 1510.9 Q573.907 1504.71 572.826 1499.31 Q571.746 1493.87 575.855 1489.77 Z" fill="#000000" fill-rule="evenodd" fill-opacity="1" /><path clip-path="url(#clip570)" d="M599.801 1471.06 Q597.248 1473.61 598.475 1477.42 Q599.703 1481.2 604.744 1486.25 Q609.769 1491.27 613.567 1492.52 Q617.364 1493.73 619.918 1491.17 Q622.487 1488.6 621.26 1484.82 Q620.032 1481.01 615.007 1475.98 Q609.966 1470.94 606.168 1469.73 Q602.371 1468.49 599.801 1471.06 M597.182 1468.44 Q601.291 1464.33 606.708 1465.43 Q612.126 1466.49 618.313 1472.68 Q624.484 1478.85 625.565 1484.28 Q626.645 1489.68 622.536 1493.79 Q618.428 1497.9 613.01 1496.84 Q607.592 1495.74 601.422 1489.57 Q595.234 1483.38 594.154 1477.98 Q593.074 1472.55 597.182 1468.44 Z" fill="#000000" fill-rule="evenodd" fill-opacity="1" /><path clip-path="url(#clip570)" d="M704.961 1572.31 L710.362 1566.91 L691.719 1548.27 L687.021 1555.32 L684.009 1552.31 L688.674 1545.29 L691.981 1541.98 L713.636 1563.63 L719.037 1558.23 L721.82 1561.02 L707.743 1575.09 L704.961 1572.31 Z" fill="#000000" fill-rule="evenodd" fill-opacity="1" /><path clip-path="url(#clip570)" d="M722.442 1533.32 Q720.216 1535.55 720.428 1538.38 Q720.658 1541.19 723.309 1543.85 Q725.945 1546.48 728.776 1546.73 Q731.608 1546.94 733.834 1544.71 Q736.06 1542.49 735.831 1539.67 Q735.602 1536.82 732.966 1534.19 Q730.315 1531.54 727.483 1531.32 Q724.668 1531.09 722.442 1533.32 M718.644 1516.4 L721.656 1519.41 Q719.823 1520.06 718.235 1521.03 Q716.664 1521.98 715.42 1523.22 Q712.146 1526.5 712.621 1530.44 Q713.112 1534.37 717.335 1539.08 Q716.877 1536.69 717.58 1534.48 Q718.268 1532.26 720.019 1530.51 Q723.702 1526.82 728.072 1526.94 Q732.443 1527.02 736.289 1530.87 Q740.054 1534.63 740.103 1539.13 Q740.152 1543.63 736.453 1547.33 Q732.214 1551.57 726.73 1550.57 Q721.231 1549.56 715.06 1543.39 Q709.265 1537.59 708.578 1531.41 Q707.874 1525.2 712.506 1520.57 Q713.75 1519.33 715.256 1518.31 Q716.778 1517.28 718.644 1516.4 Z" fill="#000000" fill-rule="evenodd" fill-opacity="1" /><path clip-path="url(#clip570)" d="M746.012 1528.51 L749.466 1525.06 L753.623 1529.21 L750.169 1532.67 L746.012 1528.51 M732.836 1515.33 L736.289 1511.88 L740.447 1516.04 L736.993 1519.49 L732.836 1515.33 Z" fill="#000000" fill-rule="evenodd" fill-opacity="1" /><path clip-path="url(#clip570)" d="M745.93 1492.38 Q743.377 1494.94 744.604 1498.75 Q745.832 1502.53 750.873 1507.57 Q755.898 1512.6 759.696 1513.84 Q763.493 1515.05 766.046 1512.5 Q768.616 1509.93 767.389 1506.15 Q766.161 1502.34 761.136 1497.31 Q756.095 1492.27 752.297 1491.06 Q748.5 1489.81 745.93 1492.38 M743.311 1489.77 Q747.42 1485.66 752.837 1486.75 Q758.255 1487.82 764.442 1494 Q770.613 1500.18 771.693 1505.61 Q772.774 1511.01 768.665 1515.12 Q764.557 1519.23 759.139 1518.16 Q753.721 1517.07 747.55 1510.9 Q741.363 1504.71 740.283 1499.31 Q739.203 1493.87 743.311 1489.77 Z" fill="#000000" fill-rule="evenodd" fill-opacity="1" /><path clip-path="url(#clip570)" d="M767.258 1471.06 Q764.704 1473.61 765.932 1477.42 Q767.159 1481.2 772.201 1486.25 Q777.226 1491.27 781.023 1492.52 Q784.821 1493.73 787.374 1491.17 Q789.944 1488.6 788.716 1484.82 Q787.489 1481.01 782.464 1475.98 Q777.422 1470.94 773.625 1469.73 Q769.827 1468.49 767.258 1471.06 M764.639 1468.44 Q768.747 1464.33 774.165 1465.43 Q779.583 1466.49 785.77 1472.68 Q791.941 1478.85 793.021 1484.28 Q794.101 1489.68 789.993 1493.79 Q785.885 1497.9 780.467 1496.84 Q775.049 1495.74 768.878 1489.57 Q762.691 1483.38 761.611 1477.98 Q760.53 1472.55 764.639 1468.44 Z" fill="#000000" fill-rule="evenodd" fill-opacity="1" /><path clip-path="url(#clip570)" d="M872.417 1572.31 L877.819 1566.91 L859.175 1548.27 L854.478 1555.32 L851.466 1552.31 L856.131 1545.29 L859.437 1541.98 L881.092 1563.63 L886.494 1558.23 L889.276 1561.02 L875.2 1575.09 L872.417 1572.31 Z" fill="#000000" fill-rule="evenodd" fill-opacity="1" /><path clip-path="url(#clip570)" d="M870.682 1530.73 L886.396 1515.02 L887.803 1516.43 L901.962 1548.33 L898.508 1551.78 L885.201 1521.78 L873.465 1533.52 L870.682 1530.73 Z" fill="#000000" fill-rule="evenodd" fill-opacity="1" /><path clip-path="url(#clip570)" d="M913.468 1528.51 L916.922 1525.06 L921.08 1529.21 L917.626 1532.67 L913.468 1528.51 M900.292 1515.33 L903.746 1511.88 L907.903 1516.04 L904.45 1519.49 L900.292 1515.33 Z" fill="#000000" fill-rule="evenodd" fill-opacity="1" /><path clip-path="url(#clip570)" d="M913.387 1492.38 Q910.833 1494.94 912.061 1498.75 Q913.288 1502.53 918.33 1507.57 Q923.355 1512.6 927.152 1513.84 Q930.95 1515.05 933.503 1512.5 Q936.073 1509.93 934.845 1506.15 Q933.618 1502.34 928.593 1497.31 Q923.551 1492.27 919.754 1491.06 Q915.956 1489.81 913.387 1492.38 M910.768 1489.77 Q914.876 1485.66 920.294 1486.75 Q925.712 1487.82 931.899 1494 Q938.07 1500.18 939.15 1505.61 Q940.23 1511.01 936.122 1515.12 Q932.014 1519.23 926.596 1518.16 Q921.178 1517.07 915.007 1510.9 Q908.82 1504.71 907.74 1499.31 Q906.659 1493.87 910.768 1489.77 Z" fill="#000000" fill-rule="evenodd" fill-opacity="1" /><path clip-path="url(#clip570)" d="M934.714 1471.06 Q932.161 1473.61 933.388 1477.42 Q934.616 1481.2 939.657 1486.25 Q944.682 1491.27 948.48 1492.52 Q952.277 1493.73 954.831 1491.17 Q957.401 1488.6 956.173 1484.82 Q954.945 1481.01 949.92 1475.98 Q944.879 1470.94 941.081 1469.73 Q937.284 1468.49 934.714 1471.06 M932.095 1468.44 Q936.204 1464.33 941.622 1465.43 Q947.039 1466.49 953.227 1472.68 Q959.397 1478.85 960.478 1484.28 Q961.558 1489.68 957.45 1493.79 Q953.341 1497.9 947.923 1496.84 Q942.506 1495.74 936.335 1489.57 Q930.148 1483.38 929.067 1477.98 Q927.987 1472.55 932.095 1468.44 Z" fill="#000000" fill-rule="evenodd" fill-opacity="1" /><path clip-path="url(#clip570)" d="M1039.87 1572.31 L1045.28 1566.91 L1026.63 1548.27 L1021.93 1555.32 L1018.92 1552.31 L1023.59 1545.29 L1026.89 1541.98 L1048.55 1563.63 L1053.95 1558.23 L1056.73 1561.02 L1042.66 1575.09 L1039.87 1572.31 Z" fill="#000000" fill-rule="evenodd" fill-opacity="1" /><path clip-path="url(#clip570)" d="M1058.88 1535.66 Q1056.52 1538.02 1056.42 1540.64 Q1056.34 1543.24 1058.55 1545.45 Q1060.76 1547.66 1063.36 1547.58 Q1065.98 1547.48 1068.34 1545.12 Q1070.69 1542.77 1070.79 1540.15 Q1070.88 1537.51 1068.68 1535.32 Q1066.47 1533.11 1063.85 1533.21 Q1061.25 1533.29 1058.88 1535.66 M1054.16 1537.56 Q1051.51 1539.16 1048.86 1538.9 Q1046.22 1538.62 1044.13 1536.53 Q1041.2 1533.6 1041.58 1529.82 Q1041.97 1526.02 1045.6 1522.39 Q1049.25 1518.74 1053.03 1518.36 Q1056.81 1517.98 1059.74 1520.91 Q1061.84 1523.01 1062.1 1525.66 Q1062.38 1528.3 1060.79 1530.93 Q1063.74 1529.1 1066.68 1529.39 Q1069.65 1529.67 1071.99 1532.01 Q1075.54 1535.56 1075.26 1539.64 Q1075 1543.7 1070.96 1547.74 Q1066.91 1551.78 1062.84 1552.06 Q1058.78 1552.32 1055.23 1548.77 Q1052.89 1546.43 1052.61 1543.47 Q1052.33 1540.51 1054.16 1537.56 M1047.73 1533.55 Q1049.63 1535.45 1051.87 1535.33 Q1054.13 1535.2 1056.27 1533.06 Q1058.4 1530.93 1058.53 1528.67 Q1058.68 1526.4 1056.78 1524.5 Q1054.88 1522.6 1052.61 1522.75 Q1050.35 1522.88 1048.22 1525.01 Q1046.08 1527.15 1045.95 1529.41 Q1045.83 1531.65 1047.73 1533.55 Z" fill="#000000" fill-rule="evenodd" fill-opacity="1" /><path clip-path="url(#clip570)" d="M1080.93 1528.51 L1084.38 1525.06 L1088.54 1529.21 L1085.08 1532.67 L1080.93 1528.51 M1067.75 1515.33 L1071.2 1511.88 L1075.36 1516.04 L1071.91 1519.49 L1067.75 1515.33 Z" fill="#000000" fill-rule="evenodd" fill-opacity="1" /><path clip-path="url(#clip570)" d="M1080.84 1492.38 Q1078.29 1494.94 1079.52 1498.75 Q1080.75 1502.53 1085.79 1507.57 Q1090.81 1512.6 1094.61 1513.84 Q1098.41 1515.05 1100.96 1512.5 Q1103.53 1509.93 1102.3 1506.15 Q1101.07 1502.34 1096.05 1497.31 Q1091.01 1492.27 1087.21 1491.06 Q1083.41 1489.81 1080.84 1492.38 M1078.22 1489.77 Q1082.33 1485.66 1087.75 1486.75 Q1093.17 1487.82 1099.36 1494 Q1105.53 1500.18 1106.61 1505.61 Q1107.69 1511.01 1103.58 1515.12 Q1099.47 1519.23 1094.05 1518.16 Q1088.63 1517.07 1082.46 1510.9 Q1076.28 1504.71 1075.2 1499.31 Q1074.12 1493.87 1078.22 1489.77 Z" fill="#000000" fill-rule="evenodd" fill-opacity="1" /><path clip-path="url(#clip570)" d="M1102.17 1471.06 Q1099.62 1473.61 1100.85 1477.42 Q1102.07 1481.2 1107.11 1486.25 Q1112.14 1491.27 1115.94 1492.52 Q1119.73 1493.73 1122.29 1491.17 Q1124.86 1488.6 1123.63 1484.82 Q1122.4 1481.01 1117.38 1475.98 Q1112.34 1470.94 1108.54 1469.73 Q1104.74 1468.49 1102.17 1471.06 M1099.55 1468.44 Q1103.66 1464.33 1109.08 1465.43 Q1114.5 1466.49 1120.68 1472.68 Q1126.85 1478.85 1127.93 1484.28 Q1129.01 1489.68 1124.91 1493.79 Q1120.8 1497.9 1115.38 1496.84 Q1109.96 1495.74 1103.79 1489.57 Q1097.6 1483.38 1096.52 1477.98 Q1095.44 1472.55 1099.55 1468.44 Z" fill="#000000" fill-rule="evenodd" fill-opacity="1" /><path clip-path="url(#clip570)" d="M1207.33 1572.31 L1212.73 1566.91 L1194.09 1548.27 L1189.39 1555.32 L1186.38 1552.31 L1191.04 1545.29 L1194.35 1541.98 L1216.01 1563.63 L1221.41 1558.23 L1224.19 1561.02 L1210.11 1575.09 L1207.33 1572.31 Z" fill="#000000" fill-rule="evenodd" fill-opacity="1" /><path clip-path="url(#clip570)" d="M1230.46 1553.73 L1227.45 1550.72 Q1229.28 1550.07 1230.87 1549.1 Q1232.46 1548.13 1233.68 1546.91 Q1236.96 1543.63 1236.48 1539.72 Q1236.01 1535.78 1231.77 1531.05 Q1232.23 1533.4 1231.52 1535.61 Q1230.82 1537.82 1229.05 1539.59 Q1225.38 1543.26 1221.03 1543.19 Q1216.68 1543.09 1212.83 1539.25 Q1209.07 1535.48 1209.02 1530.98 Q1208.97 1526.48 1212.67 1522.78 Q1216.91 1518.54 1222.39 1519.57 Q1227.87 1520.57 1234.06 1526.76 Q1239.84 1532.54 1240.54 1538.74 Q1241.25 1544.91 1236.61 1549.54 Q1235.37 1550.79 1233.85 1551.82 Q1232.32 1552.85 1230.46 1553.73 M1226.68 1536.79 Q1228.9 1534.56 1228.67 1531.75 Q1228.46 1528.92 1225.81 1526.27 Q1223.17 1523.63 1220.34 1523.42 Q1217.51 1523.17 1215.29 1525.4 Q1213.06 1527.62 1213.29 1530.47 Q1213.52 1533.29 1216.15 1535.92 Q1218.8 1538.58 1221.62 1538.8 Q1224.45 1539.02 1226.68 1536.79 Z" fill="#000000" fill-rule="evenodd" fill-opacity="1" /><path clip-path="url(#clip570)" d="M1248.38 1528.51 L1251.84 1525.06 L1255.99 1529.21 L1252.54 1532.67 L1248.38 1528.51 M1235.21 1515.33 L1238.66 1511.88 L1242.82 1516.04 L1239.36 1519.49 L1235.21 1515.33 Z" fill="#000000" fill-rule="evenodd" fill-opacity="1" /><path clip-path="url(#clip570)" d="M1248.3 1492.38 Q1245.75 1494.94 1246.97 1498.75 Q1248.2 1502.53 1253.24 1507.57 Q1258.27 1512.6 1262.07 1513.84 Q1265.86 1515.05 1268.42 1512.5 Q1270.99 1509.93 1269.76 1506.15 Q1268.53 1502.34 1263.51 1497.31 Q1258.46 1492.27 1254.67 1491.06 Q1250.87 1489.81 1248.3 1492.38 M1245.68 1489.77 Q1249.79 1485.66 1255.21 1486.75 Q1260.63 1487.82 1266.81 1494 Q1272.98 1500.18 1274.06 1505.61 Q1275.14 1511.01 1271.04 1515.12 Q1266.93 1519.23 1261.51 1518.16 Q1256.09 1517.07 1249.92 1510.9 Q1243.73 1504.71 1242.65 1499.31 Q1241.57 1493.87 1245.68 1489.77 Z" fill="#000000" fill-rule="evenodd" fill-opacity="1" /><path clip-path="url(#clip570)" d="M1269.63 1471.06 Q1267.07 1473.61 1268.3 1477.42 Q1269.53 1481.2 1274.57 1486.25 Q1279.6 1491.27 1283.39 1492.52 Q1287.19 1493.73 1289.74 1491.17 Q1292.31 1488.6 1291.09 1484.82 Q1289.86 1481.01 1284.83 1475.98 Q1279.79 1470.94 1275.99 1469.73 Q1272.2 1468.49 1269.63 1471.06 M1267.01 1468.44 Q1271.12 1464.33 1276.53 1465.43 Q1281.95 1466.49 1288.14 1472.68 Q1294.31 1478.85 1295.39 1484.28 Q1296.47 1489.68 1292.36 1493.79 Q1288.25 1497.9 1282.84 1496.84 Q1277.42 1495.74 1271.25 1489.57 Q1265.06 1483.38 1263.98 1477.98 Q1262.9 1472.55 1267.01 1468.44 Z" fill="#000000" fill-rule="evenodd" fill-opacity="1" /><path clip-path="url(#clip570)" d="M1377.06 1570.03 L1388.6 1558.5 L1391.38 1561.28 L1375.87 1576.79 L1373.08 1574.01 Q1373.02 1570.18 1372.99 1563.67 Q1372.95 1557.12 1372.84 1555.34 Q1372.64 1551.96 1372.04 1550.11 Q1371.43 1548.23 1370.24 1547.04 Q1368.29 1545.09 1365.69 1545.24 Q1363.1 1545.37 1360.91 1547.56 Q1359.35 1549.12 1358.16 1551.39 Q1356.98 1553.65 1356.11 1556.71 L1352.77 1553.37 Q1353.97 1550.57 1355.29 1548.43 Q1356.62 1546.28 1358.06 1544.84 Q1361.86 1541.05 1366.01 1540.69 Q1370.17 1540.33 1373.35 1543.5 Q1374.85 1545.01 1375.64 1546.94 Q1376.42 1548.84 1376.77 1552.16 Q1376.83 1553.04 1376.91 1557.51 Q1376.98 1561.97 1377.06 1570.03 Z" fill="#000000" fill-rule="evenodd" fill-opacity="1" /><path clip-path="url(#clip570)" d="M1383.13 1525.01 Q1380.58 1527.56 1381.81 1531.37 Q1383.04 1535.15 1388.08 1540.2 Q1393.1 1545.22 1396.9 1546.46 Q1400.7 1547.68 1403.25 1545.12 Q1405.82 1542.55 1404.59 1538.77 Q1403.37 1534.96 1398.34 1529.93 Q1393.3 1524.89 1389.5 1523.68 Q1385.7 1522.44 1383.13 1525.01 M1380.52 1522.39 Q1384.62 1518.28 1390.04 1519.38 Q1395.46 1520.44 1401.65 1526.63 Q1407.82 1532.8 1408.9 1538.23 Q1409.98 1543.63 1405.87 1547.74 Q1401.76 1551.85 1396.34 1550.79 Q1390.93 1549.69 1384.76 1543.52 Q1378.57 1537.33 1377.49 1531.93 Q1376.41 1526.5 1380.52 1522.39 Z" fill="#000000" fill-rule="evenodd" fill-opacity="1" /><path clip-path="url(#clip570)" d="M1415.84 1528.51 L1419.29 1525.06 L1423.45 1529.21 L1420 1532.67 L1415.84 1528.51 M1402.66 1515.33 L1406.12 1511.88 L1410.27 1516.04 L1406.82 1519.49 L1402.66 1515.33 Z" fill="#000000" fill-rule="evenodd" fill-opacity="1" /><path clip-path="url(#clip570)" d="M1415.76 1492.38 Q1413.2 1494.94 1414.43 1498.75 Q1415.66 1502.53 1420.7 1507.57 Q1425.72 1512.6 1429.52 1513.84 Q1433.32 1515.05 1435.87 1512.5 Q1438.44 1509.93 1437.22 1506.15 Q1435.99 1502.34 1430.96 1497.31 Q1425.92 1492.27 1422.12 1491.06 Q1418.33 1489.81 1415.76 1492.38 M1413.14 1489.77 Q1417.25 1485.66 1422.66 1486.75 Q1428.08 1487.82 1434.27 1494 Q1440.44 1500.18 1441.52 1505.61 Q1442.6 1511.01 1438.49 1515.12 Q1434.38 1519.23 1428.97 1518.16 Q1423.55 1517.07 1417.38 1510.9 Q1411.19 1504.71 1410.11 1499.31 Q1409.03 1493.87 1413.14 1489.77 Z" fill="#000000" fill-rule="evenodd" fill-opacity="1" /><path clip-path="url(#clip570)" d="M1437.08 1471.06 Q1434.53 1473.61 1435.76 1477.42 Q1436.99 1481.2 1442.03 1486.25 Q1447.05 1491.27 1450.85 1492.52 Q1454.65 1493.73 1457.2 1491.17 Q1459.77 1488.6 1458.54 1484.82 Q1457.32 1481.01 1452.29 1475.98 Q1447.25 1470.94 1443.45 1469.73 Q1439.65 1468.49 1437.08 1471.06 M1434.47 1468.44 Q1438.57 1464.33 1443.99 1465.43 Q1449.41 1466.49 1455.6 1472.68 Q1461.77 1478.85 1462.85 1484.28 Q1463.93 1489.68 1459.82 1493.79 Q1455.71 1497.9 1450.29 1496.84 Q1444.88 1495.74 1438.7 1489.57 Q1432.52 1483.38 1431.44 1477.98 Q1430.36 1472.55 1434.47 1468.44 Z" fill="#000000" fill-rule="evenodd" fill-opacity="1" /><path clip-path="url(#clip570)" d="M1544.52 1570.03 L1556.06 1558.5 L1558.84 1561.28 L1543.32 1576.79 L1540.54 1574.01 Q1540.48 1570.18 1540.44 1563.67 Q1540.41 1557.12 1540.3 1555.34 Q1540.1 1551.96 1539.49 1550.11 Q1538.89 1548.23 1537.69 1547.04 Q1535.75 1545.09 1533.14 1545.24 Q1530.56 1545.37 1528.36 1547.56 Q1526.81 1549.12 1525.61 1551.39 Q1524.44 1553.65 1523.57 1556.71 L1520.23 1553.37 Q1521.42 1550.57 1522.75 1548.43 Q1524.07 1546.28 1525.52 1544.84 Q1529.31 1541.05 1533.47 1540.69 Q1537.63 1540.33 1540.8 1543.5 Q1542.31 1545.01 1543.09 1546.94 Q1543.88 1548.84 1544.22 1552.16 Q1544.29 1553.04 1544.37 1557.51 Q1544.44 1561.97 1544.52 1570.03 Z" fill="#000000" fill-rule="evenodd" fill-opacity="1" /><path clip-path="url(#clip570)" d="M1563.57 1550.98 L1568.97 1545.58 L1550.33 1526.94 L1545.63 1533.99 L1542.62 1530.98 L1547.28 1523.96 L1550.59 1520.65 L1572.25 1542.31 L1577.65 1536.91 L1580.43 1539.69 L1566.35 1553.76 L1563.57 1550.98 Z" fill="#000000" fill-rule="evenodd" fill-opacity="1" /><path clip-path="url(#clip570)" d="M1583.29 1528.51 L1586.75 1525.06 L1590.91 1529.21 L1587.45 1532.67 L1583.29 1528.51 M1570.12 1515.33 L1573.57 1511.88 L1577.73 1516.04 L1574.28 1519.49 L1570.12 1515.33 Z" fill="#000000" fill-rule="evenodd" fill-opacity="1" /><path clip-path="url(#clip570)" d="M1583.21 1492.38 Q1580.66 1494.94 1581.89 1498.75 Q1583.11 1502.53 1588.16 1507.57 Q1593.18 1512.6 1596.98 1513.84 Q1600.78 1515.05 1603.33 1512.5 Q1605.9 1509.93 1604.67 1506.15 Q1603.44 1502.34 1598.42 1497.31 Q1593.38 1492.27 1589.58 1491.06 Q1585.78 1489.81 1583.21 1492.38 M1580.59 1489.77 Q1584.7 1485.66 1590.12 1486.75 Q1595.54 1487.82 1601.73 1494 Q1607.9 1500.18 1608.98 1505.61 Q1610.06 1511.01 1605.95 1515.12 Q1601.84 1519.23 1596.42 1518.16 Q1591 1517.07 1584.83 1510.9 Q1578.65 1504.71 1577.57 1499.31 Q1576.49 1493.87 1580.59 1489.77 Z" fill="#000000" fill-rule="evenodd" fill-opacity="1" /><path clip-path="url(#clip570)" d="M1604.54 1471.06 Q1601.99 1473.61 1603.21 1477.42 Q1604.44 1481.2 1609.48 1486.25 Q1614.51 1491.27 1618.31 1492.52 Q1622.1 1493.73 1624.66 1491.17 Q1627.23 1488.6 1626 1484.82 Q1624.77 1481.01 1619.75 1475.98 Q1614.71 1470.94 1610.91 1469.73 Q1607.11 1468.49 1604.54 1471.06 M1601.92 1468.44 Q1606.03 1464.33 1611.45 1465.43 Q1616.87 1466.49 1623.05 1472.68 Q1629.22 1478.85 1630.3 1484.28 Q1631.38 1489.68 1627.28 1493.79 Q1623.17 1497.9 1617.75 1496.84 Q1612.33 1495.74 1606.16 1489.57 Q1599.97 1483.38 1598.89 1477.98 Q1597.81 1472.55 1601.92 1468.44 Z" fill="#000000" fill-rule="evenodd" fill-opacity="1" /><path clip-path="url(#clip570)" d="M1711.98 1570.03 L1723.51 1558.5 L1726.3 1561.28 L1710.78 1576.79 L1708 1574.01 Q1707.93 1570.18 1707.9 1563.67 Q1707.87 1557.12 1707.75 1555.34 Q1707.56 1551.96 1706.95 1550.11 Q1706.34 1548.23 1705.15 1547.04 Q1703.2 1545.09 1700.6 1545.24 Q1698.01 1545.37 1695.82 1547.56 Q1694.27 1549.12 1693.07 1551.39 Q1691.89 1553.65 1691.02 1556.71 L1687.69 1553.37 Q1688.88 1550.57 1690.21 1548.43 Q1691.53 1546.28 1692.97 1544.84 Q1696.77 1541.05 1700.93 1540.69 Q1705.08 1540.33 1708.26 1543.5 Q1709.77 1545.01 1710.55 1546.94 Q1711.34 1548.84 1711.68 1552.16 Q1711.75 1553.04 1711.83 1557.51 Q1711.89 1561.97 1711.98 1570.03 Z" fill="#000000" fill-rule="evenodd" fill-opacity="1" /><path clip-path="url(#clip570)" d="M1733.3 1548.71 L1744.84 1537.17 L1747.63 1539.95 L1732.11 1555.47 L1729.33 1552.68 Q1729.26 1548.85 1729.23 1542.34 Q1729.19 1535.79 1729.08 1534.01 Q1728.88 1530.64 1728.28 1528.79 Q1727.67 1526.9 1726.48 1525.71 Q1724.53 1523.76 1721.93 1523.91 Q1719.34 1524.04 1717.15 1526.23 Q1715.59 1527.79 1714.4 1530.06 Q1713.22 1532.32 1712.35 1535.38 L1709.01 1532.04 Q1710.21 1529.25 1711.53 1527.1 Q1712.86 1524.96 1714.3 1523.52 Q1718.1 1519.72 1722.25 1519.36 Q1726.41 1519 1729.59 1522.17 Q1731.09 1523.68 1731.88 1525.61 Q1732.66 1527.51 1733.01 1530.83 Q1733.07 1531.72 1733.16 1536.19 Q1733.22 1540.64 1733.3 1548.71 Z" fill="#000000" fill-rule="evenodd" fill-opacity="1" /><path clip-path="url(#clip570)" d="M1750.75 1528.51 L1754.21 1525.06 L1758.36 1529.21 L1754.91 1532.67 L1750.75 1528.51 M1737.58 1515.33 L1741.03 1511.88 L1745.19 1516.04 L1741.73 1519.49 L1737.58 1515.33 Z" fill="#000000" fill-rule="evenodd" fill-opacity="1" /><path clip-path="url(#clip570)" d="M1750.67 1492.38 Q1748.12 1494.94 1749.34 1498.75 Q1750.57 1502.53 1755.61 1507.57 Q1760.64 1512.6 1764.44 1513.84 Q1768.23 1515.05 1770.79 1512.5 Q1773.36 1509.93 1772.13 1506.15 Q1770.9 1502.34 1765.88 1497.31 Q1760.83 1492.27 1757.04 1491.06 Q1753.24 1489.81 1750.67 1492.38 M1748.05 1489.77 Q1752.16 1485.66 1757.58 1486.75 Q1762.99 1487.82 1769.18 1494 Q1775.35 1500.18 1776.43 1505.61 Q1777.51 1511.01 1773.4 1515.12 Q1769.3 1519.23 1763.88 1518.16 Q1758.46 1517.07 1752.29 1510.9 Q1746.1 1504.71 1745.02 1499.31 Q1743.94 1493.87 1748.05 1489.77 Z" fill="#000000" fill-rule="evenodd" fill-opacity="1" /><path clip-path="url(#clip570)" d="M1772 1471.06 Q1769.44 1473.61 1770.67 1477.42 Q1771.9 1481.2 1776.94 1486.25 Q1781.97 1491.27 1785.76 1492.52 Q1789.56 1493.73 1792.11 1491.17 Q1794.68 1488.6 1793.46 1484.82 Q1792.23 1481.01 1787.2 1475.98 Q1782.16 1470.94 1778.36 1469.73 Q1774.57 1468.49 1772 1471.06 M1769.38 1468.44 Q1773.49 1464.33 1778.9 1465.43 Q1784.32 1466.49 1790.51 1472.68 Q1796.68 1478.85 1797.76 1484.28 Q1798.84 1489.68 1794.73 1493.79 Q1790.62 1497.9 1785.21 1496.84 Q1779.79 1495.74 1773.62 1489.57 Q1767.43 1483.38 1766.35 1477.98 Q1765.27 1472.55 1769.38 1468.44 Z" fill="#000000" fill-rule="evenodd" fill-opacity="1" /><path clip-path="url(#clip570)" d="M1879.43 1570.03 L1890.97 1558.5 L1893.75 1561.28 L1878.24 1576.79 L1875.45 1574.01 Q1875.39 1570.18 1875.36 1563.67 Q1875.32 1557.12 1875.21 1555.34 Q1875.01 1551.96 1874.41 1550.11 Q1873.8 1548.23 1872.61 1547.04 Q1870.66 1545.09 1868.06 1545.24 Q1865.47 1545.37 1863.28 1547.56 Q1861.72 1549.12 1860.53 1551.39 Q1859.35 1553.65 1858.48 1556.71 L1855.14 1553.37 Q1856.34 1550.57 1857.66 1548.43 Q1858.99 1546.28 1860.43 1544.84 Q1864.23 1541.05 1868.38 1540.69 Q1872.54 1540.33 1875.72 1543.5 Q1877.22 1545.01 1878.01 1546.94 Q1878.79 1548.84 1879.14 1552.16 Q1879.2 1553.04 1879.28 1557.51 Q1879.35 1561.97 1879.43 1570.03 Z" fill="#000000" fill-rule="evenodd" fill-opacity="1" /><path clip-path="url(#clip570)" d="M1897.54 1531.14 Q1900.42 1529.28 1903.35 1529.56 Q1906.29 1529.82 1908.65 1532.18 Q1912.27 1535.79 1911.76 1540.26 Q1911.25 1544.73 1906.67 1549.31 Q1905.13 1550.85 1903.18 1552.18 Q1901.27 1553.5 1898.93 1554.63 L1895.73 1551.44 Q1897.91 1550.87 1899.96 1549.64 Q1902 1548.41 1903.79 1546.63 Q1906.9 1543.52 1907.29 1540.67 Q1907.7 1537.81 1905.36 1535.47 Q1903.2 1533.3 1900.46 1533.62 Q1897.73 1533.89 1895.03 1536.59 L1892.18 1539.44 L1889.47 1536.73 L1892.44 1533.75 Q1894.88 1531.31 1895.21 1529.05 Q1895.52 1526.77 1893.69 1524.94 Q1891.81 1523.06 1889.47 1523.4 Q1887.12 1523.71 1884.64 1526.2 Q1883.28 1527.56 1882.02 1529.41 Q1880.76 1531.26 1879.51 1533.75 L1876.57 1530.8 Q1877.93 1528.39 1879.3 1526.5 Q1880.69 1524.58 1882.15 1523.12 Q1885.91 1519.36 1889.83 1518.88 Q1893.72 1518.39 1896.63 1521.31 Q1898.66 1523.34 1898.91 1525.91 Q1899.14 1528.46 1897.54 1531.14 Z" fill="#000000" fill-rule="evenodd" fill-opacity="1" /><path clip-path="url(#clip570)" d="M1918.21 1528.51 L1921.66 1525.06 L1925.82 1529.21 L1922.37 1532.67 L1918.21 1528.51 M1905.03 1515.33 L1908.49 1511.88 L1912.64 1516.04 L1909.19 1519.49 L1905.03 1515.33 Z" fill="#000000" fill-rule="evenodd" fill-opacity="1" /><path clip-path="url(#clip570)" d="M1918.13 1492.38 Q1915.57 1494.94 1916.8 1498.75 Q1918.03 1502.53 1923.07 1507.57 Q1928.09 1512.6 1931.89 1513.84 Q1935.69 1515.05 1938.24 1512.5 Q1940.81 1509.93 1939.58 1506.15 Q1938.36 1502.34 1933.33 1497.31 Q1928.29 1492.27 1924.49 1491.06 Q1920.7 1489.81 1918.13 1492.38 M1915.51 1489.77 Q1919.62 1485.66 1925.03 1486.75 Q1930.45 1487.82 1936.64 1494 Q1942.81 1500.18 1943.89 1505.61 Q1944.97 1511.01 1940.86 1515.12 Q1936.75 1519.23 1931.34 1518.16 Q1925.92 1517.07 1919.75 1510.9 Q1913.56 1504.71 1912.48 1499.31 Q1911.4 1493.87 1915.51 1489.77 Z" fill="#000000" fill-rule="evenodd" fill-opacity="1" /><path clip-path="url(#clip570)" d="M1939.45 1471.06 Q1936.9 1473.61 1938.13 1477.42 Q1939.36 1481.2 1944.4 1486.25 Q1949.42 1491.27 1953.22 1492.52 Q1957.02 1493.73 1959.57 1491.17 Q1962.14 1488.6 1960.91 1484.82 Q1959.68 1481.01 1954.66 1475.98 Q1949.62 1470.94 1945.82 1469.73 Q1942.02 1468.49 1939.45 1471.06 M1936.83 1468.44 Q1940.94 1464.33 1946.36 1465.43 Q1951.78 1466.49 1957.97 1472.68 Q1964.14 1478.85 1965.22 1484.28 Q1966.3 1489.68 1962.19 1493.79 Q1958.08 1497.9 1952.66 1496.84 Q1947.25 1495.74 1941.07 1489.57 Q1934.89 1483.38 1933.81 1477.98 Q1932.73 1472.55 1936.83 1468.44 Z" fill="#000000" fill-rule="evenodd" fill-opacity="1" /><path clip-path="url(#clip570)" d="M2031.63 1546.33 Q2029.08 1548.89 2030.31 1552.7 Q2031.54 1556.48 2036.58 1561.52 Q2041.6 1566.55 2045.4 1567.79 Q2049.2 1569 2051.75 1566.45 Q2054.32 1563.88 2053.09 1560.1 Q2051.86 1556.29 2046.84 1551.26 Q2041.8 1546.22 2038 1545.01 Q2034.2 1543.76 2031.63 1546.33 M2029.01 1543.71 Q2033.12 1539.61 2038.54 1540.7 Q2043.96 1541.77 2050.15 1547.95 Q2056.32 1554.12 2057.4 1559.56 Q2058.48 1564.96 2054.37 1569.07 Q2050.26 1573.18 2044.84 1572.11 Q2039.42 1571.02 2033.25 1564.85 Q2027.07 1558.66 2025.99 1553.26 Q2024.91 1547.82 2029.01 1543.71 Z" fill="#000000" fill-rule="evenodd" fill-opacity="1" /><path clip-path="url(#clip570)" d="M2052.96 1525.01 Q2050.41 1527.56 2051.64 1531.37 Q2052.86 1535.15 2057.9 1540.2 Q2062.93 1545.22 2066.73 1546.46 Q2070.52 1547.68 2073.08 1545.12 Q2075.65 1542.55 2074.42 1538.77 Q2073.19 1534.96 2068.17 1529.93 Q2063.13 1524.89 2059.33 1523.68 Q2055.53 1522.44 2052.96 1525.01 M2050.34 1522.39 Q2054.45 1518.28 2059.87 1519.38 Q2065.29 1520.44 2071.47 1526.63 Q2077.64 1532.8 2078.72 1538.23 Q2079.8 1543.63 2075.7 1547.74 Q2071.59 1551.85 2066.17 1550.79 Q2060.75 1549.69 2054.58 1543.52 Q2048.39 1537.33 2047.31 1531.93 Q2046.23 1526.5 2050.34 1522.39 Z" fill="#000000" fill-rule="evenodd" fill-opacity="1" /><path clip-path="url(#clip570)" d="M2085.66 1528.51 L2089.12 1525.06 L2093.28 1529.21 L2089.82 1532.67 L2085.66 1528.51 M2072.49 1515.33 L2075.94 1511.88 L2080.1 1516.04 L2076.65 1519.49 L2072.49 1515.33 Z" fill="#000000" fill-rule="evenodd" fill-opacity="1" /><path clip-path="url(#clip570)" d="M2085.58 1492.38 Q2083.03 1494.94 2084.26 1498.75 Q2085.48 1502.53 2090.53 1507.57 Q2095.55 1512.6 2099.35 1513.84 Q2103.15 1515.05 2105.7 1512.5 Q2108.27 1509.93 2107.04 1506.15 Q2105.81 1502.34 2100.79 1497.31 Q2095.75 1492.27 2091.95 1491.06 Q2088.15 1489.81 2085.58 1492.38 M2082.96 1489.77 Q2087.07 1485.66 2092.49 1486.75 Q2097.91 1487.82 2104.1 1494 Q2110.27 1500.18 2111.35 1505.61 Q2112.43 1511.01 2108.32 1515.12 Q2104.21 1519.23 2098.79 1518.16 Q2093.37 1517.07 2087.2 1510.9 Q2081.02 1504.71 2079.94 1499.31 Q2078.86 1493.87 2082.96 1489.77 Z" fill="#000000" fill-rule="evenodd" fill-opacity="1" /><path clip-path="url(#clip570)" d="M2106.91 1471.06 Q2104.36 1473.61 2105.58 1477.42 Q2106.81 1481.2 2111.85 1486.25 Q2116.88 1491.27 2120.68 1492.52 Q2124.47 1493.73 2127.03 1491.17 Q2129.6 1488.6 2128.37 1484.82 Q2127.14 1481.01 2122.12 1475.98 Q2117.08 1470.94 2113.28 1469.73 Q2109.48 1468.49 2106.91 1471.06 M2104.29 1468.44 Q2108.4 1464.33 2113.82 1465.43 Q2119.24 1466.49 2125.42 1472.68 Q2131.59 1478.85 2132.67 1484.28 Q2133.75 1489.68 2129.65 1493.79 Q2125.54 1497.9 2120.12 1496.84 Q2114.7 1495.74 2108.53 1489.57 Q2102.34 1483.38 2101.26 1477.98 Q2100.18 1472.55 2104.29 1468.44 Z" fill="#000000" fill-rule="evenodd" fill-opacity="1" /><polyline clip-path="url(#clip572)" style="stroke:#000000; stroke-linecap:butt; stroke-linejoin:round; stroke-width:2; stroke-opacity:0.1; fill:none" points="
  223.103,1135.57 2352.76,1135.57 
  "/>
<polyline clip-path="url(#clip572)" style="stroke:#000000; stroke-linecap:butt; stroke-linejoin:round; stroke-width:2; stroke-opacity:0.1; fill:none" points="
  223.103,803.669 2352.76,803.669 
  "/>
<polyline clip-path="url(#clip572)" style="stroke:#000000; stroke-linecap:butt; stroke-linejoin:round; stroke-width:2; stroke-opacity:0.1; fill:none" points="
  223.103,471.769 2352.76,471.769 
  "/>
<polyline clip-path="url(#clip572)" style="stroke:#000000; stroke-linecap:butt; stroke-linejoin:round; stroke-width:2; stroke-opacity:0.1; fill:none" points="
  223.103,139.868 2352.76,139.868 
  "/>
<polyline clip-path="url(#clip570)" style="stroke:#000000; stroke-linecap:butt; stroke-linejoin:round; stroke-width:4; stroke-opacity:1; fill:none" points="
  223.103,1435.12 223.103,123.472 
  "/>
<polyline clip-path="url(#clip570)" style="stroke:#000000; stroke-linecap:butt; stroke-linejoin:round; stroke-width:4; stroke-opacity:1; fill:none" points="
  223.103,1135.57 242,1135.57 
  "/>
<polyline clip-path="url(#clip570)" style="stroke:#000000; stroke-linecap:butt; stroke-linejoin:round; stroke-width:4; stroke-opacity:1; fill:none" points="
  223.103,803.669 242,803.669 
  "/>
<polyline clip-path="url(#clip570)" style="stroke:#000000; stroke-linecap:butt; stroke-linejoin:round; stroke-width:4; stroke-opacity:1; fill:none" points="
  223.103,471.769 242,471.769 
  "/>
<polyline clip-path="url(#clip570)" style="stroke:#000000; stroke-linecap:butt; stroke-linejoin:round; stroke-width:4; stroke-opacity:1; fill:none" points="
  223.103,139.868 242,139.868 
  "/>
<path clip-path="url(#clip570)" d="M50.9921 1136.02 L80.6679 1136.02 L80.6679 1139.96 L50.9921 1139.96 L50.9921 1136.02 Z" fill="#000000" fill-rule="evenodd" fill-opacity="1" /><path clip-path="url(#clip570)" d="M100.76 1121.37 Q97.1493 1121.37 95.3206 1124.93 Q93.515 1128.47 93.515 1135.6 Q93.515 1142.71 95.3206 1146.28 Q97.1493 1149.82 100.76 1149.82 Q104.395 1149.82 106.2 1146.28 Q108.029 1142.71 108.029 1135.6 Q108.029 1128.47 106.2 1124.93 Q104.395 1121.37 100.76 1121.37 M100.76 1117.66 Q106.571 1117.66 109.626 1122.27 Q112.705 1126.85 112.705 1135.6 Q112.705 1144.33 109.626 1148.94 Q106.571 1153.52 100.76 1153.52 Q94.9502 1153.52 91.8715 1148.94 Q88.816 1144.33 88.816 1135.6 Q88.816 1126.85 91.8715 1122.27 Q94.9502 1117.66 100.76 1117.66 Z" fill="#000000" fill-rule="evenodd" fill-opacity="1" /><path clip-path="url(#clip570)" d="M120.922 1146.97 L125.807 1146.97 L125.807 1152.85 L120.922 1152.85 L120.922 1146.97 Z" fill="#000000" fill-rule="evenodd" fill-opacity="1" /><path clip-path="url(#clip570)" d="M145.992 1121.37 Q142.381 1121.37 140.552 1124.93 Q138.746 1128.47 138.746 1135.6 Q138.746 1142.71 140.552 1146.28 Q142.381 1149.82 145.992 1149.82 Q149.626 1149.82 151.431 1146.28 Q153.26 1142.71 153.26 1135.6 Q153.26 1128.47 151.431 1124.93 Q149.626 1121.37 145.992 1121.37 M145.992 1117.66 Q151.802 1117.66 154.857 1122.27 Q157.936 1126.85 157.936 1135.6 Q157.936 1144.33 154.857 1148.94 Q151.802 1153.52 145.992 1153.52 Q140.181 1153.52 137.103 1148.94 Q134.047 1144.33 134.047 1135.6 Q134.047 1126.85 137.103 1122.27 Q140.181 1117.66 145.992 1117.66 Z" fill="#000000" fill-rule="evenodd" fill-opacity="1" /><path clip-path="url(#clip570)" d="M166.2 1118.29 L184.556 1118.29 L184.556 1122.22 L170.482 1122.22 L170.482 1130.7 Q171.501 1130.35 172.519 1130.19 Q173.538 1130 174.556 1130 Q180.343 1130 183.723 1133.17 Q187.103 1136.34 187.103 1141.76 Q187.103 1147.34 183.63 1150.44 Q180.158 1153.52 173.839 1153.52 Q171.663 1153.52 169.394 1153.15 Q167.149 1152.78 164.742 1152.04 L164.742 1147.34 Q166.825 1148.47 169.047 1149.03 Q171.269 1149.59 173.746 1149.59 Q177.751 1149.59 180.089 1147.48 Q182.427 1145.37 182.427 1141.76 Q182.427 1138.15 180.089 1136.04 Q177.751 1133.94 173.746 1133.94 Q171.871 1133.94 169.996 1134.35 Q168.144 1134.77 166.2 1135.65 L166.2 1118.29 Z" fill="#000000" fill-rule="evenodd" fill-opacity="1" /><path clip-path="url(#clip570)" d="M99.765 789.468 Q96.1539 789.468 94.3252 793.033 Q92.5197 796.574 92.5197 803.704 Q92.5197 810.81 94.3252 814.375 Q96.1539 817.917 99.765 817.917 Q103.399 817.917 105.205 814.375 Q107.033 810.81 107.033 803.704 Q107.033 796.574 105.205 793.033 Q103.399 789.468 99.765 789.468 M99.765 785.764 Q105.575 785.764 108.631 790.371 Q111.709 794.954 111.709 803.704 Q111.709 812.431 108.631 817.037 Q105.575 821.62 99.765 821.62 Q93.9549 821.62 90.8762 817.037 Q87.8206 812.431 87.8206 803.704 Q87.8206 794.954 90.8762 790.371 Q93.9549 785.764 99.765 785.764 Z" fill="#000000" fill-rule="evenodd" fill-opacity="1" /><path clip-path="url(#clip570)" d="M119.927 815.07 L124.811 815.07 L124.811 820.949 L119.927 820.949 L119.927 815.07 Z" fill="#000000" fill-rule="evenodd" fill-opacity="1" /><path clip-path="url(#clip570)" d="M144.996 789.468 Q141.385 789.468 139.556 793.033 Q137.751 796.574 137.751 803.704 Q137.751 810.81 139.556 814.375 Q141.385 817.917 144.996 817.917 Q148.63 817.917 150.436 814.375 Q152.265 810.81 152.265 803.704 Q152.265 796.574 150.436 793.033 Q148.63 789.468 144.996 789.468 M144.996 785.764 Q150.806 785.764 153.862 790.371 Q156.941 794.954 156.941 803.704 Q156.941 812.431 153.862 817.037 Q150.806 821.62 144.996 821.62 Q139.186 821.62 136.107 817.037 Q133.052 812.431 133.052 803.704 Q133.052 794.954 136.107 790.371 Q139.186 785.764 144.996 785.764 Z" fill="#000000" fill-rule="evenodd" fill-opacity="1" /><path clip-path="url(#clip570)" d="M175.158 789.468 Q171.547 789.468 169.718 793.033 Q167.913 796.574 167.913 803.704 Q167.913 810.81 169.718 814.375 Q171.547 817.917 175.158 817.917 Q178.792 817.917 180.598 814.375 Q182.427 810.81 182.427 803.704 Q182.427 796.574 180.598 793.033 Q178.792 789.468 175.158 789.468 M175.158 785.764 Q180.968 785.764 184.024 790.371 Q187.103 794.954 187.103 803.704 Q187.103 812.431 184.024 817.037 Q180.968 821.62 175.158 821.62 Q169.348 821.62 166.269 817.037 Q163.214 812.431 163.214 803.704 Q163.214 794.954 166.269 790.371 Q169.348 785.764 175.158 785.764 Z" fill="#000000" fill-rule="evenodd" fill-opacity="1" /><path clip-path="url(#clip570)" d="M100.76 457.567 Q97.1493 457.567 95.3206 461.132 Q93.515 464.674 93.515 471.804 Q93.515 478.91 95.3206 482.475 Q97.1493 486.016 100.76 486.016 Q104.395 486.016 106.2 482.475 Q108.029 478.91 108.029 471.804 Q108.029 464.674 106.2 461.132 Q104.395 457.567 100.76 457.567 M100.76 453.864 Q106.571 453.864 109.626 458.47 Q112.705 463.054 112.705 471.804 Q112.705 480.53 109.626 485.137 Q106.571 489.72 100.76 489.72 Q94.9502 489.72 91.8715 485.137 Q88.816 480.53 88.816 471.804 Q88.816 463.054 91.8715 458.47 Q94.9502 453.864 100.76 453.864 Z" fill="#000000" fill-rule="evenodd" fill-opacity="1" /><path clip-path="url(#clip570)" d="M120.922 483.169 L125.807 483.169 L125.807 489.049 L120.922 489.049 L120.922 483.169 Z" fill="#000000" fill-rule="evenodd" fill-opacity="1" /><path clip-path="url(#clip570)" d="M145.992 457.567 Q142.381 457.567 140.552 461.132 Q138.746 464.674 138.746 471.804 Q138.746 478.91 140.552 482.475 Q142.381 486.016 145.992 486.016 Q149.626 486.016 151.431 482.475 Q153.26 478.91 153.26 471.804 Q153.26 464.674 151.431 461.132 Q149.626 457.567 145.992 457.567 M145.992 453.864 Q151.802 453.864 154.857 458.47 Q157.936 463.054 157.936 471.804 Q157.936 480.53 154.857 485.137 Q151.802 489.72 145.992 489.72 Q140.181 489.72 137.103 485.137 Q134.047 480.53 134.047 471.804 Q134.047 463.054 137.103 458.47 Q140.181 453.864 145.992 453.864 Z" fill="#000000" fill-rule="evenodd" fill-opacity="1" /><path clip-path="url(#clip570)" d="M166.2 454.489 L184.556 454.489 L184.556 458.424 L170.482 458.424 L170.482 466.896 Q171.501 466.549 172.519 466.387 Q173.538 466.202 174.556 466.202 Q180.343 466.202 183.723 469.373 Q187.103 472.544 187.103 477.961 Q187.103 483.54 183.63 486.641 Q180.158 489.72 173.839 489.72 Q171.663 489.72 169.394 489.35 Q167.149 488.979 164.742 488.239 L164.742 483.54 Q166.825 484.674 169.047 485.229 Q171.269 485.785 173.746 485.785 Q177.751 485.785 180.089 483.678 Q182.427 481.572 182.427 477.961 Q182.427 474.35 180.089 472.243 Q177.751 470.137 173.746 470.137 Q171.871 470.137 169.996 470.554 Q168.144 470.97 166.2 471.85 L166.2 454.489 Z" fill="#000000" fill-rule="evenodd" fill-opacity="1" /><path clip-path="url(#clip570)" d="M99.765 125.667 Q96.1539 125.667 94.3252 129.232 Q92.5197 132.774 92.5197 139.903 Q92.5197 147.01 94.3252 150.574 Q96.1539 154.116 99.765 154.116 Q103.399 154.116 105.205 150.574 Q107.033 147.01 107.033 139.903 Q107.033 132.774 105.205 129.232 Q103.399 125.667 99.765 125.667 M99.765 121.963 Q105.575 121.963 108.631 126.57 Q111.709 131.153 111.709 139.903 Q111.709 148.63 108.631 153.236 Q105.575 157.82 99.765 157.82 Q93.9549 157.82 90.8762 153.236 Q87.8206 148.63 87.8206 139.903 Q87.8206 131.153 90.8762 126.57 Q93.9549 121.963 99.765 121.963 Z" fill="#000000" fill-rule="evenodd" fill-opacity="1" /><path clip-path="url(#clip570)" d="M119.927 151.269 L124.811 151.269 L124.811 157.148 L119.927 157.148 L119.927 151.269 Z" fill="#000000" fill-rule="evenodd" fill-opacity="1" /><path clip-path="url(#clip570)" d="M135.806 153.213 L143.445 153.213 L143.445 126.848 L135.135 128.514 L135.135 124.255 L143.399 122.588 L148.075 122.588 L148.075 153.213 L155.714 153.213 L155.714 157.148 L135.806 157.148 L135.806 153.213 Z" fill="#000000" fill-rule="evenodd" fill-opacity="1" /><path clip-path="url(#clip570)" d="M175.158 125.667 Q171.547 125.667 169.718 129.232 Q167.913 132.774 167.913 139.903 Q167.913 147.01 169.718 150.574 Q171.547 154.116 175.158 154.116 Q178.792 154.116 180.598 150.574 Q182.427 147.01 182.427 139.903 Q182.427 132.774 180.598 129.232 Q178.792 125.667 175.158 125.667 M175.158 121.963 Q180.968 121.963 184.024 126.57 Q187.103 131.153 187.103 139.903 Q187.103 148.63 184.024 153.236 Q180.968 157.82 175.158 157.82 Q169.348 157.82 166.269 153.236 Q163.214 148.63 163.214 139.903 Q163.214 131.153 166.269 126.57 Q169.348 121.963 175.158 121.963 Z" fill="#000000" fill-rule="evenodd" fill-opacity="1" /><path clip-path="url(#clip570)" d="M1136.63 63.9476 L1136.63 47.7034 L1123.26 47.7034 L1123.26 40.9789 L1144.73 40.9789 L1144.73 66.9452 Q1139.99 70.3075 1134.28 72.0494 Q1128.57 73.7508 1122.09 73.7508 Q1107.91 73.7508 1099.89 65.4869 Q1091.91 57.1826 1091.91 42.3968 Q1091.91 27.5705 1099.89 19.3066 Q1107.91 11.0023 1122.09 11.0023 Q1128 11.0023 1133.31 12.4606 Q1138.65 13.9189 1143.15 16.7545 L1143.15 25.464 Q1138.61 21.6156 1133.51 19.6712 Q1128.4 17.7268 1122.77 17.7268 Q1111.67 17.7268 1106.08 23.9246 Q1100.53 30.1225 1100.53 42.3968 Q1100.53 54.6305 1106.08 60.8284 Q1111.67 67.0263 1122.77 67.0263 Q1127.11 67.0263 1130.51 66.2971 Q1133.91 65.5274 1136.63 63.9476 Z" fill="#000000" fill-rule="evenodd" fill-opacity="1" /><path clip-path="url(#clip570)" d="M1179.97 49.7694 Q1170.94 49.7694 1167.46 51.8354 Q1163.97 53.9013 1163.97 58.8839 Q1163.97 62.8538 1166.56 65.2034 Q1169.2 67.5124 1173.69 67.5124 Q1179.89 67.5124 1183.62 63.1374 Q1187.39 58.7219 1187.39 51.4303 L1187.39 49.7694 L1179.97 49.7694 M1194.84 46.6907 L1194.84 72.576 L1187.39 72.576 L1187.39 65.6895 Q1184.83 69.8214 1181.03 71.8063 Q1177.22 73.7508 1171.71 73.7508 Q1164.74 73.7508 1160.61 69.8619 Q1156.52 65.9325 1156.52 59.3701 Q1156.52 51.7138 1161.62 47.825 Q1166.77 43.9361 1176.93 43.9361 L1187.39 43.9361 L1187.39 43.2069 Q1187.39 38.0623 1183.98 35.2672 Q1180.62 32.4315 1174.5 32.4315 Q1170.62 32.4315 1166.93 33.3632 Q1163.24 34.295 1159.84 36.1584 L1159.84 29.2718 Q1163.93 27.692 1167.78 26.9223 Q1171.63 26.1121 1175.27 26.1121 Q1185.12 26.1121 1189.98 31.2163 Q1194.84 36.3204 1194.84 46.6907 Z" fill="#000000" fill-rule="evenodd" fill-opacity="1" /><path clip-path="url(#clip570)" d="M1209.42 54.671 L1209.42 27.2059 L1216.88 27.2059 L1216.88 54.3874 Q1216.88 60.8284 1219.39 64.0691 Q1221.9 67.2693 1226.92 67.2693 Q1232.96 67.2693 1236.44 63.421 Q1239.97 59.5726 1239.97 52.9291 L1239.97 27.2059 L1247.42 27.2059 L1247.42 72.576 L1239.97 72.576 L1239.97 65.6084 Q1237.25 69.7404 1233.65 71.7658 Q1230.08 73.7508 1225.34 73.7508 Q1217.52 73.7508 1213.47 68.8897 Q1209.42 64.0286 1209.42 54.671 M1228.18 26.1121 L1228.18 26.1121 Z" fill="#000000" fill-rule="evenodd" fill-opacity="1" /><path clip-path="url(#clip570)" d="M1292.63 49.3643 Q1292.63 41.2625 1289.27 36.8065 Q1285.94 32.3505 1279.91 32.3505 Q1273.91 32.3505 1270.55 36.8065 Q1267.23 41.2625 1267.23 49.3643 Q1267.23 57.4256 1270.55 61.8816 Q1273.91 66.3376 1279.91 66.3376 Q1285.94 66.3376 1289.27 61.8816 Q1292.63 57.4256 1292.63 49.3643 M1300.08 66.9452 Q1300.08 78.5308 1294.94 84.1616 Q1289.79 89.8329 1279.18 89.8329 Q1275.25 89.8329 1271.77 89.2252 Q1268.28 88.6581 1265 87.4428 L1265 80.1917 Q1268.28 81.9741 1271.48 82.8248 Q1274.68 83.6755 1278 83.6755 Q1285.34 83.6755 1288.98 79.8271 Q1292.63 76.0193 1292.63 68.282 L1292.63 64.5957 Q1290.32 68.6061 1286.71 70.5911 Q1283.11 72.576 1278.09 72.576 Q1269.74 72.576 1264.64 66.2161 Q1259.53 59.8562 1259.53 49.3643 Q1259.53 38.832 1264.64 32.472 Q1269.74 26.1121 1278.09 26.1121 Q1283.11 26.1121 1286.71 28.0971 Q1290.32 30.082 1292.63 34.0924 L1292.63 27.2059 L1300.08 27.2059 L1300.08 66.9452 Z" fill="#000000" fill-rule="evenodd" fill-opacity="1" /><path clip-path="url(#clip570)" d="M1354.24 48.0275 L1354.24 51.6733 L1319.97 51.6733 Q1320.46 59.3701 1324.59 63.421 Q1328.76 67.4314 1336.18 67.4314 Q1340.47 67.4314 1344.48 66.3781 Q1348.53 65.3249 1352.5 63.2184 L1352.5 70.267 Q1348.49 71.9684 1344.28 72.8596 Q1340.06 73.7508 1335.73 73.7508 Q1324.87 73.7508 1318.51 67.4314 Q1312.19 61.1119 1312.19 50.3365 Q1312.19 39.1965 1318.19 32.6746 Q1324.23 26.1121 1334.43 26.1121 Q1343.59 26.1121 1348.9 32.0264 Q1354.24 37.9003 1354.24 48.0275 M1346.79 45.84 Q1346.71 39.7232 1343.35 36.0774 Q1340.02 32.4315 1334.51 32.4315 Q1328.28 32.4315 1324.51 35.9558 Q1320.78 39.4801 1320.21 45.8805 L1346.79 45.84 Z" fill="#000000" fill-rule="evenodd" fill-opacity="1" /><path clip-path="url(#clip570)" d="M1395.32 65.6895 L1408.69 65.6895 L1408.69 19.5497 L1394.14 22.4663 L1394.14 15.0127 L1408.61 12.096 L1416.79 12.096 L1416.79 65.6895 L1430.16 65.6895 L1430.16 72.576 L1395.32 72.576 L1395.32 65.6895 Z" fill="#000000" fill-rule="evenodd" fill-opacity="1" /><path clip-path="url(#clip570)" d="M1471.48 39.9662 Q1477.35 41.222 1480.63 45.1919 Q1483.95 49.1618 1483.95 54.9951 Q1483.95 63.9476 1477.8 68.8492 Q1471.64 73.7508 1460.3 73.7508 Q1456.49 73.7508 1452.44 72.9811 Q1448.43 72.2519 1444.13 70.7531 L1444.13 62.8538 Q1447.53 64.8388 1451.59 65.8515 Q1455.64 66.8642 1460.05 66.8642 Q1467.75 66.8642 1471.76 63.826 Q1475.81 60.7879 1475.81 54.9951 Q1475.81 49.6479 1472.04 46.6502 Q1468.32 43.612 1461.63 43.612 L1454.58 43.612 L1454.58 36.8875 L1461.96 36.8875 Q1467.99 36.8875 1471.19 34.4975 Q1474.39 32.067 1474.39 27.5299 Q1474.39 22.8714 1471.07 20.4004 Q1467.79 17.8888 1461.63 17.8888 Q1458.27 17.8888 1454.42 18.618 Q1450.57 19.3471 1445.95 20.8865 L1445.95 13.5948 Q1450.61 12.2985 1454.66 11.6504 Q1458.76 11.0023 1462.36 11.0023 Q1471.68 11.0023 1477.11 15.2557 Q1482.53 19.4686 1482.53 26.6793 Q1482.53 31.7024 1479.66 35.1862 Q1476.78 38.6294 1471.48 39.9662 Z" fill="#000000" fill-rule="evenodd" fill-opacity="1" /><polyline clip-path="url(#clip572)" style="stroke:#009af9; stroke-linecap:butt; stroke-linejoin:round; stroke-width:4; stroke-opacity:1; fill:none" points="
  283.376,803.669 283.422,803.669 285.329,803.669 287.237,803.669 289.144,803.669 291.051,803.669 292.958,803.669 294.912,803.669 296.819,803.669 298.726,803.669 
  300.633,803.669 302.54,803.669 304.447,803.669 306.354,803.669 308.262,803.669 310.169,803.669 311.285,803.669 313.192,803.669 315.099,803.669 317.007,803.669 
  318.914,803.669 320.821,803.669 322.775,803.669 324.682,803.669 326.589,803.669 328.496,803.669 330.403,803.669 332.31,803.669 334.217,803.669 336.125,803.669 
  338.032,803.669 339.195,803.669 341.102,803.669 343.009,803.669 344.916,803.669 346.823,803.669 348.73,803.669 350.684,803.669 352.591,803.669 354.498,803.669 
  356.405,803.669 358.313,803.669 360.22,803.669 362.127,803.669 364.034,803.669 365.941,803.669 367.104,803.669 369.011,803.669 370.918,803.669 372.825,803.669 
  374.733,803.669 376.64,803.669 378.593,803.669 380.501,803.669 382.408,803.669 384.315,803.669 386.222,803.669 388.129,803.669 390.036,803.669 391.943,803.669 
  393.851,803.669 395.013,803.669 396.921,803.669 398.828,803.669 400.735,803.669 402.642,803.669 404.549,803.669 406.503,803.669 408.41,803.669 410.317,803.669 
  412.224,803.669 414.131,803.669 416.039,803.669 417.946,803.669 419.853,803.669 421.76,803.669 422.923,803.669 424.83,803.669 426.737,803.669 428.644,803.669 
  430.551,803.669 432.459,803.669 434.412,803.669 436.319,803.669 438.227,803.669 440.134,803.669 442.041,803.669 443.948,803.669 445.855,803.669 447.762,803.669 
  449.669,803.669 450.832,803.669 452.739,803.669 454.647,803.669 456.554,803.669 458.461,803.669 460.368,803.669 462.322,803.669 464.229,803.669 466.136,803.669 
  468.043,803.669 469.95,803.669 471.857,803.669 473.765,803.669 475.672,803.669 477.579,803.669 478.742,803.669 480.649,803.669 482.556,803.669 484.463,803.669 
  486.37,803.669 488.277,803.669 490.231,803.669 492.138,803.669 494.045,803.669 495.953,803.669 497.86,803.669 499.767,803.669 501.674,803.669 503.581,803.669 
  505.488,803.669 506.651,803.669 508.558,803.669 510.465,803.669 512.373,803.669 514.28,803.669 516.187,803.669 518.141,803.669 520.048,803.669 521.955,803.669 
  523.862,803.669 525.769,803.669 527.676,803.669 529.583,803.669 531.491,803.669 533.398,803.669 534.561,803.669 536.468,803.669 538.375,803.669 540.282,803.669 
  542.189,803.669 544.096,803.669 546.05,803.669 547.957,803.669 549.864,803.669 551.771,803.669 553.679,803.669 555.586,803.669 557.493,803.669 559.4,803.669 
  561.307,803.669 562.47,803.669 564.377,803.669 566.284,803.669 568.191,803.669 570.099,803.669 572.006,803.669 573.959,803.669 575.867,803.669 577.774,803.669 
  579.681,803.669 581.588,803.669 583.495,803.669 585.402,803.669 587.309,803.669 589.217,803.669 590.379,803.669 592.287,803.669 594.194,803.669 596.101,803.669 
  598.008,803.669 599.915,803.669 601.869,803.669 603.776,803.669 605.683,803.669 607.59,803.669 609.497,803.669 611.405,803.669 613.312,803.669 615.219,803.669 
  617.126,803.669 618.289,803.669 620.196,803.669 622.103,803.669 624.01,803.669 625.917,803.669 627.825,803.669 629.778,803.669 631.685,803.669 633.593,803.669 
  635.5,803.669 637.407,803.669 639.314,803.669 641.221,803.669 643.128,803.669 645.035,803.669 646.198,803.669 648.105,803.669 650.013,803.669 651.92,803.669 
  653.827,803.669 655.734,803.669 657.688,803.669 659.595,803.669 661.502,803.669 663.409,803.669 665.316,803.669 667.223,803.669 669.131,803.669 671.038,803.669 
  672.945,803.669 674.108,803.669 676.015,803.669 677.922,803.669 679.829,803.669 681.736,803.669 683.643,803.669 685.597,803.669 687.504,803.669 689.411,803.669 
  691.319,803.669 693.226,803.669 695.133,803.669 697.04,803.669 698.947,803.669 700.854,803.669 702.017,803.669 703.924,803.669 705.831,803.669 707.739,803.669 
  709.646,803.669 711.553,803.669 713.507,803.669 715.414,803.669 717.321,803.669 719.228,803.669 721.135,803.669 723.042,803.669 724.949,803.669 726.857,803.669 
  728.764,803.669 729.927,803.669 731.834,803.669 733.741,803.669 735.648,803.669 737.555,803.669 739.462,803.669 741.416,803.669 743.323,803.669 745.23,803.669 
  747.137,803.669 749.045,803.669 750.952,803.669 752.859,803.669 754.766,803.669 756.673,803.669 757.836,803.669 759.743,803.669 761.65,803.669 763.557,803.669 
  765.465,803.669 767.372,803.669 769.279,803.669 771.233,803.669 773.14,803.669 775.047,803.669 776.954,803.669 778.861,803.669 780.768,803.669 782.675,803.669 
  784.583,803.669 785.745,803.669 787.653,803.669 789.56,803.669 791.467,803.669 793.374,803.669 795.281,803.669 797.188,803.669 799.142,803.669 801.049,803.669 
  802.956,803.669 804.863,803.669 806.771,803.669 808.678,803.669 810.585,803.669 812.492,803.669 813.655,803.669 815.562,803.669 817.469,803.669 819.376,803.669 
  821.284,803.669 823.191,803.669 825.098,803.669 827.051,803.669 828.959,803.669 830.866,803.669 832.773,803.669 834.68,803.669 836.587,803.669 838.494,803.669 
  840.401,803.669 841.564,803.669 843.472,803.669 845.379,803.669 847.286,803.669 849.193,803.669 851.1,803.669 853.007,803.669 854.961,803.669 856.868,803.669 
  858.775,803.669 860.682,803.669 862.589,803.669 864.497,803.669 866.404,803.669 868.311,803.669 869.474,803.669 871.381,803.669 873.288,803.669 875.195,803.669 
  877.102,803.669 879.01,803.669 880.917,803.669 882.87,803.669 884.777,803.669 886.685,803.669 888.592,803.669 890.499,803.669 892.406,803.669 894.313,803.669 
  896.22,803.669 897.383,803.669 899.29,803.669 901.198,803.669 903.105,803.669 905.012,803.669 906.919,803.669 908.826,803.669 910.78,803.669 912.687,803.669 
  914.594,803.669 916.501,803.669 918.408,803.669 920.315,803.669 922.223,803.669 924.13,803.669 925.293,803.669 927.2,803.669 929.107,803.669 931.014,803.669 
  932.921,803.669 934.828,803.669 936.736,803.669 938.689,803.669 940.596,803.669 942.503,803.669 944.411,803.669 946.318,803.669 948.225,803.669 950.132,803.669 
  952.039,803.669 953.202,803.669 955.109,803.669 957.016,803.669 958.924,803.669 960.831,803.669 962.738,803.669 964.645,803.669 966.599,803.669 968.506,803.669 
  970.413,803.669 972.32,803.669 974.227,803.669 976.134,803.669 978.041,803.669 979.949,803.669 981.112,803.669 983.019,803.669 984.926,803.669 986.833,803.669 
  988.74,803.669 990.647,803.669 992.554,803.669 994.508,803.669 996.415,803.669 998.322,803.669 1000.23,803.669 1002.14,803.669 1004.04,803.669 1005.95,803.669 
  1007.86,803.669 1009.02,803.669 1010.93,803.669 1012.84,803.669 1014.74,803.669 1016.65,803.669 1018.56,803.669 1020.46,803.669 1022.42,803.669 1024.32,803.669 
  1026.23,803.669 1028.14,803.669 1030.05,803.669 1031.95,803.669 1033.86,803.669 1035.77,803.669 1036.93,803.669 1038.84,803.669 1040.74,803.669 1042.65,803.669 
  1044.56,803.669 1046.47,803.669 1048.37,803.669 1050.33,803.669 1052.23,803.669 1054.14,803.669 1056.05,803.669 1057.96,803.669 1059.86,803.669 1061.77,803.669 
  1063.68,803.669 1064.84,803.669 1066.75,803.669 1068.65,803.669 1070.56,803.669 1072.47,803.669 1074.38,803.669 1076.28,803.669 1078.24,803.669 1080.14,803.669 
  1082.05,803.669 1083.96,803.669 1085.86,803.669 1087.77,803.669 1089.68,803.669 1091.59,803.669 1092.75,803.669 1094.66,803.669 1096.56,803.669 1098.47,803.669 
  1100.38,803.669 1102.28,803.669 1104.19,803.669 1106.15,803.669 1108.05,803.669 1109.96,803.669 1111.87,803.669 1113.77,803.669 1115.68,803.669 1117.59,803.669 
  1119.5,803.669 1120.66,803.669 1122.57,803.669 1124.47,803.669 1126.38,803.669 1128.29,803.669 1130.19,803.669 1132.1,803.669 1134.06,803.669 1135.96,803.669 
  1137.87,803.669 1139.78,803.669 1141.68,803.669 1143.59,803.669 1145.5,803.669 1147.41,803.669 1148.57,803.669 1150.48,803.669 1152.38,803.669 1154.29,803.669 
  1156.2,803.669 1158.1,803.669 1160.01,803.669 1161.96,803.669 1163.87,803.669 1165.78,803.669 1167.69,803.669 1169.59,803.669 1171.5,803.669 1173.41,803.669 
  1175.31,803.669 1176.48,803.669 1178.38,803.669 1180.29,803.669 1182.2,803.669 1184.11,803.669 1186.01,803.669 1187.92,803.669 1189.87,803.669 1191.78,803.669 
  1193.69,803.669 1195.6,803.669 1197.5,803.669 1199.41,803.669 1201.32,803.669 1203.22,803.669 1204.39,803.669 1206.29,803.669 1208.2,803.669 1210.11,803.669 
  1212.02,803.669 1213.92,803.669 1215.83,803.669 1217.78,803.669 1219.69,803.669 1221.6,803.669 1223.5,803.669 1225.41,803.669 1227.32,803.669 1229.23,803.669 
  1231.13,803.669 1232.3,803.669 1234.2,803.669 1236.11,803.669 1238.02,803.669 1239.92,803.669 1241.83,803.669 1243.74,803.669 1245.69,803.669 1247.6,803.669 
  1249.51,803.669 1251.41,803.669 1253.32,803.669 1255.23,803.669 1257.14,803.669 1259.04,803.669 1260.21,803.669 1262.11,803.669 1264.02,803.669 1265.93,803.669 
  1267.83,803.669 1269.74,803.669 1271.65,803.669 1273.6,803.669 1275.51,803.669 1277.42,803.669 1279.32,803.669 1281.23,803.669 1283.14,803.669 1285.05,803.669 
  1286.95,803.669 1288.12,803.669 1290.02,803.669 1291.93,803.669 1293.84,803.669 1295.74,803.669 1297.65,803.669 1299.56,803.669 1301.51,803.669 1303.42,803.669 
  1305.33,803.669 1307.23,803.669 1309.14,803.669 1311.05,803.669 1312.95,803.669 1314.86,803.669 1316.02,803.669 1317.93,803.669 1319.84,803.669 1321.75,803.669 
  1323.65,803.669 1325.56,803.669 1327.47,803.669 1329.42,803.669 1331.33,803.669 1333.24,803.669 1335.14,803.669 1337.05,803.669 1338.96,803.669 1340.86,803.669 
  1342.77,803.669 1343.93,803.669 1345.84,803.669 1347.75,803.669 1349.66,803.669 1351.56,803.669 1353.47,803.669 1355.38,803.669 1357.33,803.669 1359.24,803.669 
  1361.14,803.669 1363.05,803.669 1364.96,803.669 1366.87,803.669 1368.77,803.669 1370.68,803.669 1371.84,803.669 1373.75,803.669 1375.66,803.669 1377.56,803.669 
  1379.47,803.669 1381.38,803.669 1383.29,803.669 1385.24,803.669 1387.15,803.669 1389.05,803.669 1390.96,803.669 1392.87,803.669 1394.78,803.669 1396.68,803.668 
  1398.59,803.668 1399.75,803.668 1401.66,803.667 1403.57,803.667 1405.47,803.666 1407.38,803.664 1409.29,803.663 1411.2,803.66 1413.15,803.656 1415.06,803.657 
  1415.52,803.657 1415.99,803.657 1416.45,803.658 1416.96,803.658 1417.43,803.658 1417.89,803.658 1418.41,803.658 1418.87,803.659 1419.34,803.659 1419.8,803.659 
  1420.31,803.659 1420.78,803.659 1421.24,803.659 1421.71,803.659 1422.22,803.659 1422.69,803.659 1423.15,803.659 1423.66,803.658 1424.13,803.658 1424.59,803.658 
  1425.06,803.657 1425.57,803.657 1426.03,803.656 1426.5,803.656 1426.87,803.655 1427.29,803.655 1427.66,803.654 1428.13,803.653 1428.64,803.653 1429.1,803.652 
  1429.57,803.651 1430.03,803.65 1430.55,803.65 1431.01,803.651 1431.48,803.653 1431.94,803.656 1432.45,803.66 1432.92,803.665 1433.38,803.672 1433.9,803.68 
  1434.36,803.69 1434.83,803.702 1435.29,803.715 1435.8,803.73 1436.27,803.746 1436.73,803.764 1437.2,803.783 1437.71,803.804 1438.17,803.826 1438.64,803.85 
  1439.11,803.874 1439.62,803.899 1440.08,803.926 1440.55,803.952 1441.06,803.979 1441.52,804.007 1441.99,804.034 1442.45,804.061 1442.97,804.087 1443.43,804.112 
  1443.9,804.137 1444.36,804.159 1444.87,804.18 1445.34,804.199 1445.8,804.215 1446.32,804.228 1446.78,804.238 1447.25,804.244 1447.71,804.246 1448.22,804.244 
  1448.69,804.236 1449.15,804.223 1449.62,804.204 1450.13,804.179 1450.59,804.147 1451.06,804.107 1451.57,804.059 1452.04,804.003 1452.5,803.938 1452.97,803.864 
  1453.48,803.779 1453.94,803.683 1454.41,803.576 1454.78,803.481 1455.2,803.377 1455.57,803.264 1456.04,803.114 1456.55,802.95 1457.01,802.771 1457.48,802.577 
  1457.94,802.365 1458.46,802.135 1458.92,801.885 1459.39,801.615 1459.85,801.324 1460.36,801.01 1460.83,800.672 1461.29,800.31 1461.8,799.922 1462.27,799.508 
  1462.74,799.067 1463.2,798.598 1463.71,798.1 1464.18,797.572 1464.64,797.014 1465.11,796.426 1465.62,795.805 1466.08,795.153 1466.55,794.468 1467.01,793.75 
  1467.53,792.998 1467.99,792.212 1468.46,791.392 1468.97,790.537 1469.43,789.647 1469.9,788.722 1470.36,787.762 1470.88,786.765 1471.34,785.733 1471.81,784.665 
  1472.27,783.561 1472.78,782.421 1473.25,781.245 1473.71,780.034 1474.22,778.787 1474.69,777.504 1475.15,776.186 1475.62,774.833 1476.13,773.445 1476.6,772.022 
  1477.06,770.566 1477.53,769.076 1478.04,767.553 1478.5,765.997 1478.97,764.41 1479.48,762.79 1479.95,761.14 1480.41,759.46 1480.88,757.751 1481.39,756.013 
  1481.85,754.247 1482.32,752.454 1482.69,750.991 1483.11,749.511 1483.48,748.015 1483.95,746.138 1484.46,744.239 1484.92,742.318 1485.39,740.378 1485.85,738.419 
  1486.37,736.442 1486.83,734.45 1487.3,732.443 1487.76,730.422 1488.27,728.39 1488.74,726.347 1489.2,724.296 1489.71,722.237 1490.18,720.172 1490.64,718.103 
  1491.11,716.031 1491.62,713.958 1492.09,711.885 1492.55,709.814 1493.02,707.746 1493.53,705.684 1493.99,703.628 1494.46,701.58 1494.92,699.543 1495.44,697.517 
  1495.9,695.504 1496.37,693.506 1496.88,691.524 1497.34,689.561 1497.81,687.618 1498.27,685.695 1498.78,683.797 1499.25,681.922 1499.72,680.075 1500.18,678.255 
  1500.69,676.465 1501.16,674.706 1501.62,672.981 1502.13,671.289 1502.6,669.634 1503.06,668.017 1503.53,666.439 1504.04,664.902 1504.51,663.407 1504.97,661.956 
  1505.44,660.55 1505.95,659.191 1506.41,657.88 1506.88,656.619 1507.39,655.41 1507.86,654.252 1508.32,653.148 1508.79,652.099 1509.3,651.107 1509.76,650.172 
  1510.23,649.296 1510.6,648.637 1511.02,648.017 1511.39,647.438 1511.86,646.77 1512.37,646.166 1512.83,645.626 1513.3,645.152 1513.76,644.744 1514.27,644.404 
  1514.74,644.133 1515.21,643.932 1515.67,643.802 1516.18,643.743 1516.65,643.757 1517.11,643.844 1517.62,644.005 1518.09,644.24 1518.55,644.551 1519.02,644.936 
  1519.53,645.398 1520,645.936 1520.46,646.551 1520.93,647.242 1521.44,648.113 1521.9,649.066 1522.37,650.099 1522.83,651.211 1523.35,652.4 1523.81,653.665 
  1524.28,655.006 1524.79,656.42 1525.25,657.908 1525.72,659.469 1526.18,661.101 1526.69,662.804 1527.16,664.577 1527.62,666.419 1528.09,668.329 1528.6,670.308 
  1529.07,672.353 1529.53,674.465 1530.04,676.641 1530.51,678.882 1530.97,681.186 1531.44,683.553 1531.95,685.981 1532.42,688.47 1532.88,691.018 1533.35,693.624 
  1533.86,696.287 1534.32,699.006 1534.79,701.78 1535.3,704.607 1535.76,707.485 1536.23,710.414 1536.7,713.393 1537.21,716.418 1537.67,719.489 1538.14,722.605 
  1538.51,725.093 1538.93,727.606 1539.3,730.143 1539.77,733.327 1540.28,736.547 1540.74,739.802 1541.21,743.09 1541.67,746.41 1542.18,749.76 1542.65,753.138 
  1543.11,756.543 1543.58,759.973 1544.09,763.425 1544.56,766.897 1545.02,770.389 1545.53,773.896 1546,777.418 1546.46,780.953 1546.93,784.497 1547.44,788.049 
  1547.91,791.607 1548.37,795.168 1548.84,798.73 1549.35,802.29 1549.81,805.848 1550.28,809.399 1550.74,812.943 1551.25,816.476 1551.72,819.997 1552.19,823.503 
  1552.7,826.991 1553.16,830.461 1553.63,833.909 1554.09,837.333 1554.6,840.731 1555.07,844.101 1555.53,847.441 1556,850.748 1556.51,854.021 1556.98,857.258 
  1557.44,860.456 1557.95,863.613 1558.42,866.728 1558.88,869.799 1559.35,872.823 1559.86,875.799 1560.33,878.726 1560.79,881.6 1561.26,884.422 1561.77,887.188 
  1562.23,889.897 1562.7,892.549 1563.21,895.14 1563.67,897.671 1564.14,900.138 1564.6,902.542 1565.12,904.88 1565.58,907.152 1566.05,909.355 1566.42,911.076 
  1566.84,912.75 1567.21,914.379 1567.67,916.342 1568.19,918.231 1568.65,920.047 1569.12,921.789 1569.58,923.455 1570.09,925.044 1570.56,926.556 1571.02,927.991 
  1571.49,929.347 1572,930.623 1572.47,931.82 1572.93,932.937 1573.44,933.973 1573.91,934.927 1574.37,935.8 1574.84,936.592 1575.35,937.3 1575.81,937.927 
  1576.28,938.471 1576.75,938.933 1577.26,939.311 1577.72,939.607 1578.19,939.821 1578.65,939.952 1579.16,940 1579.63,939.966 1580.09,939.851 1580.61,939.654 
  1581.07,939.376 1581.54,939.017 1582,938.578 1582.51,938.059 1582.98,937.461 1583.44,936.785 1583.91,936.031 1584.42,935.2 1584.89,934.293 1585.35,933.31 
  1585.86,932.254 1586.33,931.123 1586.79,929.92 1587.26,928.646 1587.77,927.301 1588.23,925.887 1588.7,924.406 1589.17,922.857 1589.68,921.243 1590.14,919.564 
  1590.61,917.823 1591.12,916.02 1591.58,914.158 1592.05,912.236 1592.51,910.258 1593.03,908.225 1593.49,906.137 1593.96,903.998 1594.33,902.236 1594.75,900.443 
  1595.12,898.621 1595.58,896.315 1596.1,893.965 1596.56,891.572 1597.03,889.137 1597.49,886.663 1598,884.15 1598.47,881.6 1598.93,879.016 1599.4,876.398 
  1599.91,873.75 1600.38,871.073 1600.84,868.369 1601.35,865.641 1601.82,862.89 1602.28,860.119 1602.75,857.331 1603.26,854.527 1603.72,851.71 1604.19,848.881 
  1604.65,846.044 1605.17,843.2 1605.63,840.352 1606.1,837.501 1606.56,834.65 1607.07,831.8 1607.54,828.955 1608,826.115 1608.52,823.283 1608.98,820.461 
  1609.45,817.651 1609.91,814.854 1610.42,812.074 1610.89,809.31 1611.35,806.567 1611.82,803.844 1612.33,801.144 1612.79,798.47 1613.26,795.821 1613.77,793.201 
  1614.24,790.611 1614.7,788.052 1615.17,785.527 1615.68,783.036 1616.14,780.581 1616.61,778.164 1617.07,775.786 1617.59,773.448 1618.05,771.152 1618.52,768.9 
  1619.03,766.691 1619.49,764.529 1619.96,762.413 1620.42,760.345 1620.94,758.326 1621.4,756.358 1621.87,754.44 1622.24,752.937 1622.66,751.469 1623.03,750.035 
  1623.49,748.298 1624.01,746.615 1624.47,744.988 1624.94,743.417 1625.4,741.903 1625.91,740.446 1626.38,739.046 1626.84,737.705 1627.31,736.422 1627.82,735.197 
  1628.28,734.032 1628.75,732.927 1629.26,731.881 1629.73,730.894 1630.19,729.968 1630.66,729.101 1631.17,728.295 1631.63,727.548 1632.1,726.861 1632.56,726.234 
  1633.08,725.667 1633.54,725.159 1634.01,724.71 1634.47,724.32 1634.98,723.989 1635.45,723.716 1635.91,723.501 1636.42,723.343 1636.89,723.242 1637.36,723.198 
  1637.82,723.209 1638.33,723.276 1638.8,723.398 1639.26,723.574 1639.73,723.803 1640.24,724.084 1640.7,724.418 1641.17,724.803 1641.68,725.239 1642.15,725.724 
  1642.61,726.257 1643.08,726.839 1643.59,727.468 1644.05,728.142 1644.52,728.862 1644.98,729.626 1645.5,730.433 1645.96,731.283 1646.43,732.173 1646.94,733.104 
  1647.4,734.074 1647.87,735.082 1648.33,736.127 1648.84,737.208 1649.31,738.323 1649.77,739.473 1650.15,740.421 1650.57,741.389 1650.94,742.377 1651.4,743.634 
  1651.91,744.919 1652.38,746.231 1652.85,747.57 1653.31,748.933 1653.82,750.321 1654.29,751.731 1654.75,753.161 1655.22,754.612 1655.73,756.082 1656.19,757.569 
  1656.66,759.072 1657.17,760.59 1657.64,762.122 1658.1,763.667 1658.57,765.224 1659.08,766.791 1659.54,768.367 1660.01,769.951 1660.47,771.543 1660.99,773.14 
  1661.45,774.743 1661.92,776.35 1662.38,777.96 1662.89,779.572 1663.36,781.185 1663.82,782.799 1664.33,784.413 1664.8,786.025 1665.26,787.635 1665.73,789.243 
  1666.24,790.847 1666.71,792.447 1667.17,794.042 1667.64,795.631 1668.15,797.215 1668.61,798.793 1669.08,800.363 1669.59,801.926 1670.06,803.481 1670.52,805.028 
  1670.99,806.567 1671.5,808.097 1671.96,809.618 1672.43,811.13 1672.89,812.633 1673.4,814.127 1673.87,815.611 1674.34,817.086 1674.85,818.552 1675.31,820.009 
  1675.78,821.457 1676.24,822.896 1676.75,824.327 1677.22,825.749 1677.68,827.164 1678.06,828.296 1678.48,829.424 1678.85,830.548 1679.31,831.94 1679.82,833.327 
  1680.29,834.709 1680.75,836.087 1681.22,837.461 1681.73,838.833 1682.2,840.202 1682.66,841.571 1683.13,842.939 1683.64,844.308 1684.1,845.678 1684.57,847.05 
  1685.08,848.427 1685.55,849.807 1686.01,851.194 1686.48,852.587 1686.99,853.988 1687.45,855.398 1687.92,856.818 1688.38,858.249 1688.89,859.693 1689.36,861.151 
  1689.83,862.623 1690.29,864.112 1690.8,865.618 1691.27,867.142 1691.73,868.686 1692.24,870.252 1692.71,871.839 1693.17,873.45 1693.64,875.086 1694.15,876.747 
  1694.62,878.435 1695.08,880.152 1695.55,881.897 1696.06,883.673 1696.52,885.48 1696.99,887.319 1697.5,889.192 1697.97,891.099 1698.43,893.041 1698.9,895.019 
  1699.41,897.034 1699.87,899.086 1700.34,901.177 1700.8,903.307 1701.31,905.476 1701.78,907.685 1702.24,909.935 1702.76,912.226 1703.22,914.558 1703.69,916.932 
  1704.15,919.347 1704.66,921.804 1705.13,924.303 1705.59,926.844 1705.97,928.926 1706.38,931.035 1706.76,933.17 1707.22,935.852 1707.73,938.574 1708.2,941.337 
  1708.66,944.14 1709.13,946.983 1709.64,949.865 1710.11,952.786 1710.57,955.746 1711.04,958.742 1711.55,961.776 1712.01,964.845 1712.48,967.95 1712.99,971.088 
  1713.46,974.259 1713.92,977.462 1714.39,980.694 1714.9,983.956 1715.36,987.244 1715.83,990.559 1716.29,993.897 1716.8,997.258 1717.27,1000.64 1717.73,1004.04 
  1718.2,1007.46 1718.71,1010.89 1719.18,1014.33 1719.64,1017.79 1720.15,1021.25 1720.62,1024.72 1721.08,1028.19 1721.55,1031.66 1722.06,1035.14 1722.53,1038.61 
  1722.99,1042.07 1723.46,1045.53 1723.97,1048.97 1724.43,1052.4 1724.9,1055.82 1725.41,1059.21 1725.87,1062.59 1726.34,1065.94 1726.81,1069.26 1727.32,1072.55 
  1727.78,1075.81 1728.25,1079.04 1728.71,1082.23 1729.22,1085.37 1729.69,1088.47 1730.15,1091.53 1730.67,1094.54 1731.13,1097.49 1731.6,1100.39 1732.06,1103.23 
  1732.57,1106.01 1733.04,1108.73 1733.5,1111.38 1733.88,1113.46 1734.29,1115.5 1734.67,1117.48 1735.13,1119.88 1735.64,1122.2 1736.11,1124.44 1736.57,1126.6 
  1737.04,1128.66 1737.55,1130.64 1738.02,1132.53 1738.48,1134.32 1738.95,1136.01 1739.46,1137.61 1739.92,1139.11 1740.39,1140.5 1740.9,1141.78 1741.36,1142.96 
  1741.83,1144.03 1742.29,1144.98 1742.81,1145.81 1743.27,1146.53 1743.74,1147.12 1744.2,1147.59 1744.71,1147.93 1745.18,1148.14 1745.64,1148.22 1746.11,1148.17 
  1746.62,1147.97 1747.09,1147.64 1747.55,1147.16 1748.06,1146.53 1748.53,1145.76 1748.99,1144.83 1749.46,1143.75 1749.97,1142.5 1750.44,1141.1 1750.9,1139.54 
  1751.37,1137.81 1751.88,1135.91 1752.34,1133.84 1752.81,1131.6 1753.32,1129.18 1753.78,1126.58 1754.25,1123.8 1754.71,1120.84 1755.23,1117.69 1755.69,1114.35 
  1756.16,1110.82 1756.62,1107.1 1757.13,1103.18 1757.6,1099.07 1758.06,1094.76 1758.58,1090.25 1759.04,1085.53 1759.51,1080.62 1759.97,1075.5 1760.48,1070.17 
  1760.95,1064.64 1761.41,1058.9 1761.78,1054.12 1762.2,1049.2 1762.58,1044.14 1763.04,1037.69 1763.55,1031.03 1764.02,1024.15 1764.48,1017.07 1764.95,1009.78 
  1765.46,1002.27 1765.92,994.556 1766.39,986.627 1766.86,978.486 1767.37,970.134 1767.83,961.572 1768.3,952.802 1768.81,943.823 1769.27,934.64 1769.74,925.252 
  1770.2,915.664 1770.72,905.877 1771.18,895.894 1771.65,885.72 1772.11,875.357 1772.62,864.81 1773.09,854.082 1773.55,843.18 1774.02,832.106 1774.53,820.868 
  1775,809.469 1775.46,797.917 1775.97,786.217 1776.44,774.375 1776.9,762.4 1777.37,750.296 1777.88,738.073 1778.34,725.737 1778.81,713.297 1779.27,700.76 
  1779.79,688.135 1780.25,675.43 1780.72,662.655 1781.23,649.819 1781.69,636.931 1782.16,624 1782.62,611.036 1783.14,598.05 1783.6,585.051 1784.07,572.05 
  1784.53,559.058 1785.04,546.084 1785.51,533.141 1785.97,520.238 1786.48,507.387 1786.95,494.599 1787.42,481.886 1787.88,469.258 1788.39,456.728 1788.86,444.306 
  1789.32,432.005 1789.69,422.208 1790.11,412.503 1790.49,402.898 1790.95,391.1 1791.46,379.473 1791.93,368.029 1792.39,356.781 1792.86,345.739 1793.37,334.915 
  1793.83,324.32 1794.3,313.965 1794.76,303.862 1795.28,294.021 1795.74,284.453 1796.21,275.168 1796.72,266.177 1797.18,257.491 1797.65,249.119 1798.11,241.07 
  1798.63,233.356 1799.09,225.983 1799.56,218.963 1800.02,212.303 1800.53,206.012 1801,200.097 1801.46,194.568 1801.93,189.431 1802.44,184.693 1802.9,180.361 
  1803.37,176.442 1803.88,172.942 1804.35,169.866 1804.81,167.22 1805.28,165.009 1805.79,163.237 1806.25,161.908 1806.72,161.026 1807.18,160.594 1807.7,160.616 
  1808.16,161.093 1808.63,162.027 1809.14,163.421 1809.6,165.275 1810.07,167.589 1810.53,170.364 1811.04,173.6 1811.51,177.296 1811.98,181.45 1812.44,186.062 
  1812.95,191.128 1813.42,196.646 1813.88,202.614 1814.39,209.027 1814.86,215.882 1815.32,223.174 1815.79,230.898 1816.3,239.049 1816.77,247.622 1817.23,256.609 
  1817.6,264.158 1818.02,271.966 1818.39,280.031 1818.86,290.383 1819.37,301.116 1819.84,312.223 1820.3,323.696 1820.77,335.526 1821.28,347.705 1821.74,360.222 
  1822.21,373.069 1822.67,386.234 1823.19,399.71 1823.65,413.483 1824.12,427.544 1824.63,441.882 1825.09,456.484 1825.56,471.34 1826.02,486.437 1826.53,501.762 
  1827,517.305 1827.47,533.051 1827.93,548.988 1828.44,565.103 1828.91,581.383 1829.37,597.814 1829.84,614.383 1830.35,631.077 1830.81,647.881 1831.28,664.782 
  1831.79,681.767 1832.26,698.821 1832.72,715.93 1833.19,733.081 1833.7,750.26 1834.16,767.452 1834.63,784.644 1835.09,801.822 1835.61,818.973 1836.07,836.081 
  1836.54,853.135 1837.05,870.12 1837.51,887.024 1837.98,903.832 1838.44,920.531 1838.95,937.109 1839.42,953.554 1839.88,969.851 1840.35,985.989 1840.86,1001.96 
  1841.33,1017.74 1841.79,1033.33 1842.3,1048.71 1842.77,1063.87 1843.23,1078.81 1843.7,1093.5 1844.21,1107.95 1844.68,1122.13 1845.14,1136.04 1845.51,1147.02 
  1845.93,1157.81 1846.3,1168.4 1846.77,1181.32 1847.28,1193.92 1847.75,1206.21 1848.21,1218.16 1848.68,1229.79 1849.19,1241.07 1849.65,1252 1850.12,1262.57 
  1850.58,1272.78 1851.1,1282.62 1851.56,1292.08 1852.03,1301.16 1852.54,1309.86 1853,1318.16 1853.47,1326.07 1853.93,1333.59 1854.44,1340.69 1854.91,1347.4 
  1855.37,1353.69 1855.84,1359.57 1856.35,1365.04 1856.82,1370.09 1857.28,1374.73 1857.75,1378.94 1858.26,1382.74 1858.72,1386.11 1859.19,1389.06 1859.7,1391.6 
  1860.17,1393.71 1860.63,1395.4 1861.1,1396.68 1861.61,1397.53 1862.07,1397.97 1862.54,1398 1863,1397.62 1863.51,1396.83 1863.98,1395.63 1864.45,1394.03 
  1864.96,1392.02 1865.42,1389.63 1865.89,1386.84 1866.35,1383.66 1866.86,1380.1 1867.33,1376.16 1867.79,1371.85 1868.26,1367.17 1868.77,1362.13 1869.24,1356.73 
  1869.7,1350.98 1870.21,1344.89 1870.68,1338.45 1871.14,1331.69 1871.61,1324.6 1872.12,1317.19 1872.59,1309.47 1873.05,1301.45 1873.42,1294.77 1873.84,1287.9 
  1874.21,1280.85 1874.68,1271.85 1875.19,1262.59 1875.66,1253.06 1876.12,1243.28 1876.59,1233.26 1877.1,1223.01 1877.56,1212.53 1878.03,1201.84 1878.49,1190.93 
  1879,1179.83 1879.47,1168.55 1879.93,1157.08 1880.45,1145.44 1880.91,1133.64 1881.38,1121.7 1881.84,1109.61 1882.35,1097.39 1882.82,1085.04 1883.28,1072.59 
  1883.75,1060.04 1884.26,1047.39 1884.73,1034.66 1885.19,1021.86 1885.66,1009 1886.17,996.087 1886.63,983.131 1887.1,970.144 1887.61,957.134 1888.08,944.113 
  1888.54,931.089 1889.01,918.074 1889.52,905.076 1889.98,892.106 1890.45,879.173 1890.91,866.287 1891.42,853.457 1891.89,840.694 1892.35,828.005 1892.87,815.402 
  1893.33,802.892 1893.8,790.486 1894.26,778.191 1894.77,766.017 1895.24,753.972 1895.7,742.066 1896.17,730.305 1896.68,718.699 1897.15,707.256 1897.61,695.983 
  1898.12,684.887 1898.59,673.977 1899.05,663.26 1899.52,652.741 1900.03,642.429 1900.49,632.33 1900.96,622.45 1901.33,614.68 1901.75,607.059 1902.12,599.59 
  1902.59,590.501 1903.1,581.656 1903.56,573.059 1904.03,564.716 1904.5,556.631 1905.01,548.809 1905.47,541.253 1905.94,533.968 1906.4,526.956 1906.91,520.221 
  1907.38,513.766 1907.84,507.594 1908.36,501.705 1908.82,496.102 1909.29,490.786 1909.75,485.759 1910.26,481.021 1910.73,476.571 1911.19,472.411 1911.66,468.541 
  1912.17,464.958 1912.64,461.662 1913.1,458.653 1913.57,455.927 1914.08,453.484 1914.54,451.321 1915.01,449.434 1915.52,447.822 1915.98,446.481 1916.45,445.408 
  1916.91,444.598 1917.43,444.047 1917.89,443.752 1918.36,443.708 1918.82,443.91 1919.33,444.352 1919.8,445.031 1920.26,445.939 1920.78,447.073 1921.24,448.425 
  1921.71,449.991 1922.17,451.764 1922.68,453.738 1923.15,455.907 1923.61,458.265 1924.08,460.805 1924.59,463.522 1925.06,466.407 1925.52,469.457 1926.03,472.662 
  1926.5,476.019 1926.96,479.519 1927.43,483.158 1927.94,486.928 1928.4,490.823 1928.87,494.838 1929.24,498.152 1929.66,501.537 1930.03,504.989 1930.5,509.371 
  1931.01,513.847 1931.47,518.412 1931.94,523.059 1932.4,527.783 1932.92,532.577 1933.38,537.436 1933.85,542.353 1934.31,547.324 1934.82,552.343 1935.29,557.406 
  1935.75,562.508 1936.27,567.645 1936.73,572.814 1937.2,578.011 1937.66,583.232 1938.17,588.475 1938.64,593.737 1939.1,599.015 1939.57,604.307 1940.08,609.612 
  1940.54,614.928 1941.01,620.253 1941.48,625.587 1941.99,630.928 1942.45,636.277 1942.92,641.632 1943.43,646.993 1943.89,652.36 1944.36,657.734 1944.82,663.115 
  1945.34,668.502 1945.8,673.898 1946.27,679.302 1946.73,684.715 1947.24,690.138 1947.71,695.572 1948.17,701.018 1948.69,706.477 1949.15,711.95 1949.62,717.439 
  1950.08,722.943 1950.59,728.464 1951.06,734.003 1951.52,739.562 1951.99,745.139 1952.5,750.738 1952.96,756.357 1953.43,761.998 1953.94,767.661 1954.41,773.345 
  1954.87,779.052 1955.34,784.781 1955.85,790.532 1956.31,796.303 1956.78,802.096 1957.15,806.772 1957.57,811.461 1957.94,816.162 1958.41,822.017 1958.92,827.887 
  1959.38,833.771 1959.85,839.667 1960.31,845.575 1960.83,851.495 1961.29,857.424 1961.76,863.361 1962.22,869.305 1962.73,875.253 1963.2,881.203 1963.66,887.152 
  1964.17,893.098 1964.64,899.037 1965.11,904.967 1965.57,910.882 1966.08,916.781 1966.55,922.658 1967.01,928.51 1967.48,934.332 1967.99,940.119 1968.45,945.868 
  1968.92,951.573 1969.38,957.228 1969.9,962.83 1970.36,968.373 1970.83,973.851 1971.34,979.26 1971.8,984.593 1972.27,989.846 1972.73,995.012 1973.25,1000.09 
  1973.71,1005.07 1974.18,1009.94 1974.64,1014.71 1975.15,1019.36 1975.62,1023.9 1976.08,1028.31 1976.59,1032.6 1977.06,1036.75 1977.52,1040.76 1977.99,1044.62 
  1978.5,1048.34 1978.97,1051.91 1979.43,1055.32 1979.9,1058.56 1980.41,1061.64 1980.87,1064.56 1981.34,1067.29 1981.85,1069.86 1982.32,1072.24 1982.78,1074.44 
  1983.25,1076.45 1983.76,1078.28 1984.22,1079.92 1984.69,1081.36 1985.06,1082.37 1985.48,1083.25 1985.85,1084.01 1986.32,1084.78 1986.83,1085.35 1987.29,1085.73 
  1987.76,1085.9 1988.22,1085.87 1988.74,1085.64 1989.2,1085.21 1989.67,1084.57 1990.13,1083.74 1990.64,1082.7 1991.11,1081.45 1991.57,1080.01 1992.08,1078.37 
  1992.55,1076.54 1993.01,1074.5 1993.48,1072.27 1993.99,1069.85 1994.46,1067.24 1994.92,1064.44 1995.39,1061.46 1995.9,1058.3 1996.36,1054.95 1996.83,1051.43 
  1997.29,1047.74 1997.81,1043.88 1998.27,1039.85 1998.74,1035.66 1999.25,1031.31 1999.71,1026.81 2000.18,1022.16 2000.64,1017.36 2001.15,1012.42 2001.62,1007.35 
  2002.09,1002.14 2002.55,996.802 2003.06,991.342 2003.53,985.763 2003.99,980.07 2004.5,974.267 2004.97,968.36 2005.43,962.353 2005.9,956.251 2006.41,950.06 
  2006.88,943.782 2007.34,937.425 2007.81,930.992 2008.32,924.489 2008.78,917.919 2009.25,911.29 2009.76,904.604 2010.23,897.867 2010.69,891.083 2011.16,884.259 
  2011.67,877.397 2012.13,870.503 2012.6,863.582 2012.97,857.999 2013.39,852.403 2013.76,846.797 2014.23,839.816 2014.74,832.827 2015.2,825.835 2015.67,818.845 
  2016.13,811.861 2016.64,804.886 2017.11,797.926 2017.57,790.984 2018.04,784.064 2018.55,777.17 2019.02,770.306 2019.48,763.476 2019.99,756.683 2020.46,749.932 
  2020.92,743.226 2021.39,736.568 2021.9,729.961 2022.37,723.41 2022.83,716.917 2023.3,710.486 2023.81,704.119 2024.27,697.82 2024.74,691.592 2025.2,685.438 
  2025.72,679.361 2026.18,673.362 2026.65,667.446 2027.16,661.614 2027.62,655.87 2028.09,650.215 2028.55,644.652 2029.06,639.184 2029.53,633.812 2029.99,628.539 
  2030.46,623.366 2030.97,618.297 2031.44,613.332 2031.9,608.475 2032.41,603.725 2032.88,599.086 2033.34,594.559 2033.81,590.146 2034.32,585.847 2034.79,581.665 
  2035.25,577.601 2035.72,573.656 2036.23,569.832 2036.69,566.129 2037.16,562.549 2037.67,559.093 2038.13,555.762 2038.6,552.557 2039.07,549.478 2039.58,546.526 
  2040.04,543.702 2040.51,541.007 2040.88,538.94 2041.3,536.955 2041.67,535.055 2042.14,532.803 2042.65,530.681 2043.11,528.69 2043.58,526.831 2044.04,525.103 
  2044.55,523.506 2045.02,522.042 2045.48,520.708 2045.95,519.506 2046.46,518.435 2046.93,517.495 2047.39,516.686 2047.9,516.007 2048.37,515.458 2048.83,515.038 
  2049.3,514.747 2049.81,514.584 2050.28,514.549 2050.74,514.64 2051.21,514.857 2051.72,515.199 2052.18,515.666 2052.65,516.255 2053.11,516.966 2053.62,517.798 
  2054.09,518.75 2054.55,519.82 2055.07,521.007 2055.53,522.31 2056,523.727 2056.46,525.256 2056.97,526.897 2057.44,528.647 2057.9,530.505 2058.37,532.468 
  2058.88,534.536 2059.35,536.706 2059.81,538.975 2060.32,541.342 2060.79,543.806 2061.25,546.362 2061.72,549.009 2062.23,551.745 2062.7,554.567 2063.16,557.472 
  2063.63,560.457 2064.14,563.521 2064.6,566.659 2065.07,569.87 2065.58,573.149 2066.04,576.493 2066.51,579.9 2066.97,583.366 2067.49,586.888 2067.95,590.462 
  2068.42,594.084 2068.79,597.031 2069.21,600.005 2069.58,603.004 2070.04,606.763 2070.56,610.554 2071.02,614.372 2071.49,618.214 2071.95,622.076 2072.46,625.955 
  2072.93,629.847 2073.39,633.749 2073.86,637.656 2074.37,641.565 2074.84,645.472 2075.3,649.372 2075.81,653.262 2076.28,657.138 2076.74,660.995 2077.21,664.828 
  2077.72,668.635 2078.18,672.41 2078.65,676.15 2079.12,679.849 2079.63,683.504 2080.09,687.11 2080.56,690.663 2081.02,694.159 2081.53,697.593 2082,700.961 
  2082.46,704.259 2082.98,707.484 2083.44,710.63 2083.91,713.695 2084.37,716.674 2084.88,719.564 2085.35,722.36 2085.81,725.061 2086.28,727.661 2086.79,730.159 
  2087.26,732.551 2087.72,734.834 2088.23,737.007 2088.7,739.065 2089.16,741.007 2089.63,742.832 2090.14,744.536 2090.6,746.12 2091.07,747.58 2091.53,748.917 
  2092.05,750.129 2092.51,751.215 2092.98,752.176 2093.49,753.011 2093.95,753.72 2094.42,754.303 2094.88,754.762 2095.4,755.098 2095.86,755.31 2096.33,755.402 
  2096.7,755.384 2097.12,755.291 2097.49,755.123 2097.95,754.818 2098.47,754.402 2098.93,753.876 2099.4,753.243 2099.86,752.504 2100.37,751.661 2100.84,750.716 
  2101.3,749.673 2101.77,748.533 2102.28,747.3 2102.75,745.978 2103.21,744.568 2103.72,743.077 2104.19,741.506 2104.65,739.861 2105.12,738.145 2105.63,736.362 
  2106.09,734.518 2106.56,732.617 2107.02,730.663 2107.54,728.661 2108,726.617 2108.47,724.535 2108.93,722.419 2109.44,720.276 2109.91,718.11 2110.37,715.925 
  2110.89,713.728 2111.35,711.522 2111.82,709.313 2112.28,707.106 2112.79,704.904 2113.26,702.713 2113.72,700.538 2114.19,698.382 2114.7,696.25 2115.16,694.145 
  2115.63,692.073 2116.14,690.035 2116.61,688.037 2117.07,686.081 2117.54,684.171 2118.05,682.309 2118.51,680.499 2118.98,678.742 2119.44,677.041 2119.96,675.399 
  2120.42,673.816 2120.89,672.296 2121.4,670.838 2121.86,669.445 2122.33,668.117 2122.79,666.855 2123.31,665.659 2123.77,664.531 2124.24,663.469 2124.61,662.675 
  2125.03,661.925 2125.4,661.217 2125.86,660.381 2126.38,659.609 2126.84,658.902 2127.31,658.258 2127.77,657.677 2128.28,657.158 2128.75,656.701 2129.21,656.304 
  2129.68,655.966 2130.19,655.685 2130.65,655.461 2131.12,655.292 2131.63,655.175 2132.1,655.11 2132.56,655.095 2133.03,655.127 2133.54,655.205 2134,655.326 
  2134.47,655.49 2134.93,655.692 2135.45,655.932 2135.91,656.208 2136.38,656.517 2136.84,656.857 2137.35,657.227 2137.82,657.623 2138.28,658.045 2138.79,658.49 
  2139.26,658.956 2139.73,659.442 2140.19,659.946 2140.7,660.466 2141.17,661.001 2141.63,661.549 2142.1,662.108 2142.61,662.678 2143.07,663.257 2143.54,663.845 
  2144.05,664.439 2144.52,665.04 2144.98,665.647 2145.45,666.258 2145.96,666.874 2146.42,667.494 2146.89,668.118 2147.35,668.746 2147.87,669.376 2148.33,670.011 
  2148.8,670.649 2149.31,671.291 2149.77,671.937 2150.24,672.589 2150.7,673.245 2151.21,673.908 2151.68,674.577 2152.14,675.254 2152.52,675.803 2152.94,676.358 
  2153.31,676.919 2153.77,677.627 2154.28,678.347 2154.75,679.08 2155.21,679.828 2155.68,680.591 2156.19,681.371 2156.66,682.17 2157.12,682.988 2157.59,683.826 
  2158.1,684.687 2158.56,685.571 2159.03,686.479 2159.54,687.413 2160.01,688.374 2160.47,689.363 2160.94,690.382 2161.45,691.431 2161.91,692.511 2162.38,693.624 
  2162.84,694.771 2163.36,695.952 2163.82,697.168 2164.29,698.42 2164.75,699.709 2165.26,701.035 2165.73,702.4 2166.19,703.802 2166.7,705.244 2167.17,706.725 
  2167.63,708.246 2168.1,709.807 2168.61,711.407 2169.08,713.047 2169.54,714.727 2170.01,716.447 2170.52,718.206 2170.98,720.005 2171.45,721.841 2171.96,723.716 
  2172.43,725.629 2172.89,727.578 2173.36,729.564 2173.87,731.584 2174.33,733.639 2174.8,735.727 2175.26,737.848 2175.77,739.999 2176.24,742.18 2176.71,744.389 
  2177.22,746.625 2177.68,748.887 2178.15,751.173 2178.61,753.481 2179.12,755.809 2179.59,758.157 2180.05,760.521 2180.43,762.429 2180.84,764.344 2181.22,766.267 
  2181.68,768.674 2182.19,771.09 2182.66,773.512 2183.12,775.94 2183.59,778.37 2184.1,780.801 2184.57,783.23 2185.03,785.656 2185.5,788.076 2186.01,790.488 
  2186.47,792.89 2186.94,795.279 2187.45,797.654 2187.92,800.013 2188.38,802.353 2188.85,804.672 2189.36,806.968 2189.82,809.239 2190.29,811.483 2190.75,813.698 
  2191.26,815.882 2191.73,818.033 2192.19,820.149 2192.66,822.228 2193.17,824.268 2193.64,826.269 2194.1,828.227 2194.61,830.141 2195.08,832.01 2195.54,833.832 
  2196.01,835.606 2196.52,837.331 2196.99,839.004 2197.45,840.625 2197.92,842.193 2198.43,843.706 2198.89,845.164 2199.36,846.565 2199.87,847.909 2200.34,849.195 
  2200.8,850.422 2201.27,851.59 2201.78,852.698 2202.24,853.745 2202.71,854.732 2203.17,855.658 2203.68,856.523 2204.15,857.327 2204.61,858.07 2205.13,858.752 
  2205.59,859.372 2206.06,859.933 2206.52,860.432 2207.03,860.872 2207.5,861.253 2207.96,861.575 2208.34,861.783 2208.75,861.954 2209.13,862.089 2209.59,862.217 
  2210.1,862.29 2210.57,862.309 2211.03,862.274 2211.5,862.187 2212.01,862.05 2212.48,861.863 2212.94,861.628 2213.41,861.346 2213.92,861.019 2214.38,860.647 
  2214.85,860.234 2215.36,859.78 2215.82,859.287 2216.29,858.757 2216.76,858.191 2217.27,857.591 2217.73,856.96 2218.2,856.298 2218.66,855.608 2219.17,854.892 
  2219.64,854.151 2220.1,853.388 2220.57,852.604 2221.08,851.802 2221.55,850.983 2222.01,850.149 2222.52,849.303 2222.99,848.446 2223.45,847.58 2223.92,846.707 
  2224.43,845.83 2224.9,844.95 2225.36,844.068 2225.83,843.188 2226.34,842.311 2226.8,841.438 2227.27,840.572 2227.78,839.714 2228.24,838.867 2228.71,838.031 
  2229.17,837.21 2229.69,836.403 2230.15,835.613 2230.62,834.842 2231.08,834.092 2231.59,833.362 2232.06,832.656 2232.52,831.975 2233.04,831.319 2233.5,830.69 
  2233.97,830.09 2234.43,829.519 2234.94,828.98 2235.41,828.472 2235.87,827.997 2236.25,827.642 2236.66,827.311 2237.04,827.003 2237.5,826.649 2238.01,826.332 
  2238.48,826.052 2238.94,825.81 2239.41,825.606 2239.92,825.441 2240.39,825.316 2240.85,825.231 2241.32,825.186 2241.83,825.181 2242.29,825.217 2242.76,825.294 
  2243.27,825.412 2243.73,825.57 2244.2,825.77 2244.66,826.01 2245.18,826.291 2245.64,826.613 2246.11,826.974 2246.57,827.376 2247.08,827.816 2247.55,828.296 
  2248.01,828.815 2248.48,829.371 2248.99,829.965 2249.46,830.596 2249.92,831.263 2250.43,831.965 2250.9,832.701 2251.36,833.472 2251.83,834.275 2252.34,835.111 
  2252.8,835.978 2253.27,836.875 2253.74,837.801 2254.25,838.755 2254.71,839.736 2255.18,840.743 2255.69,841.775 2256.15,842.831 2256.62,843.909 2257.08,845.009 
  2257.6,846.129 2258.06,847.268 2258.53,848.424 2258.99,849.597 2259.5,850.785 2259.97,851.987 2260.43,853.202 2260.95,854.428 2261.41,855.664 2261.88,856.909 
  2262.34,858.161 2262.85,859.419 2263.32,860.682 2263.78,861.949 2264.15,862.974 2264.57,863.999 2264.95,865.024 2265.41,866.293 2265.92,867.559 2266.39,868.822 
  2266.85,870.08 2267.32,871.333 2267.83,872.577 2268.29,873.814 2268.76,875.041 2269.22,876.256 2269.74,877.46 2270.2,878.651 2270.67,879.828 2271.18,880.989 
  2271.64,882.134 2272.11,883.262 2272.57,884.371 2273.09,885.461 2273.55,886.53 2274.02,887.578 2274.48,888.604 2274.99,889.607 2275.46,890.586 2275.92,891.54 
  2276.39,892.468 2276.9,893.371 2277.37,894.246 2277.83,895.093 2278.34,895.912 2278.81,896.702 2279.27,897.463 2279.74,898.193 2280.25,898.893 2280.71,899.561 
  2281.18,900.198 2281.64,900.803 2282.16,901.375 2282.62,901.914 2283.09,902.42 2283.6,902.893 2284.06,903.332 2284.53,903.737 2284.99,904.108 2285.51,904.445 
  2285.97,904.747 2286.44,905.015 2286.9,905.249 2287.41,905.447 2287.88,905.612 2288.34,905.742 2288.85,905.837 2289.32,905.898 2289.78,905.925 2290.25,905.918 
  2290.76,905.877 2291.23,905.802 2291.69,905.694 2292.06,905.584 2292.48,905.453 
  "/>
</svg>
