<?xml version="1.0" encoding="utf-8"?>
<svg xmlns="http://www.w3.org/2000/svg" xmlns:xlink="http://www.w3.org/1999/xlink" width="600" height="400" viewBox="0 0 2400 1600">
<defs>
  <clipPath id="clip240">
    <rect x="0" y="0" width="2400" height="1600"/>
  </clipPath>
</defs>
<path clip-path="url(#clip240)" d="
M0 1600 L2400 1600 L2400 0 L0 0  Z
  " fill="#ffffff" fill-rule="evenodd" fill-opacity="1"/>
<defs>
  <clipPath id="clip241">
    <rect x="480" y="0" width="1681" height="1600"/>
  </clipPath>
</defs>
<path clip-path="url(#clip240)" d="
M224.098 1435.12 L2352.76 1435.12 L2352.76 123.472 L224.098 123.472  Z
  " fill="#ffffff" fill-rule="evenodd" fill-opacity="1"/>
<defs>
  <clipPath id="clip242">
    <rect x="224" y="123" width="2130" height="1313"/>
  </clipPath>
</defs>
<polyline clip-path="url(#clip242)" style="stroke:#000000; stroke-linecap:butt; stroke-linejoin:round; stroke-width:2; stroke-opacity:0.1; fill:none" points="
  284.343,1435.12 284.343,123.472 
  "/>
<polyline clip-path="url(#clip242)" style="stroke:#000000; stroke-linecap:butt; stroke-linejoin:round; stroke-width:2; stroke-opacity:0.1; fill:none" points="
  451.721,1435.12 451.721,123.472 
  "/>
<polyline clip-path="url(#clip242)" style="stroke:#000000; stroke-linecap:butt; stroke-linejoin:round; stroke-width:2; stroke-opacity:0.1; fill:none" points="
  619.1,1435.12 619.1,123.472 
  "/>
<polyline clip-path="url(#clip242)" style="stroke:#000000; stroke-linecap:butt; stroke-linejoin:round; stroke-width:2; stroke-opacity:0.1; fill:none" points="
  786.478,1435.12 786.478,123.472 
  "/>
<polyline clip-path="url(#clip242)" style="stroke:#000000; stroke-linecap:butt; stroke-linejoin:round; stroke-width:2; stroke-opacity:0.1; fill:none" points="
  953.856,1435.12 953.856,123.472 
  "/>
<polyline clip-path="url(#clip242)" style="stroke:#000000; stroke-linecap:butt; stroke-linejoin:round; stroke-width:2; stroke-opacity:0.1; fill:none" points="
  1121.23,1435.12 1121.23,123.472 
  "/>
<polyline clip-path="url(#clip242)" style="stroke:#000000; stroke-linecap:butt; stroke-linejoin:round; stroke-width:2; stroke-opacity:0.1; fill:none" points="
  1288.61,1435.12 1288.61,123.472 
  "/>
<polyline clip-path="url(#clip242)" style="stroke:#000000; stroke-linecap:butt; stroke-linejoin:round; stroke-width:2; stroke-opacity:0.1; fill:none" points="
  1455.99,1435.12 1455.99,123.472 
  "/>
<polyline clip-path="url(#clip242)" style="stroke:#000000; stroke-linecap:butt; stroke-linejoin:round; stroke-width:2; stroke-opacity:0.1; fill:none" points="
  1623.37,1435.12 1623.37,123.472 
  "/>
<polyline clip-path="url(#clip242)" style="stroke:#000000; stroke-linecap:butt; stroke-linejoin:round; stroke-width:2; stroke-opacity:0.1; fill:none" points="
  1790.75,1435.12 1790.75,123.472 
  "/>
<polyline clip-path="url(#clip242)" style="stroke:#000000; stroke-linecap:butt; stroke-linejoin:round; stroke-width:2; stroke-opacity:0.1; fill:none" points="
  1958.13,1435.12 1958.13,123.472 
  "/>
<polyline clip-path="url(#clip242)" style="stroke:#000000; stroke-linecap:butt; stroke-linejoin:round; stroke-width:2; stroke-opacity:0.1; fill:none" points="
  2125.5,1435.12 2125.5,123.472 
  "/>
<polyline clip-path="url(#clip240)" style="stroke:#000000; stroke-linecap:butt; stroke-linejoin:round; stroke-width:4; stroke-opacity:1; fill:none" points="
  224.098,1435.12 2352.76,1435.12 
  "/>
<polyline clip-path="url(#clip240)" style="stroke:#000000; stroke-linecap:butt; stroke-linejoin:round; stroke-width:4; stroke-opacity:1; fill:none" points="
  284.343,1435.12 284.343,1416.23 
  "/>
<polyline clip-path="url(#clip240)" style="stroke:#000000; stroke-linecap:butt; stroke-linejoin:round; stroke-width:4; stroke-opacity:1; fill:none" points="
  451.721,1435.12 451.721,1416.23 
  "/>
<polyline clip-path="url(#clip240)" style="stroke:#000000; stroke-linecap:butt; stroke-linejoin:round; stroke-width:4; stroke-opacity:1; fill:none" points="
  619.1,1435.12 619.1,1416.23 
  "/>
<polyline clip-path="url(#clip240)" style="stroke:#000000; stroke-linecap:butt; stroke-linejoin:round; stroke-width:4; stroke-opacity:1; fill:none" points="
  786.478,1435.12 786.478,1416.23 
  "/>
<polyline clip-path="url(#clip240)" style="stroke:#000000; stroke-linecap:butt; stroke-linejoin:round; stroke-width:4; stroke-opacity:1; fill:none" points="
  953.856,1435.12 953.856,1416.23 
  "/>
<polyline clip-path="url(#clip240)" style="stroke:#000000; stroke-linecap:butt; stroke-linejoin:round; stroke-width:4; stroke-opacity:1; fill:none" points="
  1121.23,1435.12 1121.23,1416.23 
  "/>
<polyline clip-path="url(#clip240)" style="stroke:#000000; stroke-linecap:butt; stroke-linejoin:round; stroke-width:4; stroke-opacity:1; fill:none" points="
  1288.61,1435.12 1288.61,1416.23 
  "/>
<polyline clip-path="url(#clip240)" style="stroke:#000000; stroke-linecap:butt; stroke-linejoin:round; stroke-width:4; stroke-opacity:1; fill:none" points="
  1455.99,1435.12 1455.99,1416.23 
  "/>
<polyline clip-path="url(#clip240)" style="stroke:#000000; stroke-linecap:butt; stroke-linejoin:round; stroke-width:4; stroke-opacity:1; fill:none" points="
  1623.37,1435.12 1623.37,1416.23 
  "/>
<polyline clip-path="url(#clip240)" style="stroke:#000000; stroke-linecap:butt; stroke-linejoin:round; stroke-width:4; stroke-opacity:1; fill:none" points="
  1790.75,1435.12 1790.75,1416.23 
  "/>
<polyline clip-path="url(#clip240)" style="stroke:#000000; stroke-linecap:butt; stroke-linejoin:round; stroke-width:4; stroke-opacity:1; fill:none" points="
  1958.13,1435.12 1958.13,1416.23 
  "/>
<polyline clip-path="url(#clip240)" style="stroke:#000000; stroke-linecap:butt; stroke-linejoin:round; stroke-width:4; stroke-opacity:1; fill:none" points="
  2125.5,1435.12 2125.5,1416.23 
  "/>
<path clip-path="url(#clip240)" d="M203.558 1572.31 L208.96 1566.91 L190.316 1548.27 L185.619 1555.32 L182.607 1552.31 L187.272 1545.29 L190.578 1541.98 L212.233 1563.63 L217.635 1558.23 L220.417 1561.02 L206.341 1575.09 L203.558 1572.31 Z" fill="#000000" fill-rule="evenodd" fill-opacity="1" /><path clip-path="url(#clip240)" d="M223.936 1531.14 Q226.817 1529.28 229.747 1529.56 Q232.693 1529.82 235.05 1532.18 Q238.668 1535.79 238.16 1540.26 Q237.653 1544.73 233.07 1549.31 Q231.531 1550.85 229.583 1552.18 Q227.668 1553.5 225.328 1554.63 L222.136 1551.44 Q224.313 1550.87 226.359 1549.64 Q228.405 1548.41 230.189 1546.63 Q233.299 1543.52 233.692 1540.67 Q234.101 1537.81 231.76 1535.47 Q229.6 1533.3 226.866 1533.62 Q224.133 1533.89 221.432 1536.59 L218.584 1539.44 L215.867 1536.73 L218.846 1533.75 Q221.285 1531.31 221.612 1529.05 Q221.923 1526.77 220.09 1524.94 Q218.208 1523.06 215.867 1523.4 Q213.526 1523.71 211.038 1526.2 Q209.68 1527.56 208.419 1529.41 Q207.159 1531.26 205.915 1533.75 L202.969 1530.8 Q204.327 1528.39 205.702 1526.5 Q207.094 1524.58 208.55 1523.12 Q212.315 1519.36 216.227 1518.88 Q220.123 1518.39 223.036 1521.31 Q225.066 1523.34 225.311 1525.91 Q225.54 1528.46 223.936 1531.14 Z" fill="#000000" fill-rule="evenodd" fill-opacity="1" /><path clip-path="url(#clip240)" d="M244.609 1528.51 L248.063 1525.06 L252.22 1529.21 L248.767 1532.67 L244.609 1528.51 M231.433 1515.33 L234.887 1511.88 L239.044 1516.04 L235.59 1519.49 L231.433 1515.33 Z" fill="#000000" fill-rule="evenodd" fill-opacity="1" /><path clip-path="url(#clip240)" d="M244.527 1492.38 Q241.974 1494.94 243.202 1498.75 Q244.429 1502.53 249.471 1507.57 Q254.496 1512.6 258.293 1513.84 Q262.09 1515.05 264.644 1512.5 Q267.214 1509.93 265.986 1506.15 Q264.758 1502.34 259.733 1497.31 Q254.692 1492.27 250.895 1491.06 Q247.097 1489.81 244.527 1492.38 M241.909 1489.77 Q246.017 1485.66 251.435 1486.75 Q256.853 1487.82 263.04 1494 Q269.211 1500.18 270.291 1505.61 Q271.371 1511.01 267.263 1515.12 Q263.154 1519.23 257.737 1518.16 Q252.319 1517.07 246.148 1510.9 Q239.961 1504.71 238.88 1499.31 Q237.8 1493.87 241.909 1489.77 Z" fill="#000000" fill-rule="evenodd" fill-opacity="1" /><path clip-path="url(#clip240)" d="M265.855 1471.06 Q263.302 1473.61 264.529 1477.42 Q265.757 1481.2 270.798 1486.25 Q275.823 1491.27 279.621 1492.52 Q283.418 1493.73 285.972 1491.17 Q288.541 1488.6 287.314 1484.82 Q286.086 1481.01 281.061 1475.98 Q276.02 1470.94 272.222 1469.73 Q268.425 1468.49 265.855 1471.06 M263.236 1468.44 Q267.345 1464.33 272.762 1465.43 Q278.18 1466.49 284.367 1472.68 Q290.538 1478.85 291.619 1484.28 Q292.699 1489.68 288.59 1493.79 Q284.482 1497.9 279.064 1496.84 Q273.646 1495.74 267.476 1489.57 Q261.288 1483.38 260.208 1477.98 Q259.128 1472.55 263.236 1468.44 Z" fill="#000000" fill-rule="evenodd" fill-opacity="1" /><path clip-path="url(#clip240)" d="M370.936 1572.31 L376.338 1566.91 L357.695 1548.27 L352.997 1555.32 L349.985 1552.31 L354.65 1545.29 L357.956 1541.98 L379.611 1563.63 L385.013 1558.23 L387.796 1561.02 L373.719 1575.09 L370.936 1572.31 Z" fill="#000000" fill-rule="evenodd" fill-opacity="1" /><path clip-path="url(#clip240)" d="M382.001 1523.7 L386.699 1545.09 L395.047 1536.74 L382.001 1523.7 M378.253 1521.68 L382.41 1517.53 L398.337 1533.45 L401.823 1529.97 L404.573 1532.72 L401.086 1536.2 L406.848 1541.96 L403.558 1545.25 L397.796 1539.49 L386.764 1550.52 L383.573 1547.33 L378.253 1521.68 Z" fill="#000000" fill-rule="evenodd" fill-opacity="1" /><path clip-path="url(#clip240)" d="M411.988 1528.51 L415.441 1525.06 L419.599 1529.21 L416.145 1532.67 L411.988 1528.51 M398.811 1515.33 L402.265 1511.88 L406.422 1516.04 L402.969 1519.49 L398.811 1515.33 Z" fill="#000000" fill-rule="evenodd" fill-opacity="1" /><path clip-path="url(#clip240)" d="M411.906 1492.38 Q409.352 1494.94 410.58 1498.75 Q411.808 1502.53 416.849 1507.57 Q421.874 1512.6 425.671 1513.84 Q429.469 1515.05 432.022 1512.5 Q434.592 1509.93 433.364 1506.15 Q432.137 1502.34 427.112 1497.31 Q422.07 1492.27 418.273 1491.06 Q414.476 1489.81 411.906 1492.38 M409.287 1489.77 Q413.395 1485.66 418.813 1486.75 Q424.231 1487.82 430.418 1494 Q436.589 1500.18 437.669 1505.61 Q438.749 1511.01 434.641 1515.12 Q430.533 1519.23 425.115 1518.16 Q419.697 1517.07 413.526 1510.9 Q407.339 1504.71 406.259 1499.31 Q405.178 1493.87 409.287 1489.77 Z" fill="#000000" fill-rule="evenodd" fill-opacity="1" /><path clip-path="url(#clip240)" d="M433.233 1471.06 Q430.68 1473.61 431.908 1477.42 Q433.135 1481.2 438.177 1486.25 Q443.202 1491.27 446.999 1492.52 Q450.796 1493.73 453.35 1491.17 Q455.92 1488.6 454.692 1484.82 Q453.464 1481.01 448.439 1475.98 Q443.398 1470.94 439.601 1469.73 Q435.803 1468.49 433.233 1471.06 M430.615 1468.44 Q434.723 1464.33 440.141 1465.43 Q445.559 1466.49 451.746 1472.68 Q457.917 1478.85 458.997 1484.28 Q460.077 1489.68 455.969 1493.79 Q451.86 1497.9 446.443 1496.84 Q441.025 1495.74 434.854 1489.57 Q428.667 1483.38 427.586 1477.98 Q426.506 1472.55 430.615 1468.44 Z" fill="#000000" fill-rule="evenodd" fill-opacity="1" /><path clip-path="url(#clip240)" d="M538.315 1572.31 L543.716 1566.91 L525.073 1548.27 L520.375 1555.32 L517.363 1552.31 L522.028 1545.29 L525.335 1541.98 L546.99 1563.63 L552.391 1558.23 L555.174 1561.02 L541.097 1575.09 L538.315 1572.31 Z" fill="#000000" fill-rule="evenodd" fill-opacity="1" /><path clip-path="url(#clip240)" d="M537.447 1529.87 L550.427 1516.89 L553.21 1519.67 L543.258 1529.62 L549.249 1535.61 Q549.723 1534.65 550.329 1533.81 Q550.918 1532.96 551.638 1532.24 Q555.73 1528.15 560.363 1528 Q564.995 1527.85 568.825 1531.68 Q572.77 1535.63 572.508 1540.28 Q572.229 1544.91 567.761 1549.38 Q566.222 1550.92 564.356 1552.26 Q562.507 1553.58 560.281 1554.76 L556.958 1551.44 Q559.233 1550.77 561.197 1549.59 Q563.161 1548.41 564.913 1546.66 Q567.745 1543.83 567.908 1540.69 Q568.072 1537.54 565.519 1534.99 Q562.965 1532.44 559.822 1532.6 Q556.68 1532.76 553.848 1535.6 Q552.522 1536.92 551.491 1538.54 Q550.476 1540.15 549.723 1542.14 L537.447 1529.87 Z" fill="#000000" fill-rule="evenodd" fill-opacity="1" /><path clip-path="url(#clip240)" d="M579.366 1528.51 L582.82 1525.06 L586.977 1529.21 L583.523 1532.67 L579.366 1528.51 M566.19 1515.33 L569.643 1511.88 L573.801 1516.04 L570.347 1519.49 L566.19 1515.33 Z" fill="#000000" fill-rule="evenodd" fill-opacity="1" /><path clip-path="url(#clip240)" d="M579.284 1492.38 Q576.731 1494.94 577.958 1498.75 Q579.186 1502.53 584.227 1507.57 Q589.252 1512.6 593.05 1513.84 Q596.847 1515.05 599.401 1512.5 Q601.97 1509.93 600.743 1506.15 Q599.515 1502.34 594.49 1497.31 Q589.449 1492.27 585.651 1491.06 Q581.854 1489.81 579.284 1492.38 M576.665 1489.77 Q580.774 1485.66 586.191 1486.75 Q591.609 1487.82 597.796 1494 Q603.967 1500.18 605.048 1505.61 Q606.128 1511.01 602.019 1515.12 Q597.911 1519.23 592.493 1518.16 Q587.075 1517.07 580.905 1510.9 Q574.717 1504.71 573.637 1499.31 Q572.557 1493.87 576.665 1489.77 Z" fill="#000000" fill-rule="evenodd" fill-opacity="1" /><path clip-path="url(#clip240)" d="M600.612 1471.06 Q598.058 1473.61 599.286 1477.42 Q600.514 1481.2 605.555 1486.25 Q610.58 1491.27 614.377 1492.52 Q618.175 1493.73 620.728 1491.17 Q623.298 1488.6 622.07 1484.82 Q620.843 1481.01 615.818 1475.98 Q610.776 1470.94 606.979 1469.73 Q603.182 1468.49 600.612 1471.06 M597.993 1468.44 Q602.101 1464.33 607.519 1465.43 Q612.937 1466.49 619.124 1472.68 Q625.295 1478.85 626.375 1484.28 Q627.455 1489.68 623.347 1493.79 Q619.239 1497.9 613.821 1496.84 Q608.403 1495.74 602.232 1489.57 Q596.045 1483.38 594.965 1477.98 Q593.884 1472.55 597.993 1468.44 Z" fill="#000000" fill-rule="evenodd" fill-opacity="1" /><path clip-path="url(#clip240)" d="M705.693 1572.31 L711.094 1566.91 L692.451 1548.27 L687.754 1555.32 L684.742 1552.31 L689.407 1545.29 L692.713 1541.98 L714.368 1563.63 L719.77 1558.23 L722.552 1561.02 L708.476 1575.09 L705.693 1572.31 Z" fill="#000000" fill-rule="evenodd" fill-opacity="1" /><path clip-path="url(#clip240)" d="M723.174 1533.32 Q720.948 1535.55 721.161 1538.38 Q721.39 1541.19 724.042 1543.85 Q726.677 1546.48 729.509 1546.73 Q732.34 1546.94 734.566 1544.71 Q736.792 1542.49 736.563 1539.67 Q736.334 1536.82 733.699 1534.19 Q731.047 1531.54 728.216 1531.32 Q725.4 1531.09 723.174 1533.32 M719.377 1516.4 L722.388 1519.41 Q720.555 1520.06 718.968 1521.03 Q717.396 1521.98 716.152 1523.22 Q712.879 1526.5 713.353 1530.44 Q713.844 1534.37 718.067 1539.08 Q717.609 1536.69 718.313 1534.48 Q719 1532.26 720.752 1530.51 Q724.435 1526.82 728.805 1526.94 Q733.175 1527.02 737.022 1530.87 Q740.786 1534.63 740.835 1539.13 Q740.884 1543.63 737.185 1547.33 Q732.946 1551.57 727.463 1550.57 Q721.963 1549.56 715.792 1543.39 Q709.998 1537.59 709.31 1531.41 Q708.607 1525.2 713.239 1520.57 Q714.483 1519.33 715.989 1518.31 Q717.511 1517.28 719.377 1516.4 Z" fill="#000000" fill-rule="evenodd" fill-opacity="1" /><path clip-path="url(#clip240)" d="M746.744 1528.51 L750.198 1525.06 L754.355 1529.21 L750.902 1532.67 L746.744 1528.51 M733.568 1515.33 L737.022 1511.88 L741.179 1516.04 L737.725 1519.49 L733.568 1515.33 Z" fill="#000000" fill-rule="evenodd" fill-opacity="1" /><path clip-path="url(#clip240)" d="M746.662 1492.38 Q744.109 1494.94 745.337 1498.75 Q746.564 1502.53 751.606 1507.57 Q756.631 1512.6 760.428 1513.84 Q764.225 1515.05 766.779 1512.5 Q769.349 1509.93 768.121 1506.15 Q766.893 1502.34 761.868 1497.31 Q756.827 1492.27 753.03 1491.06 Q749.232 1489.81 746.662 1492.38 M744.044 1489.77 Q748.152 1485.66 753.57 1486.75 Q758.988 1487.82 765.175 1494 Q771.346 1500.18 772.426 1505.61 Q773.506 1511.01 769.398 1515.12 Q765.289 1519.23 759.872 1518.16 Q754.454 1517.07 748.283 1510.9 Q742.096 1504.71 741.015 1499.31 Q739.935 1493.87 744.044 1489.77 Z" fill="#000000" fill-rule="evenodd" fill-opacity="1" /><path clip-path="url(#clip240)" d="M767.99 1471.06 Q765.437 1473.61 766.664 1477.42 Q767.892 1481.2 772.933 1486.25 Q777.958 1491.27 781.756 1492.52 Q785.553 1493.73 788.107 1491.17 Q790.676 1488.6 789.449 1484.82 Q788.221 1481.01 783.196 1475.98 Q778.155 1470.94 774.357 1469.73 Q770.56 1468.49 767.99 1471.06 M765.371 1468.44 Q769.48 1464.33 774.897 1465.43 Q780.315 1466.49 786.502 1472.68 Q792.673 1478.85 793.754 1484.28 Q794.834 1489.68 790.725 1493.79 Q786.617 1497.9 781.199 1496.84 Q775.781 1495.74 769.611 1489.57 Q763.423 1483.38 762.343 1477.98 Q761.263 1472.55 765.371 1468.44 Z" fill="#000000" fill-rule="evenodd" fill-opacity="1" /><path clip-path="url(#clip240)" d="M873.071 1572.31 L878.473 1566.91 L859.83 1548.27 L855.132 1555.32 L852.12 1552.31 L856.785 1545.29 L860.091 1541.98 L881.746 1563.63 L887.148 1558.23 L889.931 1561.02 L875.854 1575.09 L873.071 1572.31 Z" fill="#000000" fill-rule="evenodd" fill-opacity="1" /><path clip-path="url(#clip240)" d="M871.336 1530.73 L887.05 1515.02 L888.457 1516.43 L902.616 1548.33 L899.162 1551.78 L885.855 1521.78 L874.119 1533.52 L871.336 1530.73 Z" fill="#000000" fill-rule="evenodd" fill-opacity="1" /><path clip-path="url(#clip240)" d="M914.123 1528.51 L917.576 1525.06 L921.734 1529.21 L918.28 1532.67 L914.123 1528.51 M900.946 1515.33 L904.4 1511.88 L908.557 1516.04 L905.104 1519.49 L900.946 1515.33 Z" fill="#000000" fill-rule="evenodd" fill-opacity="1" /><path clip-path="url(#clip240)" d="M914.041 1492.38 Q911.487 1494.94 912.715 1498.75 Q913.943 1502.53 918.984 1507.57 Q924.009 1512.6 927.806 1513.84 Q931.604 1515.05 934.157 1512.5 Q936.727 1509.93 935.499 1506.15 Q934.272 1502.34 929.247 1497.31 Q924.205 1492.27 920.408 1491.06 Q916.611 1489.81 914.041 1492.38 M911.422 1489.77 Q915.53 1485.66 920.948 1486.75 Q926.366 1487.82 932.553 1494 Q938.724 1500.18 939.804 1505.61 Q940.884 1511.01 936.776 1515.12 Q932.668 1519.23 927.25 1518.16 Q921.832 1517.07 915.661 1510.9 Q909.474 1504.71 908.394 1499.31 Q907.313 1493.87 911.422 1489.77 Z" fill="#000000" fill-rule="evenodd" fill-opacity="1" /><path clip-path="url(#clip240)" d="M935.368 1471.06 Q932.815 1473.61 934.043 1477.42 Q935.27 1481.2 940.312 1486.25 Q945.337 1491.27 949.134 1492.52 Q952.931 1493.73 955.485 1491.17 Q958.055 1488.6 956.827 1484.82 Q955.599 1481.01 950.574 1475.98 Q945.533 1470.94 941.736 1469.73 Q937.938 1468.49 935.368 1471.06 M932.75 1468.44 Q936.858 1464.33 942.276 1465.43 Q947.694 1466.49 953.881 1472.68 Q960.052 1478.85 961.132 1484.28 Q962.212 1489.68 958.104 1493.79 Q953.995 1497.9 948.577 1496.84 Q943.16 1495.74 936.989 1489.57 Q930.802 1483.38 929.721 1477.98 Q928.641 1472.55 932.75 1468.44 Z" fill="#000000" fill-rule="evenodd" fill-opacity="1" /><path clip-path="url(#clip240)" d="M1040.45 1572.31 L1045.85 1566.91 L1027.21 1548.27 L1022.51 1555.32 L1019.5 1552.31 L1024.16 1545.29 L1027.47 1541.98 L1049.12 1563.63 L1054.53 1558.23 L1057.31 1561.02 L1043.23 1575.09 L1040.45 1572.31 Z" fill="#000000" fill-rule="evenodd" fill-opacity="1" /><path clip-path="url(#clip240)" d="M1059.45 1535.66 Q1057.1 1538.02 1057 1540.64 Q1056.92 1543.24 1059.13 1545.45 Q1061.34 1547.66 1063.94 1547.58 Q1066.56 1547.48 1068.91 1545.12 Q1071.27 1542.77 1071.37 1540.15 Q1071.45 1537.51 1069.26 1535.32 Q1067.05 1533.11 1064.43 1533.21 Q1061.83 1533.29 1059.45 1535.66 M1054.74 1537.56 Q1052.09 1539.16 1049.44 1538.9 Q1046.8 1538.62 1044.71 1536.53 Q1041.78 1533.6 1042.15 1529.82 Q1042.54 1526.02 1046.18 1522.39 Q1049.83 1518.74 1053.61 1518.36 Q1057.39 1517.98 1060.32 1520.91 Q1062.42 1523.01 1062.68 1525.66 Q1062.96 1528.3 1061.37 1530.93 Q1064.31 1529.1 1067.26 1529.39 Q1070.22 1529.67 1072.56 1532.01 Q1076.12 1535.56 1075.84 1539.64 Q1075.58 1543.7 1071.53 1547.74 Q1067.49 1551.78 1063.41 1552.06 Q1059.35 1552.32 1055.8 1548.77 Q1053.46 1546.43 1053.18 1543.47 Q1052.91 1540.51 1054.74 1537.56 M1048.31 1533.55 Q1050.21 1535.45 1052.45 1535.33 Q1054.71 1535.2 1056.85 1533.06 Q1058.98 1530.93 1059.11 1528.67 Q1059.26 1526.4 1057.36 1524.5 Q1055.46 1522.6 1053.18 1522.75 Q1050.93 1522.88 1048.8 1525.01 Q1046.65 1527.15 1046.52 1529.41 Q1046.41 1531.65 1048.31 1533.55 Z" fill="#000000" fill-rule="evenodd" fill-opacity="1" /><path clip-path="url(#clip240)" d="M1081.5 1528.51 L1084.95 1525.06 L1089.11 1529.21 L1085.66 1532.67 L1081.5 1528.51 M1068.32 1515.33 L1071.78 1511.88 L1075.94 1516.04 L1072.48 1519.49 L1068.32 1515.33 Z" fill="#000000" fill-rule="evenodd" fill-opacity="1" /><path clip-path="url(#clip240)" d="M1081.42 1492.38 Q1078.87 1494.94 1080.09 1498.75 Q1081.32 1502.53 1086.36 1507.57 Q1091.39 1512.6 1095.18 1513.84 Q1098.98 1515.05 1101.54 1512.5 Q1104.11 1509.93 1102.88 1506.15 Q1101.65 1502.34 1096.63 1497.31 Q1091.58 1492.27 1087.79 1491.06 Q1083.99 1489.81 1081.42 1492.38 M1078.8 1489.77 Q1082.91 1485.66 1088.33 1486.75 Q1093.74 1487.82 1099.93 1494 Q1106.1 1500.18 1107.18 1505.61 Q1108.26 1511.01 1104.15 1515.12 Q1100.05 1519.23 1094.63 1518.16 Q1089.21 1517.07 1083.04 1510.9 Q1076.85 1504.71 1075.77 1499.31 Q1074.69 1493.87 1078.8 1489.77 Z" fill="#000000" fill-rule="evenodd" fill-opacity="1" /><path clip-path="url(#clip240)" d="M1102.75 1471.06 Q1100.19 1473.61 1101.42 1477.42 Q1102.65 1481.2 1107.69 1486.25 Q1112.71 1491.27 1116.51 1492.52 Q1120.31 1493.73 1122.86 1491.17 Q1125.43 1488.6 1124.21 1484.82 Q1122.98 1481.01 1117.95 1475.98 Q1112.91 1470.94 1109.11 1469.73 Q1105.32 1468.49 1102.75 1471.06 M1100.13 1468.44 Q1104.24 1464.33 1109.65 1465.43 Q1115.07 1466.49 1121.26 1472.68 Q1127.43 1478.85 1128.51 1484.28 Q1129.59 1489.68 1125.48 1493.79 Q1121.37 1497.9 1115.96 1496.84 Q1110.54 1495.74 1104.37 1489.57 Q1098.18 1483.38 1097.1 1477.98 Q1096.02 1472.55 1100.13 1468.44 Z" fill="#000000" fill-rule="evenodd" fill-opacity="1" /><path clip-path="url(#clip240)" d="M1207.83 1572.31 L1213.23 1566.91 L1194.59 1548.27 L1189.89 1555.32 L1186.88 1552.31 L1191.54 1545.29 L1194.85 1541.98 L1216.5 1563.63 L1221.9 1558.23 L1224.69 1561.02 L1210.61 1575.09 L1207.83 1572.31 Z" fill="#000000" fill-rule="evenodd" fill-opacity="1" /><path clip-path="url(#clip240)" d="M1230.96 1553.73 L1227.94 1550.72 Q1229.78 1550.07 1231.37 1549.1 Q1232.95 1548.13 1234.18 1546.91 Q1237.45 1543.63 1236.98 1539.72 Q1236.5 1535.78 1232.27 1531.05 Q1232.72 1533.4 1232.02 1535.61 Q1231.32 1537.82 1229.55 1539.59 Q1225.88 1543.26 1221.53 1543.19 Q1217.17 1543.09 1213.33 1539.25 Q1209.56 1535.48 1209.51 1530.98 Q1209.46 1526.48 1213.16 1522.78 Q1217.4 1518.54 1222.89 1519.57 Q1228.37 1520.57 1234.56 1526.76 Q1240.34 1532.54 1241.04 1538.74 Q1241.74 1544.91 1237.11 1549.54 Q1235.87 1550.79 1234.34 1551.82 Q1232.82 1552.85 1230.96 1553.73 M1227.18 1536.79 Q1229.4 1534.56 1229.17 1531.75 Q1228.96 1528.92 1226.31 1526.27 Q1223.67 1523.63 1220.84 1523.42 Q1218.01 1523.17 1215.78 1525.4 Q1213.56 1527.62 1213.79 1530.47 Q1214.02 1533.29 1216.65 1535.92 Q1219.3 1538.58 1222.12 1538.8 Q1224.95 1539.02 1227.18 1536.79 Z" fill="#000000" fill-rule="evenodd" fill-opacity="1" /><path clip-path="url(#clip240)" d="M1248.88 1528.51 L1252.33 1525.06 L1256.49 1529.21 L1253.04 1532.67 L1248.88 1528.51 M1235.7 1515.33 L1239.16 1511.88 L1243.31 1516.04 L1239.86 1519.49 L1235.7 1515.33 Z" fill="#000000" fill-rule="evenodd" fill-opacity="1" /><path clip-path="url(#clip240)" d="M1248.8 1492.38 Q1246.24 1494.94 1247.47 1498.75 Q1248.7 1502.53 1253.74 1507.57 Q1258.77 1512.6 1262.56 1513.84 Q1266.36 1515.05 1268.91 1512.5 Q1271.48 1509.93 1270.26 1506.15 Q1269.03 1502.34 1264 1497.31 Q1258.96 1492.27 1255.16 1491.06 Q1251.37 1489.81 1248.8 1492.38 M1246.18 1489.77 Q1250.29 1485.66 1255.7 1486.75 Q1261.12 1487.82 1267.31 1494 Q1273.48 1500.18 1274.56 1505.61 Q1275.64 1511.01 1271.53 1515.12 Q1267.42 1519.23 1262.01 1518.16 Q1256.59 1517.07 1250.42 1510.9 Q1244.23 1504.71 1243.15 1499.31 Q1242.07 1493.87 1246.18 1489.77 Z" fill="#000000" fill-rule="evenodd" fill-opacity="1" /><path clip-path="url(#clip240)" d="M1270.13 1471.06 Q1267.57 1473.61 1268.8 1477.42 Q1270.03 1481.2 1275.07 1486.25 Q1280.09 1491.27 1283.89 1492.52 Q1287.69 1493.73 1290.24 1491.17 Q1292.81 1488.6 1291.58 1484.82 Q1290.36 1481.01 1285.33 1475.98 Q1280.29 1470.94 1276.49 1469.73 Q1272.69 1468.49 1270.13 1471.06 M1267.51 1468.44 Q1271.61 1464.33 1277.03 1465.43 Q1282.45 1466.49 1288.64 1472.68 Q1294.81 1478.85 1295.89 1484.28 Q1296.97 1489.68 1292.86 1493.79 Q1288.75 1497.9 1283.33 1496.84 Q1277.92 1495.74 1271.75 1489.57 Q1265.56 1483.38 1264.48 1477.98 Q1263.4 1472.55 1267.51 1468.44 Z" fill="#000000" fill-rule="evenodd" fill-opacity="1" /><path clip-path="url(#clip240)" d="M1377.48 1570.03 L1389.02 1558.5 L1391.8 1561.28 L1376.29 1576.79 L1373.5 1574.01 Q1373.44 1570.18 1373.41 1563.67 Q1373.37 1557.12 1373.26 1555.34 Q1373.06 1551.96 1372.46 1550.11 Q1371.85 1548.23 1370.66 1547.04 Q1368.71 1545.09 1366.11 1545.24 Q1363.52 1545.37 1361.33 1547.56 Q1359.77 1549.12 1358.58 1551.39 Q1357.4 1553.65 1356.53 1556.71 L1353.19 1553.37 Q1354.39 1550.57 1355.71 1548.43 Q1357.04 1546.28 1358.48 1544.84 Q1362.28 1541.05 1366.43 1540.69 Q1370.59 1540.33 1373.77 1543.5 Q1375.27 1545.01 1376.06 1546.94 Q1376.84 1548.84 1377.19 1552.16 Q1377.25 1553.04 1377.33 1557.51 Q1377.4 1561.97 1377.48 1570.03 Z" fill="#000000" fill-rule="evenodd" fill-opacity="1" /><path clip-path="url(#clip240)" d="M1383.55 1525.01 Q1381 1527.56 1382.23 1531.37 Q1383.46 1535.15 1388.5 1540.2 Q1393.52 1545.22 1397.32 1546.46 Q1401.12 1547.68 1403.67 1545.12 Q1406.24 1542.55 1405.01 1538.77 Q1403.79 1534.96 1398.76 1529.93 Q1393.72 1524.89 1389.92 1523.68 Q1386.12 1522.44 1383.55 1525.01 M1380.94 1522.39 Q1385.04 1518.28 1390.46 1519.38 Q1395.88 1520.44 1402.07 1526.63 Q1408.24 1532.8 1409.32 1538.23 Q1410.4 1543.63 1406.29 1547.74 Q1402.18 1551.85 1396.76 1550.79 Q1391.35 1549.69 1385.17 1543.52 Q1378.99 1537.33 1377.91 1531.93 Q1376.83 1526.5 1380.94 1522.39 Z" fill="#000000" fill-rule="evenodd" fill-opacity="1" /><path clip-path="url(#clip240)" d="M1416.26 1528.51 L1419.71 1525.06 L1423.87 1529.21 L1420.42 1532.67 L1416.26 1528.51 M1403.08 1515.33 L1406.53 1511.88 L1410.69 1516.04 L1407.24 1519.49 L1403.08 1515.33 Z" fill="#000000" fill-rule="evenodd" fill-opacity="1" /><path clip-path="url(#clip240)" d="M1416.18 1492.38 Q1413.62 1494.94 1414.85 1498.75 Q1416.08 1502.53 1421.12 1507.57 Q1426.14 1512.6 1429.94 1513.84 Q1433.74 1515.05 1436.29 1512.5 Q1438.86 1509.93 1437.63 1506.15 Q1436.41 1502.34 1431.38 1497.31 Q1426.34 1492.27 1422.54 1491.06 Q1418.75 1489.81 1416.18 1492.38 M1413.56 1489.77 Q1417.67 1485.66 1423.08 1486.75 Q1428.5 1487.82 1434.69 1494 Q1440.86 1500.18 1441.94 1505.61 Q1443.02 1511.01 1438.91 1515.12 Q1434.8 1519.23 1429.38 1518.16 Q1423.97 1517.07 1417.8 1510.9 Q1411.61 1504.71 1410.53 1499.31 Q1409.45 1493.87 1413.56 1489.77 Z" fill="#000000" fill-rule="evenodd" fill-opacity="1" /><path clip-path="url(#clip240)" d="M1437.5 1471.06 Q1434.95 1473.61 1436.18 1477.42 Q1437.41 1481.2 1442.45 1486.25 Q1447.47 1491.27 1451.27 1492.52 Q1455.07 1493.73 1457.62 1491.17 Q1460.19 1488.6 1458.96 1484.82 Q1457.73 1481.01 1452.71 1475.98 Q1447.67 1470.94 1443.87 1469.73 Q1440.07 1468.49 1437.5 1471.06 M1434.88 1468.44 Q1438.99 1464.33 1444.41 1465.43 Q1449.83 1466.49 1456.02 1472.68 Q1462.19 1478.85 1463.27 1484.28 Q1464.35 1489.68 1460.24 1493.79 Q1456.13 1497.9 1450.71 1496.84 Q1445.29 1495.74 1439.12 1489.57 Q1432.94 1483.38 1431.86 1477.98 Q1430.78 1472.55 1434.88 1468.44 Z" fill="#000000" fill-rule="evenodd" fill-opacity="1" /><path clip-path="url(#clip240)" d="M1544.86 1570.03 L1556.4 1558.5 L1559.18 1561.28 L1543.66 1576.79 L1540.88 1574.01 Q1540.82 1570.18 1540.78 1563.67 Q1540.75 1557.12 1540.64 1555.34 Q1540.44 1551.96 1539.83 1550.11 Q1539.23 1548.23 1538.03 1547.04 Q1536.09 1545.09 1533.48 1545.24 Q1530.9 1545.37 1528.7 1547.56 Q1527.15 1549.12 1525.95 1551.39 Q1524.78 1553.65 1523.91 1556.71 L1520.57 1553.37 Q1521.76 1550.57 1523.09 1548.43 Q1524.42 1546.28 1525.86 1544.84 Q1529.65 1541.05 1533.81 1540.69 Q1537.97 1540.33 1541.14 1543.5 Q1542.65 1545.01 1543.44 1546.94 Q1544.22 1548.84 1544.57 1552.16 Q1544.63 1553.04 1544.71 1557.51 Q1544.78 1561.97 1544.86 1570.03 Z" fill="#000000" fill-rule="evenodd" fill-opacity="1" /><path clip-path="url(#clip240)" d="M1563.91 1550.98 L1569.31 1545.58 L1550.67 1526.94 L1545.97 1533.99 L1542.96 1530.98 L1547.63 1523.96 L1550.93 1520.65 L1572.59 1542.31 L1577.99 1536.91 L1580.77 1539.69 L1566.69 1553.76 L1563.91 1550.98 Z" fill="#000000" fill-rule="evenodd" fill-opacity="1" /><path clip-path="url(#clip240)" d="M1583.64 1528.51 L1587.09 1525.06 L1591.25 1529.21 L1587.79 1532.67 L1583.64 1528.51 M1570.46 1515.33 L1573.91 1511.88 L1578.07 1516.04 L1574.62 1519.49 L1570.46 1515.33 Z" fill="#000000" fill-rule="evenodd" fill-opacity="1" /><path clip-path="url(#clip240)" d="M1583.55 1492.38 Q1581 1494.94 1582.23 1498.75 Q1583.46 1502.53 1588.5 1507.57 Q1593.52 1512.6 1597.32 1513.84 Q1601.12 1515.05 1603.67 1512.5 Q1606.24 1509.93 1605.01 1506.15 Q1603.79 1502.34 1598.76 1497.31 Q1593.72 1492.27 1589.92 1491.06 Q1586.12 1489.81 1583.55 1492.38 M1580.94 1489.77 Q1585.04 1485.66 1590.46 1486.75 Q1595.88 1487.82 1602.07 1494 Q1608.24 1500.18 1609.32 1505.61 Q1610.4 1511.01 1606.29 1515.12 Q1602.18 1519.23 1596.76 1518.16 Q1591.35 1517.07 1585.17 1510.9 Q1578.99 1504.71 1577.91 1499.31 Q1576.83 1493.87 1580.94 1489.77 Z" fill="#000000" fill-rule="evenodd" fill-opacity="1" /><path clip-path="url(#clip240)" d="M1604.88 1471.06 Q1602.33 1473.61 1603.56 1477.42 Q1604.78 1481.2 1609.82 1486.25 Q1614.85 1491.27 1618.65 1492.52 Q1622.44 1493.73 1625 1491.17 Q1627.57 1488.6 1626.34 1484.82 Q1625.11 1481.01 1620.09 1475.98 Q1615.05 1470.94 1611.25 1469.73 Q1607.45 1468.49 1604.88 1471.06 M1602.26 1468.44 Q1606.37 1464.33 1611.79 1465.43 Q1617.21 1466.49 1623.39 1472.68 Q1629.56 1478.85 1630.65 1484.28 Q1631.73 1489.68 1627.62 1493.79 Q1623.51 1497.9 1618.09 1496.84 Q1612.67 1495.74 1606.5 1489.57 Q1600.32 1483.38 1599.23 1477.98 Q1598.15 1472.55 1602.26 1468.44 Z" fill="#000000" fill-rule="evenodd" fill-opacity="1" /><path clip-path="url(#clip240)" d="M1712.24 1570.03 L1723.78 1558.5 L1726.56 1561.28 L1711.04 1576.79 L1708.26 1574.01 Q1708.2 1570.18 1708.16 1563.67 Q1708.13 1557.12 1708.02 1555.34 Q1707.82 1551.96 1707.21 1550.11 Q1706.61 1548.23 1705.41 1547.04 Q1703.46 1545.09 1700.86 1545.24 Q1698.28 1545.37 1696.08 1547.56 Q1694.53 1549.12 1693.33 1551.39 Q1692.15 1553.65 1691.29 1556.71 L1687.95 1553.37 Q1689.14 1550.57 1690.47 1548.43 Q1691.79 1546.28 1693.23 1544.84 Q1697.03 1541.05 1701.19 1540.69 Q1705.35 1540.33 1708.52 1543.5 Q1710.03 1545.01 1710.81 1546.94 Q1711.6 1548.84 1711.94 1552.16 Q1712.01 1553.04 1712.09 1557.51 Q1712.16 1561.97 1712.24 1570.03 Z" fill="#000000" fill-rule="evenodd" fill-opacity="1" /><path clip-path="url(#clip240)" d="M1733.57 1548.71 L1745.11 1537.17 L1747.89 1539.95 L1732.37 1555.47 L1729.59 1552.68 Q1729.52 1548.85 1729.49 1542.34 Q1729.46 1535.79 1729.34 1534.01 Q1729.15 1530.64 1728.54 1528.79 Q1727.94 1526.9 1726.74 1525.71 Q1724.79 1523.76 1722.19 1523.91 Q1719.6 1524.04 1717.41 1526.23 Q1715.86 1527.79 1714.66 1530.06 Q1713.48 1532.32 1712.61 1535.38 L1709.28 1532.04 Q1710.47 1529.25 1711.8 1527.1 Q1713.12 1524.96 1714.56 1523.52 Q1718.36 1519.72 1722.52 1519.36 Q1726.67 1519 1729.85 1522.17 Q1731.36 1523.68 1732.14 1525.61 Q1732.93 1527.51 1733.27 1530.83 Q1733.34 1531.72 1733.42 1536.19 Q1733.48 1540.64 1733.57 1548.71 Z" fill="#000000" fill-rule="evenodd" fill-opacity="1" /><path clip-path="url(#clip240)" d="M1751.01 1528.51 L1754.47 1525.06 L1758.63 1529.21 L1755.17 1532.67 L1751.01 1528.51 M1737.84 1515.33 L1741.29 1511.88 L1745.45 1516.04 L1742 1519.49 L1737.84 1515.33 Z" fill="#000000" fill-rule="evenodd" fill-opacity="1" /><path clip-path="url(#clip240)" d="M1750.93 1492.38 Q1748.38 1494.94 1749.61 1498.75 Q1750.83 1502.53 1755.88 1507.57 Q1760.9 1512.6 1764.7 1513.84 Q1768.5 1515.05 1771.05 1512.5 Q1773.62 1509.93 1772.39 1506.15 Q1771.16 1502.34 1766.14 1497.31 Q1761.1 1492.27 1757.3 1491.06 Q1753.5 1489.81 1750.93 1492.38 M1748.31 1489.77 Q1752.42 1485.66 1757.84 1486.75 Q1763.26 1487.82 1769.44 1494 Q1775.62 1500.18 1776.7 1505.61 Q1777.78 1511.01 1773.67 1515.12 Q1769.56 1519.23 1764.14 1518.16 Q1758.72 1517.07 1752.55 1510.9 Q1746.37 1504.71 1745.29 1499.31 Q1744.21 1493.87 1748.31 1489.77 Z" fill="#000000" fill-rule="evenodd" fill-opacity="1" /><path clip-path="url(#clip240)" d="M1772.26 1471.06 Q1769.71 1473.61 1770.93 1477.42 Q1772.16 1481.2 1777.2 1486.25 Q1782.23 1491.27 1786.03 1492.52 Q1789.82 1493.73 1792.38 1491.17 Q1794.95 1488.6 1793.72 1484.82 Q1792.49 1481.01 1787.47 1475.98 Q1782.42 1470.94 1778.63 1469.73 Q1774.83 1468.49 1772.26 1471.06 M1769.64 1468.44 Q1773.75 1464.33 1779.17 1465.43 Q1784.59 1466.49 1790.77 1472.68 Q1796.94 1478.85 1798.02 1484.28 Q1799.1 1489.68 1795 1493.79 Q1790.89 1497.9 1785.47 1496.84 Q1780.05 1495.74 1773.88 1489.57 Q1767.69 1483.38 1766.61 1477.98 Q1765.53 1472.55 1769.64 1468.44 Z" fill="#000000" fill-rule="evenodd" fill-opacity="1" /><path clip-path="url(#clip240)" d="M1879.62 1570.03 L1891.16 1558.5 L1893.94 1561.28 L1878.42 1576.79 L1875.64 1574.01 Q1875.57 1570.18 1875.54 1563.67 Q1875.51 1557.12 1875.39 1555.34 Q1875.2 1551.96 1874.59 1550.11 Q1873.99 1548.23 1872.79 1547.04 Q1870.84 1545.09 1868.24 1545.24 Q1865.65 1545.37 1863.46 1547.56 Q1861.91 1549.12 1860.71 1551.39 Q1859.53 1553.65 1858.67 1556.71 L1855.33 1553.37 Q1856.52 1550.57 1857.85 1548.43 Q1859.17 1546.28 1860.61 1544.84 Q1864.41 1541.05 1868.57 1540.69 Q1872.73 1540.33 1875.9 1543.5 Q1877.41 1545.01 1878.19 1546.94 Q1878.98 1548.84 1879.32 1552.16 Q1879.39 1553.04 1879.47 1557.51 Q1879.53 1561.97 1879.62 1570.03 Z" fill="#000000" fill-rule="evenodd" fill-opacity="1" /><path clip-path="url(#clip240)" d="M1897.72 1531.14 Q1900.6 1529.28 1903.53 1529.56 Q1906.48 1529.82 1908.83 1532.18 Q1912.45 1535.79 1911.94 1540.26 Q1911.44 1544.73 1906.85 1549.31 Q1905.31 1550.85 1903.37 1552.18 Q1901.45 1553.5 1899.11 1554.63 L1895.92 1551.44 Q1898.1 1550.87 1900.14 1549.64 Q1902.19 1548.41 1903.97 1546.63 Q1907.08 1543.52 1907.48 1540.67 Q1907.88 1537.81 1905.54 1535.47 Q1903.38 1533.3 1900.65 1533.62 Q1897.92 1533.89 1895.22 1536.59 L1892.37 1539.44 L1889.65 1536.73 L1892.63 1533.75 Q1895.07 1531.31 1895.4 1529.05 Q1895.71 1526.77 1893.87 1524.94 Q1891.99 1523.06 1889.65 1523.4 Q1887.31 1523.71 1884.82 1526.2 Q1883.46 1527.56 1882.2 1529.41 Q1880.94 1531.26 1879.7 1533.75 L1876.75 1530.8 Q1878.11 1528.39 1879.49 1526.5 Q1880.88 1524.58 1882.33 1523.12 Q1886.1 1519.36 1890.01 1518.88 Q1893.91 1518.39 1896.82 1521.31 Q1898.85 1523.34 1899.09 1525.91 Q1899.32 1528.46 1897.72 1531.14 Z" fill="#000000" fill-rule="evenodd" fill-opacity="1" /><path clip-path="url(#clip240)" d="M1918.39 1528.51 L1921.85 1525.06 L1926 1529.21 L1922.55 1532.67 L1918.39 1528.51 M1905.22 1515.33 L1908.67 1511.88 L1912.83 1516.04 L1909.37 1519.49 L1905.22 1515.33 Z" fill="#000000" fill-rule="evenodd" fill-opacity="1" /><path clip-path="url(#clip240)" d="M1918.31 1492.38 Q1915.76 1494.94 1916.98 1498.75 Q1918.21 1502.53 1923.25 1507.57 Q1928.28 1512.6 1932.08 1513.84 Q1935.87 1515.05 1938.43 1512.5 Q1941 1509.93 1939.77 1506.15 Q1938.54 1502.34 1933.52 1497.31 Q1928.48 1492.27 1924.68 1491.06 Q1920.88 1489.81 1918.31 1492.38 M1915.69 1489.77 Q1919.8 1485.66 1925.22 1486.75 Q1930.64 1487.82 1936.82 1494 Q1942.99 1500.18 1944.07 1505.61 Q1945.15 1511.01 1941.05 1515.12 Q1936.94 1519.23 1931.52 1518.16 Q1926.1 1517.07 1919.93 1510.9 Q1913.74 1504.71 1912.66 1499.31 Q1911.58 1493.87 1915.69 1489.77 Z" fill="#000000" fill-rule="evenodd" fill-opacity="1" /><path clip-path="url(#clip240)" d="M1939.64 1471.06 Q1937.08 1473.61 1938.31 1477.42 Q1939.54 1481.2 1944.58 1486.25 Q1949.61 1491.27 1953.4 1492.52 Q1957.2 1493.73 1959.75 1491.17 Q1962.32 1488.6 1961.1 1484.82 Q1959.87 1481.01 1954.84 1475.98 Q1949.8 1470.94 1946.01 1469.73 Q1942.21 1468.49 1939.64 1471.06 M1937.02 1468.44 Q1941.13 1464.33 1946.55 1465.43 Q1951.96 1466.49 1958.15 1472.68 Q1964.32 1478.85 1965.4 1484.28 Q1966.48 1489.68 1962.37 1493.79 Q1958.27 1497.9 1952.85 1496.84 Q1947.43 1495.74 1941.26 1489.57 Q1935.07 1483.38 1933.99 1477.98 Q1932.91 1472.55 1937.02 1468.44 Z" fill="#000000" fill-rule="evenodd" fill-opacity="1" /><path clip-path="url(#clip240)" d="M2031.74 1546.33 Q2029.19 1548.89 2030.41 1552.7 Q2031.64 1556.48 2036.68 1561.52 Q2041.71 1566.55 2045.51 1567.79 Q2049.3 1569 2051.86 1566.45 Q2054.43 1563.88 2053.2 1560.1 Q2051.97 1556.29 2046.95 1551.26 Q2041.9 1546.22 2038.11 1545.01 Q2034.31 1543.76 2031.74 1546.33 M2029.12 1543.71 Q2033.23 1539.61 2038.65 1540.7 Q2044.06 1541.77 2050.25 1547.95 Q2056.42 1554.12 2057.5 1559.56 Q2058.58 1564.96 2054.48 1569.07 Q2050.37 1573.18 2044.95 1572.11 Q2039.53 1571.02 2033.36 1564.85 Q2027.17 1558.66 2026.09 1553.26 Q2025.01 1547.82 2029.12 1543.71 Z" fill="#000000" fill-rule="evenodd" fill-opacity="1" /><path clip-path="url(#clip240)" d="M2053.07 1525.01 Q2050.51 1527.56 2051.74 1531.37 Q2052.97 1535.15 2058.01 1540.2 Q2063.04 1545.22 2066.83 1546.46 Q2070.63 1547.68 2073.18 1545.12 Q2075.75 1542.55 2074.53 1538.77 Q2073.3 1534.96 2068.27 1529.93 Q2063.23 1524.89 2059.43 1523.68 Q2055.64 1522.44 2053.07 1525.01 M2050.45 1522.39 Q2054.56 1518.28 2059.97 1519.38 Q2065.39 1520.44 2071.58 1526.63 Q2077.75 1532.8 2078.83 1538.23 Q2079.91 1543.63 2075.8 1547.74 Q2071.69 1551.85 2066.28 1550.79 Q2060.86 1549.69 2054.69 1543.52 Q2048.5 1537.33 2047.42 1531.93 Q2046.34 1526.5 2050.45 1522.39 Z" fill="#000000" fill-rule="evenodd" fill-opacity="1" /><path clip-path="url(#clip240)" d="M2085.77 1528.51 L2089.22 1525.06 L2093.38 1529.21 L2089.93 1532.67 L2085.77 1528.51 M2072.59 1515.33 L2076.05 1511.88 L2080.21 1516.04 L2076.75 1519.49 L2072.59 1515.33 Z" fill="#000000" fill-rule="evenodd" fill-opacity="1" /><path clip-path="url(#clip240)" d="M2085.69 1492.38 Q2083.14 1494.94 2084.36 1498.75 Q2085.59 1502.53 2090.63 1507.57 Q2095.66 1512.6 2099.45 1513.84 Q2103.25 1515.05 2105.81 1512.5 Q2108.38 1509.93 2107.15 1506.15 Q2105.92 1502.34 2100.9 1497.31 Q2095.85 1492.27 2092.06 1491.06 Q2088.26 1489.81 2085.69 1492.38 M2083.07 1489.77 Q2087.18 1485.66 2092.6 1486.75 Q2098.01 1487.82 2104.2 1494 Q2110.37 1500.18 2111.45 1505.61 Q2112.53 1511.01 2108.42 1515.12 Q2104.32 1519.23 2098.9 1518.16 Q2093.48 1517.07 2087.31 1510.9 Q2081.12 1504.71 2080.04 1499.31 Q2078.96 1493.87 2083.07 1489.77 Z" fill="#000000" fill-rule="evenodd" fill-opacity="1" /><path clip-path="url(#clip240)" d="M2107.02 1471.06 Q2104.46 1473.61 2105.69 1477.42 Q2106.92 1481.2 2111.96 1486.25 Q2116.98 1491.27 2120.78 1492.52 Q2124.58 1493.73 2127.13 1491.17 Q2129.7 1488.6 2128.48 1484.82 Q2127.25 1481.01 2122.22 1475.98 Q2117.18 1470.94 2113.38 1469.73 Q2109.59 1468.49 2107.02 1471.06 M2104.4 1468.44 Q2108.51 1464.33 2113.92 1465.43 Q2119.34 1466.49 2125.53 1472.68 Q2131.7 1478.85 2132.78 1484.28 Q2133.86 1489.68 2129.75 1493.79 Q2125.64 1497.9 2120.23 1496.84 Q2114.81 1495.74 2108.64 1489.57 Q2102.45 1483.38 2101.37 1477.98 Q2100.29 1472.55 2104.4 1468.44 Z" fill="#000000" fill-rule="evenodd" fill-opacity="1" /><polyline clip-path="url(#clip242)" style="stroke:#000000; stroke-linecap:butt; stroke-linejoin:round; stroke-width:2; stroke-opacity:0.1; fill:none" points="
  224.098,1297.84 2352.76,1297.84 
  "/>
<polyline clip-path="url(#clip242)" style="stroke:#000000; stroke-linecap:butt; stroke-linejoin:round; stroke-width:2; stroke-opacity:0.1; fill:none" points="
  224.098,1086.97 2352.76,1086.97 
  "/>
<polyline clip-path="url(#clip242)" style="stroke:#000000; stroke-linecap:butt; stroke-linejoin:round; stroke-width:2; stroke-opacity:0.1; fill:none" points="
  224.098,876.095 2352.76,876.095 
  "/>
<polyline clip-path="url(#clip242)" style="stroke:#000000; stroke-linecap:butt; stroke-linejoin:round; stroke-width:2; stroke-opacity:0.1; fill:none" points="
  224.098,665.221 2352.76,665.221 
  "/>
<polyline clip-path="url(#clip242)" style="stroke:#000000; stroke-linecap:butt; stroke-linejoin:round; stroke-width:2; stroke-opacity:0.1; fill:none" points="
  224.098,454.346 2352.76,454.346 
  "/>
<polyline clip-path="url(#clip242)" style="stroke:#000000; stroke-linecap:butt; stroke-linejoin:round; stroke-width:2; stroke-opacity:0.1; fill:none" points="
  224.098,243.472 2352.76,243.472 
  "/>
<polyline clip-path="url(#clip240)" style="stroke:#000000; stroke-linecap:butt; stroke-linejoin:round; stroke-width:4; stroke-opacity:1; fill:none" points="
  224.098,1435.12 224.098,123.472 
  "/>
<polyline clip-path="url(#clip240)" style="stroke:#000000; stroke-linecap:butt; stroke-linejoin:round; stroke-width:4; stroke-opacity:1; fill:none" points="
  224.098,1297.84 242.996,1297.84 
  "/>
<polyline clip-path="url(#clip240)" style="stroke:#000000; stroke-linecap:butt; stroke-linejoin:round; stroke-width:4; stroke-opacity:1; fill:none" points="
  224.098,1086.97 242.996,1086.97 
  "/>
<polyline clip-path="url(#clip240)" style="stroke:#000000; stroke-linecap:butt; stroke-linejoin:round; stroke-width:4; stroke-opacity:1; fill:none" points="
  224.098,876.095 242.996,876.095 
  "/>
<polyline clip-path="url(#clip240)" style="stroke:#000000; stroke-linecap:butt; stroke-linejoin:round; stroke-width:4; stroke-opacity:1; fill:none" points="
  224.098,665.221 242.996,665.221 
  "/>
<polyline clip-path="url(#clip240)" style="stroke:#000000; stroke-linecap:butt; stroke-linejoin:round; stroke-width:4; stroke-opacity:1; fill:none" points="
  224.098,454.346 242.996,454.346 
  "/>
<polyline clip-path="url(#clip240)" style="stroke:#000000; stroke-linecap:butt; stroke-linejoin:round; stroke-width:4; stroke-opacity:1; fill:none" points="
  224.098,243.472 242.996,243.472 
  "/>
<path clip-path="url(#clip240)" d="M50.9921 1298.3 L80.6679 1298.3 L80.6679 1302.23 L50.9921 1302.23 L50.9921 1298.3 Z" fill="#000000" fill-rule="evenodd" fill-opacity="1" /><path clip-path="url(#clip240)" d="M100.76 1283.64 Q97.1493 1283.64 95.3206 1287.21 Q93.515 1290.75 93.515 1297.88 Q93.515 1304.99 95.3206 1308.55 Q97.1493 1312.09 100.76 1312.09 Q104.395 1312.09 106.2 1308.55 Q108.029 1304.99 108.029 1297.88 Q108.029 1290.75 106.2 1287.21 Q104.395 1283.64 100.76 1283.64 M100.76 1279.94 Q106.571 1279.94 109.626 1284.55 Q112.705 1289.13 112.705 1297.88 Q112.705 1306.61 109.626 1311.21 Q106.571 1315.8 100.76 1315.8 Q94.9502 1315.8 91.8715 1311.21 Q88.816 1306.61 88.816 1297.88 Q88.816 1289.13 91.8715 1284.55 Q94.9502 1279.94 100.76 1279.94 Z" fill="#000000" fill-rule="evenodd" fill-opacity="1" /><path clip-path="url(#clip240)" d="M120.922 1309.24 L125.807 1309.24 L125.807 1315.12 L120.922 1315.12 L120.922 1309.24 Z" fill="#000000" fill-rule="evenodd" fill-opacity="1" /><path clip-path="url(#clip240)" d="M136.802 1311.19 L144.441 1311.19 L144.441 1284.82 L136.131 1286.49 L136.131 1282.23 L144.394 1280.56 L149.07 1280.56 L149.07 1311.19 L156.709 1311.19 L156.709 1315.12 L136.802 1315.12 L136.802 1311.19 Z" fill="#000000" fill-rule="evenodd" fill-opacity="1" /><path clip-path="url(#clip240)" d="M176.153 1283.64 Q172.542 1283.64 170.714 1287.21 Q168.908 1290.75 168.908 1297.88 Q168.908 1304.99 170.714 1308.55 Q172.542 1312.09 176.153 1312.09 Q179.788 1312.09 181.593 1308.55 Q183.422 1304.99 183.422 1297.88 Q183.422 1290.75 181.593 1287.21 Q179.788 1283.64 176.153 1283.64 M176.153 1279.94 Q181.964 1279.94 185.019 1284.55 Q188.098 1289.13 188.098 1297.88 Q188.098 1306.61 185.019 1311.21 Q181.964 1315.8 176.153 1315.8 Q170.343 1315.8 167.265 1311.21 Q164.209 1306.61 164.209 1297.88 Q164.209 1289.13 167.265 1284.55 Q170.343 1279.94 176.153 1279.94 Z" fill="#000000" fill-rule="evenodd" fill-opacity="1" /><path clip-path="url(#clip240)" d="M51.9875 1087.42 L81.6633 1087.42 L81.6633 1091.36 L51.9875 1091.36 L51.9875 1087.42 Z" fill="#000000" fill-rule="evenodd" fill-opacity="1" /><path clip-path="url(#clip240)" d="M101.756 1072.77 Q98.1447 1072.77 96.316 1076.33 Q94.5104 1079.87 94.5104 1087 Q94.5104 1094.11 96.316 1097.68 Q98.1447 1101.22 101.756 1101.22 Q105.39 1101.22 107.196 1097.68 Q109.024 1094.11 109.024 1087 Q109.024 1079.87 107.196 1076.33 Q105.39 1072.77 101.756 1072.77 M101.756 1069.06 Q107.566 1069.06 110.621 1073.67 Q113.7 1078.25 113.7 1087 Q113.7 1095.73 110.621 1100.34 Q107.566 1104.92 101.756 1104.92 Q95.9456 1104.92 92.8669 1100.34 Q89.8114 1095.73 89.8114 1087 Q89.8114 1078.25 92.8669 1073.67 Q95.9456 1069.06 101.756 1069.06 Z" fill="#000000" fill-rule="evenodd" fill-opacity="1" /><path clip-path="url(#clip240)" d="M121.918 1098.37 L126.802 1098.37 L126.802 1104.25 L121.918 1104.25 L121.918 1098.37 Z" fill="#000000" fill-rule="evenodd" fill-opacity="1" /><path clip-path="url(#clip240)" d="M146.987 1072.77 Q143.376 1072.77 141.547 1076.33 Q139.742 1079.87 139.742 1087 Q139.742 1094.11 141.547 1097.68 Q143.376 1101.22 146.987 1101.22 Q150.621 1101.22 152.427 1097.68 Q154.255 1094.11 154.255 1087 Q154.255 1079.87 152.427 1076.33 Q150.621 1072.77 146.987 1072.77 M146.987 1069.06 Q152.797 1069.06 155.853 1073.67 Q158.931 1078.25 158.931 1087 Q158.931 1095.73 155.853 1100.34 Q152.797 1104.92 146.987 1104.92 Q141.177 1104.92 138.098 1100.34 Q135.043 1095.73 135.043 1087 Q135.043 1078.25 138.098 1073.67 Q141.177 1069.06 146.987 1069.06 Z" fill="#000000" fill-rule="evenodd" fill-opacity="1" /><path clip-path="url(#clip240)" d="M167.195 1069.69 L185.552 1069.69 L185.552 1073.62 L171.478 1073.62 L171.478 1082.1 Q172.496 1081.75 173.515 1081.59 Q174.533 1081.4 175.552 1081.4 Q181.339 1081.4 184.718 1084.57 Q188.098 1087.75 188.098 1093.16 Q188.098 1098.74 184.626 1101.84 Q181.153 1104.92 174.834 1104.92 Q172.658 1104.92 170.39 1104.55 Q168.144 1104.18 165.737 1103.44 L165.737 1098.74 Q167.82 1099.87 170.042 1100.43 Q172.265 1100.99 174.741 1100.99 Q178.746 1100.99 181.084 1098.88 Q183.422 1096.77 183.422 1093.16 Q183.422 1089.55 181.084 1087.44 Q178.746 1085.34 174.741 1085.34 Q172.866 1085.34 170.991 1085.75 Q169.14 1086.17 167.195 1087.05 L167.195 1069.69 Z" fill="#000000" fill-rule="evenodd" fill-opacity="1" /><path clip-path="url(#clip240)" d="M100.76 861.894 Q97.1493 861.894 95.3206 865.459 Q93.515 869 93.515 876.13 Q93.515 883.236 95.3206 886.801 Q97.1493 890.343 100.76 890.343 Q104.395 890.343 106.2 886.801 Q108.029 883.236 108.029 876.13 Q108.029 869 106.2 865.459 Q104.395 861.894 100.76 861.894 M100.76 858.19 Q106.571 858.19 109.626 862.797 Q112.705 867.38 112.705 876.13 Q112.705 884.857 109.626 889.463 Q106.571 894.047 100.76 894.047 Q94.9502 894.047 91.8715 889.463 Q88.816 884.857 88.816 876.13 Q88.816 867.38 91.8715 862.797 Q94.9502 858.19 100.76 858.19 Z" fill="#000000" fill-rule="evenodd" fill-opacity="1" /><path clip-path="url(#clip240)" d="M120.922 887.496 L125.807 887.496 L125.807 893.375 L120.922 893.375 L120.922 887.496 Z" fill="#000000" fill-rule="evenodd" fill-opacity="1" /><path clip-path="url(#clip240)" d="M145.992 861.894 Q142.381 861.894 140.552 865.459 Q138.746 869 138.746 876.13 Q138.746 883.236 140.552 886.801 Q142.381 890.343 145.992 890.343 Q149.626 890.343 151.431 886.801 Q153.26 883.236 153.26 876.13 Q153.26 869 151.431 865.459 Q149.626 861.894 145.992 861.894 M145.992 858.19 Q151.802 858.19 154.857 862.797 Q157.936 867.38 157.936 876.13 Q157.936 884.857 154.857 889.463 Q151.802 894.047 145.992 894.047 Q140.181 894.047 137.103 889.463 Q134.047 884.857 134.047 876.13 Q134.047 867.38 137.103 862.797 Q140.181 858.19 145.992 858.19 Z" fill="#000000" fill-rule="evenodd" fill-opacity="1" /><path clip-path="url(#clip240)" d="M176.153 861.894 Q172.542 861.894 170.714 865.459 Q168.908 869 168.908 876.13 Q168.908 883.236 170.714 886.801 Q172.542 890.343 176.153 890.343 Q179.788 890.343 181.593 886.801 Q183.422 883.236 183.422 876.13 Q183.422 869 181.593 865.459 Q179.788 861.894 176.153 861.894 M176.153 858.19 Q181.964 858.19 185.019 862.797 Q188.098 867.38 188.098 876.13 Q188.098 884.857 185.019 889.463 Q181.964 894.047 176.153 894.047 Q170.343 894.047 167.265 889.463 Q164.209 884.857 164.209 876.13 Q164.209 867.38 167.265 862.797 Q170.343 858.19 176.153 858.19 Z" fill="#000000" fill-rule="evenodd" fill-opacity="1" /><path clip-path="url(#clip240)" d="M101.756 651.02 Q98.1447 651.02 96.316 654.584 Q94.5104 658.126 94.5104 665.256 Q94.5104 672.362 96.316 675.927 Q98.1447 679.468 101.756 679.468 Q105.39 679.468 107.196 675.927 Q109.024 672.362 109.024 665.256 Q109.024 658.126 107.196 654.584 Q105.39 651.02 101.756 651.02 M101.756 647.316 Q107.566 647.316 110.621 651.922 Q113.7 656.506 113.7 665.256 Q113.7 673.982 110.621 678.589 Q107.566 683.172 101.756 683.172 Q95.9456 683.172 92.8669 678.589 Q89.8114 673.982 89.8114 665.256 Q89.8114 656.506 92.8669 651.922 Q95.9456 647.316 101.756 647.316 Z" fill="#000000" fill-rule="evenodd" fill-opacity="1" /><path clip-path="url(#clip240)" d="M121.918 676.621 L126.802 676.621 L126.802 682.501 L121.918 682.501 L121.918 676.621 Z" fill="#000000" fill-rule="evenodd" fill-opacity="1" /><path clip-path="url(#clip240)" d="M146.987 651.02 Q143.376 651.02 141.547 654.584 Q139.742 658.126 139.742 665.256 Q139.742 672.362 141.547 675.927 Q143.376 679.468 146.987 679.468 Q150.621 679.468 152.427 675.927 Q154.255 672.362 154.255 665.256 Q154.255 658.126 152.427 654.584 Q150.621 651.02 146.987 651.02 M146.987 647.316 Q152.797 647.316 155.853 651.922 Q158.931 656.506 158.931 665.256 Q158.931 673.982 155.853 678.589 Q152.797 683.172 146.987 683.172 Q141.177 683.172 138.098 678.589 Q135.043 673.982 135.043 665.256 Q135.043 656.506 138.098 651.922 Q141.177 647.316 146.987 647.316 Z" fill="#000000" fill-rule="evenodd" fill-opacity="1" /><path clip-path="url(#clip240)" d="M167.195 647.941 L185.552 647.941 L185.552 651.876 L171.478 651.876 L171.478 660.348 Q172.496 660.001 173.515 659.839 Q174.533 659.654 175.552 659.654 Q181.339 659.654 184.718 662.825 Q188.098 665.996 188.098 671.413 Q188.098 676.992 184.626 680.093 Q181.153 683.172 174.834 683.172 Q172.658 683.172 170.39 682.802 Q168.144 682.431 165.737 681.691 L165.737 676.992 Q167.82 678.126 170.042 678.681 Q172.265 679.237 174.741 679.237 Q178.746 679.237 181.084 677.13 Q183.422 675.024 183.422 671.413 Q183.422 667.802 181.084 665.695 Q178.746 663.589 174.741 663.589 Q172.866 663.589 170.991 664.006 Q169.14 664.422 167.195 665.302 L167.195 647.941 Z" fill="#000000" fill-rule="evenodd" fill-opacity="1" /><path clip-path="url(#clip240)" d="M100.76 440.145 Q97.1493 440.145 95.3206 443.71 Q93.515 447.251 93.515 454.381 Q93.515 461.487 95.3206 465.052 Q97.1493 468.594 100.76 468.594 Q104.395 468.594 106.2 465.052 Q108.029 461.487 108.029 454.381 Q108.029 447.251 106.2 443.71 Q104.395 440.145 100.76 440.145 M100.76 436.441 Q106.571 436.441 109.626 441.048 Q112.705 445.631 112.705 454.381 Q112.705 463.108 109.626 467.714 Q106.571 472.298 100.76 472.298 Q94.9502 472.298 91.8715 467.714 Q88.816 463.108 88.816 454.381 Q88.816 445.631 91.8715 441.048 Q94.9502 436.441 100.76 436.441 Z" fill="#000000" fill-rule="evenodd" fill-opacity="1" /><path clip-path="url(#clip240)" d="M120.922 465.747 L125.807 465.747 L125.807 471.626 L120.922 471.626 L120.922 465.747 Z" fill="#000000" fill-rule="evenodd" fill-opacity="1" /><path clip-path="url(#clip240)" d="M136.802 467.691 L144.441 467.691 L144.441 441.326 L136.131 442.992 L136.131 438.733 L144.394 437.066 L149.07 437.066 L149.07 467.691 L156.709 467.691 L156.709 471.626 L136.802 471.626 L136.802 467.691 Z" fill="#000000" fill-rule="evenodd" fill-opacity="1" /><path clip-path="url(#clip240)" d="M176.153 440.145 Q172.542 440.145 170.714 443.71 Q168.908 447.251 168.908 454.381 Q168.908 461.487 170.714 465.052 Q172.542 468.594 176.153 468.594 Q179.788 468.594 181.593 465.052 Q183.422 461.487 183.422 454.381 Q183.422 447.251 181.593 443.71 Q179.788 440.145 176.153 440.145 M176.153 436.441 Q181.964 436.441 185.019 441.048 Q188.098 445.631 188.098 454.381 Q188.098 463.108 185.019 467.714 Q181.964 472.298 176.153 472.298 Q170.343 472.298 167.265 467.714 Q164.209 463.108 164.209 454.381 Q164.209 445.631 167.265 441.048 Q170.343 436.441 176.153 436.441 Z" fill="#000000" fill-rule="evenodd" fill-opacity="1" /><path clip-path="url(#clip240)" d="M101.756 229.271 Q98.1447 229.271 96.316 232.835 Q94.5104 236.377 94.5104 243.507 Q94.5104 250.613 96.316 254.178 Q98.1447 257.719 101.756 257.719 Q105.39 257.719 107.196 254.178 Q109.024 250.613 109.024 243.507 Q109.024 236.377 107.196 232.835 Q105.39 229.271 101.756 229.271 M101.756 225.567 Q107.566 225.567 110.621 230.173 Q113.7 234.757 113.7 243.507 Q113.7 252.233 110.621 256.84 Q107.566 261.423 101.756 261.423 Q95.9456 261.423 92.8669 256.84 Q89.8114 252.233 89.8114 243.507 Q89.8114 234.757 92.8669 230.173 Q95.9456 225.567 101.756 225.567 Z" fill="#000000" fill-rule="evenodd" fill-opacity="1" /><path clip-path="url(#clip240)" d="M121.918 254.872 L126.802 254.872 L126.802 260.752 L121.918 260.752 L121.918 254.872 Z" fill="#000000" fill-rule="evenodd" fill-opacity="1" /><path clip-path="url(#clip240)" d="M137.797 256.817 L145.436 256.817 L145.436 230.451 L137.126 232.118 L137.126 227.858 L145.39 226.192 L150.066 226.192 L150.066 256.817 L157.705 256.817 L157.705 260.752 L137.797 260.752 L137.797 256.817 Z" fill="#000000" fill-rule="evenodd" fill-opacity="1" /><path clip-path="url(#clip240)" d="M167.195 226.192 L185.552 226.192 L185.552 230.127 L171.478 230.127 L171.478 238.599 Q172.496 238.252 173.515 238.09 Q174.533 237.905 175.552 237.905 Q181.339 237.905 184.718 241.076 Q188.098 244.247 188.098 249.664 Q188.098 255.243 184.626 258.344 Q181.153 261.423 174.834 261.423 Q172.658 261.423 170.39 261.053 Q168.144 260.682 165.737 259.942 L165.737 255.243 Q167.82 256.377 170.042 256.932 Q172.265 257.488 174.741 257.488 Q178.746 257.488 181.084 255.381 Q183.422 253.275 183.422 249.664 Q183.422 246.053 181.084 243.946 Q178.746 241.84 174.741 241.84 Q172.866 241.84 170.991 242.257 Q169.14 242.673 167.195 243.553 L167.195 226.192 Z" fill="#000000" fill-rule="evenodd" fill-opacity="1" /><path clip-path="url(#clip240)" d="M1164.35 63.9476 L1164.35 47.7034 L1150.98 47.7034 L1150.98 40.9789 L1172.45 40.9789 L1172.45 66.9452 Q1167.71 70.3075 1162 72.0494 Q1156.29 73.7508 1149.8 73.7508 Q1135.63 73.7508 1127.61 65.4869 Q1119.63 57.1826 1119.63 42.3968 Q1119.63 27.5705 1127.61 19.3066 Q1135.63 11.0023 1149.8 11.0023 Q1155.72 11.0023 1161.03 12.4606 Q1166.37 13.9189 1170.87 16.7545 L1170.87 25.464 Q1166.33 21.6156 1161.23 19.6712 Q1156.12 17.7268 1150.49 17.7268 Q1139.39 17.7268 1133.8 23.9246 Q1128.25 30.1225 1128.25 42.3968 Q1128.25 54.6305 1133.8 60.8284 Q1139.39 67.0263 1150.49 67.0263 Q1154.83 67.0263 1158.23 66.2971 Q1161.63 65.5274 1164.35 63.9476 Z" fill="#000000" fill-rule="evenodd" fill-opacity="1" /><path clip-path="url(#clip240)" d="M1207.69 49.7694 Q1198.66 49.7694 1195.18 51.8354 Q1191.69 53.9013 1191.69 58.8839 Q1191.69 62.8538 1194.28 65.2034 Q1196.92 67.5124 1201.41 67.5124 Q1207.61 67.5124 1211.34 63.1374 Q1215.11 58.7219 1215.11 51.4303 L1215.11 49.7694 L1207.69 49.7694 M1222.56 46.6907 L1222.56 72.576 L1215.11 72.576 L1215.11 65.6895 Q1212.55 69.8214 1208.75 71.8063 Q1204.94 73.7508 1199.43 73.7508 Q1192.46 73.7508 1188.33 69.8619 Q1184.24 65.9325 1184.24 59.3701 Q1184.24 51.7138 1189.34 47.825 Q1194.49 43.9361 1204.65 43.9361 L1215.11 43.9361 L1215.11 43.2069 Q1215.11 38.0623 1211.7 35.2672 Q1208.34 32.4315 1202.22 32.4315 Q1198.33 32.4315 1194.65 33.3632 Q1190.96 34.295 1187.56 36.1584 L1187.56 29.2718 Q1191.65 27.692 1195.5 26.9223 Q1199.35 26.1121 1202.99 26.1121 Q1212.84 26.1121 1217.7 31.2163 Q1222.56 36.3204 1222.56 46.6907 Z" fill="#000000" fill-rule="evenodd" fill-opacity="1" /><path clip-path="url(#clip240)" d="M1237.14 54.671 L1237.14 27.2059 L1244.6 27.2059 L1244.6 54.3874 Q1244.6 60.8284 1247.11 64.0691 Q1249.62 67.2693 1254.64 67.2693 Q1260.68 67.2693 1264.16 63.421 Q1267.69 59.5726 1267.69 52.9291 L1267.69 27.2059 L1275.14 27.2059 L1275.14 72.576 L1267.69 72.576 L1267.69 65.6084 Q1264.97 69.7404 1261.37 71.7658 Q1257.8 73.7508 1253.06 73.7508 Q1245.24 73.7508 1241.19 68.8897 Q1237.14 64.0286 1237.14 54.671 M1255.9 26.1121 L1255.9 26.1121 Z" fill="#000000" fill-rule="evenodd" fill-opacity="1" /><path clip-path="url(#clip240)" d="M1320.35 49.3643 Q1320.35 41.2625 1316.99 36.8065 Q1313.66 32.3505 1307.63 32.3505 Q1301.63 32.3505 1298.27 36.8065 Q1294.95 41.2625 1294.95 49.3643 Q1294.95 57.4256 1298.27 61.8816 Q1301.63 66.3376 1307.63 66.3376 Q1313.66 66.3376 1316.99 61.8816 Q1320.35 57.4256 1320.35 49.3643 M1327.8 66.9452 Q1327.8 78.5308 1322.66 84.1616 Q1317.51 89.8329 1306.9 89.8329 Q1302.97 89.8329 1299.49 89.2252 Q1296 88.6581 1292.72 87.4428 L1292.72 80.1917 Q1296 81.9741 1299.2 82.8248 Q1302.4 83.6755 1305.72 83.6755 Q1313.06 83.6755 1316.7 79.8271 Q1320.35 76.0193 1320.35 68.282 L1320.35 64.5957 Q1318.04 68.6061 1314.43 70.5911 Q1310.83 72.576 1305.81 72.576 Q1297.46 72.576 1292.36 66.2161 Q1287.25 59.8562 1287.25 49.3643 Q1287.25 38.832 1292.36 32.472 Q1297.46 26.1121 1305.81 26.1121 Q1310.83 26.1121 1314.43 28.0971 Q1318.04 30.082 1320.35 34.0924 L1320.35 27.2059 L1327.8 27.2059 L1327.8 66.9452 Z" fill="#000000" fill-rule="evenodd" fill-opacity="1" /><path clip-path="url(#clip240)" d="M1381.96 48.0275 L1381.96 51.6733 L1347.69 51.6733 Q1348.18 59.3701 1352.31 63.421 Q1356.48 67.4314 1363.9 67.4314 Q1368.19 67.4314 1372.2 66.3781 Q1376.25 65.3249 1380.22 63.2184 L1380.22 70.267 Q1376.21 71.9684 1372 72.8596 Q1367.78 73.7508 1363.45 73.7508 Q1352.59 73.7508 1346.23 67.4314 Q1339.91 61.1119 1339.91 50.3365 Q1339.91 39.1965 1345.91 32.6746 Q1351.95 26.1121 1362.15 26.1121 Q1371.31 26.1121 1376.62 32.0264 Q1381.96 37.9003 1381.96 48.0275 M1374.51 45.84 Q1374.43 39.7232 1371.07 36.0774 Q1367.74 32.4315 1362.23 32.4315 Q1356 32.4315 1352.23 35.9558 Q1348.5 39.4801 1347.93 45.8805 L1374.51 45.84 Z" fill="#000000" fill-rule="evenodd" fill-opacity="1" /><path clip-path="url(#clip240)" d="M1428.67 65.6895 L1457.23 65.6895 L1457.23 72.576 L1418.83 72.576 L1418.83 65.6895 Q1423.48 60.8689 1431.5 52.7671 Q1439.57 44.6248 1441.63 42.2752 Q1445.56 37.8598 1447.1 34.8216 Q1448.68 31.7429 1448.68 28.7857 Q1448.68 23.9651 1445.28 20.927 Q1441.92 17.8888 1436.49 17.8888 Q1432.64 17.8888 1428.35 19.2256 Q1424.09 20.5624 1419.23 23.2765 L1419.23 15.0127 Q1424.17 13.0277 1428.47 12.015 Q1432.76 11.0023 1436.33 11.0023 Q1445.72 11.0023 1451.31 15.7013 Q1456.9 20.4004 1456.9 28.2591 Q1456.9 31.9859 1455.49 35.3482 Q1454.11 38.6699 1450.42 43.2069 Q1449.41 44.3817 1443.98 50.0125 Q1438.55 55.6027 1428.67 65.6895 Z" fill="#000000" fill-rule="evenodd" fill-opacity="1" /><polyline clip-path="url(#clip242)" style="stroke:#009af9; stroke-linecap:butt; stroke-linejoin:round; stroke-width:4; stroke-opacity:1; fill:none" points="
  284.343,876.095 284.389,876.095 286.296,876.095 288.202,876.095 290.108,876.095 292.014,876.095 293.921,876.095 295.873,876.095 297.78,876.095 299.686,876.095 
  301.592,876.095 303.498,876.095 305.405,876.095 307.311,876.095 309.217,876.095 311.123,876.095 312.239,876.095 314.146,876.095 316.052,876.095 317.958,876.095 
  319.864,876.095 321.771,876.095 323.723,876.095 325.63,876.095 327.536,876.095 329.442,876.095 331.348,876.095 333.255,876.095 335.161,876.095 337.067,876.095 
  338.973,876.095 340.136,876.095 342.042,876.095 343.948,876.095 345.854,876.095 347.761,876.095 349.667,876.095 351.62,876.095 353.526,876.095 355.432,876.095 
  357.338,876.095 359.245,876.095 361.151,876.095 363.057,876.095 364.963,876.095 366.87,876.095 368.032,876.095 369.938,876.095 371.845,876.095 373.751,876.095 
  375.657,876.095 377.563,876.095 379.516,876.095 381.422,876.095 383.329,876.095 385.235,876.095 387.141,876.095 389.047,876.095 390.954,876.095 392.86,876.095 
  394.766,876.095 395.928,876.095 397.835,876.095 399.741,876.095 401.647,876.095 403.553,876.095 405.46,876.095 407.412,876.095 409.319,876.095 411.225,876.095 
  413.131,876.095 415.037,876.095 416.944,876.095 418.85,876.095 420.756,876.095 422.662,876.095 423.825,876.095 425.731,876.095 427.637,876.095 429.544,876.095 
  431.45,876.095 433.356,876.095 435.309,876.095 437.215,876.095 439.121,876.095 441.028,876.095 442.934,876.095 444.84,876.095 446.746,876.095 448.653,876.095 
  450.559,876.095 451.721,876.095 453.627,876.095 455.534,876.095 457.44,876.095 459.346,876.095 461.253,876.095 463.205,876.095 465.112,876.095 467.018,876.095 
  468.924,876.095 470.83,876.095 472.737,876.095 474.643,876.095 476.549,876.095 478.455,876.095 479.618,876.095 481.524,876.095 483.43,876.095 485.336,876.095 
  487.243,876.095 489.149,876.095 491.102,876.095 493.008,876.095 494.914,876.095 496.82,876.095 498.727,876.095 500.633,876.095 502.539,876.095 504.445,876.095 
  506.352,876.095 507.514,876.095 509.42,876.095 511.327,876.095 513.233,876.095 515.139,876.095 517.045,876.095 518.998,876.095 520.904,876.095 522.811,876.095 
  524.717,876.095 526.623,876.095 528.529,876.095 530.436,876.095 532.342,876.095 534.248,876.095 535.41,876.095 537.317,876.095 539.223,876.095 541.129,876.095 
  543.035,876.095 544.942,876.095 546.894,876.095 548.801,876.095 550.707,876.095 552.613,876.095 554.519,876.095 556.426,876.095 558.332,876.095 560.238,876.095 
  562.144,876.095 563.307,876.095 565.213,876.095 567.119,876.095 569.026,876.095 570.932,876.095 572.838,876.095 574.791,876.095 576.697,876.095 578.603,876.095 
  580.51,876.095 582.416,876.095 584.322,876.095 586.228,876.095 588.135,876.095 590.041,876.095 591.203,876.095 593.109,876.095 595.016,876.095 596.922,876.095 
  598.828,876.095 600.734,876.095 602.687,876.095 604.593,876.095 606.5,876.095 608.406,876.095 610.312,876.095 612.218,876.095 614.125,876.095 616.031,876.095 
  617.937,876.095 619.1,876.095 621.006,876.095 622.912,876.095 624.818,876.095 626.725,876.095 628.631,876.095 630.584,876.095 632.49,876.095 634.396,876.095 
  636.302,876.095 638.209,876.095 640.115,876.095 642.021,876.095 643.927,876.095 645.834,876.095 646.996,876.095 648.902,876.095 650.808,876.095 652.715,876.095 
  654.621,876.095 656.527,876.095 658.48,876.095 660.386,876.095 662.292,876.095 664.199,876.095 666.105,876.095 668.011,876.095 669.917,876.095 671.824,876.095 
  673.73,876.095 674.892,876.095 676.799,876.095 678.705,876.095 680.611,876.095 682.517,876.095 684.424,876.095 686.376,876.095 688.283,876.095 690.189,876.095 
  692.095,876.095 694.001,876.095 695.908,876.095 697.814,876.095 699.72,876.095 701.626,876.095 702.789,876.095 704.695,876.095 706.601,876.095 708.507,876.095 
  710.414,876.095 712.32,876.095 714.273,876.095 716.179,876.095 718.085,876.095 719.991,876.095 721.898,876.095 723.804,876.095 725.71,876.095 727.617,876.095 
  729.523,876.095 730.685,876.095 732.591,876.095 734.498,876.095 736.404,876.095 738.31,876.095 740.216,876.095 742.169,876.095 744.075,876.095 745.982,876.095 
  747.888,876.095 749.794,876.095 751.7,876.095 753.607,876.095 755.513,876.095 757.419,876.095 758.582,876.095 760.488,876.095 762.394,876.095 764.3,876.095 
  766.207,876.095 768.113,876.095 770.019,876.095 771.972,876.095 773.878,876.095 775.784,876.095 777.691,876.095 779.597,876.095 781.503,876.095 783.409,876.095 
  785.316,876.095 786.478,876.095 788.384,876.095 790.29,876.095 792.197,876.095 794.103,876.095 796.009,876.095 797.915,876.095 799.868,876.095 801.774,876.095 
  803.681,876.095 805.587,876.095 807.493,876.095 809.399,876.095 811.306,876.095 813.212,876.095 814.374,876.095 816.281,876.095 818.187,876.095 820.093,876.095 
  821.999,876.095 823.906,876.095 825.812,876.095 827.765,876.095 829.671,876.095 831.577,876.095 833.483,876.095 835.39,876.095 837.296,876.095 839.202,876.095 
  841.108,876.095 842.271,876.095 844.177,876.095 846.083,876.095 847.989,876.095 849.896,876.095 851.802,876.095 853.708,876.095 855.661,876.095 857.567,876.095 
  859.473,876.095 861.38,876.095 863.286,876.095 865.192,876.095 867.098,876.095 869.005,876.095 870.167,876.095 872.073,876.095 873.98,876.095 875.886,876.095 
  877.792,876.095 879.698,876.095 881.605,876.095 883.557,876.095 885.464,876.095 887.37,876.095 889.276,876.095 891.182,876.095 893.089,876.095 894.995,876.095 
  896.901,876.095 898.063,876.095 899.97,876.095 901.876,876.095 903.782,876.095 905.688,876.095 907.595,876.095 909.501,876.095 911.454,876.095 913.36,876.095 
  915.266,876.095 917.172,876.095 919.079,876.095 920.985,876.095 922.891,876.095 924.797,876.095 925.96,876.095 927.866,876.095 929.772,876.095 931.679,876.095 
  933.585,876.095 935.491,876.095 937.397,876.095 939.35,876.095 941.256,876.095 943.163,876.095 945.069,876.095 946.975,876.095 948.881,876.095 950.788,876.095 
  952.694,876.095 953.856,876.095 955.762,876.095 957.669,876.095 959.575,876.095 961.481,876.095 963.387,876.095 965.294,876.095 967.246,876.095 969.153,876.095 
  971.059,876.095 972.965,876.095 974.871,876.095 976.778,876.095 978.684,876.095 980.59,876.095 981.753,876.095 983.659,876.095 985.565,876.095 987.471,876.095 
  989.378,876.095 991.284,876.095 993.19,876.095 995.143,876.095 997.049,876.095 998.955,876.095 1000.86,876.095 1002.77,876.095 1004.67,876.095 1006.58,876.095 
  1008.49,876.095 1009.65,876.095 1011.56,876.095 1013.46,876.095 1015.37,876.095 1017.27,876.095 1019.18,876.095 1021.09,876.095 1023.04,876.095 1024.95,876.095 
  1026.85,876.095 1028.76,876.095 1030.66,876.095 1032.57,876.095 1034.48,876.095 1036.38,876.095 1037.55,876.095 1039.45,876.095 1041.36,876.095 1043.26,876.095 
  1045.17,876.095 1047.08,876.095 1048.98,876.095 1050.94,876.095 1052.84,876.095 1054.75,876.095 1056.65,876.095 1058.56,876.095 1060.47,876.095 1062.37,876.095 
  1064.28,876.095 1065.44,876.095 1067.35,876.095 1069.25,876.095 1071.16,876.095 1073.07,876.095 1074.97,876.095 1076.88,876.095 1078.83,876.095 1080.74,876.095 
  1082.64,876.095 1084.55,876.095 1086.46,876.095 1088.36,876.095 1090.27,876.095 1092.18,876.095 1093.34,876.095 1095.24,876.095 1097.15,876.095 1099.06,876.095 
  1100.96,876.095 1102.87,876.095 1104.78,876.095 1106.73,876.095 1108.63,876.095 1110.54,876.095 1112.45,876.095 1114.35,876.095 1116.26,876.095 1118.17,876.095 
  1120.07,876.095 1121.23,876.095 1123.14,876.095 1125.05,876.095 1126.95,876.095 1128.86,876.095 1130.77,876.095 1132.67,876.095 1134.62,876.095 1136.53,876.095 
  1138.44,876.095 1140.34,876.095 1142.25,876.095 1144.16,876.095 1146.06,876.095 1147.97,876.095 1149.13,876.095 1151.04,876.095 1152.94,876.095 1154.85,876.095 
  1156.76,876.095 1158.66,876.095 1160.57,876.095 1162.52,876.095 1164.43,876.095 1166.33,876.095 1168.24,876.095 1170.15,876.095 1172.05,876.095 1173.96,876.095 
  1175.86,876.095 1177.03,876.095 1178.93,876.095 1180.84,876.095 1182.75,876.095 1184.65,876.095 1186.56,876.095 1188.46,876.095 1190.42,876.095 1192.32,876.095 
  1194.23,876.095 1196.14,876.095 1198.04,876.095 1199.95,876.095 1201.86,876.095 1203.76,876.095 1204.92,876.095 1206.83,876.095 1208.74,876.095 1210.64,876.095 
  1212.55,876.095 1214.45,876.095 1216.36,876.095 1218.31,876.095 1220.22,876.095 1222.13,876.095 1224.03,876.095 1225.94,876.095 1227.85,876.095 1229.75,876.095 
  1231.66,876.095 1232.82,876.095 1234.73,876.095 1236.63,876.095 1238.54,876.095 1240.45,876.095 1242.35,876.095 1244.26,876.095 1246.21,876.095 1248.12,876.095 
  1250.02,876.095 1251.93,876.095 1253.84,876.095 1255.74,876.095 1257.65,876.095 1259.55,876.095 1260.72,876.095 1262.62,876.095 1264.53,876.095 1266.44,876.095 
  1268.34,876.095 1270.25,876.095 1272.15,876.095 1274.11,876.095 1276.01,876.095 1277.92,876.095 1279.83,876.095 1281.73,876.095 1283.64,876.095 1285.54,876.095 
  1287.45,876.095 1288.61,876.095 1290.52,876.095 1292.43,876.095 1294.33,876.095 1296.24,876.095 1298.14,876.095 1300.05,876.095 1302,876.095 1303.91,876.095 
  1305.82,876.095 1307.72,876.095 1309.63,876.095 1311.53,876.095 1313.44,876.095 1315.35,876.095 1316.51,876.095 1318.42,876.095 1320.32,876.095 1322.23,876.095 
  1324.13,876.095 1326.04,876.095 1327.95,876.095 1329.9,876.095 1331.81,876.095 1333.71,876.095 1335.62,876.095 1337.52,876.095 1339.43,876.095 1341.34,876.095 
  1343.24,876.095 1344.41,876.095 1346.31,876.095 1348.22,876.095 1350.12,876.095 1352.03,876.095 1353.94,876.095 1355.84,876.095 1357.8,876.095 1359.7,876.095 
  1361.61,876.095 1363.51,876.095 1365.42,876.095 1367.33,876.095 1369.23,876.095 1371.14,876.095 1372.3,876.095 1374.21,876.095 1376.11,876.095 1378.02,876.095 
  1379.93,876.095 1381.83,876.095 1383.74,876.095 1385.69,876.095 1387.6,876.095 1389.5,876.095 1391.41,876.095 1393.32,876.095 1395.22,876.095 1397.13,876.095 
  1399.04,876.095 1400.2,876.095 1402.1,876.095 1404.01,876.095 1405.92,876.095 1407.82,876.095 1409.73,876.095 1411.64,876.095 1413.59,876.095 1415.49,876.095 
  1415.96,876.095 1416.42,876.095 1416.89,876.095 1417.4,876.095 1417.87,876.095 1418.33,876.095 1418.84,876.095 1419.31,876.095 1419.77,876.094 1420.24,876.094 
  1420.75,876.094 1421.21,876.094 1421.68,876.094 1422.14,876.094 1422.66,876.094 1423.12,876.094 1423.58,876.094 1424.1,876.094 1424.56,876.094 1425.03,876.094 
  1425.49,876.094 1426,876.094 1426.47,876.094 1426.93,876.093 1427.3,876.093 1427.72,876.093 1428.09,876.093 1428.56,876.093 1429.07,876.093 1429.54,876.093 
  1430,876.093 1430.47,876.093 1430.98,876.092 1431.44,876.092 1431.91,876.092 1432.37,876.092 1432.88,876.092 1433.35,876.091 1433.81,876.091 1434.32,876.091 
  1434.79,876.091 1435.25,876.09 1435.72,876.09 1436.23,876.09 1436.7,876.089 1437.16,876.089 1437.63,876.089 1438.14,876.088 1438.6,876.088 1439.07,876.087 
  1439.53,876.086 1440.04,876.086 1440.51,876.085 1440.97,876.084 1441.49,876.083 1441.95,876.082 1442.41,876.081 1442.88,876.08 1443.39,876.007 1445.3,875.886 
  1447.2,875.687 1449.11,875.572 1449.58,875.528 1450.04,875.484 1450.55,875.439 1451.02,875.393 1451.48,875.346 1451.99,875.297 1452.46,875.247 1452.92,875.195 
  1453.39,875.14 1453.9,875.083 1454.36,875.024 1454.83,874.961 1455.2,874.908 1455.62,874.853 1455.99,874.796 1456.46,874.722 1456.97,874.643 1457.43,874.558 
  1457.9,874.464 1458.36,874.363 1458.87,874.253 1459.34,874.134 1459.8,874.006 1460.27,873.883 1460.78,873.751 1461.25,873.611 1461.71,873.463 1462.22,873.305 
  1462.69,873.137 1463.15,872.959 1463.62,872.77 1464.13,872.569 1464.59,872.356 1465.06,872.13 1465.52,871.89 1466.03,871.636 1466.5,871.366 1466.96,871.08 
  1467.43,870.777 1467.94,870.456 1468.41,870.116 1468.87,869.757 1469.38,869.376 1469.85,868.974 1470.31,868.549 1470.78,868.1 1471.29,867.626 1471.75,867.126 
  1472.22,866.599 1472.68,866.044 1473.19,865.46 1473.66,864.846 1474.12,864.201 1474.64,863.524 1475.1,862.813 1475.57,862.068 1476.03,861.289 1476.54,860.473 
  1477.01,859.62 1477.47,858.73 1477.94,857.8 1478.45,856.831 1478.91,855.822 1479.38,854.771 1479.89,853.678 1480.35,852.543 1480.82,851.364 1481.28,850.14 
  1481.8,848.872 1482.26,847.558 1482.73,846.198 1483.1,845.068 1483.52,843.907 1483.89,842.715 1484.35,841.193 1484.86,839.624 1485.33,838.008 1485.79,836.347 
  1486.26,834.64 1486.77,832.886 1487.24,831.087 1487.7,829.24 1488.17,827.348 1488.68,825.409 1489.14,823.423 1489.61,821.392 1490.12,819.316 1490.58,817.194 
  1491.05,815.027 1491.51,812.816 1492.02,810.561 1492.49,808.263 1492.95,805.923 1493.42,803.541 1493.93,801.12 1494.4,798.658 1494.86,796.158 1495.33,793.621 
  1495.84,791.049 1496.3,788.441 1496.77,785.801 1497.28,783.129 1497.74,780.426 1498.21,777.696 1498.67,774.939 1499.18,772.157 1499.65,769.353 1500.11,766.528 
  1500.58,763.684 1501.09,760.823 1501.56,757.948 1502.02,755.061 1502.53,752.164 1503,749.26 1503.46,746.351 1503.93,743.44 1504.44,740.529 1504.9,737.62 
  1505.37,734.718 1505.83,731.823 1506.34,728.94 1506.81,726.07 1507.27,723.218 1507.79,720.384 1508.25,717.574 1508.72,714.788 1509.18,712.031 1509.69,709.305 
  1510.16,706.614 1510.62,703.96 1510.99,701.858 1511.41,699.784 1511.78,697.74 1512.25,695.237 1512.76,692.785 1513.23,690.384 1513.69,688.037 1514.16,685.747 
  1514.67,683.517 1515.13,681.35 1515.6,679.249 1516.06,677.217 1516.57,675.256 1517.04,673.37 1517.5,671.561 1518.01,669.833 1518.48,668.187 1518.94,666.626 
  1519.41,665.153 1519.92,663.771 1520.39,662.482 1520.85,661.287 1521.32,660.19 1521.83,659.267 1522.29,658.448 1522.76,657.735 1523.22,657.13 1523.73,656.634 
  1524.2,656.249 1524.66,655.977 1525.17,655.82 1525.64,655.778 1526.1,655.854 1526.57,656.048 1527.08,656.362 1527.55,656.711 1528.01,657.181 1528.48,657.772 
  1528.99,658.485 1529.45,659.321 1529.92,660.281 1530.43,661.366 1530.89,662.575 1531.36,663.91 1531.82,665.37 1532.33,666.956 1532.8,668.668 1533.26,670.507 
  1533.73,672.471 1534.24,674.561 1534.71,676.776 1535.17,679.117 1535.68,681.582 1536.15,684.171 1536.61,686.884 1537.08,689.719 1537.59,692.676 1538.05,695.754 
  1538.52,698.951 1538.89,701.616 1539.31,704.356 1539.68,707.172 1540.15,710.769 1540.66,714.479 1541.12,718.303 1541.59,722.237 1542.05,726.28 1542.56,730.43 
  1543.03,734.686 1543.49,739.044 1543.96,743.503 1544.47,748.061 1544.93,752.715 1545.4,757.463 1545.91,762.301 1546.38,767.229 1546.84,772.242 1547.31,777.338 
  1547.82,782.514 1548.28,787.768 1548.75,793.095 1549.21,798.494 1549.72,803.96 1550.19,809.492 1550.65,815.084 1551.12,820.735 1551.63,826.44 1552.09,832.196 
  1552.56,838 1553.07,843.848 1553.54,849.736 1554,855.661 1554.47,861.618 1554.98,867.605 1555.44,873.617 1555.91,879.65 1556.37,885.701 1556.88,891.766 
  1557.35,897.84 1557.81,903.92 1558.32,910.002 1558.79,916.082 1559.25,922.155 1559.72,928.218 1560.23,934.268 1560.7,940.298 1561.16,946.307 1561.63,952.289 
  1562.14,958.242 1562.6,964.16 1563.07,970.04 1563.58,975.877 1564.04,981.669 1564.51,987.411 1564.97,993.099 1565.48,998.729 1565.95,1004.3 1566.41,1009.8 
  1566.79,1014.17 1567.2,1018.5 1567.58,1022.77 1568.04,1028.02 1568.55,1033.19 1569.02,1038.28 1569.48,1043.27 1569.95,1048.17 1570.46,1052.98 1570.92,1057.69 
  1571.39,1062.29 1571.85,1066.79 1572.37,1071.18 1572.83,1075.46 1573.3,1079.62 1573.81,1083.67 1574.27,1087.59 1574.74,1091.39 1575.2,1095.06 1575.71,1098.6 
  1576.18,1102.02 1576.64,1105.29 1577.11,1108.44 1577.62,1111.46 1578.08,1114.33 1578.55,1117.06 1579.01,1119.63 1579.53,1122.05 1579.99,1124.32 1580.46,1126.43 
  1580.97,1128.39 1581.43,1130.18 1581.9,1131.82 1582.36,1133.3 1582.87,1134.61 1583.34,1135.77 1583.8,1136.76 1584.27,1137.6 1584.78,1138.28 1585.24,1138.8 
  1585.71,1139.16 1586.22,1139.35 1586.69,1139.38 1587.15,1139.25 1587.62,1138.95 1588.13,1138.49 1588.59,1137.86 1589.06,1137.07 1589.52,1136.11 1590.03,1134.99 
  1590.5,1133.7 1590.96,1132.25 1591.47,1130.63 1591.94,1128.85 1592.4,1126.91 1592.87,1124.81 1593.38,1122.55 1593.85,1120.13 1594.31,1117.54 1594.68,1115.31 
  1595.1,1112.96 1595.47,1110.51 1595.94,1107.33 1596.45,1103.99 1596.91,1100.49 1597.38,1096.86 1597.84,1093.07 1598.36,1089.15 1598.82,1085.08 1599.29,1080.88 
  1599.75,1076.6 1600.26,1072.18 1600.73,1067.65 1601.19,1062.99 1601.7,1058.21 1602.17,1053.32 1602.63,1048.31 1603.1,1043.18 1603.61,1037.95 1604.07,1032.61 
  1604.54,1027.17 1605,1021.63 1605.52,1015.99 1605.98,1010.25 1606.45,1004.43 1606.91,998.514 1607.42,992.516 1607.89,986.439 1608.35,980.285 1608.86,974.058 
  1609.33,967.762 1609.79,961.401 1610.26,954.979 1610.77,948.501 1611.23,941.97 1611.7,935.391 1612.16,928.768 1612.68,922.105 1613.14,915.408 1613.61,908.679 
  1614.12,901.925 1614.58,895.149 1615.05,888.356 1615.51,881.551 1616.02,874.738 1616.49,867.922 1616.95,861.108 1617.42,854.3 1617.93,847.504 1618.39,840.723 
  1618.86,833.963 1619.37,827.229 1619.84,820.524 1620.3,813.854 1620.77,807.223 1621.28,800.637 1621.74,794.099 1622.21,787.615 1622.58,782.446 1623,777.319 
  1623.37,772.234 1623.83,765.966 1624.35,759.772 1624.81,753.653 1625.28,747.614 1625.74,741.658 1626.25,735.792 1626.72,730.017 1627.18,724.339 1627.65,718.762 
  1628.16,713.288 1628.62,707.924 1629.09,702.671 1629.6,697.534 1630.06,692.516 1630.53,687.621 1630.99,682.852 1631.51,678.213 1631.97,673.706 1632.44,669.335 
  1632.9,665.102 1633.41,661.011 1633.88,657.065 1634.34,653.265 1634.81,649.614 1635.32,646.116 1635.78,642.771 1636.25,639.583 1636.76,636.553 1637.22,633.683 
  1637.69,630.975 1638.15,628.43 1638.67,626.051 1639.13,623.838 1639.6,621.792 1640.06,619.916 1640.57,618.209 1641.04,616.673 1641.5,615.308 1642.01,614.116 
  1642.48,613.095 1642.94,612.248 1643.41,611.574 1643.92,611.072 1644.38,610.744 1644.85,610.589 1645.31,610.606 1645.83,610.795 1646.29,611.156 1646.76,611.688 
  1647.27,612.39 1647.73,613.262 1648.2,614.301 1648.66,615.507 1649.17,616.88 1649.64,618.416 1650.1,620.116 1650.48,621.609 1650.89,623.207 1651.27,624.906 
  1651.73,627.149 1652.24,629.547 1652.71,632.098 1653.17,634.799 1653.64,637.649 1654.15,640.646 1654.61,643.786 1655.08,647.067 1655.54,650.487 1656.05,654.043 
  1656.52,657.732 1656.98,661.551 1657.5,665.498 1657.96,669.569 1658.43,673.761 1658.89,678.072 1659.4,682.498 1659.87,687.035 1660.33,691.681 1660.8,696.432 
  1661.31,701.284 1661.77,706.235 1662.24,711.28 1662.7,716.416 1663.21,721.64 1663.68,726.948 1664.14,732.336 1664.66,737.8 1665.12,743.337 1665.59,748.943 
  1666.05,754.614 1666.56,760.346 1667.03,766.136 1667.49,771.98 1667.96,777.874 1668.47,783.814 1668.93,789.796 1669.4,795.816 1669.91,801.871 1670.37,807.956 
  1670.84,814.069 1671.3,820.204 1671.82,826.359 1672.28,832.529 1672.75,838.711 1673.21,844.901 1673.72,851.095 1674.19,857.29 1674.65,863.482 1675.16,869.667 
  1675.63,875.842 1676.09,882.003 1676.56,888.148 1677.07,894.271 1677.54,900.371 1678,906.443 1678.37,911.301 1678.79,916.138 1679.16,920.951 1679.63,926.906 
  1680.14,932.82 1680.6,938.691 1681.07,944.518 1681.53,950.297 1682.04,956.025 1682.51,961.701 1682.97,967.321 1683.44,972.882 1683.95,978.383 1684.42,983.821 
  1684.88,989.194 1685.39,994.5 1685.86,999.737 1686.32,1004.9 1686.79,1010 1687.3,1015.02 1687.76,1019.96 1688.23,1024.83 1688.69,1029.61 1689.2,1034.32 
  1689.67,1038.95 1690.13,1043.5 1690.6,1047.96 1691.11,1052.34 1691.58,1056.64 1692.04,1060.85 1692.55,1064.98 1693.02,1069.02 1693.48,1072.98 1693.95,1076.85 
  1694.46,1080.64 1694.92,1084.35 1695.39,1087.97 1695.85,1091.51 1696.37,1094.96 1696.83,1098.34 1697.29,1101.63 1697.81,1104.84 1698.27,1107.97 1698.74,1111.03 
  1699.2,1114.01 1699.71,1116.91 1700.18,1119.74 1700.64,1122.49 1701.11,1125.18 1701.62,1127.8 1702.08,1130.35 1702.55,1132.83 1703.06,1135.25 1703.53,1137.61 
  1703.99,1139.92 1704.46,1142.16 1704.97,1144.35 1705.43,1146.49 1705.9,1148.58 1706.27,1150.23 1706.69,1151.85 1707.06,1153.43 1707.52,1155.38 1708.04,1157.28 
  1708.5,1159.15 1708.96,1160.98 1709.43,1162.77 1709.94,1164.54 1710.41,1166.27 1710.87,1167.98 1711.34,1169.67 1711.85,1171.34 1712.31,1172.99 1712.78,1174.63 
  1713.29,1176.26 1713.75,1177.88 1714.22,1179.49 1714.68,1181.1 1715.2,1182.71 1715.66,1184.32 1716.13,1185.94 1716.59,1187.57 1717.1,1189.2 1717.57,1190.85 
  1718.03,1192.51 1718.5,1194.19 1719.01,1195.88 1719.47,1197.6 1719.94,1199.34 1720.45,1201.1 1720.91,1202.89 1721.38,1204.71 1721.84,1206.56 1722.36,1208.44 
  1722.82,1210.34 1723.29,1212.29 1723.75,1214.27 1724.26,1216.28 1724.73,1218.33 1725.19,1220.42 1725.7,1222.54 1726.17,1224.71 1726.63,1226.91 1727.1,1229.15 
  1727.61,1231.44 1728.07,1233.76 1728.54,1236.12 1729,1238.53 1729.52,1240.97 1729.98,1243.45 1730.45,1245.98 1730.96,1248.54 1731.42,1251.13 1731.89,1253.77 
  1732.35,1256.44 1732.86,1259.15 1733.33,1261.89 1733.79,1264.66 1734.16,1266.92 1734.58,1269.19 1734.96,1271.48 1735.42,1274.36 1735.93,1277.26 1736.4,1280.18 
  1736.86,1283.14 1737.33,1286.11 1737.84,1289.1 1738.3,1292.12 1738.77,1295.14 1739.23,1298.18 1739.74,1301.23 1740.21,1304.29 1740.67,1307.35 1741.19,1310.42 
  1741.65,1313.49 1742.12,1316.55 1742.58,1319.6 1743.09,1322.65 1743.56,1325.68 1744.02,1328.7 1744.49,1331.7 1745,1334.68 1745.46,1337.63 1745.93,1340.56 
  1746.39,1343.45 1746.9,1346.31 1747.37,1349.13 1747.83,1351.91 1748.35,1354.64 1748.81,1357.33 1749.28,1359.96 1749.74,1362.54 1750.25,1365.05 1750.72,1367.51 
  1751.18,1369.9 1751.65,1372.21 1752.16,1374.46 1752.62,1376.62 1753.09,1378.7 1753.6,1380.7 1754.06,1382.61 1754.53,1384.43 1754.99,1386.15 1755.51,1387.77 
  1755.97,1389.28 1756.44,1390.69 1756.9,1391.99 1757.41,1393.17 1757.88,1394.23 1758.34,1395.17 1758.85,1395.98 1759.32,1396.66 1759.78,1397.21 1760.25,1397.61 
  1760.76,1397.88 1761.22,1398 1761.69,1397.97 1762.06,1397.83 1762.48,1397.59 1762.85,1397.24 1763.32,1396.67 1763.83,1395.94 1764.29,1395.04 1764.76,1393.97 
  1765.22,1392.72 1765.73,1391.3 1766.2,1389.69 1766.66,1387.9 1767.13,1385.92 1767.64,1383.75 1768.11,1381.39 1768.57,1378.82 1769.08,1376.06 1769.55,1373.09 
  1770.01,1369.91 1770.48,1366.53 1770.99,1362.93 1771.45,1359.11 1771.92,1355.08 1772.38,1350.83 1772.89,1346.35 1773.36,1341.65 1773.82,1336.72 1774.29,1331.56 
  1774.8,1326.17 1775.27,1320.55 1775.73,1314.69 1776.24,1308.59 1776.71,1302.26 1777.17,1295.68 1777.64,1288.87 1778.15,1281.81 1778.61,1274.51 1779.08,1266.97 
  1779.54,1259.19 1780.05,1251.16 1780.52,1242.89 1780.98,1234.37 1781.5,1225.62 1781.96,1216.62 1782.43,1207.37 1782.89,1197.89 1783.4,1188.17 1783.87,1178.21 
  1784.33,1168.01 1784.8,1157.58 1785.31,1146.92 1785.77,1136.03 1786.24,1124.91 1786.75,1113.57 1787.21,1102 1787.68,1090.22 1788.14,1078.23 1788.66,1066.03 
  1789.12,1053.62 1789.59,1041.01 1789.96,1030.72 1790.38,1020.31 1790.75,1009.77 1791.21,996.522 1791.72,983.094 1792.19,969.499 1792.65,955.744 1793.12,941.836 
  1793.63,927.782 1794.1,913.59 1794.56,899.267 1795.03,884.603 1795.54,869.83 1796,854.959 1796.47,839.998 1796.98,824.958 1797.44,809.849 1797.91,794.682 
  1798.37,779.467 1798.88,764.215 1799.35,748.938 1799.81,733.646 1800.28,718.352 1800.79,703.183 1801.26,688.027 1801.72,672.896 1802.19,657.801 1802.7,642.756 
  1803.16,627.772 1803.63,612.861 1804.14,598.036 1804.6,583.309 1805.07,568.694 1805.53,554.204 1806.04,539.85 1806.51,525.646 1806.97,511.605 1807.44,497.74 
  1807.95,484.064 1808.42,470.59 1808.88,457.331 1809.39,444.299 1809.86,431.509 1810.32,418.971 1810.79,406.699 1811.3,394.706 1811.76,383.004 1812.23,371.605 
  1812.69,360.522 1813.2,349.765 1813.67,339.347 1814.13,329.279 1814.65,319.573 1815.11,310.239 1815.58,301.288 1816.04,292.73 1816.55,284.575 1817.02,276.833 
  1817.48,269.514 1817.85,263.968 1818.27,258.709 1818.64,253.738 1819.11,247.929 1819.62,242.578 1820.09,237.686 1820.55,233.26 1821.02,229.306 1821.53,225.829 
  1821.99,222.835 1822.46,220.328 1822.92,218.311 1823.43,216.789 1823.9,215.763 1824.36,215.237 1824.87,215.212 1825.34,215.688 1825.8,216.667 1826.27,218.147 
  1826.78,220.128 1827.25,222.609 1827.71,225.587 1828.18,229.059 1828.69,233.023 1829.15,237.473 1829.62,242.406 1830.08,247.815 1830.59,253.697 1831.06,260.042 
  1831.52,266.845 1832.03,274.098 1832.5,281.791 1832.96,289.917 1833.43,298.465 1833.94,307.426 1834.41,316.789 1834.87,326.542 1835.34,336.674 1835.85,347.171 
  1836.31,358.023 1836.78,369.214 1837.29,380.731 1837.75,392.56 1838.22,404.686 1838.68,417.093 1839.19,429.767 1839.66,442.69 1840.12,455.847 1840.59,469.221 
  1841.1,482.794 1841.57,496.55 1842.03,510.47 1842.54,524.537 1843.01,538.732 1843.47,553.038 1843.94,567.434 1844.45,581.904 1844.91,596.427 1845.38,610.985 
  1845.75,622.706 1846.17,634.424 1846.54,646.131 1847.01,660.661 1847.52,675.143 1847.98,689.559 1848.45,703.89 1848.91,718.118 1849.42,732.223 1849.89,746.188 
  1850.35,759.993 1850.82,773.621 1851.33,787.052 1851.79,800.271 1852.26,813.258 1852.77,825.997 1853.24,838.472 1853.7,850.665 1854.17,862.562 1854.68,874.145 
  1855.14,885.4 1855.61,896.312 1856.07,906.868 1856.58,917.052 1857.05,926.852 1857.51,936.255 1857.98,945.249 1858.49,953.822 1858.95,961.963 1859.42,969.661 
  1859.93,976.907 1860.4,983.691 1860.86,990.004 1861.33,995.838 1861.84,1001.19 1862.3,1006.04 1862.77,1010.4 1863.23,1014.25 1863.74,1017.59 1864.21,1020.42 
  1864.67,1022.73 1865.18,1024.52 1865.65,1025.79 1866.11,1026.53 1866.58,1026.75 1867.09,1026.45 1867.56,1025.62 1868.02,1024.27 1868.49,1022.39 1869,1020 
  1869.46,1017.09 1869.93,1013.67 1870.44,1009.75 1870.9,1005.32 1871.37,1000.4 1871.83,994.981 1872.34,989.084 1872.81,982.712 1873.27,975.872 1873.65,970.009 
  1874.07,963.855 1874.44,957.415 1874.9,949.051 1875.41,940.261 1875.88,931.058 1876.34,921.452 1876.81,911.456 1877.32,901.082 1877.78,890.344 1878.25,879.253 
  1878.71,867.825 1879.23,856.074 1879.69,844.013 1880.16,831.658 1880.67,819.023 1881.13,806.125 1881.6,792.978 1882.06,779.6 1882.57,766.005 1883.04,752.211 
  1883.5,738.234 1883.97,724.092 1884.48,709.8 1884.94,695.376 1885.41,680.837 1885.87,666.201 1886.39,651.484 1886.85,636.705 1887.32,621.881 1887.83,607.029 
  1888.29,592.166 1888.76,577.31 1889.22,562.479 1889.73,547.69 1890.2,532.96 1890.66,518.305 1891.13,503.744 1891.64,489.293 1892.1,474.968 1892.57,460.786 
  1893.08,446.764 1893.55,432.916 1894.01,419.261 1894.48,405.811 1894.99,392.585 1895.45,379.596 1895.92,366.858 1896.38,354.387 1896.89,342.197 1897.36,330.302 
  1897.82,318.714 1898.33,307.448 1898.8,296.515 1899.26,285.929 1899.73,275.701 1900.24,265.844 1900.71,256.368 1901.17,247.283 1901.54,240.296 1901.96,233.575 
  1902.33,227.126 1902.8,219.458 1903.31,212.224 1903.77,205.434 1904.24,199.095 1904.7,193.215 1905.22,187.802 1905.68,182.861 1906.15,178.401 1906.61,174.426 
  1907.12,170.941 1907.59,167.953 1908.05,165.465 1908.56,163.482 1909.03,162.007 1909.49,161.044 1909.96,160.594 1910.47,160.661 1910.93,161.247 1911.4,162.352 
  1911.86,163.977 1912.38,166.123 1912.84,168.79 1913.31,171.977 1913.77,175.683 1914.28,179.908 1914.75,184.648 1915.21,189.902 1915.72,195.667 1916.19,201.939 
  1916.65,208.715 1917.12,215.992 1917.63,223.763 1918.09,232.025 1918.56,240.771 1919.02,249.996 1919.54,259.694 1920,269.856 1920.47,280.477 1920.98,291.549 
  1921.44,303.062 1921.91,315.009 1922.37,327.38 1922.88,340.167 1923.35,353.358 1923.81,366.944 1924.28,380.913 1924.79,395.255 1925.25,409.959 1925.72,425.011 
  1926.23,440.399 1926.7,456.111 1927.16,472.132 1927.63,488.451 1928.14,505.052 1928.6,521.92 1929.07,539.042 1929.44,553.001 1929.86,567.104 1930.23,581.343 
  1930.69,599.21 1931.21,617.261 1931.67,635.481 1932.14,653.852 1932.6,672.356 1933.11,690.976 1933.58,709.693 1934.04,728.49 1934.51,747.348 1935.02,766.248 
  1935.48,785.17 1935.95,804.097 1936.46,823.009 1936.92,841.886 1937.39,860.709 1937.85,879.459 1938.37,898.116 1938.83,916.66 1939.3,935.072 1939.76,953.332 
  1940.27,971.421 1940.74,989.319 1941.2,1007.01 1941.67,1024.47 1942.18,1041.68 1942.64,1058.62 1943.11,1075.28 1943.62,1091.63 1944.08,1107.66 1944.55,1123.35 
  1945.01,1138.68 1945.53,1153.64 1945.99,1168.2 1946.46,1182.36 1946.92,1196.09 1947.43,1209.38 1947.9,1222.22 1948.36,1234.6 1948.87,1246.49 1949.34,1257.88 
  1949.8,1268.77 1950.27,1279.14 1950.78,1288.98 1951.25,1298.28 1951.71,1307.03 1952.17,1315.22 1952.69,1322.84 1953.15,1329.89 1953.62,1336.35 1954.13,1342.23 
  1954.59,1347.52 1955.06,1352.22 1955.52,1356.31 1956.03,1359.81 1956.5,1362.7 1956.96,1364.99 1957.34,1366.36 1957.75,1367.34 1958.13,1367.93 1958.59,1368.18 
  1959.1,1367.83 1959.57,1366.89 1960.03,1365.36 1960.5,1363.26 1961.01,1360.58 1961.47,1357.34 1961.94,1353.55 1962.4,1349.21 1962.92,1344.34 1963.38,1338.95 
  1963.84,1333.04 1964.36,1326.64 1964.82,1319.76 1965.29,1312.41 1965.75,1304.61 1966.26,1296.36 1966.73,1287.7 1967.19,1278.63 1967.66,1269.17 1968.17,1259.34 
  1968.63,1249.15 1969.1,1238.64 1969.56,1227.8 1970.08,1216.67 1970.54,1205.27 1971,1193.61 1971.52,1181.71 1971.98,1169.59 1972.45,1157.28 1972.91,1144.79 
  1973.42,1132.15 1973.89,1119.37 1974.35,1106.47 1974.82,1093.48 1975.33,1080.41 1975.79,1067.29 1976.26,1054.13 1976.77,1040.95 1977.24,1027.78 1977.7,1014.62 
  1978.17,1001.51 1978.68,988.451 1979.14,975.469 1979.61,962.578 1980.07,949.795 1980.58,937.137 1981.05,924.618 1981.51,912.255 1982.02,900.061 1982.49,888.049 
  1982.95,876.234 1983.42,864.628 1983.93,853.242 1984.4,842.088 1984.86,831.177 1985.23,822.602 1985.65,814.195 1986.02,805.962 1986.49,795.949 1987,786.216 
  1987.46,776.771 1987.93,767.622 1988.39,758.772 1988.91,750.227 1989.37,741.99 1989.84,734.064 1990.3,726.453 1990.81,719.159 1991.28,712.182 1991.74,705.524 
  1992.25,699.184 1992.72,693.163 1993.18,687.459 1993.65,682.071 1994.16,676.996 1994.62,672.233 1995.09,667.779 1995.55,663.629 1996.07,659.78 1996.53,656.228 
  1997,652.968 1997.46,649.995 1997.97,647.304 1998.44,644.888 1998.9,642.742 1999.41,640.86 1999.88,639.235 2000.34,637.86 2000.81,636.729 2001.32,635.834 
  2001.78,635.168 2002.25,634.724 2002.71,634.494 2003.23,634.471 2003.69,634.647 2004.16,635.015 2004.67,635.567 2005.13,636.295 2005.6,637.192 2006.06,638.25 
  2006.57,639.462 2007.04,640.82 2007.5,642.317 2007.97,643.946 2008.48,645.7 2008.94,647.572 2009.41,649.554 2009.92,651.641 2010.39,653.826 2010.85,656.102 
  2011.32,658.463 2011.83,660.904 2012.29,663.419 2012.76,666.002 2013.13,668.129 2013.55,670.292 2013.92,672.491 2014.38,675.267 2014.9,678.089 2015.36,680.953 
  2015.83,683.855 2016.29,686.791 2016.8,689.757 2017.27,692.749 2017.73,695.764 2018.2,698.8 2018.71,701.852 2019.17,704.919 2019.64,707.999 2020.15,711.087 
  2020.61,714.184 2021.08,717.286 2021.54,720.392 2022.06,723.5 2022.52,726.61 2022.99,729.718 2023.45,732.826 2023.96,735.93 2024.43,739.032 2024.89,742.13 
  2025.36,745.223 2025.87,748.311 2026.33,751.394 2026.8,754.471 2027.31,757.542 2027.77,760.608 2028.24,763.668 2028.7,766.723 2029.22,769.772 2029.68,772.816 
  2030.15,775.856 2030.61,778.891 2031.12,781.921 2031.59,784.949 2032.05,787.973 2032.56,790.995 2033.03,794.014 2033.49,797.032 2033.96,800.049 2034.47,803.066 
  2034.93,806.083 2035.4,809.1 2035.86,812.119 2036.38,815.14 2036.84,818.163 2037.31,821.19 2037.82,824.219 2038.28,827.253 2038.75,830.29 2039.21,833.333 
  2039.72,836.381 2040.19,839.434 2040.65,842.493 2041.02,844.956 2041.44,847.424 2041.82,849.896 2042.28,852.977 2042.79,856.064 2043.26,859.159 2043.72,862.26 
  2044.19,865.368 2044.7,868.483 2045.16,871.605 2045.63,874.733 2046.09,877.868 2046.6,881.008 2047.07,884.155 2047.53,887.308 2048.05,890.465 2048.51,893.628 
  2048.98,896.795 2049.44,899.966 2049.95,903.14 2050.42,906.317 2050.88,909.497 2051.35,912.678 2051.86,915.86 2052.32,919.043 2052.79,922.225 2053.25,925.406 
  2053.76,928.584 2054.23,931.761 2054.69,934.933 2055.21,938.101 2055.67,941.264 2056.14,944.421 2056.6,947.571 2057.11,950.712 2057.58,953.845 2058.04,956.967 
  2058.51,960.079 2059.02,963.179 2059.48,966.267 2059.95,969.34 2060.46,972.399 2060.92,975.442 2061.39,978.469 2061.85,981.478 2062.37,984.468 2062.83,987.439 
  2063.3,990.39 2063.76,993.319 2064.27,996.226 2064.74,999.11 2065.2,1001.97 2065.71,1004.8 2066.18,1007.61 2066.64,1010.4 2067.11,1013.15 2067.62,1015.88 
  2068.08,1018.58 2068.55,1021.25 2068.92,1023.37 2069.34,1025.47 2069.71,1027.55 2070.18,1030.11 2070.69,1032.64 2071.15,1035.14 2071.62,1037.61 2072.08,1040.05 
  2072.59,1042.46 2073.06,1044.83 2073.52,1047.17 2073.99,1049.48 2074.5,1051.76 2074.97,1054 2075.43,1056.2 2075.94,1058.38 2076.41,1060.52 2076.87,1062.62 
  2077.34,1064.69 2077.85,1066.72 2078.31,1068.72 2078.78,1070.68 2079.24,1072.6 2079.75,1074.49 2080.22,1076.34 2080.68,1078.15 2081.15,1079.92 2081.66,1081.65 
  2082.13,1083.35 2082.59,1085 2083.1,1086.61 2083.57,1088.18 2084.03,1089.7 2084.5,1091.18 2085.01,1092.62 2085.47,1094.01 2085.94,1095.35 2086.4,1096.64 
  2086.91,1097.88 2087.38,1099.06 2087.84,1100.2 2088.36,1101.27 2088.82,1102.29 2089.29,1103.24 2089.75,1104.14 2090.26,1104.96 2090.73,1105.72 2091.19,1106.4 
  2091.66,1107.01 2092.17,1107.55 2092.63,1108 2093.1,1108.37 2093.61,1108.65 2094.07,1108.83 2094.54,1108.93 2095,1108.92 2095.52,1108.81 2095.98,1108.59 
  2096.45,1108.26 2096.82,1107.91 2097.24,1107.47 2097.61,1106.96 2098.07,1106.21 2098.58,1105.34 2099.05,1104.33 2099.51,1103.17 2099.98,1101.88 2100.49,1100.43 
  2100.96,1098.82 2101.42,1097.06 2101.89,1095.13 2102.4,1093.03 2102.86,1090.75 2103.33,1088.3 2103.84,1085.66 2104.3,1082.84 2104.77,1079.82 2105.23,1076.61 
  2105.74,1073.2 2106.21,1069.59 2106.67,1065.77 2107.14,1061.75 2107.65,1057.51 2108.12,1053.07 2108.58,1048.41 2109.05,1043.53 2109.56,1038.44 2110.02,1033.13 
  2110.49,1027.61 2111,1021.86 2111.46,1015.91 2111.93,1009.74 2112.39,1003.35 2112.9,996.759 2113.37,989.958 2113.83,982.952 2114.3,975.747 2114.81,968.345 
  2115.28,960.753 2115.74,952.976 2116.25,945.019 2116.72,936.89 2117.18,928.595 2117.65,920.143 2118.16,911.541 2118.62,902.8 2119.09,893.927 2119.55,884.933 
  2120.06,875.829 2120.53,866.625 2120.99,857.333 2121.51,847.965 2121.97,838.533 2122.44,829.05 2122.9,819.53 2123.41,809.985 2123.88,800.431 2124.34,790.88 
  2124.71,783.216 2125.13,775.573 2125.5,767.959 2125.97,758.538 2126.48,749.187 2126.95,739.913 2127.41,730.733 2127.88,721.662 2128.39,712.718 2128.85,703.916 
  2129.32,695.272 2129.78,686.803 2130.29,678.525 2130.76,670.453 2131.22,662.604 2131.73,654.991 2132.2,647.63 2132.66,640.536 2133.13,633.724 2133.64,627.206 
  2134.11,620.996 2134.57,615.107 2135.04,609.552 2135.55,604.343 2136.01,599.49 2136.48,595.005 2136.94,590.897 2137.45,587.175 2137.92,583.85 2138.38,580.928 
  2138.89,578.416 2139.36,576.323 2139.82,574.652 2140.29,573.409 2140.8,572.599 2141.27,572.224 2141.73,572.288 2142.2,572.792 2142.71,573.737 2143.17,575.124 
  2143.64,576.95 2144.15,579.216 2144.61,581.919 2145.08,585.055 2145.54,588.621 2146.05,592.612 2146.52,597.023 2146.98,601.847 2147.45,607.078 2147.96,612.707 
  2148.43,618.726 2148.89,625.127 2149.4,631.899 2149.87,639.033 2150.33,646.516 2150.8,654.339 2151.31,662.488 2151.77,670.951 2152.24,679.715 2152.61,686.989 
  2153.03,694.44 2153.4,702.06 2153.87,711.744 2154.38,721.668 2154.84,731.82 2155.31,742.185 2155.77,752.749 2156.28,763.493 2156.75,774.403 2157.21,785.462 
  2157.68,796.654 2158.19,807.962 2158.65,819.37 2159.12,830.862 2159.63,842.421 2160.1,854.031 2160.56,865.677 2161.03,877.343 2161.54,889.012 2162,900.669 
  2162.47,912.299 2162.93,923.888 2163.44,935.42 2163.91,946.881 2164.37,958.258 2164.84,969.536 2165.35,980.702 2165.81,991.744 2166.28,1002.65 2166.79,1013.41 
  2167.26,1024 2167.72,1034.43 2168.19,1044.67 2168.7,1054.72 2169.16,1064.57 2169.63,1074.2 2170.09,1083.62 2170.6,1092.81 2171.07,1101.77 2171.53,1110.48 
  2172.04,1118.94 2172.51,1127.15 2172.97,1135.09 2173.44,1142.77 2173.95,1150.18 2174.42,1157.31 2174.88,1164.17 2175.35,1170.74 2175.86,1177.03 2176.32,1183.03 
  2176.79,1188.75 2177.3,1194.17 2177.76,1199.3 2178.23,1204.14 2178.69,1208.69 2179.21,1212.95 2179.67,1216.92 2180.13,1220.6 2180.51,1223.33 2180.93,1225.87 
  2181.3,1228.23 2181.76,1230.94 2182.27,1233.36 2182.74,1235.5 2183.2,1237.37 2183.67,1238.96 2184.18,1240.29 2184.64,1241.35 2185.11,1242.15 2185.57,1242.7 
  2186.09,1242.99 2186.55,1243.04 2187.02,1242.84 2187.53,1242.41 2187.99,1241.74 2188.46,1240.85 2188.92,1239.73 2189.43,1238.4 2189.9,1236.85 2190.36,1235.11 
  2190.83,1233.16 2191.34,1231.01 2191.8,1228.68 2192.27,1226.17 2192.73,1223.48 2193.25,1220.62 2193.71,1217.59 2194.18,1214.41 2194.69,1211.08 2195.15,1207.59 
  2195.62,1203.97 2196.08,1200.21 2196.59,1196.32 2197.06,1192.31 2197.52,1188.18 2197.99,1183.94 2198.5,1179.6 2198.96,1175.15 2199.43,1170.61 2199.94,1165.99 
  2200.41,1161.27 2200.87,1156.48 2201.34,1151.62 2201.85,1146.69 2202.31,1141.7 2202.78,1136.65 2203.24,1131.55 2203.75,1126.4 2204.22,1121.21 2204.68,1115.98 
  2205.2,1110.72 2205.66,1105.43 2206.13,1100.11 2206.59,1094.78 2207.1,1089.43 2207.57,1084.07 2208.03,1078.71 2208.4,1074.39 2208.82,1070.07 2209.19,1065.76 
  2209.66,1060.4 2210.17,1055.05 2210.63,1049.72 2211.1,1044.4 2211.56,1039.1 2212.08,1033.83 2212.54,1028.58 2213.01,1023.36 2213.47,1018.17 2213.98,1013.02 
  2214.45,1007.91 2214.91,1002.84 2215.42,997.812 2215.89,992.83 2216.35,987.896 2216.82,983.013 2217.33,978.183 2217.8,973.407 2218.26,968.689 2218.72,964.029 
  2219.24,959.429 2219.7,954.892 2220.17,950.418 2220.63,946.01 2221.14,941.668 2221.61,937.395 2222.07,933.192 2222.58,929.059 2223.05,924.998 2223.51,921.01 
  2223.98,917.096 2224.49,913.257 2224.96,909.493 2225.42,905.807 2225.88,902.197 2226.4,898.665 2226.86,895.212 2227.33,891.837 2227.84,888.542 2228.3,885.326 
  2228.77,882.191 2229.23,879.135 2229.74,876.161 2230.21,873.266 2230.67,870.453 2231.14,867.72 2231.65,865.068 2232.12,862.496 2232.58,860.005 2233.09,857.594 
  2233.56,855.264 2234.02,853.013 2234.49,850.841 2235,848.749 2235.46,846.735 2235.93,844.8 2236.3,843.305 2236.72,841.861 2237.09,840.467 2237.55,838.795 
  2238.07,837.199 2238.53,835.678 2239,834.232 2239.46,832.86 2239.97,831.562 2240.44,830.335 2240.9,829.181 2241.37,828.097 2241.88,827.084 2242.34,826.139 
  2242.81,825.264 2243.32,824.456 2243.79,823.714 2244.25,823.038 2244.72,822.428 2245.23,821.881 2245.69,821.397 2246.16,820.975 2246.62,820.614 2247.13,820.313 
  2247.6,820.071 2248.06,819.888 2248.53,819.761 2249.04,819.69 2249.5,819.675 2249.97,819.713 2250.48,819.804 2250.95,819.948 2251.41,820.142 2251.88,820.386 
  2252.39,820.679 2252.85,821.02 2253.32,821.407 2253.78,821.84 2254.29,822.318 2254.76,822.84 2255.22,823.404 2255.73,824.01 2256.2,824.657 2256.66,825.343 
  2257.13,826.068 2257.64,826.831 2258.11,827.63 2258.57,828.465 2259.04,829.335 2259.55,830.238 2260.01,831.175 2260.48,832.143 2260.99,833.142 2261.45,834.17 
  2261.92,835.228 2262.38,836.315 2262.89,837.428 2263.36,838.568 2263.82,839.733 2264.2,840.689 2264.61,841.66 2264.99,842.646 2265.45,843.892 2265.96,845.159 
  2266.43,846.447 2266.89,847.755 2267.36,849.082 2267.87,850.428 2268.33,851.791 2268.8,853.171 2269.26,854.567 2269.78,855.979 2270.24,857.405 2270.71,858.845 
  2271.22,860.297 2271.68,861.763 2272.15,863.24 2272.61,864.728 2273.12,866.226 2273.59,867.733 2274.05,869.25 2274.52,870.774 2275.03,872.307 2275.49,873.846 
  2275.96,875.391 2276.42,876.941 2276.94,878.497 2277.4,880.057 2277.87,881.62 2278.38,883.186 2278.84,884.755 2279.31,886.325 2279.77,887.897 2280.28,889.468 
  2280.75,891.04 2281.21,892.611 2281.68,894.18 2282.19,895.748 2282.65,897.312 2283.12,898.874 2283.63,900.432 2284.1,901.985 2284.56,903.533 2285.03,905.076 
  2285.54,906.612 2286,908.142 2286.47,909.664 2286.93,911.178 2287.44,912.683 2287.91,914.179 2288.37,915.665 2288.88,917.141 2289.35,918.606 2289.81,920.059 
  2290.28,921.499 2290.79,922.927 2291.26,924.342 2291.72,925.742 2292.09,926.856 2292.51,927.96 
  "/>
</svg>
