<?xml version="1.0" encoding="utf-8"?>
<svg xmlns="http://www.w3.org/2000/svg" xmlns:xlink="http://www.w3.org/1999/xlink" width="600" height="400" viewBox="0 0 2400 1600">
<defs>
  <clipPath id="clip210">
    <rect x="0" y="0" width="2400" height="1600"/>
  </clipPath>
</defs>
<path clip-path="url(#clip210)" d="
M0 1600 L2400 1600 L2400 0 L0 0  Z
  " fill="#ffffff" fill-rule="evenodd" fill-opacity="1"/>
<defs>
  <clipPath id="clip211">
    <rect x="480" y="0" width="1681" height="1600"/>
  </clipPath>
</defs>
<path clip-path="url(#clip210)" d="
M223.103 1435.12 L2352.76 1435.12 L2352.76 123.472 L223.103 123.472  Z
  " fill="#ffffff" fill-rule="evenodd" fill-opacity="1"/>
<defs>
  <clipPath id="clip212">
    <rect x="223" y="123" width="2131" height="1313"/>
  </clipPath>
</defs>
<polyline clip-path="url(#clip212)" style="stroke:#000000; stroke-linecap:butt; stroke-linejoin:round; stroke-width:2; stroke-opacity:0.1; fill:none" points="
  283.376,1435.12 283.376,123.472 
  "/>
<polyline clip-path="url(#clip212)" style="stroke:#000000; stroke-linecap:butt; stroke-linejoin:round; stroke-width:2; stroke-opacity:0.1; fill:none" points="
  450.832,1435.12 450.832,123.472 
  "/>
<polyline clip-path="url(#clip212)" style="stroke:#000000; stroke-linecap:butt; stroke-linejoin:round; stroke-width:2; stroke-opacity:0.1; fill:none" points="
  618.289,1435.12 618.289,123.472 
  "/>
<polyline clip-path="url(#clip212)" style="stroke:#000000; stroke-linecap:butt; stroke-linejoin:round; stroke-width:2; stroke-opacity:0.1; fill:none" points="
  785.745,1435.12 785.745,123.472 
  "/>
<polyline clip-path="url(#clip212)" style="stroke:#000000; stroke-linecap:butt; stroke-linejoin:round; stroke-width:2; stroke-opacity:0.1; fill:none" points="
  953.202,1435.12 953.202,123.472 
  "/>
<polyline clip-path="url(#clip212)" style="stroke:#000000; stroke-linecap:butt; stroke-linejoin:round; stroke-width:2; stroke-opacity:0.1; fill:none" points="
  1120.66,1435.12 1120.66,123.472 
  "/>
<polyline clip-path="url(#clip212)" style="stroke:#000000; stroke-linecap:butt; stroke-linejoin:round; stroke-width:2; stroke-opacity:0.1; fill:none" points="
  1288.12,1435.12 1288.12,123.472 
  "/>
<polyline clip-path="url(#clip212)" style="stroke:#000000; stroke-linecap:butt; stroke-linejoin:round; stroke-width:2; stroke-opacity:0.1; fill:none" points="
  1455.57,1435.12 1455.57,123.472 
  "/>
<polyline clip-path="url(#clip212)" style="stroke:#000000; stroke-linecap:butt; stroke-linejoin:round; stroke-width:2; stroke-opacity:0.1; fill:none" points="
  1623.03,1435.12 1623.03,123.472 
  "/>
<polyline clip-path="url(#clip212)" style="stroke:#000000; stroke-linecap:butt; stroke-linejoin:round; stroke-width:2; stroke-opacity:0.1; fill:none" points="
  1790.49,1435.12 1790.49,123.472 
  "/>
<polyline clip-path="url(#clip212)" style="stroke:#000000; stroke-linecap:butt; stroke-linejoin:round; stroke-width:2; stroke-opacity:0.1; fill:none" points="
  1957.94,1435.12 1957.94,123.472 
  "/>
<polyline clip-path="url(#clip212)" style="stroke:#000000; stroke-linecap:butt; stroke-linejoin:round; stroke-width:2; stroke-opacity:0.1; fill:none" points="
  2125.4,1435.12 2125.4,123.472 
  "/>
<polyline clip-path="url(#clip210)" style="stroke:#000000; stroke-linecap:butt; stroke-linejoin:round; stroke-width:4; stroke-opacity:1; fill:none" points="
  223.103,1435.12 2352.76,1435.12 
  "/>
<polyline clip-path="url(#clip210)" style="stroke:#000000; stroke-linecap:butt; stroke-linejoin:round; stroke-width:4; stroke-opacity:1; fill:none" points="
  283.376,1435.12 283.376,1416.23 
  "/>
<polyline clip-path="url(#clip210)" style="stroke:#000000; stroke-linecap:butt; stroke-linejoin:round; stroke-width:4; stroke-opacity:1; fill:none" points="
  450.832,1435.12 450.832,1416.23 
  "/>
<polyline clip-path="url(#clip210)" style="stroke:#000000; stroke-linecap:butt; stroke-linejoin:round; stroke-width:4; stroke-opacity:1; fill:none" points="
  618.289,1435.12 618.289,1416.23 
  "/>
<polyline clip-path="url(#clip210)" style="stroke:#000000; stroke-linecap:butt; stroke-linejoin:round; stroke-width:4; stroke-opacity:1; fill:none" points="
  785.745,1435.12 785.745,1416.23 
  "/>
<polyline clip-path="url(#clip210)" style="stroke:#000000; stroke-linecap:butt; stroke-linejoin:round; stroke-width:4; stroke-opacity:1; fill:none" points="
  953.202,1435.12 953.202,1416.23 
  "/>
<polyline clip-path="url(#clip210)" style="stroke:#000000; stroke-linecap:butt; stroke-linejoin:round; stroke-width:4; stroke-opacity:1; fill:none" points="
  1120.66,1435.12 1120.66,1416.23 
  "/>
<polyline clip-path="url(#clip210)" style="stroke:#000000; stroke-linecap:butt; stroke-linejoin:round; stroke-width:4; stroke-opacity:1; fill:none" points="
  1288.12,1435.12 1288.12,1416.23 
  "/>
<polyline clip-path="url(#clip210)" style="stroke:#000000; stroke-linecap:butt; stroke-linejoin:round; stroke-width:4; stroke-opacity:1; fill:none" points="
  1455.57,1435.12 1455.57,1416.23 
  "/>
<polyline clip-path="url(#clip210)" style="stroke:#000000; stroke-linecap:butt; stroke-linejoin:round; stroke-width:4; stroke-opacity:1; fill:none" points="
  1623.03,1435.12 1623.03,1416.23 
  "/>
<polyline clip-path="url(#clip210)" style="stroke:#000000; stroke-linecap:butt; stroke-linejoin:round; stroke-width:4; stroke-opacity:1; fill:none" points="
  1790.49,1435.12 1790.49,1416.23 
  "/>
<polyline clip-path="url(#clip210)" style="stroke:#000000; stroke-linecap:butt; stroke-linejoin:round; stroke-width:4; stroke-opacity:1; fill:none" points="
  1957.94,1435.12 1957.94,1416.23 
  "/>
<polyline clip-path="url(#clip210)" style="stroke:#000000; stroke-linecap:butt; stroke-linejoin:round; stroke-width:4; stroke-opacity:1; fill:none" points="
  2125.4,1435.12 2125.4,1416.23 
  "/>
<path clip-path="url(#clip210)" d="M202.591 1572.31 L207.992 1566.91 L189.349 1548.27 L184.651 1555.32 L181.64 1552.31 L186.305 1545.29 L189.611 1541.98 L211.266 1563.63 L216.667 1558.23 L219.45 1561.02 L205.373 1575.09 L202.591 1572.31 Z" fill="#000000" fill-rule="evenodd" fill-opacity="1" /><path clip-path="url(#clip210)" d="M222.969 1531.14 Q225.85 1529.28 228.78 1529.56 Q231.726 1529.82 234.083 1532.18 Q237.7 1535.79 237.193 1540.26 Q236.686 1544.73 232.103 1549.31 Q230.564 1550.85 228.616 1552.18 Q226.701 1553.5 224.36 1554.63 L221.169 1551.44 Q223.346 1550.87 225.392 1549.64 Q227.438 1548.41 229.222 1546.63 Q232.332 1543.52 232.725 1540.67 Q233.134 1537.81 230.793 1535.47 Q228.633 1533.3 225.899 1533.62 Q223.166 1533.89 220.465 1536.59 L217.617 1539.44 L214.9 1536.73 L217.879 1533.75 Q220.318 1531.31 220.645 1529.05 Q220.956 1526.77 219.123 1524.94 Q217.24 1523.06 214.9 1523.4 Q212.559 1523.71 210.071 1526.2 Q208.713 1527.56 207.452 1529.41 Q206.192 1531.26 204.948 1533.75 L202.002 1530.8 Q203.36 1528.39 204.735 1526.5 Q206.126 1524.58 207.583 1523.12 Q211.348 1519.36 215.26 1518.88 Q219.155 1518.39 222.069 1521.31 Q224.099 1523.34 224.344 1525.91 Q224.573 1528.46 222.969 1531.14 Z" fill="#000000" fill-rule="evenodd" fill-opacity="1" /><path clip-path="url(#clip210)" d="M243.642 1528.51 L247.096 1525.06 L251.253 1529.21 L247.8 1532.67 L243.642 1528.51 M230.466 1515.33 L233.919 1511.88 L238.077 1516.04 L234.623 1519.49 L230.466 1515.33 Z" fill="#000000" fill-rule="evenodd" fill-opacity="1" /><path clip-path="url(#clip210)" d="M243.56 1492.38 Q241.007 1494.94 242.234 1498.75 Q243.462 1502.53 248.503 1507.57 Q253.528 1512.6 257.326 1513.84 Q261.123 1515.05 263.677 1512.5 Q266.246 1509.93 265.019 1506.15 Q263.791 1502.34 258.766 1497.31 Q253.725 1492.27 249.927 1491.06 Q246.13 1489.81 243.56 1492.38 M240.941 1489.77 Q245.05 1485.66 250.468 1486.75 Q255.885 1487.82 262.073 1494 Q268.243 1500.18 269.324 1505.61 Q270.404 1511.01 266.296 1515.12 Q262.187 1519.23 256.769 1518.16 Q251.351 1517.07 245.181 1510.9 Q238.994 1504.71 237.913 1499.31 Q236.833 1493.87 240.941 1489.77 Z" fill="#000000" fill-rule="evenodd" fill-opacity="1" /><path clip-path="url(#clip210)" d="M264.888 1471.06 Q262.334 1473.61 263.562 1477.42 Q264.79 1481.2 269.831 1486.25 Q274.856 1491.27 278.654 1492.52 Q282.451 1493.73 285.004 1491.17 Q287.574 1488.6 286.347 1484.82 Q285.119 1481.01 280.094 1475.98 Q275.053 1470.94 271.255 1469.73 Q267.458 1468.49 264.888 1471.06 M262.269 1468.44 Q266.377 1464.33 271.795 1465.43 Q277.213 1466.49 283.4 1472.68 Q289.571 1478.85 290.651 1484.28 Q291.732 1489.68 287.623 1493.79 Q283.515 1497.9 278.097 1496.84 Q272.679 1495.74 266.508 1489.57 Q260.321 1483.38 259.241 1477.98 Q258.161 1472.55 262.269 1468.44 Z" fill="#000000" fill-rule="evenodd" fill-opacity="1" /><path clip-path="url(#clip210)" d="M370.047 1572.31 L375.449 1566.91 L356.806 1548.27 L352.108 1555.32 L349.096 1552.31 L353.761 1545.29 L357.068 1541.98 L378.723 1563.63 L384.124 1558.23 L386.907 1561.02 L372.83 1575.09 L370.047 1572.31 Z" fill="#000000" fill-rule="evenodd" fill-opacity="1" /><path clip-path="url(#clip210)" d="M381.112 1523.7 L385.81 1545.09 L394.158 1536.74 L381.112 1523.7 M377.364 1521.68 L381.521 1517.53 L397.448 1533.45 L400.934 1529.97 L403.684 1532.72 L400.198 1536.2 L405.959 1541.96 L402.669 1545.25 L396.908 1539.49 L385.875 1550.52 L382.684 1547.33 L377.364 1521.68 Z" fill="#000000" fill-rule="evenodd" fill-opacity="1" /><path clip-path="url(#clip210)" d="M411.099 1528.51 L414.552 1525.06 L418.71 1529.21 L415.256 1532.67 L411.099 1528.51 M397.922 1515.33 L401.376 1511.88 L405.534 1516.04 L402.08 1519.49 L397.922 1515.33 Z" fill="#000000" fill-rule="evenodd" fill-opacity="1" /><path clip-path="url(#clip210)" d="M411.017 1492.38 Q408.463 1494.94 409.691 1498.75 Q410.919 1502.53 415.96 1507.57 Q420.985 1512.6 424.782 1513.84 Q428.58 1515.05 431.133 1512.5 Q433.703 1509.93 432.475 1506.15 Q431.248 1502.34 426.223 1497.31 Q421.181 1492.27 417.384 1491.06 Q413.587 1489.81 411.017 1492.38 M408.398 1489.77 Q412.506 1485.66 417.924 1486.75 Q423.342 1487.82 429.529 1494 Q435.7 1500.18 436.78 1505.61 Q437.861 1511.01 433.752 1515.12 Q429.644 1519.23 424.226 1518.16 Q418.808 1517.07 412.637 1510.9 Q406.45 1504.71 405.37 1499.31 Q404.29 1493.87 408.398 1489.77 Z" fill="#000000" fill-rule="evenodd" fill-opacity="1" /><path clip-path="url(#clip210)" d="M432.345 1471.06 Q429.791 1473.61 431.019 1477.42 Q432.246 1481.2 437.288 1486.25 Q442.313 1491.27 446.11 1492.52 Q449.908 1493.73 452.461 1491.17 Q455.031 1488.6 453.803 1484.82 Q452.576 1481.01 447.55 1475.98 Q442.509 1470.94 438.712 1469.73 Q434.914 1468.49 432.345 1471.06 M429.726 1468.44 Q433.834 1464.33 439.252 1465.43 Q444.67 1466.49 450.857 1472.68 Q457.028 1478.85 458.108 1484.28 Q459.188 1489.68 455.08 1493.79 Q450.971 1497.9 445.554 1496.84 Q440.136 1495.74 433.965 1489.57 Q427.778 1483.38 426.698 1477.98 Q425.617 1472.55 429.726 1468.44 Z" fill="#000000" fill-rule="evenodd" fill-opacity="1" /><path clip-path="url(#clip210)" d="M537.504 1572.31 L542.906 1566.91 L524.262 1548.27 L519.565 1555.32 L516.553 1552.31 L521.218 1545.29 L524.524 1541.98 L546.179 1563.63 L551.581 1558.23 L554.363 1561.02 L540.287 1575.09 L537.504 1572.31 Z" fill="#000000" fill-rule="evenodd" fill-opacity="1" /><path clip-path="url(#clip210)" d="M536.637 1529.87 L549.616 1516.89 L552.399 1519.67 L542.447 1529.62 L548.438 1535.61 Q548.913 1534.65 549.518 1533.81 Q550.107 1532.96 550.828 1532.24 Q554.92 1528.15 559.552 1528 Q564.184 1527.85 568.014 1531.68 Q571.959 1535.63 571.697 1540.28 Q571.419 1544.91 566.95 1549.38 Q565.412 1550.92 563.546 1552.26 Q561.696 1553.58 559.47 1554.76 L556.147 1551.44 Q558.422 1550.77 560.387 1549.59 Q562.351 1548.41 564.102 1546.66 Q566.934 1543.83 567.098 1540.69 Q567.261 1537.54 564.708 1534.99 Q562.154 1532.44 559.012 1532.6 Q555.869 1532.76 553.037 1535.6 Q551.712 1536.92 550.68 1538.54 Q549.666 1540.15 548.913 1542.14 L536.637 1529.87 Z" fill="#000000" fill-rule="evenodd" fill-opacity="1" /><path clip-path="url(#clip210)" d="M578.555 1528.51 L582.009 1525.06 L586.166 1529.21 L582.713 1532.67 L578.555 1528.51 M565.379 1515.33 L568.833 1511.88 L572.99 1516.04 L569.536 1519.49 L565.379 1515.33 Z" fill="#000000" fill-rule="evenodd" fill-opacity="1" /><path clip-path="url(#clip210)" d="M578.473 1492.38 Q575.92 1494.94 577.148 1498.75 Q578.375 1502.53 583.417 1507.57 Q588.442 1512.6 592.239 1513.84 Q596.036 1515.05 598.59 1512.5 Q601.16 1509.93 599.932 1506.15 Q598.704 1502.34 593.679 1497.31 Q588.638 1492.27 584.841 1491.06 Q581.043 1489.81 578.473 1492.38 M575.855 1489.77 Q579.963 1485.66 585.381 1486.75 Q590.799 1487.82 596.986 1494 Q603.157 1500.18 604.237 1505.61 Q605.317 1511.01 601.209 1515.12 Q597.1 1519.23 591.683 1518.16 Q586.265 1517.07 580.094 1510.9 Q573.907 1504.71 572.826 1499.31 Q571.746 1493.87 575.855 1489.77 Z" fill="#000000" fill-rule="evenodd" fill-opacity="1" /><path clip-path="url(#clip210)" d="M599.801 1471.06 Q597.248 1473.61 598.475 1477.42 Q599.703 1481.2 604.744 1486.25 Q609.769 1491.27 613.567 1492.52 Q617.364 1493.73 619.918 1491.17 Q622.487 1488.6 621.26 1484.82 Q620.032 1481.01 615.007 1475.98 Q609.966 1470.94 606.168 1469.73 Q602.371 1468.49 599.801 1471.06 M597.182 1468.44 Q601.291 1464.33 606.708 1465.43 Q612.126 1466.49 618.313 1472.68 Q624.484 1478.85 625.565 1484.28 Q626.645 1489.68 622.536 1493.79 Q618.428 1497.9 613.01 1496.84 Q607.592 1495.74 601.422 1489.57 Q595.234 1483.38 594.154 1477.98 Q593.074 1472.55 597.182 1468.44 Z" fill="#000000" fill-rule="evenodd" fill-opacity="1" /><path clip-path="url(#clip210)" d="M704.961 1572.31 L710.362 1566.91 L691.719 1548.27 L687.021 1555.32 L684.009 1552.31 L688.674 1545.29 L691.981 1541.98 L713.636 1563.63 L719.037 1558.23 L721.82 1561.02 L707.743 1575.09 L704.961 1572.31 Z" fill="#000000" fill-rule="evenodd" fill-opacity="1" /><path clip-path="url(#clip210)" d="M722.442 1533.32 Q720.216 1535.55 720.428 1538.38 Q720.658 1541.19 723.309 1543.85 Q725.945 1546.48 728.776 1546.73 Q731.608 1546.94 733.834 1544.71 Q736.06 1542.49 735.831 1539.67 Q735.602 1536.82 732.966 1534.19 Q730.315 1531.54 727.483 1531.32 Q724.668 1531.09 722.442 1533.32 M718.644 1516.4 L721.656 1519.41 Q719.823 1520.06 718.235 1521.03 Q716.664 1521.98 715.42 1523.22 Q712.146 1526.5 712.621 1530.44 Q713.112 1534.37 717.335 1539.08 Q716.877 1536.69 717.58 1534.48 Q718.268 1532.26 720.019 1530.51 Q723.702 1526.82 728.072 1526.94 Q732.443 1527.02 736.289 1530.87 Q740.054 1534.63 740.103 1539.13 Q740.152 1543.63 736.453 1547.33 Q732.214 1551.57 726.73 1550.57 Q721.231 1549.56 715.06 1543.39 Q709.265 1537.59 708.578 1531.41 Q707.874 1525.2 712.506 1520.57 Q713.75 1519.33 715.256 1518.31 Q716.778 1517.28 718.644 1516.4 Z" fill="#000000" fill-rule="evenodd" fill-opacity="1" /><path clip-path="url(#clip210)" d="M746.012 1528.51 L749.466 1525.06 L753.623 1529.21 L750.169 1532.67 L746.012 1528.51 M732.836 1515.33 L736.289 1511.88 L740.447 1516.04 L736.993 1519.49 L732.836 1515.33 Z" fill="#000000" fill-rule="evenodd" fill-opacity="1" /><path clip-path="url(#clip210)" d="M745.93 1492.38 Q743.377 1494.94 744.604 1498.75 Q745.832 1502.53 750.873 1507.57 Q755.898 1512.6 759.696 1513.84 Q763.493 1515.05 766.046 1512.5 Q768.616 1509.93 767.389 1506.15 Q766.161 1502.34 761.136 1497.31 Q756.095 1492.27 752.297 1491.06 Q748.5 1489.81 745.93 1492.38 M743.311 1489.77 Q747.42 1485.66 752.837 1486.75 Q758.255 1487.82 764.442 1494 Q770.613 1500.18 771.693 1505.61 Q772.774 1511.01 768.665 1515.12 Q764.557 1519.23 759.139 1518.16 Q753.721 1517.07 747.55 1510.9 Q741.363 1504.71 740.283 1499.31 Q739.203 1493.87 743.311 1489.77 Z" fill="#000000" fill-rule="evenodd" fill-opacity="1" /><path clip-path="url(#clip210)" d="M767.258 1471.06 Q764.704 1473.61 765.932 1477.42 Q767.159 1481.2 772.201 1486.25 Q777.226 1491.27 781.023 1492.52 Q784.821 1493.73 787.374 1491.17 Q789.944 1488.6 788.716 1484.82 Q787.489 1481.01 782.464 1475.98 Q777.422 1470.94 773.625 1469.73 Q769.827 1468.49 767.258 1471.06 M764.639 1468.44 Q768.747 1464.33 774.165 1465.43 Q779.583 1466.49 785.77 1472.68 Q791.941 1478.85 793.021 1484.28 Q794.101 1489.68 789.993 1493.79 Q785.885 1497.9 780.467 1496.84 Q775.049 1495.74 768.878 1489.57 Q762.691 1483.38 761.611 1477.98 Q760.53 1472.55 764.639 1468.44 Z" fill="#000000" fill-rule="evenodd" fill-opacity="1" /><path clip-path="url(#clip210)" d="M872.417 1572.31 L877.819 1566.91 L859.175 1548.27 L854.478 1555.32 L851.466 1552.31 L856.131 1545.29 L859.437 1541.98 L881.092 1563.63 L886.494 1558.23 L889.276 1561.02 L875.2 1575.09 L872.417 1572.31 Z" fill="#000000" fill-rule="evenodd" fill-opacity="1" /><path clip-path="url(#clip210)" d="M870.682 1530.73 L886.396 1515.02 L887.803 1516.43 L901.962 1548.33 L898.508 1551.78 L885.201 1521.78 L873.465 1533.52 L870.682 1530.73 Z" fill="#000000" fill-rule="evenodd" fill-opacity="1" /><path clip-path="url(#clip210)" d="M913.468 1528.51 L916.922 1525.06 L921.08 1529.21 L917.626 1532.67 L913.468 1528.51 M900.292 1515.33 L903.746 1511.88 L907.903 1516.04 L904.45 1519.49 L900.292 1515.33 Z" fill="#000000" fill-rule="evenodd" fill-opacity="1" /><path clip-path="url(#clip210)" d="M913.387 1492.38 Q910.833 1494.94 912.061 1498.75 Q913.288 1502.53 918.33 1507.57 Q923.355 1512.6 927.152 1513.84 Q930.95 1515.05 933.503 1512.5 Q936.073 1509.93 934.845 1506.15 Q933.618 1502.34 928.593 1497.31 Q923.551 1492.27 919.754 1491.06 Q915.956 1489.81 913.387 1492.38 M910.768 1489.77 Q914.876 1485.66 920.294 1486.75 Q925.712 1487.82 931.899 1494 Q938.07 1500.18 939.15 1505.61 Q940.23 1511.01 936.122 1515.12 Q932.014 1519.23 926.596 1518.16 Q921.178 1517.07 915.007 1510.9 Q908.82 1504.71 907.74 1499.31 Q906.659 1493.87 910.768 1489.77 Z" fill="#000000" fill-rule="evenodd" fill-opacity="1" /><path clip-path="url(#clip210)" d="M934.714 1471.06 Q932.161 1473.61 933.388 1477.42 Q934.616 1481.2 939.657 1486.25 Q944.682 1491.27 948.48 1492.52 Q952.277 1493.73 954.831 1491.17 Q957.401 1488.6 956.173 1484.82 Q954.945 1481.01 949.92 1475.98 Q944.879 1470.94 941.081 1469.73 Q937.284 1468.49 934.714 1471.06 M932.095 1468.44 Q936.204 1464.33 941.622 1465.43 Q947.039 1466.49 953.227 1472.68 Q959.397 1478.85 960.478 1484.28 Q961.558 1489.68 957.45 1493.79 Q953.341 1497.9 947.923 1496.84 Q942.506 1495.74 936.335 1489.57 Q930.148 1483.38 929.067 1477.98 Q927.987 1472.55 932.095 1468.44 Z" fill="#000000" fill-rule="evenodd" fill-opacity="1" /><path clip-path="url(#clip210)" d="M1039.87 1572.31 L1045.28 1566.91 L1026.63 1548.27 L1021.93 1555.32 L1018.92 1552.31 L1023.59 1545.29 L1026.89 1541.98 L1048.55 1563.63 L1053.95 1558.23 L1056.73 1561.02 L1042.66 1575.09 L1039.87 1572.31 Z" fill="#000000" fill-rule="evenodd" fill-opacity="1" /><path clip-path="url(#clip210)" d="M1058.88 1535.66 Q1056.52 1538.02 1056.42 1540.64 Q1056.34 1543.24 1058.55 1545.45 Q1060.76 1547.66 1063.36 1547.58 Q1065.98 1547.48 1068.34 1545.12 Q1070.69 1542.77 1070.79 1540.15 Q1070.88 1537.51 1068.68 1535.32 Q1066.47 1533.11 1063.85 1533.21 Q1061.25 1533.29 1058.88 1535.66 M1054.16 1537.56 Q1051.51 1539.16 1048.86 1538.9 Q1046.22 1538.62 1044.13 1536.53 Q1041.2 1533.6 1041.58 1529.82 Q1041.97 1526.02 1045.6 1522.39 Q1049.25 1518.74 1053.03 1518.36 Q1056.81 1517.98 1059.74 1520.91 Q1061.84 1523.01 1062.1 1525.66 Q1062.38 1528.3 1060.79 1530.93 Q1063.74 1529.1 1066.68 1529.39 Q1069.65 1529.67 1071.99 1532.01 Q1075.54 1535.56 1075.26 1539.64 Q1075 1543.7 1070.96 1547.74 Q1066.91 1551.78 1062.84 1552.06 Q1058.78 1552.32 1055.23 1548.77 Q1052.89 1546.43 1052.61 1543.47 Q1052.33 1540.51 1054.16 1537.56 M1047.73 1533.55 Q1049.63 1535.45 1051.87 1535.33 Q1054.13 1535.2 1056.27 1533.06 Q1058.4 1530.93 1058.53 1528.67 Q1058.68 1526.4 1056.78 1524.5 Q1054.88 1522.6 1052.61 1522.75 Q1050.35 1522.88 1048.22 1525.01 Q1046.08 1527.15 1045.95 1529.41 Q1045.83 1531.65 1047.73 1533.55 Z" fill="#000000" fill-rule="evenodd" fill-opacity="1" /><path clip-path="url(#clip210)" d="M1080.93 1528.51 L1084.38 1525.06 L1088.54 1529.21 L1085.08 1532.67 L1080.93 1528.51 M1067.75 1515.33 L1071.2 1511.88 L1075.36 1516.04 L1071.91 1519.49 L1067.75 1515.33 Z" fill="#000000" fill-rule="evenodd" fill-opacity="1" /><path clip-path="url(#clip210)" d="M1080.84 1492.38 Q1078.29 1494.94 1079.52 1498.75 Q1080.75 1502.53 1085.79 1507.57 Q1090.81 1512.6 1094.61 1513.84 Q1098.41 1515.05 1100.96 1512.5 Q1103.53 1509.93 1102.3 1506.15 Q1101.07 1502.34 1096.05 1497.31 Q1091.01 1492.27 1087.21 1491.06 Q1083.41 1489.81 1080.84 1492.38 M1078.22 1489.77 Q1082.33 1485.66 1087.75 1486.75 Q1093.17 1487.82 1099.36 1494 Q1105.53 1500.18 1106.61 1505.61 Q1107.69 1511.01 1103.58 1515.12 Q1099.47 1519.23 1094.05 1518.16 Q1088.63 1517.07 1082.46 1510.9 Q1076.28 1504.71 1075.2 1499.31 Q1074.12 1493.87 1078.22 1489.77 Z" fill="#000000" fill-rule="evenodd" fill-opacity="1" /><path clip-path="url(#clip210)" d="M1102.17 1471.06 Q1099.62 1473.61 1100.85 1477.42 Q1102.07 1481.2 1107.11 1486.25 Q1112.14 1491.27 1115.94 1492.52 Q1119.73 1493.73 1122.29 1491.17 Q1124.86 1488.6 1123.63 1484.82 Q1122.4 1481.01 1117.38 1475.98 Q1112.34 1470.94 1108.54 1469.73 Q1104.74 1468.49 1102.17 1471.06 M1099.55 1468.44 Q1103.66 1464.33 1109.08 1465.43 Q1114.5 1466.49 1120.68 1472.68 Q1126.85 1478.85 1127.93 1484.28 Q1129.01 1489.68 1124.91 1493.79 Q1120.8 1497.9 1115.38 1496.84 Q1109.96 1495.74 1103.79 1489.57 Q1097.6 1483.38 1096.52 1477.98 Q1095.44 1472.55 1099.55 1468.44 Z" fill="#000000" fill-rule="evenodd" fill-opacity="1" /><path clip-path="url(#clip210)" d="M1207.33 1572.31 L1212.73 1566.91 L1194.09 1548.27 L1189.39 1555.32 L1186.38 1552.31 L1191.04 1545.29 L1194.35 1541.98 L1216.01 1563.63 L1221.41 1558.23 L1224.19 1561.02 L1210.11 1575.09 L1207.33 1572.31 Z" fill="#000000" fill-rule="evenodd" fill-opacity="1" /><path clip-path="url(#clip210)" d="M1230.46 1553.73 L1227.45 1550.72 Q1229.28 1550.07 1230.87 1549.1 Q1232.46 1548.13 1233.68 1546.91 Q1236.96 1543.63 1236.48 1539.72 Q1236.01 1535.78 1231.77 1531.05 Q1232.23 1533.4 1231.52 1535.61 Q1230.82 1537.82 1229.05 1539.59 Q1225.38 1543.26 1221.03 1543.19 Q1216.68 1543.09 1212.83 1539.25 Q1209.07 1535.48 1209.02 1530.98 Q1208.97 1526.48 1212.67 1522.78 Q1216.91 1518.54 1222.39 1519.57 Q1227.87 1520.57 1234.06 1526.76 Q1239.84 1532.54 1240.54 1538.74 Q1241.25 1544.91 1236.61 1549.54 Q1235.37 1550.79 1233.85 1551.82 Q1232.32 1552.85 1230.46 1553.73 M1226.68 1536.79 Q1228.9 1534.56 1228.67 1531.75 Q1228.46 1528.92 1225.81 1526.27 Q1223.17 1523.63 1220.34 1523.42 Q1217.51 1523.17 1215.29 1525.4 Q1213.06 1527.62 1213.29 1530.47 Q1213.52 1533.29 1216.15 1535.92 Q1218.8 1538.58 1221.62 1538.8 Q1224.45 1539.02 1226.68 1536.79 Z" fill="#000000" fill-rule="evenodd" fill-opacity="1" /><path clip-path="url(#clip210)" d="M1248.38 1528.51 L1251.84 1525.06 L1255.99 1529.21 L1252.54 1532.67 L1248.38 1528.51 M1235.21 1515.33 L1238.66 1511.88 L1242.82 1516.04 L1239.36 1519.49 L1235.21 1515.33 Z" fill="#000000" fill-rule="evenodd" fill-opacity="1" /><path clip-path="url(#clip210)" d="M1248.3 1492.38 Q1245.75 1494.94 1246.97 1498.75 Q1248.2 1502.53 1253.24 1507.57 Q1258.27 1512.6 1262.07 1513.84 Q1265.86 1515.05 1268.42 1512.5 Q1270.99 1509.93 1269.76 1506.15 Q1268.53 1502.34 1263.51 1497.31 Q1258.46 1492.27 1254.67 1491.06 Q1250.87 1489.81 1248.3 1492.38 M1245.68 1489.77 Q1249.79 1485.66 1255.21 1486.75 Q1260.63 1487.82 1266.81 1494 Q1272.98 1500.18 1274.06 1505.61 Q1275.14 1511.01 1271.04 1515.12 Q1266.93 1519.23 1261.51 1518.16 Q1256.09 1517.07 1249.92 1510.9 Q1243.73 1504.71 1242.65 1499.31 Q1241.57 1493.87 1245.68 1489.77 Z" fill="#000000" fill-rule="evenodd" fill-opacity="1" /><path clip-path="url(#clip210)" d="M1269.63 1471.06 Q1267.07 1473.61 1268.3 1477.42 Q1269.53 1481.2 1274.57 1486.25 Q1279.6 1491.27 1283.39 1492.52 Q1287.19 1493.73 1289.74 1491.17 Q1292.31 1488.6 1291.09 1484.82 Q1289.86 1481.01 1284.83 1475.98 Q1279.79 1470.94 1275.99 1469.73 Q1272.2 1468.49 1269.63 1471.06 M1267.01 1468.44 Q1271.12 1464.33 1276.53 1465.43 Q1281.95 1466.49 1288.14 1472.68 Q1294.31 1478.85 1295.39 1484.28 Q1296.47 1489.68 1292.36 1493.79 Q1288.25 1497.9 1282.84 1496.84 Q1277.42 1495.74 1271.25 1489.57 Q1265.06 1483.38 1263.98 1477.98 Q1262.9 1472.55 1267.01 1468.44 Z" fill="#000000" fill-rule="evenodd" fill-opacity="1" /><path clip-path="url(#clip210)" d="M1377.06 1570.03 L1388.6 1558.5 L1391.38 1561.28 L1375.87 1576.79 L1373.08 1574.01 Q1373.02 1570.18 1372.99 1563.67 Q1372.95 1557.12 1372.84 1555.34 Q1372.64 1551.96 1372.04 1550.11 Q1371.43 1548.23 1370.24 1547.04 Q1368.29 1545.09 1365.69 1545.24 Q1363.1 1545.37 1360.91 1547.56 Q1359.35 1549.12 1358.16 1551.39 Q1356.98 1553.65 1356.11 1556.71 L1352.77 1553.37 Q1353.97 1550.57 1355.29 1548.43 Q1356.62 1546.28 1358.06 1544.84 Q1361.86 1541.05 1366.01 1540.69 Q1370.17 1540.33 1373.35 1543.5 Q1374.85 1545.01 1375.64 1546.94 Q1376.42 1548.84 1376.77 1552.16 Q1376.83 1553.04 1376.91 1557.51 Q1376.98 1561.97 1377.06 1570.03 Z" fill="#000000" fill-rule="evenodd" fill-opacity="1" /><path clip-path="url(#clip210)" d="M1383.13 1525.01 Q1380.58 1527.56 1381.81 1531.37 Q1383.04 1535.15 1388.08 1540.2 Q1393.1 1545.22 1396.9 1546.46 Q1400.7 1547.68 1403.25 1545.12 Q1405.82 1542.55 1404.59 1538.77 Q1403.37 1534.96 1398.34 1529.93 Q1393.3 1524.89 1389.5 1523.68 Q1385.7 1522.44 1383.13 1525.01 M1380.52 1522.39 Q1384.62 1518.28 1390.04 1519.38 Q1395.46 1520.44 1401.65 1526.63 Q1407.82 1532.8 1408.9 1538.23 Q1409.98 1543.63 1405.87 1547.74 Q1401.76 1551.85 1396.34 1550.79 Q1390.93 1549.69 1384.76 1543.52 Q1378.57 1537.33 1377.49 1531.93 Q1376.41 1526.5 1380.52 1522.39 Z" fill="#000000" fill-rule="evenodd" fill-opacity="1" /><path clip-path="url(#clip210)" d="M1415.84 1528.51 L1419.29 1525.06 L1423.45 1529.21 L1420 1532.67 L1415.84 1528.51 M1402.66 1515.33 L1406.12 1511.88 L1410.27 1516.04 L1406.82 1519.49 L1402.66 1515.33 Z" fill="#000000" fill-rule="evenodd" fill-opacity="1" /><path clip-path="url(#clip210)" d="M1415.76 1492.38 Q1413.2 1494.94 1414.43 1498.75 Q1415.66 1502.53 1420.7 1507.57 Q1425.72 1512.6 1429.52 1513.84 Q1433.32 1515.05 1435.87 1512.5 Q1438.44 1509.93 1437.22 1506.15 Q1435.99 1502.34 1430.96 1497.31 Q1425.92 1492.27 1422.12 1491.06 Q1418.33 1489.81 1415.76 1492.38 M1413.14 1489.77 Q1417.25 1485.66 1422.66 1486.75 Q1428.08 1487.82 1434.27 1494 Q1440.44 1500.18 1441.52 1505.61 Q1442.6 1511.01 1438.49 1515.12 Q1434.38 1519.23 1428.97 1518.16 Q1423.55 1517.07 1417.38 1510.9 Q1411.19 1504.71 1410.11 1499.31 Q1409.03 1493.87 1413.14 1489.77 Z" fill="#000000" fill-rule="evenodd" fill-opacity="1" /><path clip-path="url(#clip210)" d="M1437.08 1471.06 Q1434.53 1473.61 1435.76 1477.42 Q1436.99 1481.2 1442.03 1486.25 Q1447.05 1491.27 1450.85 1492.52 Q1454.65 1493.73 1457.2 1491.17 Q1459.77 1488.6 1458.54 1484.82 Q1457.32 1481.01 1452.29 1475.98 Q1447.25 1470.94 1443.45 1469.73 Q1439.65 1468.49 1437.08 1471.06 M1434.47 1468.44 Q1438.57 1464.33 1443.99 1465.43 Q1449.41 1466.49 1455.6 1472.68 Q1461.77 1478.85 1462.85 1484.28 Q1463.93 1489.68 1459.82 1493.79 Q1455.71 1497.9 1450.29 1496.84 Q1444.88 1495.74 1438.7 1489.57 Q1432.52 1483.38 1431.44 1477.98 Q1430.36 1472.55 1434.47 1468.44 Z" fill="#000000" fill-rule="evenodd" fill-opacity="1" /><path clip-path="url(#clip210)" d="M1544.52 1570.03 L1556.06 1558.5 L1558.84 1561.28 L1543.32 1576.79 L1540.54 1574.01 Q1540.48 1570.18 1540.44 1563.67 Q1540.41 1557.12 1540.3 1555.34 Q1540.1 1551.96 1539.49 1550.11 Q1538.89 1548.23 1537.69 1547.04 Q1535.75 1545.09 1533.14 1545.24 Q1530.56 1545.37 1528.36 1547.56 Q1526.81 1549.12 1525.61 1551.39 Q1524.44 1553.65 1523.57 1556.71 L1520.23 1553.37 Q1521.42 1550.57 1522.75 1548.43 Q1524.07 1546.28 1525.52 1544.84 Q1529.31 1541.05 1533.47 1540.69 Q1537.63 1540.33 1540.8 1543.5 Q1542.31 1545.01 1543.09 1546.94 Q1543.88 1548.84 1544.22 1552.16 Q1544.29 1553.04 1544.37 1557.51 Q1544.44 1561.97 1544.52 1570.03 Z" fill="#000000" fill-rule="evenodd" fill-opacity="1" /><path clip-path="url(#clip210)" d="M1563.57 1550.98 L1568.97 1545.58 L1550.33 1526.94 L1545.63 1533.99 L1542.62 1530.98 L1547.28 1523.96 L1550.59 1520.65 L1572.25 1542.31 L1577.65 1536.91 L1580.43 1539.69 L1566.35 1553.76 L1563.57 1550.98 Z" fill="#000000" fill-rule="evenodd" fill-opacity="1" /><path clip-path="url(#clip210)" d="M1583.29 1528.51 L1586.75 1525.06 L1590.91 1529.21 L1587.45 1532.67 L1583.29 1528.51 M1570.12 1515.33 L1573.57 1511.88 L1577.73 1516.04 L1574.28 1519.49 L1570.12 1515.33 Z" fill="#000000" fill-rule="evenodd" fill-opacity="1" /><path clip-path="url(#clip210)" d="M1583.21 1492.38 Q1580.66 1494.94 1581.89 1498.75 Q1583.11 1502.53 1588.16 1507.57 Q1593.18 1512.6 1596.98 1513.84 Q1600.78 1515.05 1603.33 1512.5 Q1605.9 1509.93 1604.67 1506.15 Q1603.44 1502.34 1598.42 1497.31 Q1593.38 1492.27 1589.58 1491.06 Q1585.78 1489.81 1583.21 1492.38 M1580.59 1489.77 Q1584.7 1485.66 1590.12 1486.75 Q1595.54 1487.82 1601.73 1494 Q1607.9 1500.18 1608.98 1505.61 Q1610.06 1511.01 1605.95 1515.12 Q1601.84 1519.23 1596.42 1518.16 Q1591 1517.07 1584.83 1510.9 Q1578.65 1504.71 1577.57 1499.31 Q1576.49 1493.87 1580.59 1489.77 Z" fill="#000000" fill-rule="evenodd" fill-opacity="1" /><path clip-path="url(#clip210)" d="M1604.54 1471.06 Q1601.99 1473.61 1603.21 1477.42 Q1604.44 1481.2 1609.48 1486.25 Q1614.51 1491.27 1618.31 1492.52 Q1622.1 1493.73 1624.66 1491.17 Q1627.23 1488.6 1626 1484.82 Q1624.77 1481.01 1619.75 1475.98 Q1614.71 1470.94 1610.91 1469.73 Q1607.11 1468.49 1604.54 1471.06 M1601.92 1468.44 Q1606.03 1464.33 1611.45 1465.43 Q1616.87 1466.49 1623.05 1472.68 Q1629.22 1478.85 1630.3 1484.28 Q1631.38 1489.68 1627.28 1493.79 Q1623.17 1497.9 1617.75 1496.84 Q1612.33 1495.74 1606.16 1489.57 Q1599.97 1483.38 1598.89 1477.98 Q1597.81 1472.55 1601.92 1468.44 Z" fill="#000000" fill-rule="evenodd" fill-opacity="1" /><path clip-path="url(#clip210)" d="M1711.98 1570.03 L1723.51 1558.5 L1726.3 1561.28 L1710.78 1576.79 L1708 1574.01 Q1707.93 1570.18 1707.9 1563.67 Q1707.87 1557.12 1707.75 1555.34 Q1707.56 1551.96 1706.95 1550.11 Q1706.34 1548.23 1705.15 1547.04 Q1703.2 1545.09 1700.6 1545.24 Q1698.01 1545.37 1695.82 1547.56 Q1694.27 1549.12 1693.07 1551.39 Q1691.89 1553.65 1691.02 1556.71 L1687.69 1553.37 Q1688.88 1550.57 1690.21 1548.43 Q1691.53 1546.28 1692.97 1544.84 Q1696.77 1541.05 1700.93 1540.69 Q1705.08 1540.33 1708.26 1543.5 Q1709.77 1545.01 1710.55 1546.94 Q1711.34 1548.84 1711.68 1552.16 Q1711.75 1553.04 1711.83 1557.51 Q1711.89 1561.97 1711.98 1570.03 Z" fill="#000000" fill-rule="evenodd" fill-opacity="1" /><path clip-path="url(#clip210)" d="M1733.3 1548.71 L1744.84 1537.17 L1747.63 1539.95 L1732.11 1555.47 L1729.33 1552.68 Q1729.26 1548.85 1729.23 1542.34 Q1729.19 1535.79 1729.08 1534.01 Q1728.88 1530.64 1728.28 1528.79 Q1727.67 1526.9 1726.48 1525.71 Q1724.53 1523.76 1721.93 1523.91 Q1719.34 1524.04 1717.15 1526.23 Q1715.59 1527.79 1714.4 1530.06 Q1713.22 1532.32 1712.35 1535.38 L1709.01 1532.04 Q1710.21 1529.25 1711.53 1527.1 Q1712.86 1524.96 1714.3 1523.52 Q1718.1 1519.72 1722.25 1519.36 Q1726.41 1519 1729.59 1522.17 Q1731.09 1523.68 1731.88 1525.61 Q1732.66 1527.51 1733.01 1530.83 Q1733.07 1531.72 1733.16 1536.19 Q1733.22 1540.64 1733.3 1548.71 Z" fill="#000000" fill-rule="evenodd" fill-opacity="1" /><path clip-path="url(#clip210)" d="M1750.75 1528.51 L1754.21 1525.06 L1758.36 1529.21 L1754.91 1532.67 L1750.75 1528.51 M1737.58 1515.33 L1741.03 1511.88 L1745.19 1516.04 L1741.73 1519.49 L1737.58 1515.33 Z" fill="#000000" fill-rule="evenodd" fill-opacity="1" /><path clip-path="url(#clip210)" d="M1750.67 1492.38 Q1748.12 1494.94 1749.34 1498.75 Q1750.57 1502.53 1755.61 1507.57 Q1760.64 1512.6 1764.44 1513.84 Q1768.23 1515.05 1770.79 1512.5 Q1773.36 1509.93 1772.13 1506.15 Q1770.9 1502.34 1765.88 1497.31 Q1760.83 1492.27 1757.04 1491.06 Q1753.24 1489.81 1750.67 1492.38 M1748.05 1489.77 Q1752.16 1485.66 1757.58 1486.75 Q1762.99 1487.82 1769.18 1494 Q1775.35 1500.18 1776.43 1505.61 Q1777.51 1511.01 1773.4 1515.12 Q1769.3 1519.23 1763.88 1518.16 Q1758.46 1517.07 1752.29 1510.9 Q1746.1 1504.71 1745.02 1499.31 Q1743.94 1493.87 1748.05 1489.77 Z" fill="#000000" fill-rule="evenodd" fill-opacity="1" /><path clip-path="url(#clip210)" d="M1772 1471.06 Q1769.44 1473.61 1770.67 1477.42 Q1771.9 1481.2 1776.94 1486.25 Q1781.97 1491.27 1785.76 1492.52 Q1789.56 1493.73 1792.11 1491.17 Q1794.68 1488.6 1793.46 1484.82 Q1792.23 1481.01 1787.2 1475.98 Q1782.16 1470.94 1778.36 1469.73 Q1774.57 1468.49 1772 1471.06 M1769.38 1468.44 Q1773.49 1464.33 1778.9 1465.43 Q1784.32 1466.49 1790.51 1472.68 Q1796.68 1478.85 1797.76 1484.28 Q1798.84 1489.68 1794.73 1493.79 Q1790.62 1497.9 1785.21 1496.84 Q1779.79 1495.74 1773.62 1489.57 Q1767.43 1483.38 1766.35 1477.98 Q1765.27 1472.55 1769.38 1468.44 Z" fill="#000000" fill-rule="evenodd" fill-opacity="1" /><path clip-path="url(#clip210)" d="M1879.43 1570.03 L1890.97 1558.5 L1893.75 1561.28 L1878.24 1576.79 L1875.45 1574.01 Q1875.39 1570.18 1875.36 1563.67 Q1875.32 1557.12 1875.21 1555.34 Q1875.01 1551.96 1874.41 1550.11 Q1873.8 1548.23 1872.61 1547.04 Q1870.66 1545.09 1868.06 1545.24 Q1865.47 1545.37 1863.28 1547.56 Q1861.72 1549.12 1860.53 1551.39 Q1859.35 1553.65 1858.48 1556.71 L1855.14 1553.37 Q1856.34 1550.57 1857.66 1548.43 Q1858.99 1546.28 1860.43 1544.84 Q1864.23 1541.05 1868.38 1540.69 Q1872.54 1540.33 1875.72 1543.5 Q1877.22 1545.01 1878.01 1546.94 Q1878.79 1548.84 1879.14 1552.16 Q1879.2 1553.04 1879.28 1557.51 Q1879.35 1561.97 1879.43 1570.03 Z" fill="#000000" fill-rule="evenodd" fill-opacity="1" /><path clip-path="url(#clip210)" d="M1897.54 1531.14 Q1900.42 1529.28 1903.35 1529.56 Q1906.29 1529.82 1908.65 1532.18 Q1912.27 1535.79 1911.76 1540.26 Q1911.25 1544.73 1906.67 1549.31 Q1905.13 1550.85 1903.18 1552.18 Q1901.27 1553.5 1898.93 1554.63 L1895.73 1551.44 Q1897.91 1550.87 1899.96 1549.64 Q1902 1548.41 1903.79 1546.63 Q1906.9 1543.52 1907.29 1540.67 Q1907.7 1537.81 1905.36 1535.47 Q1903.2 1533.3 1900.46 1533.62 Q1897.73 1533.89 1895.03 1536.59 L1892.18 1539.44 L1889.47 1536.73 L1892.44 1533.75 Q1894.88 1531.31 1895.21 1529.05 Q1895.52 1526.77 1893.69 1524.94 Q1891.81 1523.06 1889.47 1523.4 Q1887.12 1523.71 1884.64 1526.2 Q1883.28 1527.56 1882.02 1529.41 Q1880.76 1531.26 1879.51 1533.75 L1876.57 1530.8 Q1877.93 1528.39 1879.3 1526.5 Q1880.69 1524.58 1882.15 1523.12 Q1885.91 1519.36 1889.83 1518.88 Q1893.72 1518.39 1896.63 1521.31 Q1898.66 1523.34 1898.91 1525.91 Q1899.14 1528.46 1897.54 1531.14 Z" fill="#000000" fill-rule="evenodd" fill-opacity="1" /><path clip-path="url(#clip210)" d="M1918.21 1528.51 L1921.66 1525.06 L1925.82 1529.21 L1922.37 1532.67 L1918.21 1528.51 M1905.03 1515.33 L1908.49 1511.88 L1912.64 1516.04 L1909.19 1519.49 L1905.03 1515.33 Z" fill="#000000" fill-rule="evenodd" fill-opacity="1" /><path clip-path="url(#clip210)" d="M1918.13 1492.38 Q1915.57 1494.94 1916.8 1498.75 Q1918.03 1502.53 1923.07 1507.57 Q1928.09 1512.6 1931.89 1513.84 Q1935.69 1515.05 1938.24 1512.5 Q1940.81 1509.93 1939.58 1506.15 Q1938.36 1502.34 1933.33 1497.31 Q1928.29 1492.27 1924.49 1491.06 Q1920.7 1489.81 1918.13 1492.38 M1915.51 1489.77 Q1919.62 1485.66 1925.03 1486.75 Q1930.45 1487.82 1936.64 1494 Q1942.81 1500.18 1943.89 1505.61 Q1944.97 1511.01 1940.86 1515.12 Q1936.75 1519.23 1931.34 1518.16 Q1925.92 1517.07 1919.75 1510.9 Q1913.56 1504.71 1912.48 1499.31 Q1911.4 1493.87 1915.51 1489.77 Z" fill="#000000" fill-rule="evenodd" fill-opacity="1" /><path clip-path="url(#clip210)" d="M1939.45 1471.06 Q1936.9 1473.61 1938.13 1477.42 Q1939.36 1481.2 1944.4 1486.25 Q1949.42 1491.27 1953.22 1492.52 Q1957.02 1493.73 1959.57 1491.17 Q1962.14 1488.6 1960.91 1484.82 Q1959.68 1481.01 1954.66 1475.98 Q1949.62 1470.94 1945.82 1469.73 Q1942.02 1468.49 1939.45 1471.06 M1936.83 1468.44 Q1940.94 1464.33 1946.36 1465.43 Q1951.78 1466.49 1957.97 1472.68 Q1964.14 1478.85 1965.22 1484.28 Q1966.3 1489.68 1962.19 1493.79 Q1958.08 1497.9 1952.66 1496.84 Q1947.25 1495.74 1941.07 1489.57 Q1934.89 1483.38 1933.81 1477.98 Q1932.73 1472.55 1936.83 1468.44 Z" fill="#000000" fill-rule="evenodd" fill-opacity="1" /><path clip-path="url(#clip210)" d="M2031.63 1546.33 Q2029.08 1548.89 2030.31 1552.7 Q2031.54 1556.48 2036.58 1561.52 Q2041.6 1566.55 2045.4 1567.79 Q2049.2 1569 2051.75 1566.45 Q2054.32 1563.88 2053.09 1560.1 Q2051.86 1556.29 2046.84 1551.26 Q2041.8 1546.22 2038 1545.01 Q2034.2 1543.76 2031.63 1546.33 M2029.01 1543.71 Q2033.12 1539.61 2038.54 1540.7 Q2043.96 1541.77 2050.15 1547.95 Q2056.32 1554.12 2057.4 1559.56 Q2058.48 1564.96 2054.37 1569.07 Q2050.26 1573.18 2044.84 1572.11 Q2039.42 1571.02 2033.25 1564.85 Q2027.07 1558.66 2025.99 1553.26 Q2024.91 1547.82 2029.01 1543.71 Z" fill="#000000" fill-rule="evenodd" fill-opacity="1" /><path clip-path="url(#clip210)" d="M2052.96 1525.01 Q2050.41 1527.56 2051.64 1531.37 Q2052.86 1535.15 2057.9 1540.2 Q2062.93 1545.22 2066.73 1546.46 Q2070.52 1547.68 2073.08 1545.12 Q2075.65 1542.55 2074.42 1538.77 Q2073.19 1534.96 2068.17 1529.93 Q2063.13 1524.89 2059.33 1523.68 Q2055.53 1522.44 2052.96 1525.01 M2050.34 1522.39 Q2054.45 1518.28 2059.87 1519.38 Q2065.29 1520.44 2071.47 1526.63 Q2077.64 1532.8 2078.72 1538.23 Q2079.8 1543.63 2075.7 1547.74 Q2071.59 1551.85 2066.17 1550.79 Q2060.75 1549.69 2054.58 1543.52 Q2048.39 1537.33 2047.31 1531.93 Q2046.23 1526.5 2050.34 1522.39 Z" fill="#000000" fill-rule="evenodd" fill-opacity="1" /><path clip-path="url(#clip210)" d="M2085.66 1528.51 L2089.12 1525.06 L2093.28 1529.21 L2089.82 1532.67 L2085.66 1528.51 M2072.49 1515.33 L2075.94 1511.88 L2080.1 1516.04 L2076.65 1519.49 L2072.49 1515.33 Z" fill="#000000" fill-rule="evenodd" fill-opacity="1" /><path clip-path="url(#clip210)" d="M2085.58 1492.38 Q2083.03 1494.94 2084.26 1498.75 Q2085.48 1502.53 2090.53 1507.57 Q2095.55 1512.6 2099.35 1513.84 Q2103.15 1515.05 2105.7 1512.5 Q2108.27 1509.93 2107.04 1506.15 Q2105.81 1502.34 2100.79 1497.31 Q2095.75 1492.27 2091.95 1491.06 Q2088.15 1489.81 2085.58 1492.38 M2082.96 1489.77 Q2087.07 1485.66 2092.49 1486.75 Q2097.91 1487.82 2104.1 1494 Q2110.27 1500.18 2111.35 1505.61 Q2112.43 1511.01 2108.32 1515.12 Q2104.21 1519.23 2098.79 1518.16 Q2093.37 1517.07 2087.2 1510.9 Q2081.02 1504.71 2079.94 1499.31 Q2078.86 1493.87 2082.96 1489.77 Z" fill="#000000" fill-rule="evenodd" fill-opacity="1" /><path clip-path="url(#clip210)" d="M2106.91 1471.06 Q2104.36 1473.61 2105.58 1477.42 Q2106.81 1481.2 2111.85 1486.25 Q2116.88 1491.27 2120.68 1492.52 Q2124.47 1493.73 2127.03 1491.17 Q2129.6 1488.6 2128.37 1484.82 Q2127.14 1481.01 2122.12 1475.98 Q2117.08 1470.94 2113.28 1469.73 Q2109.48 1468.49 2106.91 1471.06 M2104.29 1468.44 Q2108.4 1464.33 2113.82 1465.43 Q2119.24 1466.49 2125.42 1472.68 Q2131.59 1478.85 2132.67 1484.28 Q2133.75 1489.68 2129.65 1493.79 Q2125.54 1497.9 2120.12 1496.84 Q2114.7 1495.74 2108.53 1489.57 Q2102.34 1483.38 2101.26 1477.98 Q2100.18 1472.55 2104.29 1468.44 Z" fill="#000000" fill-rule="evenodd" fill-opacity="1" /><polyline clip-path="url(#clip212)" style="stroke:#000000; stroke-linecap:butt; stroke-linejoin:round; stroke-width:2; stroke-opacity:0.1; fill:none" points="
  223.103,1189.91 2352.76,1189.91 
  "/>
<polyline clip-path="url(#clip212)" style="stroke:#000000; stroke-linecap:butt; stroke-linejoin:round; stroke-width:2; stroke-opacity:0.1; fill:none" points="
  223.103,911.19 2352.76,911.19 
  "/>
<polyline clip-path="url(#clip212)" style="stroke:#000000; stroke-linecap:butt; stroke-linejoin:round; stroke-width:2; stroke-opacity:0.1; fill:none" points="
  223.103,632.465 2352.76,632.465 
  "/>
<polyline clip-path="url(#clip212)" style="stroke:#000000; stroke-linecap:butt; stroke-linejoin:round; stroke-width:2; stroke-opacity:0.1; fill:none" points="
  223.103,353.74 2352.76,353.74 
  "/>
<polyline clip-path="url(#clip210)" style="stroke:#000000; stroke-linecap:butt; stroke-linejoin:round; stroke-width:4; stroke-opacity:1; fill:none" points="
  223.103,1435.12 223.103,123.472 
  "/>
<polyline clip-path="url(#clip210)" style="stroke:#000000; stroke-linecap:butt; stroke-linejoin:round; stroke-width:4; stroke-opacity:1; fill:none" points="
  223.103,1189.91 242,1189.91 
  "/>
<polyline clip-path="url(#clip210)" style="stroke:#000000; stroke-linecap:butt; stroke-linejoin:round; stroke-width:4; stroke-opacity:1; fill:none" points="
  223.103,911.19 242,911.19 
  "/>
<polyline clip-path="url(#clip210)" style="stroke:#000000; stroke-linecap:butt; stroke-linejoin:round; stroke-width:4; stroke-opacity:1; fill:none" points="
  223.103,632.465 242,632.465 
  "/>
<polyline clip-path="url(#clip210)" style="stroke:#000000; stroke-linecap:butt; stroke-linejoin:round; stroke-width:4; stroke-opacity:1; fill:none" points="
  223.103,353.74 242,353.74 
  "/>
<path clip-path="url(#clip210)" d="M50.9921 1190.37 L80.6679 1190.37 L80.6679 1194.3 L50.9921 1194.3 L50.9921 1190.37 Z" fill="#000000" fill-rule="evenodd" fill-opacity="1" /><path clip-path="url(#clip210)" d="M100.76 1175.71 Q97.1493 1175.71 95.3206 1179.28 Q93.515 1182.82 93.515 1189.95 Q93.515 1197.06 95.3206 1200.62 Q97.1493 1204.16 100.76 1204.16 Q104.395 1204.16 106.2 1200.62 Q108.029 1197.06 108.029 1189.95 Q108.029 1182.82 106.2 1179.28 Q104.395 1175.71 100.76 1175.71 M100.76 1172.01 Q106.571 1172.01 109.626 1176.62 Q112.705 1181.2 112.705 1189.95 Q112.705 1198.68 109.626 1203.28 Q106.571 1207.87 100.76 1207.87 Q94.9502 1207.87 91.8715 1203.28 Q88.816 1198.68 88.816 1189.95 Q88.816 1181.2 91.8715 1176.62 Q94.9502 1172.01 100.76 1172.01 Z" fill="#000000" fill-rule="evenodd" fill-opacity="1" /><path clip-path="url(#clip210)" d="M120.922 1201.31 L125.807 1201.31 L125.807 1207.19 L120.922 1207.19 L120.922 1201.31 Z" fill="#000000" fill-rule="evenodd" fill-opacity="1" /><path clip-path="url(#clip210)" d="M145.992 1175.71 Q142.381 1175.71 140.552 1179.28 Q138.746 1182.82 138.746 1189.95 Q138.746 1197.06 140.552 1200.62 Q142.381 1204.16 145.992 1204.16 Q149.626 1204.16 151.431 1200.62 Q153.26 1197.06 153.26 1189.95 Q153.26 1182.82 151.431 1179.28 Q149.626 1175.71 145.992 1175.71 M145.992 1172.01 Q151.802 1172.01 154.857 1176.62 Q157.936 1181.2 157.936 1189.95 Q157.936 1198.68 154.857 1203.28 Q151.802 1207.87 145.992 1207.87 Q140.181 1207.87 137.103 1203.28 Q134.047 1198.68 134.047 1189.95 Q134.047 1181.2 137.103 1176.62 Q140.181 1172.01 145.992 1172.01 Z" fill="#000000" fill-rule="evenodd" fill-opacity="1" /><path clip-path="url(#clip210)" d="M166.2 1172.63 L184.556 1172.63 L184.556 1176.57 L170.482 1176.57 L170.482 1185.04 Q171.501 1184.69 172.519 1184.53 Q173.538 1184.35 174.556 1184.35 Q180.343 1184.35 183.723 1187.52 Q187.103 1190.69 187.103 1196.11 Q187.103 1201.68 183.63 1204.79 Q180.158 1207.87 173.839 1207.87 Q171.663 1207.87 169.394 1207.5 Q167.149 1207.12 164.742 1206.38 L164.742 1201.68 Q166.825 1202.82 169.047 1203.37 Q171.269 1203.93 173.746 1203.93 Q177.751 1203.93 180.089 1201.82 Q182.427 1199.72 182.427 1196.11 Q182.427 1192.5 180.089 1190.39 Q177.751 1188.28 173.746 1188.28 Q171.871 1188.28 169.996 1188.7 Q168.144 1189.12 166.2 1190 L166.2 1172.63 Z" fill="#000000" fill-rule="evenodd" fill-opacity="1" /><path clip-path="url(#clip210)" d="M99.765 896.988 Q96.1539 896.988 94.3252 900.553 Q92.5197 904.095 92.5197 911.224 Q92.5197 918.331 94.3252 921.896 Q96.1539 925.437 99.765 925.437 Q103.399 925.437 105.205 921.896 Q107.033 918.331 107.033 911.224 Q107.033 904.095 105.205 900.553 Q103.399 896.988 99.765 896.988 M99.765 893.285 Q105.575 893.285 108.631 897.891 Q111.709 902.474 111.709 911.224 Q111.709 919.951 108.631 924.558 Q105.575 929.141 99.765 929.141 Q93.9549 929.141 90.8762 924.558 Q87.8206 919.951 87.8206 911.224 Q87.8206 902.474 90.8762 897.891 Q93.9549 893.285 99.765 893.285 Z" fill="#000000" fill-rule="evenodd" fill-opacity="1" /><path clip-path="url(#clip210)" d="M119.927 922.59 L124.811 922.59 L124.811 928.47 L119.927 928.47 L119.927 922.59 Z" fill="#000000" fill-rule="evenodd" fill-opacity="1" /><path clip-path="url(#clip210)" d="M144.996 896.988 Q141.385 896.988 139.556 900.553 Q137.751 904.095 137.751 911.224 Q137.751 918.331 139.556 921.896 Q141.385 925.437 144.996 925.437 Q148.63 925.437 150.436 921.896 Q152.265 918.331 152.265 911.224 Q152.265 904.095 150.436 900.553 Q148.63 896.988 144.996 896.988 M144.996 893.285 Q150.806 893.285 153.862 897.891 Q156.941 902.474 156.941 911.224 Q156.941 919.951 153.862 924.558 Q150.806 929.141 144.996 929.141 Q139.186 929.141 136.107 924.558 Q133.052 919.951 133.052 911.224 Q133.052 902.474 136.107 897.891 Q139.186 893.285 144.996 893.285 Z" fill="#000000" fill-rule="evenodd" fill-opacity="1" /><path clip-path="url(#clip210)" d="M175.158 896.988 Q171.547 896.988 169.718 900.553 Q167.913 904.095 167.913 911.224 Q167.913 918.331 169.718 921.896 Q171.547 925.437 175.158 925.437 Q178.792 925.437 180.598 921.896 Q182.427 918.331 182.427 911.224 Q182.427 904.095 180.598 900.553 Q178.792 896.988 175.158 896.988 M175.158 893.285 Q180.968 893.285 184.024 897.891 Q187.103 902.474 187.103 911.224 Q187.103 919.951 184.024 924.558 Q180.968 929.141 175.158 929.141 Q169.348 929.141 166.269 924.558 Q163.214 919.951 163.214 911.224 Q163.214 902.474 166.269 897.891 Q169.348 893.285 175.158 893.285 Z" fill="#000000" fill-rule="evenodd" fill-opacity="1" /><path clip-path="url(#clip210)" d="M100.76 618.264 Q97.1493 618.264 95.3206 621.828 Q93.515 625.37 93.515 632.5 Q93.515 639.606 95.3206 643.171 Q97.1493 646.713 100.76 646.713 Q104.395 646.713 106.2 643.171 Q108.029 639.606 108.029 632.5 Q108.029 625.37 106.2 621.828 Q104.395 618.264 100.76 618.264 M100.76 614.56 Q106.571 614.56 109.626 619.166 Q112.705 623.75 112.705 632.5 Q112.705 641.227 109.626 645.833 Q106.571 650.416 100.76 650.416 Q94.9502 650.416 91.8715 645.833 Q88.816 641.227 88.816 632.5 Q88.816 623.75 91.8715 619.166 Q94.9502 614.56 100.76 614.56 Z" fill="#000000" fill-rule="evenodd" fill-opacity="1" /><path clip-path="url(#clip210)" d="M120.922 643.865 L125.807 643.865 L125.807 649.745 L120.922 649.745 L120.922 643.865 Z" fill="#000000" fill-rule="evenodd" fill-opacity="1" /><path clip-path="url(#clip210)" d="M145.992 618.264 Q142.381 618.264 140.552 621.828 Q138.746 625.37 138.746 632.5 Q138.746 639.606 140.552 643.171 Q142.381 646.713 145.992 646.713 Q149.626 646.713 151.431 643.171 Q153.26 639.606 153.26 632.5 Q153.26 625.37 151.431 621.828 Q149.626 618.264 145.992 618.264 M145.992 614.56 Q151.802 614.56 154.857 619.166 Q157.936 623.75 157.936 632.5 Q157.936 641.227 154.857 645.833 Q151.802 650.416 145.992 650.416 Q140.181 650.416 137.103 645.833 Q134.047 641.227 134.047 632.5 Q134.047 623.75 137.103 619.166 Q140.181 614.56 145.992 614.56 Z" fill="#000000" fill-rule="evenodd" fill-opacity="1" /><path clip-path="url(#clip210)" d="M166.2 615.185 L184.556 615.185 L184.556 619.12 L170.482 619.12 L170.482 627.592 Q171.501 627.245 172.519 627.083 Q173.538 626.898 174.556 626.898 Q180.343 626.898 183.723 630.069 Q187.103 633.24 187.103 638.657 Q187.103 644.236 183.63 647.338 Q180.158 650.416 173.839 650.416 Q171.663 650.416 169.394 650.046 Q167.149 649.676 164.742 648.935 L164.742 644.236 Q166.825 645.37 169.047 645.926 Q171.269 646.481 173.746 646.481 Q177.751 646.481 180.089 644.375 Q182.427 642.268 182.427 638.657 Q182.427 635.046 180.089 632.94 Q177.751 630.833 173.746 630.833 Q171.871 630.833 169.996 631.25 Q168.144 631.666 166.2 632.546 L166.2 615.185 Z" fill="#000000" fill-rule="evenodd" fill-opacity="1" /><path clip-path="url(#clip210)" d="M99.765 339.539 Q96.1539 339.539 94.3252 343.104 Q92.5197 346.646 92.5197 353.775 Q92.5197 360.882 94.3252 364.446 Q96.1539 367.988 99.765 367.988 Q103.399 367.988 105.205 364.446 Q107.033 360.882 107.033 353.775 Q107.033 346.646 105.205 343.104 Q103.399 339.539 99.765 339.539 M99.765 335.835 Q105.575 335.835 108.631 340.442 Q111.709 345.025 111.709 353.775 Q111.709 362.502 108.631 367.108 Q105.575 371.692 99.765 371.692 Q93.9549 371.692 90.8762 367.108 Q87.8206 362.502 87.8206 353.775 Q87.8206 345.025 90.8762 340.442 Q93.9549 335.835 99.765 335.835 Z" fill="#000000" fill-rule="evenodd" fill-opacity="1" /><path clip-path="url(#clip210)" d="M119.927 365.141 L124.811 365.141 L124.811 371.02 L119.927 371.02 L119.927 365.141 Z" fill="#000000" fill-rule="evenodd" fill-opacity="1" /><path clip-path="url(#clip210)" d="M135.806 367.085 L143.445 367.085 L143.445 340.72 L135.135 342.386 L135.135 338.127 L143.399 336.46 L148.075 336.46 L148.075 367.085 L155.714 367.085 L155.714 371.02 L135.806 371.02 L135.806 367.085 Z" fill="#000000" fill-rule="evenodd" fill-opacity="1" /><path clip-path="url(#clip210)" d="M175.158 339.539 Q171.547 339.539 169.718 343.104 Q167.913 346.646 167.913 353.775 Q167.913 360.882 169.718 364.446 Q171.547 367.988 175.158 367.988 Q178.792 367.988 180.598 364.446 Q182.427 360.882 182.427 353.775 Q182.427 346.646 180.598 343.104 Q178.792 339.539 175.158 339.539 M175.158 335.835 Q180.968 335.835 184.024 340.442 Q187.103 345.025 187.103 353.775 Q187.103 362.502 184.024 367.108 Q180.968 371.692 175.158 371.692 Q169.348 371.692 166.269 367.108 Q163.214 362.502 163.214 353.775 Q163.214 345.025 166.269 340.442 Q169.348 335.835 175.158 335.835 Z" fill="#000000" fill-rule="evenodd" fill-opacity="1" /><path clip-path="url(#clip210)" d="M1163.53 63.9476 L1163.53 47.7034 L1150.16 47.7034 L1150.16 40.9789 L1171.63 40.9789 L1171.63 66.9452 Q1166.89 70.3075 1161.18 72.0494 Q1155.46 73.7508 1148.98 73.7508 Q1134.81 73.7508 1126.78 65.4869 Q1118.8 57.1826 1118.8 42.3968 Q1118.8 27.5705 1126.78 19.3066 Q1134.81 11.0023 1148.98 11.0023 Q1154.9 11.0023 1160.2 12.4606 Q1165.55 13.9189 1170.05 16.7545 L1170.05 25.464 Q1165.51 21.6156 1160.41 19.6712 Q1155.3 17.7268 1149.67 17.7268 Q1138.57 17.7268 1132.98 23.9246 Q1127.43 30.1225 1127.43 42.3968 Q1127.43 54.6305 1132.98 60.8284 Q1138.57 67.0263 1149.67 67.0263 Q1154.01 67.0263 1157.41 66.2971 Q1160.81 65.5274 1163.53 63.9476 Z" fill="#000000" fill-rule="evenodd" fill-opacity="1" /><path clip-path="url(#clip210)" d="M1206.87 49.7694 Q1197.84 49.7694 1194.35 51.8354 Q1190.87 53.9013 1190.87 58.8839 Q1190.87 62.8538 1193.46 65.2034 Q1196.1 67.5124 1200.59 67.5124 Q1206.79 67.5124 1210.52 63.1374 Q1214.28 58.7219 1214.28 51.4303 L1214.28 49.7694 L1206.87 49.7694 M1221.74 46.6907 L1221.74 72.576 L1214.28 72.576 L1214.28 65.6895 Q1211.73 69.8214 1207.92 71.8063 Q1204.12 73.7508 1198.61 73.7508 Q1191.64 73.7508 1187.51 69.8619 Q1183.42 65.9325 1183.42 59.3701 Q1183.42 51.7138 1188.52 47.825 Q1193.66 43.9361 1203.83 43.9361 L1214.28 43.9361 L1214.28 43.2069 Q1214.28 38.0623 1210.88 35.2672 Q1207.52 32.4315 1201.4 32.4315 Q1197.51 32.4315 1193.83 33.3632 Q1190.14 34.295 1186.74 36.1584 L1186.74 29.2718 Q1190.83 27.692 1194.68 26.9223 Q1198.53 26.1121 1202.17 26.1121 Q1212.02 26.1121 1216.88 31.2163 Q1221.74 36.3204 1221.74 46.6907 Z" fill="#000000" fill-rule="evenodd" fill-opacity="1" /><path clip-path="url(#clip210)" d="M1236.32 54.671 L1236.32 27.2059 L1243.77 27.2059 L1243.77 54.3874 Q1243.77 60.8284 1246.29 64.0691 Q1248.8 67.2693 1253.82 67.2693 Q1259.86 67.2693 1263.34 63.421 Q1266.86 59.5726 1266.86 52.9291 L1266.86 27.2059 L1274.32 27.2059 L1274.32 72.576 L1266.86 72.576 L1266.86 65.6084 Q1264.15 69.7404 1260.55 71.7658 Q1256.98 73.7508 1252.24 73.7508 Q1244.42 73.7508 1240.37 68.8897 Q1236.32 64.0286 1236.32 54.671 M1255.08 26.1121 L1255.08 26.1121 Z" fill="#000000" fill-rule="evenodd" fill-opacity="1" /><path clip-path="url(#clip210)" d="M1319.53 49.3643 Q1319.53 41.2625 1316.16 36.8065 Q1312.84 32.3505 1306.81 32.3505 Q1300.81 32.3505 1297.45 36.8065 Q1294.13 41.2625 1294.13 49.3643 Q1294.13 57.4256 1297.45 61.8816 Q1300.81 66.3376 1306.81 66.3376 Q1312.84 66.3376 1316.16 61.8816 Q1319.53 57.4256 1319.53 49.3643 M1326.98 66.9452 Q1326.98 78.5308 1321.84 84.1616 Q1316.69 89.8329 1306.08 89.8329 Q1302.15 89.8329 1298.66 89.2252 Q1295.18 88.6581 1291.9 87.4428 L1291.9 80.1917 Q1295.18 81.9741 1298.38 82.8248 Q1301.58 83.6755 1304.9 83.6755 Q1312.23 83.6755 1315.88 79.8271 Q1319.53 76.0193 1319.53 68.282 L1319.53 64.5957 Q1317.22 68.6061 1313.61 70.5911 Q1310.01 72.576 1304.98 72.576 Q1296.64 72.576 1291.53 66.2161 Q1286.43 59.8562 1286.43 49.3643 Q1286.43 38.832 1291.53 32.472 Q1296.64 26.1121 1304.98 26.1121 Q1310.01 26.1121 1313.61 28.0971 Q1317.22 30.082 1319.53 34.0924 L1319.53 27.2059 L1326.98 27.2059 L1326.98 66.9452 Z" fill="#000000" fill-rule="evenodd" fill-opacity="1" /><path clip-path="url(#clip210)" d="M1381.14 48.0275 L1381.14 51.6733 L1346.87 51.6733 Q1347.36 59.3701 1351.49 63.421 Q1355.66 67.4314 1363.07 67.4314 Q1367.37 67.4314 1371.38 66.3781 Q1375.43 65.3249 1379.4 63.2184 L1379.4 70.267 Q1375.39 71.9684 1371.18 72.8596 Q1366.96 73.7508 1362.63 73.7508 Q1351.77 73.7508 1345.41 67.4314 Q1339.09 61.1119 1339.09 50.3365 Q1339.09 39.1965 1345.09 32.6746 Q1351.12 26.1121 1361.33 26.1121 Q1370.49 26.1121 1375.79 32.0264 Q1381.14 37.9003 1381.14 48.0275 M1373.69 45.84 Q1373.61 39.7232 1370.24 36.0774 Q1366.92 32.4315 1361.41 32.4315 Q1355.17 32.4315 1351.41 35.9558 Q1347.68 39.4801 1347.11 45.8805 L1373.69 45.84 Z" fill="#000000" fill-rule="evenodd" fill-opacity="1" /><path clip-path="url(#clip210)" d="M1422.22 65.6895 L1435.58 65.6895 L1435.58 19.5497 L1421.04 22.4663 L1421.04 15.0127 L1435.5 12.096 L1443.69 12.096 L1443.69 65.6895 L1457.05 65.6895 L1457.05 72.576 L1422.22 72.576 L1422.22 65.6895 Z" fill="#000000" fill-rule="evenodd" fill-opacity="1" /><polyline clip-path="url(#clip212)" style="stroke:#009af9; stroke-linecap:butt; stroke-linejoin:round; stroke-width:4; stroke-opacity:1; fill:none" points="
  283.376,911.19 283.422,911.19 285.329,911.19 287.237,911.19 289.144,911.19 291.051,911.19 292.958,911.19 294.912,911.19 296.819,911.19 298.726,911.19 
  300.633,911.19 302.54,911.19 304.447,911.19 306.354,911.19 308.262,911.19 310.169,911.19 311.285,911.19 313.192,911.19 315.099,911.19 317.007,911.19 
  318.914,911.19 320.821,911.19 322.775,911.19 324.682,911.19 326.589,911.19 328.496,911.19 330.403,911.19 332.31,911.19 334.217,911.19 336.125,911.19 
  338.032,911.19 339.195,911.19 341.102,911.19 343.009,911.19 344.916,911.19 346.823,911.19 348.73,911.19 350.684,911.19 352.591,911.19 354.498,911.19 
  356.405,911.19 358.313,911.19 360.22,911.19 362.127,911.19 364.034,911.19 365.941,911.19 367.104,911.19 369.011,911.19 370.918,911.19 372.825,911.19 
  374.733,911.19 376.64,911.19 378.593,911.19 380.501,911.19 382.408,911.19 384.315,911.19 386.222,911.19 388.129,911.19 390.036,911.19 391.943,911.19 
  393.851,911.19 395.013,911.19 396.921,911.19 398.828,911.19 400.735,911.19 402.642,911.19 404.549,911.19 406.503,911.19 408.41,911.19 410.317,911.19 
  412.224,911.19 414.131,911.19 416.039,911.19 417.946,911.19 419.853,911.19 421.76,911.19 422.923,911.19 424.83,911.19 426.737,911.19 428.644,911.19 
  430.551,911.19 432.459,911.19 434.412,911.19 436.319,911.19 438.227,911.19 440.134,911.19 442.041,911.19 443.948,911.19 445.855,911.19 447.762,911.19 
  449.669,911.19 450.832,911.19 452.739,911.19 454.647,911.19 456.554,911.19 458.461,911.19 460.368,911.19 462.322,911.19 464.229,911.19 466.136,911.19 
  468.043,911.19 469.95,911.19 471.857,911.19 473.765,911.19 475.672,911.19 477.579,911.19 478.742,911.19 480.649,911.19 482.556,911.19 484.463,911.19 
  486.37,911.19 488.277,911.19 490.231,911.19 492.138,911.19 494.045,911.19 495.953,911.19 497.86,911.19 499.767,911.19 501.674,911.19 503.581,911.19 
  505.488,911.19 506.651,911.19 508.558,911.19 510.465,911.19 512.373,911.19 514.28,911.19 516.187,911.19 518.141,911.19 520.048,911.19 521.955,911.19 
  523.862,911.19 525.769,911.19 527.676,911.19 529.583,911.19 531.491,911.19 533.398,911.19 534.561,911.19 536.468,911.19 538.375,911.19 540.282,911.19 
  542.189,911.19 544.096,911.19 546.05,911.19 547.957,911.19 549.864,911.19 551.771,911.19 553.679,911.19 555.586,911.19 557.493,911.19 559.4,911.19 
  561.307,911.19 562.47,911.19 564.377,911.19 566.284,911.19 568.191,911.19 570.099,911.19 572.006,911.19 573.959,911.19 575.867,911.19 577.774,911.19 
  579.681,911.19 581.588,911.19 583.495,911.19 585.402,911.19 587.309,911.19 589.217,911.19 590.379,911.19 592.287,911.19 594.194,911.19 596.101,911.19 
  598.008,911.19 599.915,911.19 601.869,911.19 603.776,911.19 605.683,911.19 607.59,911.19 609.497,911.19 611.405,911.19 613.312,911.19 615.219,911.19 
  617.126,911.19 618.289,911.19 620.196,911.19 622.103,911.19 624.01,911.19 625.917,911.19 627.825,911.19 629.778,911.19 631.685,911.19 633.593,911.19 
  635.5,911.19 637.407,911.19 639.314,911.19 641.221,911.19 643.128,911.19 645.035,911.19 646.198,911.19 648.105,911.19 650.013,911.19 651.92,911.19 
  653.827,911.19 655.734,911.19 657.688,911.19 659.595,911.19 661.502,911.19 663.409,911.19 665.316,911.19 667.223,911.19 669.131,911.19 671.038,911.19 
  672.945,911.19 674.108,911.19 676.015,911.19 677.922,911.19 679.829,911.19 681.736,911.19 683.643,911.19 685.597,911.19 687.504,911.19 689.411,911.19 
  691.319,911.19 693.226,911.19 695.133,911.19 697.04,911.19 698.947,911.19 700.854,911.19 702.017,911.19 703.924,911.19 705.831,911.19 707.739,911.19 
  709.646,911.19 711.553,911.19 713.507,911.19 715.414,911.19 717.321,911.19 719.228,911.19 721.135,911.19 723.042,911.19 724.949,911.19 726.857,911.19 
  728.764,911.19 729.927,911.19 731.834,911.19 733.741,911.19 735.648,911.19 737.555,911.19 739.462,911.19 741.416,911.19 743.323,911.19 745.23,911.19 
  747.137,911.19 749.045,911.19 750.952,911.19 752.859,911.19 754.766,911.19 756.673,911.19 757.836,911.19 759.743,911.19 761.65,911.19 763.557,911.19 
  765.465,911.19 767.372,911.19 769.279,911.19 771.233,911.19 773.14,911.19 775.047,911.19 776.954,911.19 778.861,911.19 780.768,911.19 782.675,911.19 
  784.583,911.19 785.745,911.19 787.653,911.19 789.56,911.19 791.467,911.19 793.374,911.19 795.281,911.19 797.188,911.19 799.142,911.19 801.049,911.19 
  802.956,911.19 804.863,911.19 806.771,911.19 808.678,911.19 810.585,911.19 812.492,911.19 813.655,911.19 815.562,911.19 817.469,911.19 819.376,911.19 
  821.284,911.19 823.191,911.19 825.098,911.19 827.051,911.19 828.959,911.19 830.866,911.19 832.773,911.19 834.68,911.19 836.587,911.19 838.494,911.19 
  840.401,911.19 841.564,911.19 843.472,911.19 845.379,911.19 847.286,911.19 849.193,911.19 851.1,911.19 853.007,911.19 854.961,911.19 856.868,911.19 
  858.775,911.19 860.682,911.19 862.589,911.19 864.497,911.19 866.404,911.19 868.311,911.19 869.474,911.19 871.381,911.19 873.288,911.19 875.195,911.19 
  877.102,911.19 879.01,911.19 880.917,911.19 882.87,911.19 884.777,911.19 886.685,911.19 888.592,911.19 890.499,911.19 892.406,911.19 894.313,911.19 
  896.22,911.19 897.383,911.19 899.29,911.19 901.198,911.19 903.105,911.19 905.012,911.19 906.919,911.19 908.826,911.19 910.78,911.19 912.687,911.19 
  914.594,911.19 916.501,911.19 918.408,911.19 920.315,911.19 922.223,911.19 924.13,911.19 925.293,911.19 927.2,911.19 929.107,911.19 931.014,911.19 
  932.921,911.19 934.828,911.19 936.736,911.19 938.689,911.19 940.596,911.19 942.503,911.19 944.411,911.19 946.318,911.19 948.225,911.19 950.132,911.19 
  952.039,911.19 953.202,911.19 955.109,911.19 957.016,911.19 958.924,911.19 960.831,911.19 962.738,911.19 964.645,911.19 966.599,911.19 968.506,911.19 
  970.413,911.19 972.32,911.19 974.227,911.19 976.134,911.19 978.041,911.19 979.949,911.19 981.112,911.19 983.019,911.19 984.926,911.19 986.833,911.19 
  988.74,911.19 990.647,911.19 992.554,911.19 994.508,911.19 996.415,911.19 998.322,911.19 1000.23,911.19 1002.14,911.19 1004.04,911.19 1005.95,911.19 
  1007.86,911.19 1009.02,911.19 1010.93,911.19 1012.84,911.19 1014.74,911.19 1016.65,911.19 1018.56,911.19 1020.46,911.19 1022.42,911.19 1024.32,911.19 
  1026.23,911.19 1028.14,911.19 1030.05,911.19 1031.95,911.19 1033.86,911.19 1035.77,911.19 1036.93,911.19 1038.84,911.19 1040.74,911.19 1042.65,911.19 
  1044.56,911.19 1046.47,911.19 1048.37,911.19 1050.33,911.19 1052.23,911.19 1054.14,911.19 1056.05,911.19 1057.96,911.19 1059.86,911.19 1061.77,911.19 
  1063.68,911.19 1064.84,911.19 1066.75,911.19 1068.65,911.19 1070.56,911.19 1072.47,911.19 1074.38,911.19 1076.28,911.19 1078.24,911.19 1080.14,911.19 
  1082.05,911.19 1083.96,911.19 1085.86,911.19 1087.77,911.19 1089.68,911.19 1091.59,911.19 1092.75,911.19 1094.66,911.19 1096.56,911.19 1098.47,911.19 
  1100.38,911.19 1102.28,911.19 1104.19,911.19 1106.15,911.19 1108.05,911.19 1109.96,911.19 1111.87,911.19 1113.77,911.19 1115.68,911.19 1117.59,911.19 
  1119.5,911.19 1120.66,911.19 1122.57,911.19 1124.47,911.19 1126.38,911.19 1128.29,911.19 1130.19,911.19 1132.1,911.19 1134.06,911.19 1135.96,911.19 
  1137.87,911.19 1139.78,911.19 1141.68,911.19 1143.59,911.19 1145.5,911.19 1147.41,911.19 1148.57,911.19 1150.48,911.19 1152.38,911.19 1154.29,911.19 
  1156.2,911.19 1158.1,911.19 1160.01,911.19 1161.96,911.19 1163.87,911.19 1165.78,911.19 1167.69,911.19 1169.59,911.19 1171.5,911.19 1173.41,911.19 
  1175.31,911.19 1176.48,911.19 1178.38,911.19 1180.29,911.19 1182.2,911.19 1184.11,911.19 1186.01,911.19 1187.92,911.19 1189.87,911.19 1191.78,911.19 
  1193.69,911.19 1195.6,911.19 1197.5,911.19 1199.41,911.19 1201.32,911.19 1203.22,911.19 1204.39,911.19 1206.29,911.19 1208.2,911.19 1210.11,911.19 
  1212.02,911.19 1213.92,911.19 1215.83,911.19 1217.78,911.19 1219.69,911.19 1221.6,911.19 1223.5,911.19 1225.41,911.19 1227.32,911.19 1229.23,911.19 
  1231.13,911.19 1232.3,911.19 1234.2,911.19 1236.11,911.19 1238.02,911.19 1239.92,911.19 1241.83,911.19 1243.74,911.19 1245.69,911.19 1247.6,911.19 
  1249.51,911.19 1251.41,911.19 1253.32,911.19 1255.23,911.19 1257.14,911.19 1259.04,911.19 1260.21,911.19 1262.11,911.19 1264.02,911.19 1265.93,911.19 
  1267.83,911.19 1269.74,911.19 1271.65,911.19 1273.6,911.19 1275.51,911.19 1277.42,911.19 1279.32,911.19 1281.23,911.19 1283.14,911.19 1285.05,911.19 
  1286.95,911.19 1288.12,911.19 1290.02,911.19 1291.93,911.19 1293.84,911.19 1295.74,911.19 1297.65,911.19 1299.56,911.19 1301.51,911.19 1303.42,911.19 
  1305.33,911.19 1307.23,911.19 1309.14,911.19 1311.05,911.19 1312.95,911.19 1314.86,911.19 1316.02,911.19 1317.93,911.19 1319.84,911.19 1321.75,911.19 
  1323.65,911.19 1325.56,911.19 1327.47,911.19 1329.42,911.19 1331.33,911.19 1333.24,911.19 1335.14,911.19 1337.05,911.19 1338.96,911.19 1340.86,911.19 
  1342.77,911.19 1343.93,911.19 1345.84,911.19 1347.75,911.19 1349.66,911.19 1351.56,911.19 1353.47,911.19 1355.38,911.19 1357.33,911.19 1359.24,911.19 
  1361.14,911.19 1363.05,911.19 1364.96,911.19 1366.87,911.19 1368.77,911.19 1370.68,911.19 1371.84,911.19 1373.75,911.19 1375.66,911.19 1377.56,911.19 
  1379.47,911.19 1381.38,911.19 1383.29,911.19 1385.24,911.19 1387.15,911.19 1389.05,911.19 1390.96,911.19 1392.87,911.19 1394.78,911.19 1396.68,911.19 
  1398.59,911.19 1399.75,911.19 1401.66,911.19 1403.57,911.19 1405.47,911.19 1407.38,911.19 1409.29,911.19 1411.2,911.19 1413.15,911.19 1415.06,911.19 
  1416.96,911.19 1418.87,911.19 1420.78,911.19 1422.69,911.19 1424.59,911.19 1426.5,911.19 1427.66,911.19 1429.57,911.19 1431.48,911.19 1433.38,911.19 
  1435.29,911.19 1437.2,911.19 1437.71,911.19 1438.17,911.19 1438.64,911.19 1439.11,911.19 1439.62,911.19 1440.08,911.19 1440.55,911.19 1441.06,911.19 
  1441.52,911.19 1441.99,911.19 1442.45,911.19 1442.97,911.19 1443.43,911.19 1443.9,911.19 1444.36,911.19 1444.87,911.19 1445.34,911.19 1445.8,911.19 
  1446.32,911.19 1446.78,911.19 1447.25,911.19 1447.71,911.19 1448.22,911.19 1448.69,911.19 1449.15,911.19 1449.62,911.19 1450.13,911.19 1450.59,911.19 
  1451.06,911.19 1451.57,911.19 1452.04,911.19 1452.5,911.19 1452.97,911.19 1453.48,911.19 1453.94,911.19 1454.41,911.19 1454.78,911.19 1455.2,911.19 
  1455.57,911.19 1456.04,911.19 1456.55,911.19 1457.01,911.19 1457.48,911.19 1457.94,911.19 1458.46,911.19 1458.92,911.19 1459.39,911.19 1459.85,911.19 
  1460.36,911.19 1460.83,911.19 1461.29,911.19 1461.8,911.19 1462.27,911.19 1462.74,911.19 1463.2,911.19 1463.71,911.19 1464.18,911.19 1464.64,911.19 
  1465.11,911.19 1465.62,911.19 1466.08,911.19 1466.55,911.19 1467.01,911.19 1467.53,911.19 1467.99,911.19 1468.46,911.19 1468.97,911.19 1469.43,911.19 
  1469.9,911.19 1470.36,911.19 1470.88,911.19 1471.34,911.19 1471.81,911.19 1472.27,911.19 1472.78,911.19 1473.25,911.19 1473.71,911.19 1474.22,911.19 
  1474.69,911.19 1475.15,911.19 1475.62,911.19 1476.13,911.19 1476.6,911.19 1477.06,911.19 1477.53,911.19 1478.04,911.19 1478.5,911.19 1478.97,911.19 
  1479.48,911.19 1479.95,911.19 1480.41,911.19 1480.88,911.19 1481.39,911.19 1481.85,911.19 1482.32,911.19 1482.69,911.19 1483.11,911.19 1483.48,911.19 
  1483.95,911.19 1484.46,911.189 1484.92,911.192 1485.39,911.197 1485.85,911.205 1486.37,911.216 1486.83,911.229 1487.3,911.244 1487.76,911.263 1488.27,911.284 
  1488.74,911.307 1489.2,911.333 1489.71,911.362 1490.18,911.393 1490.64,911.427 1491.11,911.463 1491.62,911.502 1492.09,911.544 1492.55,911.588 1493.02,911.634 
  1493.53,911.683 1493.99,911.734 1494.46,911.788 1494.92,911.844 1495.44,911.902 1495.9,911.963 1496.37,912.027 1496.88,912.093 1497.34,912.161 1497.81,912.232 
  1498.27,912.305 1498.78,912.381 1499.25,912.459 1499.72,912.54 1500.18,912.623 1500.69,912.708 1501.16,912.797 1501.62,912.887 1502.13,912.981 1502.6,913.077 
  1503.06,913.175 1503.53,913.277 1504.04,913.381 1504.51,913.487 1504.97,913.597 1505.44,913.709 1505.95,913.824 1506.41,913.942 1506.88,914.063 1507.39,914.187 
  1507.86,914.314 1508.32,914.445 1508.79,914.578 1509.3,914.714 1509.76,914.854 1510.23,914.997 1510.6,915.115 1511.02,915.235 1511.39,915.358 1511.86,915.513 
  1512.37,915.671 1512.83,915.826 1513.3,915.978 1513.76,916.127 1514.27,916.273 1514.74,916.416 1515.21,916.556 1515.67,916.693 1516.18,916.828 1516.65,916.96 
  1517.11,917.09 1517.62,917.217 1518.09,917.342 1518.55,917.466 1519.02,917.587 1519.53,917.707 1520,917.825 1520.46,917.941 1520.93,918.056 1521.44,918.17 
  1521.9,918.283 1522.37,918.395 1522.83,918.506 1523.35,918.617 1523.81,918.726 1524.28,918.836 1524.79,918.945 1525.25,919.054 1525.72,919.162 1526.18,919.271 
  1526.69,919.379 1527.16,919.488 1527.62,919.597 1528.09,919.706 1528.6,919.816 1529.07,919.926 1529.53,920.037 1530.04,920.148 1530.51,920.259 1530.97,920.372 
  1531.44,920.485 1531.95,920.599 1532.42,920.713 1532.88,920.828 1533.35,920.944 1533.86,921.061 1534.32,921.179 1534.79,921.298 1535.3,921.417 1535.76,921.537 
  1536.23,921.658 1536.7,921.78 1537.21,921.903 1537.67,922.026 1538.14,922.151 1538.51,922.251 1538.93,922.351 1539.3,922.452 1539.77,922.578 1540.28,922.705 
  1540.74,922.836 1541.21,922.969 1541.67,923.106 1542.18,923.246 1542.65,923.389 1543.11,923.534 1543.58,923.683 1544.09,923.834 1544.56,923.989 1545.02,924.145 
  1545.53,924.304 1546,924.466 1546.46,924.63 1546.93,924.795 1547.44,924.963 1547.91,925.132 1548.37,925.303 1548.84,925.476 1549.35,925.65 1549.81,925.824 
  1550.28,926 1550.74,926.177 1551.25,926.354 1551.72,926.532 1552.19,926.709 1552.7,926.887 1553.16,927.065 1553.63,927.243 1554.09,927.42 1554.6,927.596 
  1555.07,927.771 1555.53,927.946 1556,928.119 1556.51,928.29 1556.98,928.46 1557.44,928.628 1557.95,928.794 1558.42,928.958 1558.88,929.119 1559.35,929.277 
  1559.86,929.433 1560.33,929.585 1560.79,929.735 1561.26,929.88 1561.77,930.022 1562.23,930.161 1562.7,930.295 1563.21,930.424 1563.67,930.55 1564.14,930.67 
  1564.6,930.786 1565.12,930.896 1565.58,931.001 1566.05,931.1 1566.42,931.176 1566.84,931.247 1567.21,931.315 1567.67,931.394 1568.19,931.466 1568.65,931.536 
  1569.12,931.603 1569.58,931.666 1570.09,931.726 1570.56,931.782 1571.02,931.835 1571.49,931.883 1572,931.927 1572.47,931.966 1572.93,932.001 1573.44,932.03 
  1573.91,932.055 1574.37,932.074 1574.84,932.088 1575.35,932.096 1575.81,932.099 1576.28,932.096 1576.75,932.086 1577.26,932.071 1577.72,932.049 1578.19,932.02 
  1578.65,931.986 1579.16,931.945 1579.63,931.897 1580.09,931.842 1580.61,931.78 1581.07,931.712 1581.54,931.637 1582,931.555 1582.51,931.466 1582.98,931.37 
  1583.44,931.267 1583.91,931.156 1584.42,931.039 1584.89,930.915 1585.35,930.784 1585.86,930.646 1586.33,930.502 1586.79,930.35 1587.26,930.191 1587.77,930.026 
  1588.23,929.854 1588.7,929.676 1589.17,929.491 1589.68,929.299 1590.14,929.102 1590.61,928.898 1591.12,928.688 1591.58,928.471 1592.05,928.249 1592.51,928.021 
  1593.03,927.788 1593.49,927.549 1593.96,927.304 1594.33,927.104 1594.75,926.9 1595.12,926.693 1595.58,926.432 1596.1,926.165 1596.56,925.894 1597.03,925.62 
  1597.49,925.341 1598,925.058 1598.47,924.772 1598.93,924.483 1599.4,924.19 1599.91,923.895 1600.38,923.597 1600.84,923.295 1601.35,922.992 1601.82,922.686 
  1602.28,922.377 1602.75,922.067 1603.26,921.754 1603.72,921.44 1604.19,921.124 1604.65,920.806 1605.17,920.487 1605.63,920.166 1606.1,919.845 1606.56,919.522 
  1607.07,919.197 1607.54,918.872 1608,918.546 1608.52,918.22 1608.98,917.892 1609.45,917.564 1609.91,917.236 1610.42,916.907 1610.89,916.578 1611.35,916.249 
  1611.82,915.919 1612.33,915.589 1612.79,915.26 1613.26,914.93 1613.77,914.601 1614.24,914.271 1614.7,913.942 1615.17,913.613 1615.68,913.285 1616.14,912.957 
  1616.61,912.629 1617.07,912.302 1617.59,911.976 1618.05,911.65 1618.52,911.325 1619.03,911 1619.49,910.676 1619.96,910.353 1620.42,910.03 1620.94,909.709 
  1621.4,909.388 1621.87,909.068 1622.24,908.811 1622.66,908.556 1623.03,908.301 1623.49,907.984 1624.01,907.668 1624.47,907.348 1624.94,907.026 1625.4,906.699 
  1625.91,906.37 1626.38,906.037 1626.84,905.7 1627.31,905.361 1627.82,905.018 1628.28,904.671 1628.75,904.322 1629.26,903.969 1629.73,903.612 1630.19,903.253 
  1630.66,902.89 1631.17,902.524 1631.63,902.155 1632.1,901.782 1632.56,901.406 1633.08,901.027 1633.54,900.645 1634.01,900.26 1634.47,899.871 1634.98,899.478 
  1635.45,899.083 1635.91,898.684 1636.42,898.281 1636.89,897.875 1637.36,897.465 1637.82,897.052 1638.33,896.635 1638.8,896.213 1639.26,895.788 1639.73,895.359 
  1640.24,894.926 1640.7,894.488 1641.17,894.046 1641.68,893.599 1642.15,893.147 1642.61,892.69 1643.08,892.229 1643.59,891.761 1644.05,891.289 1644.52,890.811 
  1644.98,890.327 1645.5,889.837 1645.96,889.341 1646.43,888.839 1646.94,888.329 1647.4,887.813 1647.87,887.29 1648.33,886.76 1648.84,886.222 1649.31,885.677 
  1649.77,885.124 1650.15,884.672 1650.57,884.215 1650.94,883.753 1651.4,883.171 1651.91,882.58 1652.38,881.981 1652.85,881.374 1653.31,880.76 1653.82,880.137 
  1654.29,879.505 1654.75,878.865 1655.22,878.215 1655.73,877.557 1656.19,876.888 1656.66,876.21 1657.17,875.522 1657.64,874.823 1658.1,874.114 1658.57,873.394 
  1659.08,872.663 1659.54,871.921 1660.01,871.167 1660.47,870.401 1660.99,869.624 1661.45,868.835 1661.92,868.033 1662.38,867.219 1662.89,866.392 1663.36,865.552 
  1663.82,864.699 1664.33,863.834 1664.8,862.954 1665.26,862.062 1665.73,861.156 1666.24,860.237 1666.71,859.303 1667.17,858.357 1667.64,857.396 1668.15,856.421 
  1668.61,855.433 1669.08,854.431 1669.59,853.414 1670.06,852.384 1670.52,851.34 1670.99,850.282 1671.5,849.21 1671.96,848.125 1672.43,847.026 1672.89,845.913 
  1673.4,844.787 1673.87,843.648 1674.34,842.495 1674.85,841.329 1675.31,840.151 1675.78,838.96 1676.24,837.756 1676.75,836.54 1677.22,835.312 1677.68,834.073 
  1678.06,833.067 1678.48,832.054 1678.85,831.034 1679.31,829.757 1679.82,828.47 1680.29,827.172 1680.75,825.865 1681.22,824.548 1681.73,823.222 1682.2,821.888 
  1682.66,820.546 1683.13,819.196 1683.64,817.839 1684.1,816.475 1684.57,815.105 1685.08,813.729 1685.55,812.348 1686.01,810.962 1686.48,809.572 1686.99,808.179 
  1687.45,806.782 1687.92,805.383 1688.38,803.983 1688.89,802.581 1689.36,801.179 1689.83,799.776 1690.29,798.375 1690.8,796.975 1691.27,795.577 1691.73,794.182 
  1692.24,792.79 1692.71,791.403 1693.17,790.021 1693.64,788.644 1694.15,787.274 1694.62,785.911 1695.08,784.556 1695.55,783.21 1696.06,781.874 1696.52,780.548 
  1696.99,779.233 1697.5,777.93 1697.97,776.64 1698.43,775.363 1698.9,774.101 1699.41,772.854 1699.87,771.623 1700.34,770.409 1700.8,769.213 1701.31,768.036 
  1701.78,766.878 1702.24,765.74 1702.76,764.623 1703.22,763.528 1703.69,762.456 1704.15,761.408 1704.66,760.385 1705.13,759.386 1705.59,758.414 1705.97,757.652 
  1706.38,756.909 1706.76,756.183 1707.22,755.306 1707.73,754.459 1708.2,753.64 1708.66,752.85 1709.13,752.089 1709.64,751.359 1710.11,750.66 1710.57,749.993 
  1711.04,749.358 1711.55,748.757 1712.01,748.19 1712.48,747.658 1712.99,747.162 1713.46,746.701 1713.92,746.278 1714.39,745.893 1714.9,745.546 1715.36,745.239 
  1715.83,744.971 1716.29,744.743 1716.8,744.556 1717.27,744.411 1717.73,744.308 1718.2,744.248 1718.71,744.231 1719.18,744.258 1719.64,744.33 1720.15,744.446 
  1720.62,744.607 1721.08,744.814 1721.55,745.067 1722.06,745.367 1722.53,745.714 1722.99,746.108 1723.46,746.549 1723.97,747.038 1724.43,747.576 1724.9,748.161 
  1725.41,748.796 1725.87,749.479 1726.34,750.211 1726.81,750.992 1727.32,751.823 1727.78,752.703 1728.25,753.632 1728.71,754.61 1729.22,755.638 1729.69,756.716 
  1730.15,757.842 1730.67,759.018 1731.13,760.244 1731.6,761.518 1732.06,762.841 1732.57,764.213 1733.04,765.633 1733.5,767.101 1733.88,768.319 1734.29,769.567 
  1734.67,770.845 1735.13,772.475 1735.64,774.152 1736.11,775.878 1736.57,777.653 1737.04,779.476 1737.55,781.346 1738.02,783.264 1738.48,785.229 1738.95,787.24 
  1739.46,789.296 1739.92,791.398 1740.39,793.544 1740.9,795.733 1741.36,797.965 1741.83,800.24 1742.29,802.556 1742.81,804.912 1743.27,807.309 1743.74,809.744 
  1744.2,812.218 1744.71,814.729 1745.18,817.276 1745.64,819.859 1746.11,822.477 1746.62,825.128 1747.09,827.812 1747.55,830.528 1748.06,833.274 1748.53,836.051 
  1748.99,838.855 1749.46,841.688 1749.97,844.547 1750.44,847.431 1750.9,850.34 1751.37,853.273 1751.88,856.227 1752.34,859.203 1752.81,862.198 1753.32,865.213 
  1753.78,868.245 1754.25,871.294 1754.71,874.358 1755.23,877.436 1755.69,880.527 1756.16,883.631 1756.62,886.744 1757.13,889.868 1757.6,892.999 1758.06,896.138 
  1758.58,899.282 1759.04,902.432 1759.51,905.584 1759.97,908.739 1760.48,911.895 1760.95,915.051 1761.41,918.205 1761.78,920.74 1762.2,923.273 1762.58,925.802 
  1763.04,928.942 1763.55,932.075 1764.02,935.205 1764.48,938.332 1764.95,941.453 1765.46,944.568 1765.92,947.675 1766.39,950.774 1766.86,953.863 1767.37,956.94 
  1767.83,960.006 1768.3,963.058 1768.81,966.095 1769.27,969.117 1769.74,972.121 1770.2,975.108 1770.72,978.075 1771.18,981.022 1771.65,983.947 1772.11,986.85 
  1772.62,989.729 1773.09,992.583 1773.55,995.411 1774.02,998.212 1774.53,1000.98 1775,1003.73 1775.46,1006.44 1775.97,1009.12 1776.44,1011.77 1776.9,1014.39 
  1777.37,1016.97 1777.88,1019.52 1778.34,1022.03 1778.81,1024.5 1779.27,1026.94 1779.79,1029.34 1780.25,1031.69 1780.72,1034.01 1781.23,1036.29 1781.69,1038.52 
  1782.16,1040.71 1782.62,1042.85 1783.14,1044.95 1783.6,1047.01 1784.07,1049.01 1784.53,1050.97 1785.04,1052.89 1785.51,1054.75 1785.97,1056.57 1786.48,1058.33 
  1786.95,1060.05 1787.42,1061.71 1787.88,1063.33 1788.39,1064.89 1788.86,1066.39 1789.32,1067.85 1789.69,1068.98 1790.11,1070.07 1790.49,1071.13 1790.95,1072.4 
  1791.46,1073.62 1791.93,1074.78 1792.39,1075.89 1792.86,1076.94 1793.37,1077.94 1793.83,1078.88 1794.3,1079.77 1794.76,1080.45 1795.28,1081.07 1795.74,1081.64 
  1796.21,1082.16 1796.72,1082.62 1797.18,1083.02 1797.65,1083.37 1798.11,1083.66 1798.63,1083.9 1799.09,1084.09 1799.56,1084.22 1800.02,1084.29 1800.53,1084.52 
  1801,1084.69 1801.46,1084.81 1801.93,1084.86 1802.44,1084.87 1802.9,1084.81 1803.37,1084.7 1803.88,1084.53 1804.35,1084.3 1804.81,1084.02 1805.28,1083.68 
  1805.79,1083.29 1806.25,1082.85 1806.72,1082.35 1807.18,1081.79 1807.7,1081.18 1808.16,1080.52 1808.63,1079.81 1809.14,1079.04 1809.6,1078.23 1810.07,1077.36 
  1810.53,1076.44 1811.04,1075.48 1811.51,1074.47 1811.98,1073.41 1812.44,1072.3 1812.95,1071.15 1813.42,1069.96 1813.88,1068.72 1814.39,1067.44 1814.86,1066.11 
  1815.32,1064.75 1815.79,1063.35 1816.3,1061.9 1816.77,1060.42 1817.23,1058.91 1817.6,1057.66 1818.02,1056.39 1818.39,1055.1 1818.86,1053.47 1819.37,1051.81 
  1819.84,1050.09 1820.3,1048.33 1820.77,1046.51 1821.28,1044.65 1821.74,1042.74 1822.21,1040.79 1822.67,1038.79 1823.19,1036.75 1823.65,1034.66 1824.12,1032.54 
  1824.63,1030.38 1825.09,1028.18 1825.56,1025.95 1826.02,1023.68 1826.53,1021.37 1827,1019.04 1827.47,1016.68 1827.93,1014.28 1828.44,1011.86 1828.91,1009.42 
  1829.37,1006.95 1829.84,1004.46 1830.35,1001.95 1830.81,999.413 1831.28,996.862 1831.79,994.295 1832.26,991.712 1832.72,989.115 1833.19,986.506 1833.7,983.886 
  1834.16,981.256 1834.63,978.619 1835.09,975.974 1835.61,973.324 1836.07,970.67 1836.54,968.013 1837.05,965.355 1837.51,962.697 1837.98,960.04 1838.44,957.386 
  1838.95,954.735 1839.42,952.09 1839.88,949.451 1840.35,946.82 1840.86,944.198 1841.33,941.586 1841.79,938.985 1842.3,936.397 1842.77,933.823 1843.23,931.263 
  1843.7,928.719 1844.21,926.193 1844.68,923.685 1845.14,921.196 1845.51,919.209 1845.93,917.233 1846.3,915.272 1846.77,912.855 1847.28,910.465 1847.75,908.114 
  1848.21,905.805 1848.68,903.538 1849.19,901.315 1849.65,899.135 1850.12,897 1850.58,894.911 1851.1,892.868 1851.56,890.873 1852.03,888.925 1852.54,887.026 
  1853,885.176 1853.47,883.376 1853.93,881.626 1854.44,879.927 1854.91,878.28 1855.37,876.684 1855.84,875.141 1856.35,873.651 1856.82,872.214 1857.28,870.831 
  1857.75,869.503 1858.26,868.228 1858.72,867.009 1859.19,865.845 1859.7,864.737 1860.17,863.684 1860.63,862.688 1861.1,861.749 1861.61,860.866 1862.07,860.041 
  1862.54,859.273 1863,858.563 1863.51,857.912 1863.98,857.318 1864.45,856.783 1864.96,856.306 1865.42,855.889 1865.89,855.53 1866.35,855.231 1866.86,854.991 
  1867.33,854.811 1867.79,854.691 1868.26,854.631 1868.77,854.631 1869.24,854.691 1869.7,854.812 1870.21,854.993 1870.68,855.235 1871.14,855.538 1871.61,855.901 
  1872.12,856.325 1872.59,856.811 1873.05,857.357 1873.42,857.843 1873.84,858.369 1874.21,858.935 1874.68,859.69 1875.19,860.506 1875.66,861.385 1876.12,862.326 
  1876.59,863.33 1877.1,864.396 1877.56,865.525 1878.03,866.717 1878.49,867.971 1879,869.288 1879.47,870.668 1879.93,872.111 1880.45,873.616 1880.91,875.184 
  1881.38,876.815 1881.84,878.509 1882.35,880.266 1882.82,882.085 1883.28,883.967 1883.75,885.912 1884.26,887.92 1884.73,889.99 1885.19,892.123 1885.66,894.318 
  1886.17,896.576 1886.63,898.896 1887.1,901.278 1887.61,903.722 1888.08,906.228 1888.54,908.796 1889.01,911.426 1889.52,914.117 1889.98,916.924 1890.45,919.788 
  1890.91,922.709 1891.42,925.688 1891.89,928.723 1892.35,931.814 1892.87,934.962 1893.33,938.165 1893.8,941.425 1894.26,944.74 1894.77,948.11 1895.24,951.535 
  1895.7,954.984 1896.17,958.49 1896.68,962.053 1897.15,965.672 1897.61,969.348 1898.12,973.079 1898.59,976.865 1899.05,980.705 1899.52,984.6 1900.03,988.548 
  1900.49,992.548 1900.96,996.601 1901.33,999.9 1901.75,1003.23 1902.12,1006.6 1902.59,1010.82 1903.1,1015.09 1903.56,1019.41 1904.03,1023.78 1904.5,1028.18 
  1905.01,1032.63 1905.47,1037.12 1905.94,1041.65 1906.4,1046.22 1906.91,1050.83 1907.38,1055.48 1907.84,1060.16 1908.36,1064.87 1908.82,1069.62 1909.29,1074.41 
  1909.75,1079.22 1910.26,1084.07 1910.73,1088.94 1911.19,1093.84 1911.66,1098.76 1912.17,1103.71 1912.64,1108.68 1913.1,1113.67 1913.57,1118.68 1914.08,1123.71 
  1914.54,1128.75 1915.01,1133.81 1915.52,1138.88 1915.98,1143.96 1916.45,1149.06 1916.91,1154.15 1917.43,1159.26 1917.89,1164.36 1918.36,1169.47 1918.82,1174.58 
  1919.33,1179.69 1919.8,1184.79 1920.26,1189.88 1920.78,1194.97 1921.24,1200.05 1921.71,1205.11 1922.17,1210.16 1922.68,1215.19 1923.15,1220.2 1923.61,1225.19 
  1924.08,1230.16 1924.59,1235.1 1925.06,1240.02 1925.52,1244.9 1926.03,1249.75 1926.5,1254.57 1926.96,1259.35 1927.43,1264.09 1927.94,1268.78 1928.4,1273.44 
  1928.87,1278.04 1929.24,1281.71 1929.66,1285.35 1930.03,1288.95 1930.5,1293.37 1931.01,1297.74 1931.47,1302.05 1931.94,1306.3 1932.4,1310.48 1932.92,1314.6 
  1933.38,1318.64 1933.85,1322.62 1934.31,1326.52 1934.82,1330.34 1935.29,1334.08 1935.75,1337.74 1936.27,1341.31 1936.73,1344.8 1937.2,1348.2 1937.66,1351.51 
  1938.17,1354.72 1938.64,1357.84 1939.1,1360.86 1939.57,1363.78 1940.08,1366.59 1940.54,1369.3 1941.01,1371.9 1941.48,1374.39 1941.99,1376.77 1942.45,1379.03 
  1942.92,1381.18 1943.43,1383.21 1943.89,1385.11 1944.36,1386.9 1944.82,1388.56 1945.34,1390.09 1945.8,1391.49 1946.27,1392.76 1946.73,1393.9 1947.24,1394.9 
  1947.71,1395.77 1948.17,1396.5 1948.69,1397.08 1949.15,1397.53 1949.62,1397.83 1950.08,1397.99 1950.59,1398 1951.06,1397.87 1951.52,1397.58 1951.99,1397.14 
  1952.5,1396.55 1952.96,1395.81 1953.43,1394.91 1953.94,1393.86 1954.41,1392.65 1954.87,1391.28 1955.34,1389.75 1955.85,1388.06 1956.31,1386.22 1956.78,1384.21 
  1957.15,1382.47 1957.57,1380.62 1957.94,1378.67 1958.41,1376.11 1958.92,1373.38 1959.38,1370.5 1959.85,1367.46 1960.31,1364.27 1960.83,1360.92 1961.29,1357.41 
  1961.76,1353.75 1962.22,1349.93 1962.73,1345.96 1963.2,1341.83 1963.66,1337.54 1964.17,1333.1 1964.64,1328.5 1965.11,1323.75 1965.57,1318.84 1966.08,1313.78 
  1966.55,1308.57 1967.01,1303.2 1967.48,1297.68 1967.99,1292.01 1968.45,1286.19 1968.92,1280.21 1969.38,1274.09 1969.9,1267.82 1970.36,1261.41 1970.83,1254.85 
  1971.34,1248.15 1971.8,1241.3 1972.27,1234.31 1972.73,1227.19 1973.25,1219.92 1973.71,1212.52 1974.18,1204.99 1974.64,1197.32 1975.15,1189.53 1975.62,1181.6 
  1976.08,1173.55 1976.59,1165.37 1977.06,1157.07 1977.52,1148.66 1977.99,1140.12 1978.5,1131.47 1978.97,1122.71 1979.43,1113.84 1979.9,1104.86 1980.41,1095.78 
  1980.87,1086.59 1981.34,1077.31 1981.85,1067.93 1982.32,1058.46 1982.78,1048.9 1983.25,1039.25 1983.76,1029.52 1984.22,1019.7 1984.69,1009.81 1985.06,1001.8 
  1985.48,993.744 1985.85,985.645 1986.32,975.519 1986.83,965.329 1987.29,955.061 1987.76,944.718 1988.22,934.304 1988.74,923.823 1989.2,913.278 1989.67,902.673 
  1990.13,892.012 1990.64,881.298 1991.11,870.535 1991.57,859.728 1992.08,848.88 1992.55,837.994 1993.01,827.076 1993.48,816.129 1993.99,805.158 1994.46,794.165 
  1994.92,783.156 1995.39,772.135 1995.9,761.104 1996.36,750.07 1996.83,739.035 1997.29,728.004 1997.81,716.981 1998.27,705.969 1998.74,694.974 1999.25,683.999 
  1999.71,673.047 2000.18,662.124 2000.64,651.233 2001.15,640.378 2001.62,629.562 2002.09,618.79 2002.55,608.067 2003.06,597.394 2003.53,586.777 2003.99,576.219 
  2004.5,565.723 2004.97,555.294 2005.43,544.935 2005.9,534.65 2006.41,524.441 2006.88,514.314 2007.34,504.271 2007.81,494.315 2008.32,484.45 2008.78,474.679 
  2009.25,465.005 2009.76,455.432 2010.23,445.963 2010.69,436.6 2011.16,427.348 2011.67,418.208 2012.13,409.183 2012.6,400.277 2012.97,393.205 2013.39,386.212 
  2013.76,379.301 2014.23,370.818 2014.74,362.467 2015.2,354.259 2015.67,346.195 2016.13,338.279 2016.64,330.512 2017.11,322.896 2017.57,315.435 2018.04,308.13 
  2018.55,300.982 2019.02,293.995 2019.48,287.17 2019.99,280.509 2020.46,274.014 2020.92,267.685 2021.39,261.526 2021.9,255.537 2022.37,249.72 2022.83,244.077 
  2023.3,238.609 2023.81,233.317 2024.27,228.203 2024.74,223.268 2025.2,218.513 2025.72,213.939 2026.18,209.548 2026.65,205.34 2027.16,201.315 2027.62,197.477 
  2028.09,193.824 2028.55,190.359 2029.06,187.081 2029.53,183.992 2029.99,181.091 2030.46,178.381 2030.97,175.86 2031.44,173.531 2031.9,171.393 2032.41,169.447 
  2032.88,167.692 2033.34,166.13 2033.81,164.762 2034.32,163.586 2034.79,162.603 2035.25,161.815 2035.72,161.219 2036.23,160.817 2036.69,160.609 2037.16,160.594 
  2037.67,160.773 2038.13,161.146 2038.6,161.711 2039.07,162.471 2039.58,163.422 2040.04,164.567 2040.51,165.904 2040.88,167.125 2041.3,168.47 2041.67,169.938 
  2042.14,171.926 2042.65,174.104 2043.11,176.472 2043.58,179.028 2044.04,181.773 2044.55,184.706 2045.02,187.825 2045.48,191.13 2045.95,194.619 2046.46,198.294 
  2046.93,202.15 2047.39,206.189 2047.9,210.409 2048.37,214.807 2048.83,219.385 2049.3,224.14 2049.81,229.07 2050.28,234.175 2050.74,239.452 2051.21,244.902 
  2051.72,250.521 2052.18,256.308 2052.65,262.262 2053.11,268.381 2053.62,274.663 2054.09,281.106 2054.55,287.709 2055.07,294.47 2055.53,301.386 2056,308.456 
  2056.46,315.677 2056.97,323.048 2057.44,330.566 2057.9,338.228 2058.37,346.033 2058.88,353.979 2059.35,362.062 2059.81,370.281 2060.32,378.633 2060.79,387.115 
  2061.25,395.725 2061.72,404.46 2062.23,413.318 2062.7,422.296 2063.16,431.391 2063.63,440.6 2064.14,449.921 2064.6,459.35 2065.07,468.885 2065.58,478.522 
  2066.04,488.259 2066.51,498.092 2066.97,508.019 2067.49,518.037 2067.95,528.141 2068.42,538.329 2068.79,546.586 2069.21,554.893 2069.58,563.248 2070.04,573.695 
  2070.56,584.212 2071.02,594.796 2071.49,605.441 2071.95,616.147 2072.46,626.908 2072.93,637.721 2073.39,648.584 2073.86,659.491 2074.37,670.441 2074.84,681.429 
  2075.3,692.451 2075.81,703.505 2076.28,714.586 2076.74,725.69 2077.21,736.815 2077.72,747.957 2078.18,759.111 2078.65,770.275 2079.12,781.444 2079.63,792.615 
  2080.09,803.784 2080.56,814.948 2081.02,826.102 2081.53,837.243 2082,848.367 2082.46,859.471 2082.98,870.551 2083.44,881.602 2083.91,892.622 2084.37,903.607 
  2084.88,914.553 2085.35,925.456 2085.81,936.312 2086.28,947.119 2086.79,957.872 2087.26,968.567 2087.72,979.202 2088.23,989.771 2088.7,1000.27 2089.16,1010.7 
  2089.63,1021.06 2090.14,1031.33 2090.6,1041.53 2091.07,1051.63 2091.53,1061.65 2092.05,1071.58 2092.51,1081.4 2092.98,1091.13 2093.49,1100.76 2093.95,1110.28 
  2094.42,1119.69 2094.88,1128.99 2095.4,1138.17 2095.86,1147.23 2096.33,1156.17 2096.7,1163.27 2097.12,1170.28 2097.49,1177.21 2097.95,1185.71 2098.47,1194.07 
  2098.93,1202.3 2099.4,1210.38 2099.86,1218.32 2100.37,1226.12 2100.84,1233.76 2101.3,1241.26 2101.77,1248.6 2102.28,1255.78 2102.75,1262.8 2103.21,1269.66 
  2103.72,1276.36 2104.19,1282.89 2104.65,1289.25 2105.12,1295.45 2105.63,1301.47 2106.09,1307.31 2106.56,1312.98 2107.02,1318.47 2107.54,1323.79 2108,1328.92 
  2108.47,1333.86 2108.93,1338.63 2109.44,1343.2 2109.91,1347.6 2110.37,1351.8 2110.89,1355.81 2111.35,1359.63 2111.82,1363.26 2112.28,1366.7 2112.79,1369.94 
  2113.26,1372.99 2113.72,1375.85 2114.19,1378.51 2114.7,1380.97 2115.16,1383.24 2115.63,1385.31 2116.14,1387.19 2116.61,1388.86 2117.07,1390.34 2117.54,1391.63 
  2118.05,1392.71 2118.51,1393.6 2118.98,1394.3 2119.44,1394.79 2119.96,1395.1 2120.42,1395.2 2120.89,1395.12 2121.4,1394.84 2121.86,1394.36 2122.33,1393.7 
  2122.79,1392.84 2123.31,1391.8 2123.77,1390.57 2124.24,1389.15 2124.61,1387.86 2125.03,1386.46 2125.4,1384.94 2125.86,1382.9 2126.38,1380.67 2126.84,1378.28 
  2127.31,1375.72 2127.77,1372.99 2128.28,1370.1 2128.75,1367.05 2129.21,1363.84 2129.68,1360.48 2130.19,1356.96 2130.65,1353.28 2131.12,1349.46 2131.63,1345.49 
  2132.1,1341.37 2132.56,1337.12 2133.03,1332.72 2133.54,1328.18 2134,1323.51 2134.47,1318.71 2134.93,1313.78 2135.45,1308.72 2135.91,1303.54 2136.38,1298.24 
  2136.84,1292.82 2137.35,1287.28 2137.82,1281.64 2138.28,1275.89 2138.79,1270.03 2139.26,1264.08 2139.73,1258.02 2140.19,1251.87 2140.7,1245.63 2141.17,1239.3 
  2141.63,1232.88 2142.1,1226.39 2142.61,1219.82 2143.07,1213.17 2143.54,1206.45 2144.05,1199.67 2144.52,1192.82 2144.98,1185.91 2145.45,1178.95 2145.96,1171.94 
  2146.42,1164.87 2146.89,1157.76 2147.35,1150.61 2147.87,1143.42 2148.33,1136.2 2148.8,1128.94 2149.31,1121.66 2149.77,1114.36 2150.24,1107.03 2150.7,1099.69 
  2151.21,1092.34 2151.68,1084.98 2152.14,1077.61 2152.52,1071.68 2152.94,1065.75 2153.31,1059.83 2153.77,1052.47 2154.28,1045.12 2154.75,1037.76 2155.21,1030.4 
  2155.68,1023.04 2156.19,1015.69 2156.66,1008.34 2157.12,1001 2157.59,993.672 2158.1,986.363 2158.56,979.074 2159.03,971.808 2159.54,964.567 2160.01,957.356 
  2160.47,950.176 2160.94,943.032 2161.45,935.925 2161.91,928.859 2162.38,921.837 2162.84,914.861 2163.36,907.934 2163.82,901.059 2164.29,894.238 2164.75,887.475 
  2165.26,880.77 2165.73,874.127 2166.19,867.548 2166.7,861.036 2167.17,854.591 2167.63,848.218 2168.1,841.916 2168.61,835.69 2169.08,829.539 2169.54,823.467 
  2170.01,817.475 2170.52,811.564 2170.98,805.737 2171.45,799.994 2171.96,794.337 2172.43,788.768 2172.89,783.288 2173.36,777.898 2173.87,772.599 2174.33,767.392 
  2174.8,762.279 2175.26,757.26 2175.77,752.336 2176.24,747.508 2176.71,742.777 2177.22,738.144 2177.68,733.608 2178.15,729.171 2178.61,724.833 2179.12,720.595 
  2179.59,716.456 2180.05,712.418 2180.43,709.247 2180.84,706.139 2181.22,703.097 2181.68,699.4 2182.19,695.807 2182.66,692.324 2183.12,688.952 2183.59,685.69 
  2184.1,682.538 2184.57,679.497 2185.03,676.566 2185.5,673.744 2186.01,671.033 2186.47,668.43 2186.94,665.936 2187.45,663.551 2187.92,661.273 2188.38,659.103 
  2188.85,657.039 2189.36,655.081 2189.82,653.229 2190.29,651.482 2190.75,649.839 2191.26,648.3 2191.73,646.863 2192.19,645.529 2192.66,644.295 2193.17,643.162 
  2193.64,642.129 2194.1,641.195 2194.61,640.36 2195.08,639.621 2195.54,638.979 2196.01,638.433 2196.52,637.981 2196.99,637.624 2197.45,637.36 2197.92,637.188 
  2198.43,637.108 2198.89,637.118 2199.36,637.218 2199.87,637.407 2200.34,637.685 2200.8,638.049 2201.27,638.5 2201.78,639.037 2202.24,639.658 2202.71,640.364 
  2203.17,641.152 2203.68,642.023 2204.15,642.975 2204.61,644.008 2205.13,645.12 2205.59,646.312 2206.06,647.582 2206.52,648.929 2207.03,650.354 2207.5,651.854 
  2207.96,653.429 2208.34,654.753 2208.75,656.125 2209.13,657.544 2209.59,659.369 2210.1,661.266 2210.57,663.234 2211.03,665.271 2211.5,667.379 2212.01,669.554 
  2212.48,671.798 2212.94,674.109 2213.41,676.485 2213.92,678.927 2214.38,681.434 2214.85,684.004 2215.36,686.636 2215.82,689.331 2216.29,692.087 2216.76,694.903 
  2217.27,697.779 2217.73,700.713 2218.2,703.704 2218.66,706.752 2219.17,709.855 2219.64,713.013 2220.1,716.225 2220.57,719.489 2221.08,722.805 2221.55,726.172 
  2222.01,729.588 2222.52,733.052 2222.99,736.564 2223.45,740.121 2223.92,743.724 2224.43,747.371 2224.9,751.06 2225.36,754.79 2225.83,758.561 2226.34,762.371 
  2226.8,766.218 2227.27,770.102 2227.78,774.02 2228.24,777.972 2228.71,781.957 2229.17,785.972 2229.69,790.016 2230.15,794.089 2230.62,798.188 2231.08,802.312 
  2231.59,806.46 2232.06,810.629 2232.52,814.819 2233.04,819.028 2233.5,823.254 2233.97,827.495 2234.43,831.75 2234.94,836.018 2235.41,840.297 2235.87,844.584 
  2236.25,848.038 2236.66,851.496 2237.04,854.956 2237.5,859.26 2238.01,863.565 2238.48,867.869 2238.94,872.172 2239.41,876.47 2239.92,880.762 2240.39,885.047 
  2240.85,889.322 2241.32,893.587 2241.83,897.838 2242.29,902.074 2242.76,906.293 2243.27,910.493 2243.73,914.674 2244.2,918.832 2244.66,922.965 2245.18,927.073 
  2245.64,931.153 2246.11,935.204 2246.57,939.223 2247.08,943.209 2247.55,947.16 2248.01,951.074 2248.48,954.949 2248.99,958.784 2249.46,962.578 2249.92,966.327 
  2250.43,970.031 2250.9,973.687 2251.36,977.295 2251.83,980.853 2252.34,984.358 2252.8,987.809 2253.27,991.205 2253.74,994.545 2254.25,997.825 2254.71,1001.05 
  2255.18,1004.21 2255.69,1007.3 2256.15,1010.34 2256.62,1013.3 2257.08,1016.2 2257.6,1019.04 2258.06,1021.8 2258.53,1024.49 2258.99,1027.11 2259.5,1029.66 
  2259.97,1032.13 2260.43,1034.53 2260.95,1036.85 2261.41,1039.1 2261.88,1041.27 2262.34,1043.36 2262.85,1045.37 2263.32,1047.3 2263.78,1049.14 2264.15,1050.57 
  2264.57,1051.94 2264.95,1053.25 2265.41,1054.82 2265.92,1056.3 2266.39,1057.7 2266.85,1059.02 2267.32,1060.24 2267.83,1061.39 2268.29,1062.44 2268.76,1063.42 
  2269.22,1064.3 2269.74,1065.1 2270.2,1065.82 2270.67,1066.44 2271.18,1066.98 2271.64,1067.44 2272.11,1067.81 2272.57,1068.09 2273.09,1068.29 2273.55,1068.41 
  2274.02,1068.44 2274.48,1068.38 2274.99,1068.24 2275.46,1068.02 2275.92,1067.71 2276.39,1067.33 2276.9,1066.86 2277.37,1066.31 2277.83,1065.68 2278.34,1064.98 
  2278.81,1064.19 2279.27,1063.33 2279.74,1062.39 2280.25,1061.37 2280.71,1060.28 2281.18,1059.12 2281.64,1057.89 2282.16,1056.58 2282.62,1055.2 2283.09,1053.76 
  2283.6,1052.25 2284.06,1050.67 2284.53,1049.03 2284.99,1047.32 2285.51,1045.56 2285.97,1043.73 2286.44,1041.84 2286.9,1039.9 2287.41,1037.9 2287.88,1035.85 
  2288.34,1033.74 2288.85,1031.58 2289.32,1029.38 2289.78,1027.12 2290.25,1024.82 2290.76,1022.47 2291.23,1020.09 2291.69,1017.66 2292.06,1015.67 2292.48,1013.66 
  
  "/>
</svg>
