<?xml version="1.0" encoding="utf-8"?>
<svg xmlns="http://www.w3.org/2000/svg" xmlns:xlink="http://www.w3.org/1999/xlink" width="600" height="400" viewBox="0 0 2400 1600">
<defs>
  <clipPath id="clip450">
    <rect x="0" y="0" width="2400" height="1600"/>
  </clipPath>
</defs>
<path clip-path="url(#clip450)" d="
M0 1600 L2400 1600 L2400 0 L0 0  Z
  " fill="#ffffff" fill-rule="evenodd" fill-opacity="1"/>
<defs>
  <clipPath id="clip451">
    <rect x="480" y="0" width="1681" height="1600"/>
  </clipPath>
</defs>
<path clip-path="url(#clip450)" d="
M194.422 1435.12 L2352.76 1435.12 L2352.76 123.472 L194.422 123.472  Z
  " fill="#ffffff" fill-rule="evenodd" fill-opacity="1"/>
<defs>
  <clipPath id="clip452">
    <rect x="194" y="123" width="2159" height="1313"/>
  </clipPath>
</defs>
<polyline clip-path="url(#clip452)" style="stroke:#000000; stroke-linecap:butt; stroke-linejoin:round; stroke-width:2; stroke-opacity:0.1; fill:none" points="
  255.507,1435.12 255.507,123.472 
  "/>
<polyline clip-path="url(#clip452)" style="stroke:#000000; stroke-linecap:butt; stroke-linejoin:round; stroke-width:2; stroke-opacity:0.1; fill:none" points="
  425.219,1435.12 425.219,123.472 
  "/>
<polyline clip-path="url(#clip452)" style="stroke:#000000; stroke-linecap:butt; stroke-linejoin:round; stroke-width:2; stroke-opacity:0.1; fill:none" points="
  594.931,1435.12 594.931,123.472 
  "/>
<polyline clip-path="url(#clip452)" style="stroke:#000000; stroke-linecap:butt; stroke-linejoin:round; stroke-width:2; stroke-opacity:0.1; fill:none" points="
  764.642,1435.12 764.642,123.472 
  "/>
<polyline clip-path="url(#clip452)" style="stroke:#000000; stroke-linecap:butt; stroke-linejoin:round; stroke-width:2; stroke-opacity:0.1; fill:none" points="
  934.354,1435.12 934.354,123.472 
  "/>
<polyline clip-path="url(#clip452)" style="stroke:#000000; stroke-linecap:butt; stroke-linejoin:round; stroke-width:2; stroke-opacity:0.1; fill:none" points="
  1104.07,1435.12 1104.07,123.472 
  "/>
<polyline clip-path="url(#clip452)" style="stroke:#000000; stroke-linecap:butt; stroke-linejoin:round; stroke-width:2; stroke-opacity:0.1; fill:none" points="
  1273.78,1435.12 1273.78,123.472 
  "/>
<polyline clip-path="url(#clip452)" style="stroke:#000000; stroke-linecap:butt; stroke-linejoin:round; stroke-width:2; stroke-opacity:0.1; fill:none" points="
  1443.49,1435.12 1443.49,123.472 
  "/>
<polyline clip-path="url(#clip452)" style="stroke:#000000; stroke-linecap:butt; stroke-linejoin:round; stroke-width:2; stroke-opacity:0.1; fill:none" points="
  1613.2,1435.12 1613.2,123.472 
  "/>
<polyline clip-path="url(#clip452)" style="stroke:#000000; stroke-linecap:butt; stroke-linejoin:round; stroke-width:2; stroke-opacity:0.1; fill:none" points="
  1782.91,1435.12 1782.91,123.472 
  "/>
<polyline clip-path="url(#clip452)" style="stroke:#000000; stroke-linecap:butt; stroke-linejoin:round; stroke-width:2; stroke-opacity:0.1; fill:none" points="
  1952.62,1435.12 1952.62,123.472 
  "/>
<polyline clip-path="url(#clip452)" style="stroke:#000000; stroke-linecap:butt; stroke-linejoin:round; stroke-width:2; stroke-opacity:0.1; fill:none" points="
  2122.34,1435.12 2122.34,123.472 
  "/>
<polyline clip-path="url(#clip450)" style="stroke:#000000; stroke-linecap:butt; stroke-linejoin:round; stroke-width:4; stroke-opacity:1; fill:none" points="
  194.422,1435.12 2352.76,1435.12 
  "/>
<polyline clip-path="url(#clip450)" style="stroke:#000000; stroke-linecap:butt; stroke-linejoin:round; stroke-width:4; stroke-opacity:1; fill:none" points="
  255.507,1435.12 255.507,1416.23 
  "/>
<polyline clip-path="url(#clip450)" style="stroke:#000000; stroke-linecap:butt; stroke-linejoin:round; stroke-width:4; stroke-opacity:1; fill:none" points="
  425.219,1435.12 425.219,1416.23 
  "/>
<polyline clip-path="url(#clip450)" style="stroke:#000000; stroke-linecap:butt; stroke-linejoin:round; stroke-width:4; stroke-opacity:1; fill:none" points="
  594.931,1435.12 594.931,1416.23 
  "/>
<polyline clip-path="url(#clip450)" style="stroke:#000000; stroke-linecap:butt; stroke-linejoin:round; stroke-width:4; stroke-opacity:1; fill:none" points="
  764.642,1435.12 764.642,1416.23 
  "/>
<polyline clip-path="url(#clip450)" style="stroke:#000000; stroke-linecap:butt; stroke-linejoin:round; stroke-width:4; stroke-opacity:1; fill:none" points="
  934.354,1435.12 934.354,1416.23 
  "/>
<polyline clip-path="url(#clip450)" style="stroke:#000000; stroke-linecap:butt; stroke-linejoin:round; stroke-width:4; stroke-opacity:1; fill:none" points="
  1104.07,1435.12 1104.07,1416.23 
  "/>
<polyline clip-path="url(#clip450)" style="stroke:#000000; stroke-linecap:butt; stroke-linejoin:round; stroke-width:4; stroke-opacity:1; fill:none" points="
  1273.78,1435.12 1273.78,1416.23 
  "/>
<polyline clip-path="url(#clip450)" style="stroke:#000000; stroke-linecap:butt; stroke-linejoin:round; stroke-width:4; stroke-opacity:1; fill:none" points="
  1443.49,1435.12 1443.49,1416.23 
  "/>
<polyline clip-path="url(#clip450)" style="stroke:#000000; stroke-linecap:butt; stroke-linejoin:round; stroke-width:4; stroke-opacity:1; fill:none" points="
  1613.2,1435.12 1613.2,1416.23 
  "/>
<polyline clip-path="url(#clip450)" style="stroke:#000000; stroke-linecap:butt; stroke-linejoin:round; stroke-width:4; stroke-opacity:1; fill:none" points="
  1782.91,1435.12 1782.91,1416.23 
  "/>
<polyline clip-path="url(#clip450)" style="stroke:#000000; stroke-linecap:butt; stroke-linejoin:round; stroke-width:4; stroke-opacity:1; fill:none" points="
  1952.62,1435.12 1952.62,1416.23 
  "/>
<polyline clip-path="url(#clip450)" style="stroke:#000000; stroke-linecap:butt; stroke-linejoin:round; stroke-width:4; stroke-opacity:1; fill:none" points="
  2122.34,1435.12 2122.34,1416.23 
  "/>
<path clip-path="url(#clip450)" d="M174.722 1572.31 L180.124 1566.91 L161.48 1548.27 L156.783 1555.32 L153.771 1552.31 L158.436 1545.29 L161.742 1541.98 L183.397 1563.63 L188.799 1558.23 L191.581 1561.02 L177.505 1575.09 L174.722 1572.31 Z" fill="#000000" fill-rule="evenodd" fill-opacity="1" /><path clip-path="url(#clip450)" d="M195.1 1531.14 Q197.981 1529.28 200.911 1529.56 Q203.857 1529.82 206.214 1532.18 Q209.832 1535.79 209.324 1540.26 Q208.817 1544.73 204.234 1549.31 Q202.695 1550.85 200.747 1552.18 Q198.832 1553.5 196.492 1554.63 L193.3 1551.44 Q195.477 1550.87 197.523 1549.64 Q199.569 1548.41 201.353 1546.63 Q204.463 1543.52 204.856 1540.67 Q205.265 1537.81 202.924 1535.47 Q200.764 1533.3 198.03 1533.62 Q195.297 1533.89 192.596 1536.59 L189.748 1539.44 L187.031 1536.73 L190.01 1533.75 Q192.449 1531.31 192.776 1529.05 Q193.087 1526.77 191.254 1524.94 Q189.372 1523.06 187.031 1523.4 Q184.69 1523.71 182.202 1526.2 Q180.844 1527.56 179.583 1529.41 Q178.323 1531.26 177.079 1533.75 L174.133 1530.8 Q175.491 1528.39 176.866 1526.5 Q178.258 1524.58 179.714 1523.12 Q183.479 1519.36 187.391 1518.88 Q191.287 1518.39 194.2 1521.31 Q196.23 1523.34 196.475 1525.91 Q196.705 1528.46 195.1 1531.14 Z" fill="#000000" fill-rule="evenodd" fill-opacity="1" /><path clip-path="url(#clip450)" d="M215.773 1528.51 L219.227 1525.06 L223.385 1529.21 L219.931 1532.67 L215.773 1528.51 M202.597 1515.33 L206.051 1511.88 L210.208 1516.04 L206.755 1519.49 L202.597 1515.33 Z" fill="#000000" fill-rule="evenodd" fill-opacity="1" /><path clip-path="url(#clip450)" d="M215.692 1492.38 Q213.138 1494.94 214.366 1498.75 Q215.593 1502.53 220.635 1507.57 Q225.66 1512.6 229.457 1513.84 Q233.255 1515.05 235.808 1512.5 Q238.378 1509.93 237.15 1506.15 Q235.923 1502.34 230.898 1497.31 Q225.856 1492.27 222.059 1491.06 Q218.261 1489.81 215.692 1492.38 M213.073 1489.77 Q217.181 1485.66 222.599 1486.75 Q228.017 1487.82 234.204 1494 Q240.375 1500.18 241.455 1505.61 Q242.535 1511.01 238.427 1515.12 Q234.318 1519.23 228.901 1518.16 Q223.483 1517.07 217.312 1510.9 Q211.125 1504.71 210.045 1499.31 Q208.964 1493.87 213.073 1489.77 Z" fill="#000000" fill-rule="evenodd" fill-opacity="1" /><path clip-path="url(#clip450)" d="M237.019 1471.06 Q234.466 1473.61 235.693 1477.42 Q236.921 1481.2 241.962 1486.25 Q246.987 1491.27 250.785 1492.52 Q254.582 1493.73 257.136 1491.17 Q259.705 1488.6 258.478 1484.82 Q257.25 1481.01 252.225 1475.98 Q247.184 1470.94 243.386 1469.73 Q239.589 1468.49 237.019 1471.06 M234.4 1468.44 Q238.509 1464.33 243.927 1465.43 Q249.344 1466.49 255.532 1472.68 Q261.702 1478.85 262.783 1484.28 Q263.863 1489.68 259.755 1493.79 Q255.646 1497.9 250.228 1496.84 Q244.81 1495.74 238.64 1489.57 Q232.453 1483.38 231.372 1477.98 Q230.292 1472.55 234.4 1468.44 Z" fill="#000000" fill-rule="evenodd" fill-opacity="1" /><path clip-path="url(#clip450)" d="M344.434 1572.31 L349.835 1566.91 L331.192 1548.27 L326.494 1555.32 L323.483 1552.31 L328.148 1545.29 L331.454 1541.98 L353.109 1563.63 L358.51 1558.23 L361.293 1561.02 L347.216 1575.09 L344.434 1572.31 Z" fill="#000000" fill-rule="evenodd" fill-opacity="1" /><path clip-path="url(#clip450)" d="M355.499 1523.7 L360.196 1545.09 L368.544 1536.74 L355.499 1523.7 M351.75 1521.68 L355.908 1517.53 L371.834 1533.45 L375.321 1529.97 L378.07 1532.72 L374.584 1536.2 L380.346 1541.96 L377.056 1545.25 L371.294 1539.49 L360.262 1550.52 L357.07 1547.33 L351.75 1521.68 Z" fill="#000000" fill-rule="evenodd" fill-opacity="1" /><path clip-path="url(#clip450)" d="M385.485 1528.51 L388.939 1525.06 L393.096 1529.21 L389.643 1532.67 L385.485 1528.51 M372.309 1515.33 L375.762 1511.88 L379.92 1516.04 L376.466 1519.49 L372.309 1515.33 Z" fill="#000000" fill-rule="evenodd" fill-opacity="1" /><path clip-path="url(#clip450)" d="M385.403 1492.38 Q382.85 1494.94 384.078 1498.75 Q385.305 1502.53 390.346 1507.57 Q395.372 1512.6 399.169 1513.84 Q402.966 1515.05 405.52 1512.5 Q408.09 1509.93 406.862 1506.15 Q405.634 1502.34 400.609 1497.31 Q395.568 1492.27 391.771 1491.06 Q387.973 1489.81 385.403 1492.38 M382.784 1489.77 Q386.893 1485.66 392.311 1486.75 Q397.729 1487.82 403.916 1494 Q410.086 1500.18 411.167 1505.61 Q412.247 1511.01 408.139 1515.12 Q404.03 1519.23 398.612 1518.16 Q393.195 1517.07 387.024 1510.9 Q380.837 1504.71 379.756 1499.31 Q378.676 1493.87 382.784 1489.77 Z" fill="#000000" fill-rule="evenodd" fill-opacity="1" /><path clip-path="url(#clip450)" d="M406.731 1471.06 Q404.178 1473.61 405.405 1477.42 Q406.633 1481.2 411.674 1486.25 Q416.699 1491.27 420.497 1492.52 Q424.294 1493.73 426.847 1491.17 Q429.417 1488.6 428.19 1484.82 Q426.962 1481.01 421.937 1475.98 Q416.896 1470.94 413.098 1469.73 Q409.301 1468.49 406.731 1471.06 M404.112 1468.44 Q408.22 1464.33 413.638 1465.43 Q419.056 1466.49 425.243 1472.68 Q431.414 1478.85 432.494 1484.28 Q433.575 1489.68 429.466 1493.79 Q425.358 1497.9 419.94 1496.84 Q414.522 1495.74 408.351 1489.57 Q402.164 1483.38 401.084 1477.98 Q400.004 1472.55 404.112 1468.44 Z" fill="#000000" fill-rule="evenodd" fill-opacity="1" /><path clip-path="url(#clip450)" d="M514.146 1572.31 L519.547 1566.91 L500.904 1548.27 L496.206 1555.32 L493.194 1552.31 L497.859 1545.29 L501.166 1541.98 L522.821 1563.63 L528.222 1558.23 L531.005 1561.02 L516.928 1575.09 L514.146 1572.31 Z" fill="#000000" fill-rule="evenodd" fill-opacity="1" /><path clip-path="url(#clip450)" d="M513.278 1529.87 L526.258 1516.89 L529.041 1519.67 L519.089 1529.62 L525.08 1535.61 Q525.554 1534.65 526.16 1533.81 Q526.749 1532.96 527.469 1532.24 Q531.561 1528.15 536.194 1528 Q540.826 1527.85 544.656 1531.68 Q548.601 1535.63 548.339 1540.28 Q548.06 1544.91 543.592 1549.38 Q542.053 1550.92 540.187 1552.26 Q538.338 1553.58 536.112 1554.76 L532.789 1551.44 Q535.064 1550.77 537.028 1549.59 Q538.992 1548.41 540.744 1546.66 Q543.576 1543.83 543.739 1540.69 Q543.903 1537.54 541.349 1534.99 Q538.796 1532.44 535.653 1532.6 Q532.511 1532.76 529.679 1535.6 Q528.353 1536.92 527.322 1538.54 Q526.307 1540.15 525.554 1542.14 L513.278 1529.87 Z" fill="#000000" fill-rule="evenodd" fill-opacity="1" /><path clip-path="url(#clip450)" d="M555.197 1528.51 L558.651 1525.06 L562.808 1529.21 L559.354 1532.67 L555.197 1528.51 M542.021 1515.33 L545.474 1511.88 L549.632 1516.04 L546.178 1519.49 L542.021 1515.33 Z" fill="#000000" fill-rule="evenodd" fill-opacity="1" /><path clip-path="url(#clip450)" d="M555.115 1492.38 Q552.562 1494.94 553.789 1498.75 Q555.017 1502.53 560.058 1507.57 Q565.083 1512.6 568.881 1513.84 Q572.678 1515.05 575.232 1512.5 Q577.801 1509.93 576.574 1506.15 Q575.346 1502.34 570.321 1497.31 Q565.28 1492.27 561.482 1491.06 Q557.685 1489.81 555.115 1492.38 M552.496 1489.77 Q556.605 1485.66 562.022 1486.75 Q567.44 1487.82 573.627 1494 Q579.798 1500.18 580.879 1505.61 Q581.959 1511.01 577.85 1515.12 Q573.742 1519.23 568.324 1518.16 Q562.906 1517.07 556.736 1510.9 Q550.548 1504.71 549.468 1499.31 Q548.388 1493.87 552.496 1489.77 Z" fill="#000000" fill-rule="evenodd" fill-opacity="1" /><path clip-path="url(#clip450)" d="M576.443 1471.06 Q573.889 1473.61 575.117 1477.42 Q576.345 1481.2 581.386 1486.25 Q586.411 1491.27 590.208 1492.52 Q594.006 1493.73 596.559 1491.17 Q599.129 1488.6 597.901 1484.82 Q596.674 1481.01 591.649 1475.98 Q586.607 1470.94 582.81 1469.73 Q579.013 1468.49 576.443 1471.06 M573.824 1468.44 Q577.932 1464.33 583.35 1465.43 Q588.768 1466.49 594.955 1472.68 Q601.126 1478.85 602.206 1484.28 Q603.286 1489.68 599.178 1493.79 Q595.07 1497.9 589.652 1496.84 Q584.234 1495.74 578.063 1489.57 Q571.876 1483.38 570.796 1477.98 Q569.715 1472.55 573.824 1468.44 Z" fill="#000000" fill-rule="evenodd" fill-opacity="1" /><path clip-path="url(#clip450)" d="M683.857 1572.31 L689.259 1566.91 L670.616 1548.27 L665.918 1555.32 L662.906 1552.31 L667.571 1545.29 L670.877 1541.98 L692.533 1563.63 L697.934 1558.23 L700.717 1561.02 L686.64 1575.09 L683.857 1572.31 Z" fill="#000000" fill-rule="evenodd" fill-opacity="1" /><path clip-path="url(#clip450)" d="M701.339 1533.32 Q699.113 1535.55 699.325 1538.38 Q699.554 1541.19 702.206 1543.85 Q704.841 1546.48 707.673 1546.73 Q710.505 1546.94 712.731 1544.71 Q714.957 1542.49 714.728 1539.67 Q714.499 1536.82 711.863 1534.19 Q709.212 1531.54 706.38 1531.32 Q703.565 1531.09 701.339 1533.32 M697.541 1516.4 L700.553 1519.41 Q698.72 1520.06 697.132 1521.03 Q695.561 1521.98 694.317 1523.22 Q691.043 1526.5 691.518 1530.44 Q692.009 1534.37 696.232 1539.08 Q695.773 1536.69 696.477 1534.48 Q697.165 1532.26 698.916 1530.51 Q702.599 1526.82 706.969 1526.94 Q711.34 1527.02 715.186 1530.87 Q718.951 1534.63 719 1539.13 Q719.049 1543.63 715.35 1547.33 Q711.11 1551.57 705.627 1550.57 Q700.127 1549.56 693.957 1543.39 Q688.162 1537.59 687.475 1531.41 Q686.771 1525.2 691.403 1520.57 Q692.647 1519.33 694.153 1518.31 Q695.675 1517.28 697.541 1516.4 Z" fill="#000000" fill-rule="evenodd" fill-opacity="1" /><path clip-path="url(#clip450)" d="M724.909 1528.51 L728.362 1525.06 L732.52 1529.21 L729.066 1532.67 L724.909 1528.51 M711.732 1515.33 L715.186 1511.88 L719.344 1516.04 L715.89 1519.49 L711.732 1515.33 Z" fill="#000000" fill-rule="evenodd" fill-opacity="1" /><path clip-path="url(#clip450)" d="M724.827 1492.38 Q722.273 1494.94 723.501 1498.75 Q724.729 1502.53 729.77 1507.57 Q734.795 1512.6 738.592 1513.84 Q742.39 1515.05 744.943 1512.5 Q747.513 1509.93 746.285 1506.15 Q745.058 1502.34 740.033 1497.31 Q734.991 1492.27 731.194 1491.06 Q727.397 1489.81 724.827 1492.38 M722.208 1489.77 Q726.316 1485.66 731.734 1486.75 Q737.152 1487.82 743.339 1494 Q749.51 1500.18 750.59 1505.61 Q751.671 1511.01 747.562 1515.12 Q743.454 1519.23 738.036 1518.16 Q732.618 1517.07 726.447 1510.9 Q720.26 1504.71 719.18 1499.31 Q718.1 1493.87 722.208 1489.77 Z" fill="#000000" fill-rule="evenodd" fill-opacity="1" /><path clip-path="url(#clip450)" d="M746.155 1471.06 Q743.601 1473.61 744.829 1477.42 Q746.056 1481.2 751.098 1486.25 Q756.123 1491.27 759.92 1492.52 Q763.718 1493.73 766.271 1491.17 Q768.841 1488.6 767.613 1484.82 Q766.386 1481.01 761.36 1475.98 Q756.319 1470.94 752.522 1469.73 Q748.724 1468.49 746.155 1471.06 M743.536 1468.44 Q747.644 1464.33 753.062 1465.43 Q758.48 1466.49 764.667 1472.68 Q770.838 1478.85 771.918 1484.28 Q772.998 1489.68 768.89 1493.79 Q764.781 1497.9 759.364 1496.84 Q753.946 1495.74 747.775 1489.57 Q741.588 1483.38 740.507 1477.98 Q739.427 1472.55 743.536 1468.44 Z" fill="#000000" fill-rule="evenodd" fill-opacity="1" /><path clip-path="url(#clip450)" d="M853.569 1572.31 L858.971 1566.91 L840.327 1548.27 L835.63 1555.32 L832.618 1552.31 L837.283 1545.29 L840.589 1541.98 L862.244 1563.63 L867.646 1558.23 L870.428 1561.02 L856.352 1575.09 L853.569 1572.31 Z" fill="#000000" fill-rule="evenodd" fill-opacity="1" /><path clip-path="url(#clip450)" d="M851.834 1530.73 L867.548 1515.02 L868.955 1516.43 L883.114 1548.33 L879.66 1551.78 L866.353 1521.78 L854.617 1533.52 L851.834 1530.73 Z" fill="#000000" fill-rule="evenodd" fill-opacity="1" /><path clip-path="url(#clip450)" d="M894.62 1528.51 L898.074 1525.06 L902.232 1529.21 L898.778 1532.67 L894.62 1528.51 M881.444 1515.33 L884.898 1511.88 L889.055 1516.04 L885.602 1519.49 L881.444 1515.33 Z" fill="#000000" fill-rule="evenodd" fill-opacity="1" /><path clip-path="url(#clip450)" d="M894.539 1492.38 Q891.985 1494.94 893.213 1498.75 Q894.44 1502.53 899.482 1507.57 Q904.507 1512.6 908.304 1513.84 Q912.102 1515.05 914.655 1512.5 Q917.225 1509.93 915.997 1506.15 Q914.77 1502.34 909.745 1497.31 Q904.703 1492.27 900.906 1491.06 Q897.108 1489.81 894.539 1492.38 M891.92 1489.77 Q896.028 1485.66 901.446 1486.75 Q906.864 1487.82 913.051 1494 Q919.222 1500.18 920.302 1505.61 Q921.382 1511.01 917.274 1515.12 Q913.166 1519.23 907.748 1518.16 Q902.33 1517.07 896.159 1510.9 Q889.972 1504.71 888.892 1499.31 Q887.811 1493.87 891.92 1489.77 Z" fill="#000000" fill-rule="evenodd" fill-opacity="1" /><path clip-path="url(#clip450)" d="M915.866 1471.06 Q913.313 1473.61 914.54 1477.42 Q915.768 1481.2 920.809 1486.25 Q925.834 1491.27 929.632 1492.52 Q933.429 1493.73 935.983 1491.17 Q938.552 1488.6 937.325 1484.82 Q936.097 1481.01 931.072 1475.98 Q926.031 1470.94 922.233 1469.73 Q918.436 1468.49 915.866 1471.06 M913.247 1468.44 Q917.356 1464.33 922.774 1465.43 Q928.191 1466.49 934.379 1472.68 Q940.549 1478.85 941.63 1484.28 Q942.71 1489.68 938.602 1493.79 Q934.493 1497.9 929.075 1496.84 Q923.657 1495.74 917.487 1489.57 Q911.3 1483.38 910.219 1477.98 Q909.139 1472.55 913.247 1468.44 Z" fill="#000000" fill-rule="evenodd" fill-opacity="1" /><path clip-path="url(#clip450)" d="M1023.28 1572.31 L1028.68 1566.91 L1010.04 1548.27 L1005.34 1555.32 L1002.33 1552.31 L1006.99 1545.29 L1010.3 1541.98 L1031.96 1563.63 L1037.36 1558.23 L1040.14 1561.02 L1026.06 1575.09 L1023.28 1572.31 Z" fill="#000000" fill-rule="evenodd" fill-opacity="1" /><path clip-path="url(#clip450)" d="M1042.28 1535.66 Q1039.93 1538.02 1039.83 1540.64 Q1039.75 1543.24 1041.96 1545.45 Q1044.17 1547.66 1046.77 1547.58 Q1049.39 1547.48 1051.75 1545.12 Q1054.1 1542.77 1054.2 1540.15 Q1054.28 1537.51 1052.09 1535.32 Q1049.88 1533.11 1047.26 1533.21 Q1044.66 1533.29 1042.28 1535.66 M1037.57 1537.56 Q1034.92 1539.16 1032.27 1538.9 Q1029.63 1538.62 1027.54 1536.53 Q1024.61 1533.6 1024.98 1529.82 Q1025.38 1526.02 1029.01 1522.39 Q1032.66 1518.74 1036.44 1518.36 Q1040.22 1517.98 1043.15 1520.91 Q1045.25 1523.01 1045.51 1525.66 Q1045.79 1528.3 1044.2 1530.93 Q1047.15 1529.1 1050.09 1529.39 Q1053.05 1529.67 1055.4 1532.01 Q1058.95 1535.56 1058.67 1539.64 Q1058.41 1543.7 1054.36 1547.74 Q1050.32 1551.78 1046.25 1552.06 Q1042.19 1552.32 1038.63 1548.77 Q1036.29 1546.43 1036.02 1543.47 Q1035.74 1540.51 1037.57 1537.56 M1031.14 1533.55 Q1033.04 1535.45 1035.28 1535.33 Q1037.54 1535.2 1039.68 1533.06 Q1041.81 1530.93 1041.94 1528.67 Q1042.09 1526.4 1040.19 1524.5 Q1038.29 1522.6 1036.02 1522.75 Q1033.76 1522.88 1031.63 1525.01 Q1029.48 1527.15 1029.35 1529.41 Q1029.24 1531.65 1031.14 1533.55 Z" fill="#000000" fill-rule="evenodd" fill-opacity="1" /><path clip-path="url(#clip450)" d="M1064.33 1528.51 L1067.79 1525.06 L1071.94 1529.21 L1068.49 1532.67 L1064.33 1528.51 M1051.16 1515.33 L1054.61 1511.88 L1058.77 1516.04 L1055.31 1519.49 L1051.16 1515.33 Z" fill="#000000" fill-rule="evenodd" fill-opacity="1" /><path clip-path="url(#clip450)" d="M1064.25 1492.38 Q1061.7 1494.94 1062.92 1498.75 Q1064.15 1502.53 1069.19 1507.57 Q1074.22 1512.6 1078.02 1513.84 Q1081.81 1515.05 1084.37 1512.5 Q1086.94 1509.93 1085.71 1506.15 Q1084.48 1502.34 1079.46 1497.31 Q1074.41 1492.27 1070.62 1491.06 Q1066.82 1489.81 1064.25 1492.38 M1061.63 1489.77 Q1065.74 1485.66 1071.16 1486.75 Q1076.58 1487.82 1082.76 1494 Q1088.93 1500.18 1090.01 1505.61 Q1091.09 1511.01 1086.99 1515.12 Q1082.88 1519.23 1077.46 1518.16 Q1072.04 1517.07 1065.87 1510.9 Q1059.68 1504.71 1058.6 1499.31 Q1057.52 1493.87 1061.63 1489.77 Z" fill="#000000" fill-rule="evenodd" fill-opacity="1" /><path clip-path="url(#clip450)" d="M1085.58 1471.06 Q1083.02 1473.61 1084.25 1477.42 Q1085.48 1481.2 1090.52 1486.25 Q1095.55 1491.27 1099.34 1492.52 Q1103.14 1493.73 1105.69 1491.17 Q1108.26 1488.6 1107.04 1484.82 Q1105.81 1481.01 1100.78 1475.98 Q1095.74 1470.94 1091.95 1469.73 Q1088.15 1468.49 1085.58 1471.06 M1082.96 1468.44 Q1087.07 1464.33 1092.49 1465.43 Q1097.9 1466.49 1104.09 1472.68 Q1110.26 1478.85 1111.34 1484.28 Q1112.42 1489.68 1108.31 1493.79 Q1104.2 1497.9 1098.79 1496.84 Q1093.37 1495.74 1087.2 1489.57 Q1081.01 1483.38 1079.93 1477.98 Q1078.85 1472.55 1082.96 1468.44 Z" fill="#000000" fill-rule="evenodd" fill-opacity="1" /><path clip-path="url(#clip450)" d="M1192.99 1572.31 L1198.39 1566.91 L1179.75 1548.27 L1175.05 1555.32 L1172.04 1552.31 L1176.71 1545.29 L1180.01 1541.98 L1201.67 1563.63 L1207.07 1558.23 L1209.85 1561.02 L1195.78 1575.09 L1192.99 1572.31 Z" fill="#000000" fill-rule="evenodd" fill-opacity="1" /><path clip-path="url(#clip450)" d="M1216.12 1553.73 L1213.11 1550.72 Q1214.94 1550.07 1216.53 1549.1 Q1218.12 1548.13 1219.35 1546.91 Q1222.62 1543.63 1222.14 1539.72 Q1221.67 1535.78 1217.43 1531.05 Q1217.89 1533.4 1217.18 1535.61 Q1216.48 1537.82 1214.71 1539.59 Q1211.05 1543.26 1206.69 1543.19 Q1202.34 1543.09 1198.49 1539.25 Q1194.73 1535.48 1194.68 1530.98 Q1194.63 1526.48 1198.33 1522.78 Q1202.57 1518.54 1208.05 1519.57 Q1213.53 1520.57 1219.72 1526.76 Q1225.5 1532.54 1226.2 1538.74 Q1226.91 1544.91 1222.28 1549.54 Q1221.03 1550.79 1219.51 1551.82 Q1217.99 1552.85 1216.12 1553.73 M1212.34 1536.79 Q1214.57 1534.56 1214.34 1531.75 Q1214.12 1528.92 1211.47 1526.27 Q1208.84 1523.63 1206.01 1523.42 Q1203.17 1523.17 1200.95 1525.4 Q1198.72 1527.62 1198.95 1530.47 Q1199.18 1533.29 1201.82 1535.92 Q1204.47 1538.58 1207.28 1538.8 Q1210.11 1539.02 1212.34 1536.79 Z" fill="#000000" fill-rule="evenodd" fill-opacity="1" /><path clip-path="url(#clip450)" d="M1234.04 1528.51 L1237.5 1525.06 L1241.66 1529.21 L1238.2 1532.67 L1234.04 1528.51 M1220.87 1515.33 L1224.32 1511.88 L1228.48 1516.04 L1225.03 1519.49 L1220.87 1515.33 Z" fill="#000000" fill-rule="evenodd" fill-opacity="1" /><path clip-path="url(#clip450)" d="M1233.96 1492.38 Q1231.41 1494.94 1232.64 1498.75 Q1233.86 1502.53 1238.91 1507.57 Q1243.93 1512.6 1247.73 1513.84 Q1251.53 1515.05 1254.08 1512.5 Q1256.65 1509.93 1255.42 1506.15 Q1254.19 1502.34 1249.17 1497.31 Q1244.13 1492.27 1240.33 1491.06 Q1236.53 1489.81 1233.96 1492.38 M1231.34 1489.77 Q1235.45 1485.66 1240.87 1486.75 Q1246.29 1487.82 1252.47 1494 Q1258.65 1500.18 1259.73 1505.61 Q1260.81 1511.01 1256.7 1515.12 Q1252.59 1519.23 1247.17 1518.16 Q1241.75 1517.07 1235.58 1510.9 Q1229.4 1504.71 1228.32 1499.31 Q1227.23 1493.87 1231.34 1489.77 Z" fill="#000000" fill-rule="evenodd" fill-opacity="1" /><path clip-path="url(#clip450)" d="M1255.29 1471.06 Q1252.74 1473.61 1253.96 1477.42 Q1255.19 1481.2 1260.23 1486.25 Q1265.26 1491.27 1269.06 1492.52 Q1272.85 1493.73 1275.41 1491.17 Q1277.98 1488.6 1276.75 1484.82 Q1275.52 1481.01 1270.5 1475.98 Q1265.45 1470.94 1261.66 1469.73 Q1257.86 1468.49 1255.29 1471.06 M1252.67 1468.44 Q1256.78 1464.33 1262.2 1465.43 Q1267.61 1466.49 1273.8 1472.68 Q1279.97 1478.85 1281.05 1484.28 Q1282.13 1489.68 1278.03 1493.79 Q1273.92 1497.9 1268.5 1496.84 Q1263.08 1495.74 1256.91 1489.57 Q1250.72 1483.38 1249.64 1477.98 Q1248.56 1472.55 1252.67 1468.44 Z" fill="#000000" fill-rule="evenodd" fill-opacity="1" /><path clip-path="url(#clip450)" d="M1364.98 1570.03 L1376.52 1558.5 L1379.3 1561.28 L1363.78 1576.79 L1361 1574.01 Q1360.94 1570.18 1360.9 1563.67 Q1360.87 1557.12 1360.76 1555.34 Q1360.56 1551.96 1359.95 1550.11 Q1359.35 1548.23 1358.15 1547.04 Q1356.21 1545.09 1353.6 1545.24 Q1351.02 1545.37 1348.82 1547.56 Q1347.27 1549.12 1346.07 1551.39 Q1344.9 1553.65 1344.03 1556.71 L1340.69 1553.37 Q1341.88 1550.57 1343.21 1548.43 Q1344.54 1546.28 1345.98 1544.84 Q1349.77 1541.05 1353.93 1540.69 Q1358.09 1540.33 1361.26 1543.5 Q1362.77 1545.01 1363.56 1546.94 Q1364.34 1548.84 1364.68 1552.16 Q1364.75 1553.04 1364.83 1557.51 Q1364.9 1561.97 1364.98 1570.03 Z" fill="#000000" fill-rule="evenodd" fill-opacity="1" /><path clip-path="url(#clip450)" d="M1371.05 1525.01 Q1368.5 1527.56 1369.73 1531.37 Q1370.95 1535.15 1376 1540.2 Q1381.02 1545.22 1384.82 1546.46 Q1388.62 1547.68 1391.17 1545.12 Q1393.74 1542.55 1392.51 1538.77 Q1391.28 1534.96 1386.26 1529.93 Q1381.22 1524.89 1377.42 1523.68 Q1373.62 1522.44 1371.05 1525.01 M1368.43 1522.39 Q1372.54 1518.28 1377.96 1519.38 Q1383.38 1520.44 1389.56 1526.63 Q1395.74 1532.8 1396.82 1538.23 Q1397.9 1543.63 1393.79 1547.74 Q1389.68 1551.85 1384.26 1550.79 Q1378.84 1549.69 1372.67 1543.52 Q1366.49 1537.33 1365.41 1531.93 Q1364.32 1526.5 1368.43 1522.39 Z" fill="#000000" fill-rule="evenodd" fill-opacity="1" /><path clip-path="url(#clip450)" d="M1403.76 1528.51 L1407.21 1525.06 L1411.37 1529.21 L1407.91 1532.67 L1403.76 1528.51 M1390.58 1515.33 L1394.03 1511.88 L1398.19 1516.04 L1394.74 1519.49 L1390.58 1515.33 Z" fill="#000000" fill-rule="evenodd" fill-opacity="1" /><path clip-path="url(#clip450)" d="M1403.67 1492.38 Q1401.12 1494.94 1402.35 1498.75 Q1403.58 1502.53 1408.62 1507.57 Q1413.64 1512.6 1417.44 1513.84 Q1421.24 1515.05 1423.79 1512.5 Q1426.36 1509.93 1425.13 1506.15 Q1423.9 1502.34 1418.88 1497.31 Q1413.84 1492.27 1410.04 1491.06 Q1406.24 1489.81 1403.67 1492.38 M1401.05 1489.77 Q1405.16 1485.66 1410.58 1486.75 Q1416 1487.82 1422.19 1494 Q1428.36 1500.18 1429.44 1505.61 Q1430.52 1511.01 1426.41 1515.12 Q1422.3 1519.23 1416.88 1518.16 Q1411.47 1517.07 1405.29 1510.9 Q1399.11 1504.71 1398.03 1499.31 Q1396.95 1493.87 1401.05 1489.77 Z" fill="#000000" fill-rule="evenodd" fill-opacity="1" /><path clip-path="url(#clip450)" d="M1425 1471.06 Q1422.45 1473.61 1423.68 1477.42 Q1424.9 1481.2 1429.94 1486.25 Q1434.97 1491.27 1438.77 1492.52 Q1442.56 1493.73 1445.12 1491.17 Q1447.69 1488.6 1446.46 1484.82 Q1445.23 1481.01 1440.21 1475.98 Q1435.17 1470.94 1431.37 1469.73 Q1427.57 1468.49 1425 1471.06 M1422.38 1468.44 Q1426.49 1464.33 1431.91 1465.43 Q1437.33 1466.49 1443.51 1472.68 Q1449.68 1478.85 1450.76 1484.28 Q1451.85 1489.68 1447.74 1493.79 Q1443.63 1497.9 1438.21 1496.84 Q1432.79 1495.74 1426.62 1489.57 Q1420.43 1483.38 1419.35 1477.98 Q1418.27 1472.55 1422.38 1468.44 Z" fill="#000000" fill-rule="evenodd" fill-opacity="1" /><path clip-path="url(#clip450)" d="M1534.69 1570.03 L1546.23 1558.5 L1549.01 1561.28 L1533.5 1576.79 L1530.71 1574.01 Q1530.65 1570.18 1530.62 1563.67 Q1530.58 1557.12 1530.47 1555.34 Q1530.27 1551.96 1529.67 1550.11 Q1529.06 1548.23 1527.87 1547.04 Q1525.92 1545.09 1523.32 1545.24 Q1520.73 1545.37 1518.54 1547.56 Q1516.98 1549.12 1515.79 1551.39 Q1514.61 1553.65 1513.74 1556.71 L1510.4 1553.37 Q1511.6 1550.57 1512.92 1548.43 Q1514.25 1546.28 1515.69 1544.84 Q1519.49 1541.05 1523.64 1540.69 Q1527.8 1540.33 1530.98 1543.5 Q1532.48 1545.01 1533.27 1546.94 Q1534.05 1548.84 1534.4 1552.16 Q1534.46 1553.04 1534.54 1557.51 Q1534.61 1561.97 1534.69 1570.03 Z" fill="#000000" fill-rule="evenodd" fill-opacity="1" /><path clip-path="url(#clip450)" d="M1553.74 1550.98 L1559.15 1545.58 L1540.5 1526.94 L1535.8 1533.99 L1532.79 1530.98 L1537.46 1523.96 L1540.76 1520.65 L1562.42 1542.31 L1567.82 1536.91 L1570.6 1539.69 L1556.53 1553.76 L1553.74 1550.98 Z" fill="#000000" fill-rule="evenodd" fill-opacity="1" /><path clip-path="url(#clip450)" d="M1573.47 1528.51 L1576.92 1525.06 L1581.08 1529.21 L1577.62 1532.67 L1573.47 1528.51 M1560.29 1515.33 L1563.74 1511.88 L1567.9 1516.04 L1564.45 1519.49 L1560.29 1515.33 Z" fill="#000000" fill-rule="evenodd" fill-opacity="1" /><path clip-path="url(#clip450)" d="M1573.39 1492.38 Q1570.83 1494.94 1572.06 1498.75 Q1573.29 1502.53 1578.33 1507.57 Q1583.35 1512.6 1587.15 1513.84 Q1590.95 1515.05 1593.5 1512.5 Q1596.07 1509.93 1594.84 1506.15 Q1593.62 1502.34 1588.59 1497.31 Q1583.55 1492.27 1579.75 1491.06 Q1575.96 1489.81 1573.39 1492.38 M1570.77 1489.77 Q1574.88 1485.66 1580.29 1486.75 Q1585.71 1487.82 1591.9 1494 Q1598.07 1500.18 1599.15 1505.61 Q1600.23 1511.01 1596.12 1515.12 Q1592.01 1519.23 1586.59 1518.16 Q1581.18 1517.07 1575.01 1510.9 Q1568.82 1504.71 1567.74 1499.31 Q1566.66 1493.87 1570.77 1489.77 Z" fill="#000000" fill-rule="evenodd" fill-opacity="1" /><path clip-path="url(#clip450)" d="M1594.71 1471.06 Q1592.16 1473.61 1593.39 1477.42 Q1594.62 1481.2 1599.66 1486.25 Q1604.68 1491.27 1608.48 1492.52 Q1612.28 1493.73 1614.83 1491.17 Q1617.4 1488.6 1616.17 1484.82 Q1614.94 1481.01 1609.92 1475.98 Q1604.88 1470.94 1601.08 1469.73 Q1597.28 1468.49 1594.71 1471.06 M1592.09 1468.44 Q1596.2 1464.33 1601.62 1465.43 Q1607.04 1466.49 1613.23 1472.68 Q1619.4 1478.85 1620.48 1484.28 Q1621.56 1489.68 1617.45 1493.79 Q1613.34 1497.9 1607.92 1496.84 Q1602.5 1495.74 1596.33 1489.57 Q1590.15 1483.38 1589.07 1477.98 Q1587.99 1472.55 1592.09 1468.44 Z" fill="#000000" fill-rule="evenodd" fill-opacity="1" /><path clip-path="url(#clip450)" d="M1704.4 1570.03 L1715.94 1558.5 L1718.73 1561.28 L1703.21 1576.79 L1700.43 1574.01 Q1700.36 1570.18 1700.33 1563.67 Q1700.29 1557.12 1700.18 1555.34 Q1699.98 1551.96 1699.38 1550.11 Q1698.77 1548.23 1697.58 1547.04 Q1695.63 1545.09 1693.03 1545.24 Q1690.44 1545.37 1688.25 1547.56 Q1686.69 1549.12 1685.5 1551.39 Q1684.32 1553.65 1683.45 1556.71 L1680.11 1553.37 Q1681.31 1550.57 1682.63 1548.43 Q1683.96 1546.28 1685.4 1544.84 Q1689.2 1541.05 1693.35 1540.69 Q1697.51 1540.33 1700.69 1543.5 Q1702.19 1545.01 1702.98 1546.94 Q1703.76 1548.84 1704.11 1552.16 Q1704.17 1553.04 1704.26 1557.51 Q1704.32 1561.97 1704.4 1570.03 Z" fill="#000000" fill-rule="evenodd" fill-opacity="1" /><path clip-path="url(#clip450)" d="M1725.73 1548.71 L1737.27 1537.17 L1740.05 1539.95 L1724.54 1555.47 L1721.75 1552.68 Q1721.69 1548.85 1721.66 1542.34 Q1721.62 1535.79 1721.51 1534.01 Q1721.31 1530.64 1720.71 1528.79 Q1720.1 1526.9 1718.91 1525.71 Q1716.96 1523.76 1714.35 1523.91 Q1711.77 1524.04 1709.58 1526.23 Q1708.02 1527.79 1706.83 1530.06 Q1705.65 1532.32 1704.78 1535.38 L1701.44 1532.04 Q1702.64 1529.25 1703.96 1527.1 Q1705.29 1524.96 1706.73 1523.52 Q1710.52 1519.72 1714.68 1519.36 Q1718.84 1519 1722.02 1522.17 Q1723.52 1523.68 1724.31 1525.61 Q1725.09 1527.51 1725.44 1530.83 Q1725.5 1531.72 1725.58 1536.19 Q1725.65 1540.64 1725.73 1548.71 Z" fill="#000000" fill-rule="evenodd" fill-opacity="1" /><path clip-path="url(#clip450)" d="M1743.18 1528.51 L1746.63 1525.06 L1750.79 1529.21 L1747.34 1532.67 L1743.18 1528.51 M1730 1515.33 L1733.46 1511.88 L1737.61 1516.04 L1734.16 1519.49 L1730 1515.33 Z" fill="#000000" fill-rule="evenodd" fill-opacity="1" /><path clip-path="url(#clip450)" d="M1743.1 1492.38 Q1740.54 1494.94 1741.77 1498.75 Q1743 1502.53 1748.04 1507.57 Q1753.07 1512.6 1756.86 1513.84 Q1760.66 1515.05 1763.21 1512.5 Q1765.78 1509.93 1764.56 1506.15 Q1763.33 1502.34 1758.3 1497.31 Q1753.26 1492.27 1749.46 1491.06 Q1745.67 1489.81 1743.1 1492.38 M1740.48 1489.77 Q1744.59 1485.66 1750 1486.75 Q1755.42 1487.82 1761.61 1494 Q1767.78 1500.18 1768.86 1505.61 Q1769.94 1511.01 1765.83 1515.12 Q1761.72 1519.23 1756.31 1518.16 Q1750.89 1517.07 1744.72 1510.9 Q1738.53 1504.71 1737.45 1499.31 Q1736.37 1493.87 1740.48 1489.77 Z" fill="#000000" fill-rule="evenodd" fill-opacity="1" /><path clip-path="url(#clip450)" d="M1764.43 1471.06 Q1761.87 1473.61 1763.1 1477.42 Q1764.33 1481.2 1769.37 1486.25 Q1774.39 1491.27 1778.19 1492.52 Q1781.99 1493.73 1784.54 1491.17 Q1787.11 1488.6 1785.88 1484.82 Q1784.66 1481.01 1779.63 1475.98 Q1774.59 1470.94 1770.79 1469.73 Q1766.99 1468.49 1764.43 1471.06 M1761.81 1468.44 Q1765.91 1464.33 1771.33 1465.43 Q1776.75 1466.49 1782.94 1472.68 Q1789.11 1478.85 1790.19 1484.28 Q1791.27 1489.68 1787.16 1493.79 Q1783.05 1497.9 1777.63 1496.84 Q1772.22 1495.74 1766.05 1489.57 Q1759.86 1483.38 1758.78 1477.98 Q1757.7 1472.55 1761.81 1468.44 Z" fill="#000000" fill-rule="evenodd" fill-opacity="1" /><path clip-path="url(#clip450)" d="M1874.11 1570.03 L1885.65 1558.5 L1888.44 1561.28 L1872.92 1576.79 L1870.14 1574.01 Q1870.07 1570.18 1870.04 1563.67 Q1870.01 1557.12 1869.89 1555.34 Q1869.7 1551.96 1869.09 1550.11 Q1868.48 1548.23 1867.29 1547.04 Q1865.34 1545.09 1862.74 1545.24 Q1860.15 1545.37 1857.96 1547.56 Q1856.4 1549.12 1855.21 1551.39 Q1854.03 1553.65 1853.16 1556.71 L1849.82 1553.37 Q1851.02 1550.57 1852.35 1548.43 Q1853.67 1546.28 1855.11 1544.84 Q1858.91 1541.05 1863.07 1540.69 Q1867.22 1540.33 1870.4 1543.5 Q1871.91 1545.01 1872.69 1546.94 Q1873.48 1548.84 1873.82 1552.16 Q1873.89 1553.04 1873.97 1557.51 Q1874.03 1561.97 1874.11 1570.03 Z" fill="#000000" fill-rule="evenodd" fill-opacity="1" /><path clip-path="url(#clip450)" d="M1892.22 1531.14 Q1895.1 1529.28 1898.03 1529.56 Q1900.97 1529.82 1903.33 1532.18 Q1906.95 1535.79 1906.44 1540.26 Q1905.93 1544.73 1901.35 1549.31 Q1899.81 1550.85 1897.87 1552.18 Q1895.95 1553.5 1893.61 1554.63 L1890.42 1551.44 Q1892.59 1550.87 1894.64 1549.64 Q1896.69 1548.41 1898.47 1546.63 Q1901.58 1543.52 1901.97 1540.67 Q1902.38 1537.81 1900.04 1535.47 Q1897.88 1533.3 1895.15 1533.62 Q1892.41 1533.89 1889.71 1536.59 L1886.87 1539.44 L1884.15 1536.73 L1887.13 1533.75 Q1889.57 1531.31 1889.89 1529.05 Q1890.2 1526.77 1888.37 1524.94 Q1886.49 1523.06 1884.15 1523.4 Q1881.81 1523.71 1879.32 1526.2 Q1877.96 1527.56 1876.7 1529.41 Q1875.44 1531.26 1874.2 1533.75 L1871.25 1530.8 Q1872.61 1528.39 1873.98 1526.5 Q1875.38 1524.58 1876.83 1523.12 Q1880.6 1519.36 1884.51 1518.88 Q1888.4 1518.39 1891.32 1521.31 Q1893.35 1523.34 1893.59 1525.91 Q1893.82 1528.46 1892.22 1531.14 Z" fill="#000000" fill-rule="evenodd" fill-opacity="1" /><path clip-path="url(#clip450)" d="M1912.89 1528.51 L1916.34 1525.06 L1920.5 1529.21 L1917.05 1532.67 L1912.89 1528.51 M1899.71 1515.33 L1903.17 1511.88 L1907.33 1516.04 L1903.87 1519.49 L1899.71 1515.33 Z" fill="#000000" fill-rule="evenodd" fill-opacity="1" /><path clip-path="url(#clip450)" d="M1912.81 1492.38 Q1910.26 1494.94 1911.48 1498.75 Q1912.71 1502.53 1917.75 1507.57 Q1922.78 1512.6 1926.57 1513.84 Q1930.37 1515.05 1932.93 1512.5 Q1935.5 1509.93 1934.27 1506.15 Q1933.04 1502.34 1928.02 1497.31 Q1922.97 1492.27 1919.18 1491.06 Q1915.38 1489.81 1912.81 1492.38 M1910.19 1489.77 Q1914.3 1485.66 1919.72 1486.75 Q1925.13 1487.82 1931.32 1494 Q1937.49 1500.18 1938.57 1505.61 Q1939.65 1511.01 1935.54 1515.12 Q1931.44 1519.23 1926.02 1518.16 Q1920.6 1517.07 1914.43 1510.9 Q1908.24 1504.71 1907.16 1499.31 Q1906.08 1493.87 1910.19 1489.77 Z" fill="#000000" fill-rule="evenodd" fill-opacity="1" /><path clip-path="url(#clip450)" d="M1934.14 1471.06 Q1931.58 1473.61 1932.81 1477.42 Q1934.04 1481.2 1939.08 1486.25 Q1944.1 1491.27 1947.9 1492.52 Q1951.7 1493.73 1954.25 1491.17 Q1956.82 1488.6 1955.6 1484.82 Q1954.37 1481.01 1949.34 1475.98 Q1944.3 1470.94 1940.5 1469.73 Q1936.71 1468.49 1934.14 1471.06 M1931.52 1468.44 Q1935.63 1464.33 1941.04 1465.43 Q1946.46 1466.49 1952.65 1472.68 Q1958.82 1478.85 1959.9 1484.28 Q1960.98 1489.68 1956.87 1493.79 Q1952.76 1497.9 1947.35 1496.84 Q1941.93 1495.74 1935.76 1489.57 Q1929.57 1483.38 1928.49 1477.98 Q1927.41 1472.55 1931.52 1468.44 Z" fill="#000000" fill-rule="evenodd" fill-opacity="1" /><path clip-path="url(#clip450)" d="M2028.57 1546.33 Q2026.02 1548.89 2027.25 1552.7 Q2028.47 1556.48 2033.51 1561.52 Q2038.54 1566.55 2042.34 1567.79 Q2046.13 1569 2048.69 1566.45 Q2051.26 1563.88 2050.03 1560.1 Q2048.8 1556.29 2043.78 1551.26 Q2038.74 1546.22 2034.94 1545.01 Q2031.14 1543.76 2028.57 1546.33 M2025.95 1543.71 Q2030.06 1539.61 2035.48 1540.7 Q2040.9 1541.77 2047.08 1547.95 Q2053.25 1554.12 2054.33 1559.56 Q2055.42 1564.96 2051.31 1569.07 Q2047.2 1573.18 2041.78 1572.11 Q2036.36 1571.02 2030.19 1564.85 Q2024 1558.66 2022.92 1553.26 Q2021.84 1547.82 2025.95 1543.71 Z" fill="#000000" fill-rule="evenodd" fill-opacity="1" /><path clip-path="url(#clip450)" d="M2049.9 1525.01 Q2047.35 1527.56 2048.57 1531.37 Q2049.8 1535.15 2054.84 1540.2 Q2059.87 1545.22 2063.66 1546.46 Q2067.46 1547.68 2070.02 1545.12 Q2072.59 1542.55 2071.36 1538.77 Q2070.13 1534.96 2065.11 1529.93 Q2060.06 1524.89 2056.27 1523.68 Q2052.47 1522.44 2049.9 1525.01 M2047.28 1522.39 Q2051.39 1518.28 2056.81 1519.38 Q2062.22 1520.44 2068.41 1526.63 Q2074.58 1532.8 2075.66 1538.23 Q2076.74 1543.63 2072.63 1547.74 Q2068.53 1551.85 2063.11 1550.79 Q2057.69 1549.69 2051.52 1543.52 Q2045.33 1537.33 2044.25 1531.93 Q2043.17 1526.5 2047.28 1522.39 Z" fill="#000000" fill-rule="evenodd" fill-opacity="1" /><path clip-path="url(#clip450)" d="M2082.6 1528.51 L2086.06 1525.06 L2090.21 1529.21 L2086.76 1532.67 L2082.6 1528.51 M2069.43 1515.33 L2072.88 1511.88 L2077.04 1516.04 L2073.58 1519.49 L2069.43 1515.33 Z" fill="#000000" fill-rule="evenodd" fill-opacity="1" /><path clip-path="url(#clip450)" d="M2082.52 1492.38 Q2079.97 1494.94 2081.2 1498.75 Q2082.42 1502.53 2087.46 1507.57 Q2092.49 1512.6 2096.29 1513.84 Q2100.08 1515.05 2102.64 1512.5 Q2105.21 1509.93 2103.98 1506.15 Q2102.75 1502.34 2097.73 1497.31 Q2092.69 1492.27 2088.89 1491.06 Q2085.09 1489.81 2082.52 1492.38 M2079.9 1489.77 Q2084.01 1485.66 2089.43 1486.75 Q2094.85 1487.82 2101.03 1494 Q2107.2 1500.18 2108.28 1505.61 Q2109.36 1511.01 2105.26 1515.12 Q2101.15 1519.23 2095.73 1518.16 Q2090.31 1517.07 2084.14 1510.9 Q2077.95 1504.71 2076.87 1499.31 Q2075.79 1493.87 2079.9 1489.77 Z" fill="#000000" fill-rule="evenodd" fill-opacity="1" /><path clip-path="url(#clip450)" d="M2103.85 1471.06 Q2101.3 1473.61 2102.52 1477.42 Q2103.75 1481.2 2108.79 1486.25 Q2113.82 1491.27 2117.61 1492.52 Q2121.41 1493.73 2123.96 1491.17 Q2126.53 1488.6 2125.31 1484.82 Q2124.08 1481.01 2119.05 1475.98 Q2114.01 1470.94 2110.22 1469.73 Q2106.42 1468.49 2103.85 1471.06 M2101.23 1468.44 Q2105.34 1464.33 2110.76 1465.43 Q2116.17 1466.49 2122.36 1472.68 Q2128.53 1478.85 2129.61 1484.28 Q2130.69 1489.68 2126.58 1493.79 Q2122.48 1497.9 2117.06 1496.84 Q2111.64 1495.74 2105.47 1489.57 Q2099.28 1483.38 2098.2 1477.98 Q2097.12 1472.55 2101.23 1468.44 Z" fill="#000000" fill-rule="evenodd" fill-opacity="1" /><polyline clip-path="url(#clip452)" style="stroke:#000000; stroke-linecap:butt; stroke-linejoin:round; stroke-width:2; stroke-opacity:0.1; fill:none" points="
  194.422,1332.09 2352.76,1332.09 
  "/>
<polyline clip-path="url(#clip452)" style="stroke:#000000; stroke-linecap:butt; stroke-linejoin:round; stroke-width:2; stroke-opacity:0.1; fill:none" points="
  194.422,1129.88 2352.76,1129.88 
  "/>
<polyline clip-path="url(#clip452)" style="stroke:#000000; stroke-linecap:butt; stroke-linejoin:round; stroke-width:2; stroke-opacity:0.1; fill:none" points="
  194.422,927.666 2352.76,927.666 
  "/>
<polyline clip-path="url(#clip452)" style="stroke:#000000; stroke-linecap:butt; stroke-linejoin:round; stroke-width:2; stroke-opacity:0.1; fill:none" points="
  194.422,725.455 2352.76,725.455 
  "/>
<polyline clip-path="url(#clip452)" style="stroke:#000000; stroke-linecap:butt; stroke-linejoin:round; stroke-width:2; stroke-opacity:0.1; fill:none" points="
  194.422,523.244 2352.76,523.244 
  "/>
<polyline clip-path="url(#clip452)" style="stroke:#000000; stroke-linecap:butt; stroke-linejoin:round; stroke-width:2; stroke-opacity:0.1; fill:none" points="
  194.422,321.032 2352.76,321.032 
  "/>
<polyline clip-path="url(#clip450)" style="stroke:#000000; stroke-linecap:butt; stroke-linejoin:round; stroke-width:4; stroke-opacity:1; fill:none" points="
  194.422,1435.12 194.422,123.472 
  "/>
<polyline clip-path="url(#clip450)" style="stroke:#000000; stroke-linecap:butt; stroke-linejoin:round; stroke-width:4; stroke-opacity:1; fill:none" points="
  194.422,1332.09 213.32,1332.09 
  "/>
<polyline clip-path="url(#clip450)" style="stroke:#000000; stroke-linecap:butt; stroke-linejoin:round; stroke-width:4; stroke-opacity:1; fill:none" points="
  194.422,1129.88 213.32,1129.88 
  "/>
<polyline clip-path="url(#clip450)" style="stroke:#000000; stroke-linecap:butt; stroke-linejoin:round; stroke-width:4; stroke-opacity:1; fill:none" points="
  194.422,927.666 213.32,927.666 
  "/>
<polyline clip-path="url(#clip450)" style="stroke:#000000; stroke-linecap:butt; stroke-linejoin:round; stroke-width:4; stroke-opacity:1; fill:none" points="
  194.422,725.455 213.32,725.455 
  "/>
<polyline clip-path="url(#clip450)" style="stroke:#000000; stroke-linecap:butt; stroke-linejoin:round; stroke-width:4; stroke-opacity:1; fill:none" points="
  194.422,523.244 213.32,523.244 
  "/>
<polyline clip-path="url(#clip450)" style="stroke:#000000; stroke-linecap:butt; stroke-linejoin:round; stroke-width:4; stroke-opacity:1; fill:none" points="
  194.422,321.032 213.32,321.032 
  "/>
<path clip-path="url(#clip450)" d="M50.9921 1332.54 L80.6679 1332.54 L80.6679 1336.48 L50.9921 1336.48 L50.9921 1332.54 Z" fill="#000000" fill-rule="evenodd" fill-opacity="1" /><path clip-path="url(#clip450)" d="M100.76 1317.89 Q97.1493 1317.89 95.3206 1321.45 Q93.515 1324.99 93.515 1332.12 Q93.515 1339.23 95.3206 1342.79 Q97.1493 1346.34 100.76 1346.34 Q104.395 1346.34 106.2 1342.79 Q108.029 1339.23 108.029 1332.12 Q108.029 1324.99 106.2 1321.45 Q104.395 1317.89 100.76 1317.89 M100.76 1314.18 Q106.571 1314.18 109.626 1318.79 Q112.705 1323.37 112.705 1332.12 Q112.705 1340.85 109.626 1345.46 Q106.571 1350.04 100.76 1350.04 Q94.9502 1350.04 91.8715 1345.46 Q88.816 1340.85 88.816 1332.12 Q88.816 1323.37 91.8715 1318.79 Q94.9502 1314.18 100.76 1314.18 Z" fill="#000000" fill-rule="evenodd" fill-opacity="1" /><path clip-path="url(#clip450)" d="M120.922 1343.49 L125.807 1343.49 L125.807 1349.37 L120.922 1349.37 L120.922 1343.49 Z" fill="#000000" fill-rule="evenodd" fill-opacity="1" /><path clip-path="url(#clip450)" d="M148.839 1318.88 L137.033 1337.33 L148.839 1337.33 L148.839 1318.88 M147.612 1314.81 L153.492 1314.81 L153.492 1337.33 L158.422 1337.33 L158.422 1341.22 L153.492 1341.22 L153.492 1349.37 L148.839 1349.37 L148.839 1341.22 L133.237 1341.22 L133.237 1336.71 L147.612 1314.81 Z" fill="#000000" fill-rule="evenodd" fill-opacity="1" /><path clip-path="url(#clip450)" d="M53.0754 1130.33 L82.7512 1130.33 L82.7512 1134.26 L53.0754 1134.26 L53.0754 1130.33 Z" fill="#000000" fill-rule="evenodd" fill-opacity="1" /><path clip-path="url(#clip450)" d="M102.844 1115.68 Q99.2326 1115.68 97.4039 1119.24 Q95.5984 1122.78 95.5984 1129.91 Q95.5984 1137.02 97.4039 1140.58 Q99.2326 1144.13 102.844 1144.13 Q106.478 1144.13 108.283 1140.58 Q110.112 1137.02 110.112 1129.91 Q110.112 1122.78 108.283 1119.24 Q106.478 1115.68 102.844 1115.68 M102.844 1111.97 Q108.654 1111.97 111.709 1116.58 Q114.788 1121.16 114.788 1129.91 Q114.788 1138.64 111.709 1143.25 Q108.654 1147.83 102.844 1147.83 Q97.0335 1147.83 93.9549 1143.25 Q90.8993 1138.64 90.8993 1129.91 Q90.8993 1121.16 93.9549 1116.58 Q97.0335 1111.97 102.844 1111.97 Z" fill="#000000" fill-rule="evenodd" fill-opacity="1" /><path clip-path="url(#clip450)" d="M123.006 1141.28 L127.89 1141.28 L127.89 1147.16 L123.006 1147.16 L123.006 1141.28 Z" fill="#000000" fill-rule="evenodd" fill-opacity="1" /><path clip-path="url(#clip450)" d="M142.103 1143.22 L158.422 1143.22 L158.422 1147.16 L136.478 1147.16 L136.478 1143.22 Q139.14 1140.47 143.723 1135.84 Q148.33 1131.19 149.51 1129.84 Q151.755 1127.32 152.635 1125.58 Q153.538 1123.82 153.538 1122.13 Q153.538 1119.38 151.593 1117.64 Q149.672 1115.91 146.57 1115.91 Q144.371 1115.91 141.918 1116.67 Q139.487 1117.44 136.709 1118.99 L136.709 1114.26 Q139.533 1113.13 141.987 1112.55 Q144.441 1111.97 146.478 1111.97 Q151.848 1111.97 155.042 1114.66 Q158.237 1117.34 158.237 1121.83 Q158.237 1123.96 157.427 1125.88 Q156.64 1127.78 154.533 1130.38 Q153.955 1131.05 150.853 1134.26 Q147.751 1137.46 142.103 1143.22 Z" fill="#000000" fill-rule="evenodd" fill-opacity="1" /><path clip-path="url(#clip450)" d="M101.246 913.465 Q97.6354 913.465 95.8067 917.03 Q94.0012 920.571 94.0012 927.701 Q94.0012 934.807 95.8067 938.372 Q97.6354 941.914 101.246 941.914 Q104.881 941.914 106.686 938.372 Q108.515 934.807 108.515 927.701 Q108.515 920.571 106.686 917.03 Q104.881 913.465 101.246 913.465 M101.246 909.761 Q107.057 909.761 110.112 914.368 Q113.191 918.951 113.191 927.701 Q113.191 936.428 110.112 941.034 Q107.057 945.617 101.246 945.617 Q95.4363 945.617 92.3576 941.034 Q89.3021 936.428 89.3021 927.701 Q89.3021 918.951 92.3576 914.368 Q95.4363 909.761 101.246 909.761 Z" fill="#000000" fill-rule="evenodd" fill-opacity="1" /><path clip-path="url(#clip450)" d="M121.408 939.067 L126.293 939.067 L126.293 944.946 L121.408 944.946 L121.408 939.067 Z" fill="#000000" fill-rule="evenodd" fill-opacity="1" /><path clip-path="url(#clip450)" d="M146.478 913.465 Q142.867 913.465 141.038 917.03 Q139.232 920.571 139.232 927.701 Q139.232 934.807 141.038 938.372 Q142.867 941.914 146.478 941.914 Q150.112 941.914 151.918 938.372 Q153.746 934.807 153.746 927.701 Q153.746 920.571 151.918 917.03 Q150.112 913.465 146.478 913.465 M146.478 909.761 Q152.288 909.761 155.343 914.368 Q158.422 918.951 158.422 927.701 Q158.422 936.428 155.343 941.034 Q152.288 945.617 146.478 945.617 Q140.668 945.617 137.589 941.034 Q134.533 936.428 134.533 927.701 Q134.533 918.951 137.589 914.368 Q140.668 909.761 146.478 909.761 Z" fill="#000000" fill-rule="evenodd" fill-opacity="1" /><path clip-path="url(#clip450)" d="M102.844 711.254 Q99.2326 711.254 97.4039 714.818 Q95.5984 718.36 95.5984 725.49 Q95.5984 732.596 97.4039 736.161 Q99.2326 739.702 102.844 739.702 Q106.478 739.702 108.283 736.161 Q110.112 732.596 110.112 725.49 Q110.112 718.36 108.283 714.818 Q106.478 711.254 102.844 711.254 M102.844 707.55 Q108.654 707.55 111.709 712.156 Q114.788 716.74 114.788 725.49 Q114.788 734.216 111.709 738.823 Q108.654 743.406 102.844 743.406 Q97.0335 743.406 93.9549 738.823 Q90.8993 734.216 90.8993 725.49 Q90.8993 716.74 93.9549 712.156 Q97.0335 707.55 102.844 707.55 Z" fill="#000000" fill-rule="evenodd" fill-opacity="1" /><path clip-path="url(#clip450)" d="M123.006 736.855 L127.89 736.855 L127.89 742.735 L123.006 742.735 L123.006 736.855 Z" fill="#000000" fill-rule="evenodd" fill-opacity="1" /><path clip-path="url(#clip450)" d="M142.103 738.8 L158.422 738.8 L158.422 742.735 L136.478 742.735 L136.478 738.8 Q139.14 736.045 143.723 731.415 Q148.33 726.763 149.51 725.42 Q151.755 722.897 152.635 721.161 Q153.538 719.402 153.538 717.712 Q153.538 714.957 151.593 713.221 Q149.672 711.485 146.57 711.485 Q144.371 711.485 141.918 712.249 Q139.487 713.013 136.709 714.564 L136.709 709.842 Q139.533 708.707 141.987 708.129 Q144.441 707.55 146.478 707.55 Q151.848 707.55 155.042 710.235 Q158.237 712.92 158.237 717.411 Q158.237 719.541 157.427 721.462 Q156.64 723.36 154.533 725.953 Q153.955 726.624 150.853 729.841 Q147.751 733.036 142.103 738.8 Z" fill="#000000" fill-rule="evenodd" fill-opacity="1" /><path clip-path="url(#clip450)" d="M100.76 509.042 Q97.1493 509.042 95.3206 512.607 Q93.515 516.149 93.515 523.278 Q93.515 530.385 95.3206 533.949 Q97.1493 537.491 100.76 537.491 Q104.395 537.491 106.2 533.949 Q108.029 530.385 108.029 523.278 Q108.029 516.149 106.2 512.607 Q104.395 509.042 100.76 509.042 M100.76 505.339 Q106.571 505.339 109.626 509.945 Q112.705 514.528 112.705 523.278 Q112.705 532.005 109.626 536.611 Q106.571 541.195 100.76 541.195 Q94.9502 541.195 91.8715 536.611 Q88.816 532.005 88.816 523.278 Q88.816 514.528 91.8715 509.945 Q94.9502 505.339 100.76 505.339 Z" fill="#000000" fill-rule="evenodd" fill-opacity="1" /><path clip-path="url(#clip450)" d="M120.922 534.644 L125.807 534.644 L125.807 540.524 L120.922 540.524 L120.922 534.644 Z" fill="#000000" fill-rule="evenodd" fill-opacity="1" /><path clip-path="url(#clip450)" d="M148.839 510.038 L137.033 528.487 L148.839 528.487 L148.839 510.038 M147.612 505.964 L153.492 505.964 L153.492 528.487 L158.422 528.487 L158.422 532.375 L153.492 532.375 L153.492 540.524 L148.839 540.524 L148.839 532.375 L133.237 532.375 L133.237 527.862 L147.612 505.964 Z" fill="#000000" fill-rule="evenodd" fill-opacity="1" /><path clip-path="url(#clip450)" d="M101.084 306.831 Q97.4734 306.831 95.6447 310.396 Q93.8391 313.937 93.8391 321.067 Q93.8391 328.173 95.6447 331.738 Q97.4734 335.28 101.084 335.28 Q104.719 335.28 106.524 331.738 Q108.353 328.173 108.353 321.067 Q108.353 313.937 106.524 310.396 Q104.719 306.831 101.084 306.831 M101.084 303.127 Q106.895 303.127 109.95 307.734 Q113.029 312.317 113.029 321.067 Q113.029 329.794 109.95 334.4 Q106.895 338.983 101.084 338.983 Q95.2743 338.983 92.1956 334.4 Q89.1401 329.794 89.1401 321.067 Q89.1401 312.317 92.1956 307.734 Q95.2743 303.127 101.084 303.127 Z" fill="#000000" fill-rule="evenodd" fill-opacity="1" /><path clip-path="url(#clip450)" d="M121.246 332.433 L126.131 332.433 L126.131 338.312 L121.246 338.312 L121.246 332.433 Z" fill="#000000" fill-rule="evenodd" fill-opacity="1" /><path clip-path="url(#clip450)" d="M146.894 319.169 Q143.746 319.169 141.894 321.322 Q140.066 323.474 140.066 327.224 Q140.066 330.951 141.894 333.127 Q143.746 335.28 146.894 335.28 Q150.043 335.28 151.871 333.127 Q153.723 330.951 153.723 327.224 Q153.723 323.474 151.871 321.322 Q150.043 319.169 146.894 319.169 M156.177 304.516 L156.177 308.775 Q154.417 307.942 152.612 307.502 Q150.83 307.062 149.07 307.062 Q144.441 307.062 141.987 310.187 Q139.556 313.312 139.209 319.632 Q140.575 317.618 142.635 316.553 Q144.695 315.465 147.172 315.465 Q152.38 315.465 155.39 318.636 Q158.422 321.784 158.422 327.224 Q158.422 332.548 155.274 335.766 Q152.126 338.983 146.894 338.983 Q140.899 338.983 137.728 334.4 Q134.556 329.794 134.556 321.067 Q134.556 312.872 138.445 308.011 Q142.334 303.127 148.885 303.127 Q150.644 303.127 152.427 303.474 Q154.232 303.822 156.177 304.516 Z" fill="#000000" fill-rule="evenodd" fill-opacity="1" /><path clip-path="url(#clip450)" d="M1148.27 63.9476 L1148.27 47.7034 L1134.91 47.7034 L1134.91 40.9789 L1156.38 40.9789 L1156.38 66.9452 Q1151.64 70.3075 1145.92 72.0494 Q1140.21 73.7508 1133.73 73.7508 Q1119.55 73.7508 1111.53 65.4869 Q1103.55 57.1826 1103.55 42.3968 Q1103.55 27.5705 1111.53 19.3066 Q1119.55 11.0023 1133.73 11.0023 Q1139.65 11.0023 1144.95 12.4606 Q1150.3 13.9189 1154.8 16.7545 L1154.8 25.464 Q1150.26 21.6156 1145.16 19.6712 Q1140.05 17.7268 1134.42 17.7268 Q1123.32 17.7268 1117.73 23.9246 Q1112.18 30.1225 1112.18 42.3968 Q1112.18 54.6305 1117.73 60.8284 Q1123.32 67.0263 1134.42 67.0263 Q1138.75 67.0263 1142.16 66.2971 Q1145.56 65.5274 1148.27 63.9476 Z" fill="#000000" fill-rule="evenodd" fill-opacity="1" /><path clip-path="url(#clip450)" d="M1191.62 49.7694 Q1182.59 49.7694 1179.1 51.8354 Q1175.62 53.9013 1175.62 58.8839 Q1175.62 62.8538 1178.21 65.2034 Q1180.84 67.5124 1185.34 67.5124 Q1191.54 67.5124 1195.26 63.1374 Q1199.03 58.7219 1199.03 51.4303 L1199.03 49.7694 L1191.62 49.7694 M1206.49 46.6907 L1206.49 72.576 L1199.03 72.576 L1199.03 65.6895 Q1196.48 69.8214 1192.67 71.8063 Q1188.86 73.7508 1183.36 73.7508 Q1176.39 73.7508 1172.26 69.8619 Q1168.16 65.9325 1168.16 59.3701 Q1168.16 51.7138 1173.27 47.825 Q1178.41 43.9361 1188.58 43.9361 L1199.03 43.9361 L1199.03 43.2069 Q1199.03 38.0623 1195.63 35.2672 Q1192.27 32.4315 1186.15 32.4315 Q1182.26 32.4315 1178.58 33.3632 Q1174.89 34.295 1171.49 36.1584 L1171.49 29.2718 Q1175.58 27.692 1179.43 26.9223 Q1183.27 26.1121 1186.92 26.1121 Q1196.76 26.1121 1201.62 31.2163 Q1206.49 36.3204 1206.49 46.6907 Z" fill="#000000" fill-rule="evenodd" fill-opacity="1" /><path clip-path="url(#clip450)" d="M1221.07 54.671 L1221.07 27.2059 L1228.52 27.2059 L1228.52 54.3874 Q1228.52 60.8284 1231.03 64.0691 Q1233.55 67.2693 1238.57 67.2693 Q1244.6 67.2693 1248.09 63.421 Q1251.61 59.5726 1251.61 52.9291 L1251.61 27.2059 L1259.07 27.2059 L1259.07 72.576 L1251.61 72.576 L1251.61 65.6084 Q1248.9 69.7404 1245.29 71.7658 Q1241.73 73.7508 1236.99 73.7508 Q1229.17 73.7508 1225.12 68.8897 Q1221.07 64.0286 1221.07 54.671 M1239.82 26.1121 L1239.82 26.1121 Z" fill="#000000" fill-rule="evenodd" fill-opacity="1" /><path clip-path="url(#clip450)" d="M1304.27 49.3643 Q1304.27 41.2625 1300.91 36.8065 Q1297.59 32.3505 1291.55 32.3505 Q1285.56 32.3505 1282.2 36.8065 Q1278.88 41.2625 1278.88 49.3643 Q1278.88 57.4256 1282.2 61.8816 Q1285.56 66.3376 1291.55 66.3376 Q1297.59 66.3376 1300.91 61.8816 Q1304.27 57.4256 1304.27 49.3643 M1311.73 66.9452 Q1311.73 78.5308 1306.58 84.1616 Q1301.44 89.8329 1290.83 89.8329 Q1286.9 89.8329 1283.41 89.2252 Q1279.93 88.6581 1276.65 87.4428 L1276.65 80.1917 Q1279.93 81.9741 1283.13 82.8248 Q1286.33 83.6755 1289.65 83.6755 Q1296.98 83.6755 1300.63 79.8271 Q1304.27 76.0193 1304.27 68.282 L1304.27 64.5957 Q1301.97 68.6061 1298.36 70.5911 Q1294.75 72.576 1289.73 72.576 Q1281.39 72.576 1276.28 66.2161 Q1271.18 59.8562 1271.18 49.3643 Q1271.18 38.832 1276.28 32.472 Q1281.39 26.1121 1289.73 26.1121 Q1294.75 26.1121 1298.36 28.0971 Q1301.97 30.082 1304.27 34.0924 L1304.27 27.2059 L1311.73 27.2059 L1311.73 66.9452 Z" fill="#000000" fill-rule="evenodd" fill-opacity="1" /><path clip-path="url(#clip450)" d="M1365.89 48.0275 L1365.89 51.6733 L1331.62 51.6733 Q1332.1 59.3701 1336.24 63.421 Q1340.41 67.4314 1347.82 67.4314 Q1352.12 67.4314 1356.13 66.3781 Q1360.18 65.3249 1364.15 63.2184 L1364.15 70.267 Q1360.14 71.9684 1355.92 72.8596 Q1351.71 73.7508 1347.38 73.7508 Q1336.52 73.7508 1330.16 67.4314 Q1323.84 61.1119 1323.84 50.3365 Q1323.84 39.1965 1329.84 32.6746 Q1335.87 26.1121 1346.08 26.1121 Q1355.23 26.1121 1360.54 32.0264 Q1365.89 37.9003 1365.89 48.0275 M1358.44 45.84 Q1358.35 39.7232 1354.99 36.0774 Q1351.67 32.4315 1346.16 32.4315 Q1339.92 32.4315 1336.16 35.9558 Q1332.43 39.4801 1331.86 45.8805 L1358.44 45.84 Z" fill="#000000" fill-rule="evenodd" fill-opacity="1" /><path clip-path="url(#clip450)" d="M1405.79 71.3202 L1405.79 63.8666 Q1408.87 65.3249 1412.03 66.0946 Q1415.19 66.8642 1418.23 66.8642 Q1426.33 66.8642 1430.58 61.436 Q1434.88 55.9673 1435.48 44.8678 Q1433.13 48.3516 1429.53 50.215 Q1425.92 52.0784 1421.55 52.0784 Q1412.47 52.0784 1407.17 46.6097 Q1401.9 41.1005 1401.9 31.5808 Q1401.9 22.2638 1407.41 16.633 Q1412.92 11.0023 1422.07 11.0023 Q1432.57 11.0023 1438.08 19.0636 Q1443.63 27.0843 1443.63 42.3968 Q1443.63 56.6965 1436.82 65.2439 Q1430.06 73.7508 1418.59 73.7508 Q1415.51 73.7508 1412.35 73.1431 Q1409.19 72.5355 1405.79 71.3202 M1422.07 45.678 Q1427.58 45.678 1430.78 41.9107 Q1434.03 38.1433 1434.03 31.5808 Q1434.03 25.0589 1430.78 21.2916 Q1427.58 17.4837 1422.07 17.4837 Q1416.57 17.4837 1413.32 21.2916 Q1410.12 25.0589 1410.12 31.5808 Q1410.12 38.1433 1413.32 41.9107 Q1416.57 45.678 1422.07 45.678 Z" fill="#000000" fill-rule="evenodd" fill-opacity="1" /><polyline clip-path="url(#clip452)" style="stroke:#009af9; stroke-linecap:butt; stroke-linejoin:round; stroke-width:4; stroke-opacity:1; fill:none" points="
  255.507,927.666 255.554,927.666 257.487,927.666 259.42,927.666 261.353,927.666 263.285,927.666 265.218,927.666 267.198,927.666 269.131,927.666 271.064,927.666 
  272.997,927.666 274.93,927.666 276.862,927.666 278.795,927.666 280.728,927.666 282.661,927.666 283.792,927.666 285.725,927.666 287.658,927.666 289.591,927.666 
  291.524,927.666 293.456,927.666 295.436,927.666 297.369,927.666 299.302,927.666 301.235,927.666 303.168,927.666 305.101,927.666 307.033,927.666 308.966,927.666 
  310.899,927.666 312.078,927.666 314.01,927.666 315.943,927.666 317.876,927.666 319.809,927.666 321.742,927.666 323.722,927.666 325.655,927.666 327.587,927.666 
  329.52,927.666 331.453,927.666 333.386,927.666 335.319,927.666 337.252,927.666 339.184,927.666 340.363,927.666 342.296,927.666 344.229,927.666 346.161,927.666 
  348.094,927.666 350.027,927.666 352.007,927.666 353.94,927.666 355.873,927.666 357.806,927.666 359.738,927.666 361.671,927.666 363.604,927.666 365.537,927.666 
  367.47,927.666 368.648,927.666 370.581,927.666 372.514,927.666 374.447,927.666 376.38,927.666 378.312,927.666 380.292,927.666 382.225,927.666 384.158,927.666 
  386.091,927.666 388.024,927.666 389.956,927.666 391.889,927.666 393.822,927.666 395.755,927.666 396.933,927.666 398.866,927.666 400.799,927.666 402.732,927.666 
  404.665,927.666 406.598,927.666 408.578,927.666 410.51,927.666 412.443,927.666 414.376,927.666 416.309,927.666 418.242,927.666 420.175,927.666 422.107,927.666 
  424.04,927.666 425.219,927.666 427.152,927.666 429.084,927.666 431.017,927.666 432.95,927.666 434.883,927.666 436.863,927.666 438.796,927.666 440.729,927.666 
  442.661,927.666 444.594,927.666 446.527,927.666 448.46,927.666 450.393,927.666 452.326,927.666 453.504,927.666 455.437,927.666 457.37,927.666 459.303,927.666 
  461.235,927.666 463.168,927.666 465.148,927.666 467.081,927.666 469.014,927.666 470.947,927.666 472.88,927.666 474.812,927.666 476.745,927.666 478.678,927.666 
  480.611,927.666 481.789,927.666 483.722,927.666 485.655,927.666 487.588,927.666 489.521,927.666 491.454,927.666 493.433,927.666 495.366,927.666 497.299,927.666 
  499.232,927.666 501.165,927.666 503.098,927.666 505.03,927.666 506.963,927.666 508.896,927.666 510.075,927.666 512.007,927.666 513.94,927.666 515.873,927.666 
  517.806,927.666 519.739,927.666 521.719,927.666 523.652,927.666 525.584,927.666 527.517,927.666 529.45,927.666 531.383,927.666 533.316,927.666 535.249,927.666 
  537.181,927.666 538.36,927.666 540.293,927.666 542.226,927.666 544.158,927.666 546.091,927.666 548.024,927.666 550.004,927.666 551.937,927.666 553.87,927.666 
  555.803,927.666 557.735,927.666 559.668,927.666 561.601,927.666 563.534,927.666 565.467,927.666 566.645,927.666 568.578,927.666 570.511,927.666 572.444,927.666 
  574.377,927.666 576.309,927.666 578.289,927.666 580.222,927.666 582.155,927.666 584.088,927.666 586.021,927.666 587.954,927.666 589.886,927.666 591.819,927.666 
  593.752,927.666 594.931,927.666 596.863,927.666 598.796,927.666 600.729,927.666 602.662,927.666 604.595,927.666 606.575,927.666 608.507,927.666 610.44,927.666 
  612.373,927.666 614.306,927.666 616.239,927.666 618.172,927.666 620.104,927.666 622.037,927.666 623.216,927.666 625.149,927.666 627.081,927.666 629.014,927.666 
  630.947,927.666 632.88,927.666 634.86,927.666 636.793,927.666 638.726,927.666 640.658,927.666 642.591,927.666 644.524,927.666 646.457,927.666 648.39,927.666 
  650.323,927.666 651.501,927.666 653.434,927.666 655.367,927.666 657.3,927.666 659.232,927.666 661.165,927.666 663.145,927.666 665.078,927.666 667.011,927.666 
  668.944,927.666 670.877,927.666 672.809,927.666 674.742,927.666 676.675,927.666 678.608,927.666 679.786,927.666 681.719,927.666 683.652,927.666 685.585,927.666 
  687.518,927.666 689.451,927.666 691.431,927.666 693.363,927.666 695.296,927.666 697.229,927.666 699.162,927.666 701.095,927.666 703.028,927.666 704.96,927.666 
  706.893,927.666 708.072,927.666 710.005,927.666 711.937,927.666 713.87,927.666 715.803,927.666 717.736,927.666 719.716,927.666 721.649,927.666 723.581,927.666 
  725.514,927.666 727.447,927.666 729.38,927.666 731.313,927.666 733.246,927.666 735.178,927.666 736.357,927.666 738.29,927.666 740.223,927.666 742.155,927.666 
  744.088,927.666 746.021,927.666 747.954,927.666 749.934,927.666 751.867,927.666 753.8,927.666 755.732,927.666 757.665,927.666 759.598,927.666 761.531,927.666 
  763.464,927.666 764.642,927.666 766.575,927.666 768.508,927.666 770.441,927.666 772.374,927.666 774.306,927.666 776.239,927.666 778.219,927.666 780.152,927.666 
  782.085,927.666 784.018,927.666 785.951,927.666 787.883,927.666 789.816,927.666 791.749,927.666 792.928,927.666 794.86,927.666 796.793,927.666 798.726,927.666 
  800.659,927.666 802.592,927.666 804.525,927.666 806.505,927.666 808.437,927.666 810.37,927.666 812.303,927.666 814.236,927.666 816.169,927.666 818.102,927.666 
  820.034,927.666 821.213,927.666 823.146,927.666 825.079,927.666 827.011,927.666 828.944,927.666 830.877,927.666 832.81,927.666 834.79,927.666 836.723,927.666 
  838.655,927.666 840.588,927.666 842.521,927.666 844.454,927.666 846.387,927.666 848.32,927.666 849.498,927.666 851.431,927.666 853.364,927.666 855.297,927.666 
  857.229,927.666 859.162,927.666 861.095,927.666 863.075,927.666 865.008,927.666 866.941,927.666 868.874,927.666 870.806,927.666 872.739,927.666 874.672,927.666 
  876.605,927.666 877.783,927.666 879.716,927.666 881.649,927.666 883.582,927.666 885.515,927.666 887.448,927.666 889.38,927.666 891.36,927.666 893.293,927.666 
  895.226,927.666 897.159,927.666 899.092,927.666 901.025,927.666 902.957,927.666 904.89,927.666 906.069,927.666 908.002,927.666 909.934,927.666 911.867,927.666 
  913.8,927.666 915.733,927.666 917.666,927.666 919.646,927.666 921.579,927.666 923.511,927.666 925.444,927.666 927.377,927.666 929.31,927.666 931.243,927.666 
  933.176,927.666 934.354,927.666 936.287,927.666 938.22,927.666 940.153,927.666 942.085,927.666 944.018,927.666 945.951,927.666 947.931,927.666 949.864,927.666 
  951.797,927.666 953.729,927.666 955.662,927.666 957.595,927.666 959.528,927.666 961.461,927.666 962.639,927.666 964.572,927.666 966.505,927.666 968.438,927.666 
  970.371,927.666 972.303,927.666 974.236,927.666 976.216,927.666 978.149,927.666 980.082,927.666 982.015,927.666 983.948,927.666 985.88,927.666 987.813,927.666 
  989.746,927.666 990.925,927.666 992.857,927.666 994.79,927.666 996.723,927.666 998.656,927.666 1000.59,927.666 1002.52,927.666 1004.5,927.666 1006.43,927.666 
  1008.37,927.666 1010.3,927.666 1012.23,927.666 1014.17,927.666 1016.1,927.666 1018.03,927.666 1019.21,927.666 1021.14,927.666 1023.08,927.666 1025.01,927.666 
  1026.94,927.666 1028.87,927.666 1030.81,927.666 1032.79,927.666 1034.72,927.666 1036.65,927.666 1038.59,927.666 1040.52,927.666 1042.45,927.666 1044.38,927.666 
  1046.32,927.666 1047.5,927.666 1049.43,927.666 1051.36,927.666 1053.29,927.666 1055.23,927.666 1057.16,927.666 1059.09,927.666 1061.07,927.666 1063,927.666 
  1064.94,927.666 1066.87,927.666 1068.8,927.666 1070.74,927.666 1072.67,927.666 1074.6,927.666 1075.78,927.666 1077.71,927.666 1079.65,927.666 1081.58,927.666 
  1083.51,927.666 1085.44,927.666 1087.38,927.666 1089.36,927.666 1091.29,927.666 1093.22,927.666 1095.16,927.666 1097.09,927.666 1099.02,927.666 1100.95,927.666 
  1102.89,927.666 1104.07,927.666 1106,927.666 1107.93,927.666 1109.86,927.666 1111.8,927.666 1113.73,927.666 1115.66,927.666 1117.64,927.666 1119.58,927.666 
  1121.51,927.666 1123.44,927.666 1125.37,927.666 1127.31,927.666 1129.24,927.666 1131.17,927.666 1132.35,927.666 1134.28,927.666 1136.22,927.666 1138.15,927.666 
  1140.08,927.666 1142.02,927.666 1143.95,927.666 1145.93,927.666 1147.86,927.666 1149.79,927.666 1151.73,927.666 1153.66,927.666 1155.59,927.666 1157.53,927.666 
  1159.46,927.666 1160.64,927.666 1162.57,927.666 1164.5,927.666 1166.43,927.666 1168.37,927.666 1170.3,927.666 1172.23,927.666 1174.21,927.666 1176.15,927.666 
  1178.08,927.666 1180.01,927.666 1181.94,927.666 1183.88,927.666 1185.81,927.666 1187.74,927.666 1188.92,927.666 1190.85,927.666 1192.79,927.666 1194.72,927.666 
  1196.65,927.666 1198.59,927.666 1200.52,927.666 1202.5,927.666 1204.43,927.666 1206.36,927.666 1208.3,927.666 1210.23,927.666 1212.16,927.666 1214.1,927.666 
  1216.03,927.666 1217.21,927.666 1219.14,927.666 1221.07,927.666 1223.01,927.666 1224.94,927.666 1226.87,927.666 1228.8,927.666 1230.78,927.666 1232.72,927.666 
  1234.65,927.666 1236.58,927.666 1238.52,927.666 1240.45,927.666 1242.38,927.666 1244.31,927.666 1245.49,927.666 1247.43,927.666 1249.36,927.666 1251.29,927.666 
  1253.22,927.666 1255.16,927.666 1257.09,927.666 1259.07,927.666 1261,927.666 1262.93,927.666 1264.87,927.666 1266.8,927.666 1268.73,927.666 1270.67,927.666 
  1272.6,927.666 1273.78,927.666 1275.71,927.666 1277.64,927.666 1279.58,927.666 1281.51,927.666 1283.44,927.666 1285.37,927.666 1287.35,927.666 1289.29,927.666 
  1291.22,927.666 1293.15,927.666 1295.09,927.666 1297.02,927.666 1298.95,927.666 1300.88,927.666 1302.06,927.666 1304,927.666 1305.93,927.666 1307.86,927.666 
  1309.79,927.666 1311.73,927.666 1313.66,927.666 1315.64,927.666 1317.57,927.666 1319.51,927.666 1321.44,927.666 1323.37,927.666 1325.3,927.666 1327.24,927.666 
  1329.17,927.666 1330.35,927.666 1332.28,927.666 1334.21,927.666 1336.15,927.666 1338.08,927.666 1340.01,927.666 1341.95,927.666 1343.93,927.666 1345.86,927.666 
  1347.79,927.666 1349.72,927.666 1351.66,927.666 1353.59,927.666 1355.52,927.666 1357.45,927.666 1358.63,927.666 1360.57,927.666 1362.5,927.666 1364.43,927.666 
  1366.36,927.666 1368.3,927.666 1370.23,927.666 1372.21,927.666 1374.14,927.666 1376.08,927.666 1378.01,927.666 1379.94,927.666 1381.87,927.666 1383.81,927.666 
  1385.74,927.666 1386.92,927.666 1388.85,927.666 1390.78,927.666 1392.72,927.666 1394.65,927.666 1396.58,927.666 1398.52,927.666 1400.5,927.666 1402.43,927.666 
  1402.9,927.666 1403.37,927.666 1403.84,927.666 1404.36,927.666 1404.83,927.666 1405.3,927.666 1405.82,927.666 1406.29,927.666 1406.77,927.666 1407.24,927.666 
  1407.76,927.666 1408.23,927.666 1408.7,927.666 1409.17,927.666 1409.69,927.666 1410.16,927.666 1410.63,927.666 1411.15,927.666 1411.62,927.665 1412.09,927.665 
  1412.56,927.665 1413.08,927.665 1413.55,927.665 1414.03,927.665 1414.4,927.665 1414.83,927.665 1415.2,927.665 1415.68,927.665 1416.19,927.665 1416.67,927.665 
  1417.14,927.665 1417.61,927.665 1418.13,927.665 1418.6,927.665 1419.07,927.665 1419.54,927.665 1420.06,927.665 1420.53,927.665 1421,927.665 1421.52,927.665 
  1421.99,927.665 1422.46,927.665 1422.94,927.665 1423.45,927.664 1423.93,927.664 1424.4,927.664 1424.87,927.664 1425.39,927.664 1425.86,927.664 1426.33,927.664 
  1426.8,927.664 1427.32,927.664 1427.79,927.664 1428.26,927.664 1428.78,927.664 1429.25,927.663 1429.72,927.663 1430.2,927.663 1430.71,927.663 1431.19,927.663 
  1431.66,927.663 1432.13,927.663 1432.65,927.662 1433.12,927.662 1433.59,927.662 1434.11,927.662 1434.58,927.662 1435.05,927.662 1435.52,927.661 1436.04,927.661 
  1436.51,927.661 1436.98,927.661 1437.46,927.66 1437.97,927.66 1438.45,927.66 1438.92,927.659 1439.44,927.659 1439.91,927.659 1440.38,927.658 1440.85,927.658 
  1441.37,927.658 1441.84,927.657 1442.31,927.657 1442.69,927.656 1443.11,927.656 1443.49,927.655 1443.96,927.655 1444.48,927.654 1444.95,927.654 1445.42,927.653 
  1445.89,927.652 1446.41,927.651 1446.88,927.65 1447.35,927.649 1447.83,927.648 1448.34,927.646 1448.82,927.644 1449.29,927.642 1449.81,927.64 1450.28,927.637 
  1450.75,927.634 1451.22,927.631 1451.74,927.627 1452.21,927.623 1452.68,927.619 1453.15,927.614 1453.67,927.608 1454.14,927.602 1454.61,927.596 1455.09,927.588 
  1455.6,927.58 1456.08,927.571 1456.55,927.562 1457.07,927.551 1457.54,927.54 1458.01,927.527 1458.48,927.513 1459,927.498 1459.47,927.482 1459.94,927.465 
  1460.41,927.446 1460.93,927.425 1461.4,927.403 1461.87,927.379 1462.39,927.353 1462.86,927.325 1463.34,927.295 1463.81,927.263 1464.33,927.228 1464.8,927.191 
  1465.27,927.151 1465.74,927.108 1466.26,927.063 1466.73,927.014 1467.2,926.961 1467.72,926.906 1468.19,926.846 1468.66,926.783 1469.13,926.715 1469.65,926.643 
  1470.12,926.567 1470.6,926.486 1470.97,926.417 1471.4,926.344 1471.77,926.268 1472.25,926.169 1472.76,926.064 1473.24,925.953 1473.71,925.836 1474.18,925.712 
  1474.7,925.581 1475.17,925.444 1475.64,925.299 1476.11,925.147 1476.63,924.987 1477.1,924.819 1477.57,924.643 1478.09,924.458 1478.56,924.264 1479.03,924.062 
  1479.51,923.849 1480.02,923.627 1480.5,923.395 1480.97,923.153 1481.44,922.9 1481.96,922.636 1482.43,922.36 1482.9,922.073 1483.37,921.775 1483.89,921.464 
  1484.36,921.141 1484.83,920.805 1485.35,920.456 1485.82,920.094 1486.29,919.718 1486.77,919.328 1487.28,918.924 1487.76,918.506 1488.23,918.073 1488.7,917.625 
  1489.22,917.162 1489.69,916.684 1490.16,916.19 1490.68,915.68 1491.15,915.154 1491.62,914.612 1492.09,914.053 1492.61,913.478 1493.08,912.886 1493.55,912.277 
  1494.03,911.651 1494.54,911.007 1495.02,910.346 1495.49,909.668 1496.01,908.972 1496.48,908.258 1496.95,907.527 1497.42,906.778 1497.94,906.011 1498.41,905.226 
  1498.88,904.424 1499.26,903.764 1499.68,903.093 1500.06,902.41 1500.53,901.547 1501.05,900.666 1501.52,899.767 1501.99,898.851 1502.46,897.918 1502.98,896.968 
  1503.45,896.001 1503.93,895.018 1504.4,894.018 1504.92,893.002 1505.39,891.97 1505.86,890.923 1506.38,889.86 1506.85,888.783 1507.32,887.691 1507.79,886.584 
  1508.31,885.464 1508.78,884.331 1509.25,883.185 1509.72,882.026 1510.24,880.856 1510.71,879.674 1511.19,878.481 1511.66,877.278 1512.18,876.065 1512.65,874.843 
  1513.12,873.612 1513.64,872.374 1514.11,871.128 1514.58,869.875 1515.05,868.617 1515.57,867.354 1516.04,866.086 1516.51,864.814 1516.98,863.54 1517.5,862.263 
  1517.97,860.985 1518.45,859.706 1518.96,858.428 1519.44,857.151 1519.91,855.876 1520.38,854.604 1520.9,853.335 1521.37,852.072 1521.84,850.814 1522.31,849.562 
  1522.83,848.319 1523.3,847.083 1523.77,845.857 1524.29,844.642 1524.76,843.437 1525.23,842.246 1525.71,841.067 1526.22,839.903 1526.7,838.754 1527.17,837.622 
  1527.54,836.725 1527.97,835.841 1528.35,834.968 1528.82,833.9 1529.34,832.852 1529.81,831.827 1530.28,830.824 1530.75,829.845 1531.27,828.891 1531.74,827.963 
  1532.21,827.062 1532.68,826.188 1533.2,825.343 1533.67,824.527 1534.14,823.742 1534.66,822.989 1535.13,822.268 1535.61,821.581 1536.08,820.927 1536.6,820.309 
  1537.07,819.727 1537.54,819.182 1538.01,818.675 1538.53,818.206 1539,817.777 1539.47,817.388 1539.94,817.041 1540.46,816.735 1540.93,816.471 1541.4,816.251 
  1541.92,816.075 1542.39,815.943 1542.86,815.857 1543.34,815.817 1543.85,815.823 1544.33,815.877 1544.8,815.978 1545.27,816.127 1545.79,816.325 1546.26,816.573 
  1546.73,816.87 1547.25,817.217 1547.72,817.614 1548.19,818.062 1548.66,818.562 1549.18,819.113 1549.65,819.715 1550.12,820.37 1550.6,821.076 1551.11,821.835 
  1551.59,822.646 1552.06,823.51 1552.58,824.426 1553.05,825.395 1553.52,826.417 1553.99,827.491 1554.51,828.618 1554.98,829.797 1555.45,831.029 1555.83,832.06 
  1556.25,833.125 1556.63,834.224 1557.1,835.633 1557.62,837.094 1558.09,838.606 1558.56,840.168 1559.03,841.781 1559.55,843.444 1560.02,845.156 1560.5,846.918 
  1560.97,848.728 1561.49,850.585 1561.96,852.49 1562.43,854.442 1562.95,856.44 1563.42,858.484 1563.89,860.572 1564.36,862.704 1564.88,864.88 1565.35,867.098 
  1565.82,869.358 1566.29,871.658 1566.81,873.999 1567.28,876.378 1567.76,878.796 1568.23,881.251 1568.75,883.742 1569.22,886.268 1569.69,888.828 1570.21,891.422 
  1570.68,894.048 1571.15,896.704 1571.62,899.39 1572.14,902.106 1572.61,904.848 1573.08,907.617 1573.55,910.411 1574.07,913.229 1574.54,916.07 1575.02,918.933 
  1575.53,921.815 1576.01,924.717 1576.48,927.636 1576.95,930.572 1577.47,933.522 1577.94,936.487 1578.41,939.464 1578.88,942.451 1579.4,945.449 1579.87,948.454 
  1580.34,951.467 1580.86,954.485 1581.33,957.507 1581.8,960.532 1582.28,963.559 1582.79,966.585 1583.27,969.61 1583.74,972.632 1584.11,975.059 1584.54,977.482 
  1584.92,979.9 1585.39,982.902 1585.91,985.894 1586.38,988.876 1586.85,991.846 1587.32,994.803 1587.84,997.745 1588.31,1000.67 1588.78,1003.58 1589.25,1006.47 
  1589.77,1009.34 1590.24,1012.19 1590.71,1015.01 1591.23,1017.82 1591.7,1020.59 1592.18,1023.34 1592.65,1026.06 1593.17,1028.76 1593.64,1031.42 1594.11,1034.05 
  1594.58,1036.65 1595.1,1039.21 1595.57,1041.74 1596.04,1044.23 1596.51,1046.68 1597.03,1049.1 1597.5,1051.47 1597.97,1053.8 1598.49,1056.1 1598.96,1058.34 
  1599.44,1060.55 1599.91,1062.71 1600.43,1064.82 1600.9,1066.88 1601.37,1068.9 1601.84,1070.87 1602.36,1072.79 1602.83,1074.65 1603.3,1076.47 1603.82,1078.23 
  1604.29,1079.94 1604.76,1081.6 1605.23,1083.2 1605.75,1084.75 1606.22,1086.24 1606.7,1087.67 1607.17,1089.05 1607.69,1090.36 1608.16,1091.62 1608.63,1092.83 
  1609.15,1093.97 1609.62,1095.05 1610.09,1096.07 1610.56,1097.03 1611.08,1097.93 1611.55,1098.77 1612.02,1099.55 1612.4,1100.13 1612.82,1100.67 1613.2,1101.16 
  1613.67,1101.73 1614.19,1102.23 1614.66,1102.68 1615.13,1103.05 1615.61,1103.37 1616.12,1103.63 1616.6,1103.82 1617.07,1103.95 1617.54,1104.02 1618.06,1104.02 
  1618.53,1103.97 1619,1103.85 1619.52,1103.67 1619.99,1103.43 1620.46,1103.13 1620.93,1102.76 1621.45,1102.34 1621.92,1101.86 1622.39,1101.32 1622.87,1100.72 
  1623.38,1100.06 1623.86,1099.35 1624.33,1098.57 1624.8,1097.74 1625.32,1096.86 1625.79,1095.92 1626.26,1094.92 1626.78,1093.87 1627.25,1092.77 1627.72,1091.62 
  1628.19,1090.41 1628.71,1089.15 1629.18,1087.85 1629.65,1086.49 1630.13,1085.08 1630.64,1083.63 1631.12,1082.13 1631.59,1080.59 1632.11,1079 1632.58,1077.37 
  1633.05,1075.7 1633.52,1073.98 1634.04,1072.23 1634.51,1070.43 1634.98,1068.6 1635.45,1066.73 1635.97,1064.82 1636.44,1062.88 1636.91,1060.9 1637.43,1058.9 
  1637.9,1056.86 1638.38,1054.79 1638.85,1052.69 1639.36,1050.56 1639.84,1048.41 1640.31,1046.23 1640.68,1044.46 1641.11,1042.68 1641.49,1040.88 1641.96,1038.62 
  1642.48,1036.35 1642.95,1034.05 1643.42,1031.74 1643.89,1029.41 1644.41,1027.06 1644.88,1024.71 1645.35,1022.34 1645.82,1019.95 1646.34,1017.56 1646.81,1015.16 
  1647.28,1012.75 1647.8,1010.34 1648.27,1007.91 1648.75,1005.49 1649.22,1003.06 1649.74,1000.63 1650.21,998.199 1650.68,995.769 1651.15,993.34 1651.67,990.915 
  1652.14,988.492 1652.61,986.075 1653.08,983.665 1653.6,981.261 1654.07,978.865 1654.54,976.479 1655.06,974.103 1655.53,971.738 1656.01,969.386 1656.48,967.047 
  1657,964.723 1657.47,962.413 1657.94,960.12 1658.41,957.844 1658.93,955.586 1659.4,953.347 1659.87,951.127 1660.39,948.928 1660.86,946.751 1661.33,944.595 
  1661.8,942.463 1662.32,940.354 1662.79,938.27 1663.27,936.211 1663.74,934.178 1664.26,932.172 1664.73,930.192 1665.2,928.241 1665.72,926.318 1666.19,924.424 
  1666.66,922.56 1667.13,920.726 1667.65,918.923 1668.12,917.151 1668.59,915.41 1668.97,914.036 1669.39,912.683 1669.77,911.351 1670.24,909.723 1670.76,908.128 
  1671.23,906.567 1671.7,905.041 1672.18,903.55 1672.69,902.094 1673.17,900.673 1673.64,899.288 1674.11,897.939 1674.63,896.627 1675.1,895.352 1675.57,894.113 
  1676.09,892.912 1676.56,891.748 1677.03,890.621 1677.5,889.533 1678.02,888.482 1678.49,887.469 1678.96,886.495 1679.44,885.559 1679.95,884.661 1680.43,883.802 
  1680.9,882.982 1681.37,882.2 1681.89,881.457 1682.36,880.753 1682.83,880.087 1683.35,879.461 1683.82,878.874 1684.29,878.325 1684.76,877.815 1685.28,877.345 
  1685.75,876.913 1686.22,876.52 1686.7,876.166 1687.21,875.851 1687.69,875.575 1688.16,875.338 1688.68,875.14 1689.15,874.98 1689.62,874.859 1690.09,874.777 
  1690.61,874.733 1691.08,874.729 1691.55,874.762 1692.02,874.835 1692.54,874.945 1693.01,875.095 1693.48,875.282 1694,875.508 1694.47,875.773 1694.95,876.076 
  1695.42,876.417 1695.94,876.797 1696.41,877.214 1696.88,877.67 1697.26,878.067 1697.68,878.488 1698.06,878.933 1698.53,879.52 1699.05,880.146 1699.52,880.81 
  1699.99,881.512 1700.46,882.252 1700.98,883.031 1701.45,883.848 1701.92,884.703 1702.39,885.597 1702.91,886.529 1703.38,887.5 1703.86,888.509 1704.37,889.556 
  1704.85,890.642 1705.32,891.767 1705.79,892.93 1706.31,894.133 1706.78,895.374 1707.25,896.654 1707.72,897.973 1708.24,899.332 1708.71,900.729 1709.18,902.167 
  1709.65,903.643 1710.17,905.159 1710.64,906.715 1711.12,908.311 1711.63,909.947 1712.11,911.623 1712.58,913.339 1713.05,915.095 1713.57,916.891 1714.04,918.729 
  1714.51,920.606 1714.98,922.525 1715.5,924.484 1715.97,926.484 1716.44,928.524 1716.96,930.606 1717.43,932.729 1717.9,934.893 1718.38,937.098 1718.89,939.343 
  1719.37,941.63 1719.84,943.958 1720.31,946.327 1720.83,948.737 1721.3,951.187 1721.77,953.679 1722.29,956.211 1722.76,958.783 1723.23,961.396 1723.7,964.048 
  1724.22,966.741 1724.69,969.473 1725.16,972.244 1725.54,974.504 1725.97,976.788 1726.34,979.097 1726.81,982.001 1727.33,984.942 1727.8,987.921 1728.28,990.936 
  1728.75,993.988 1729.27,997.075 1729.74,1000.2 1730.21,1003.35 1730.68,1006.55 1731.2,1009.77 1731.67,1013.02 1732.14,1016.31 1732.66,1019.63 1733.13,1022.98 
  1733.6,1026.36 1734.07,1029.76 1734.59,1033.19 1735.06,1036.65 1735.53,1040.13 1736.01,1043.64 1736.52,1047.19 1737,1050.75 1737.47,1054.34 1737.94,1057.94 
  1738.46,1061.56 1738.93,1065.2 1739.4,1068.85 1739.92,1072.51 1740.39,1076.18 1740.86,1079.86 1741.33,1083.55 1741.85,1087.24 1742.32,1090.93 1742.79,1094.62 
  1743.27,1098.31 1743.78,1102.01 1744.26,1105.7 1744.73,1109.39 1745.25,1113.07 1745.72,1116.75 1746.19,1120.42 1746.66,1124.08 1747.18,1127.72 1747.65,1131.35 
  1748.12,1134.96 1748.59,1138.56 1749.11,1142.13 1749.58,1145.67 1750.05,1149.2 1750.57,1152.69 1751.04,1156.15 1751.52,1159.58 1751.99,1162.97 1752.51,1166.33 
  1752.98,1169.65 1753.45,1172.92 1753.83,1175.52 1754.25,1178.08 1754.63,1180.62 1755.1,1183.73 1755.62,1186.79 1756.09,1189.79 1756.56,1192.73 1757.03,1195.62 
  1757.55,1198.44 1758.02,1201.19 1758.49,1203.88 1758.96,1206.49 1759.48,1209.03 1759.95,1211.5 1760.43,1213.89 1760.94,1216.19 1761.42,1218.41 1761.89,1220.55 
  1762.36,1222.59 1762.88,1224.55 1763.35,1226.41 1763.82,1228.17 1764.29,1229.83 1764.81,1231.39 1765.28,1232.85 1765.75,1234.19 1766.22,1235.43 1766.74,1236.56 
  1767.21,1237.57 1767.69,1238.46 1768.2,1239.23 1768.68,1239.88 1769.15,1240.41 1769.62,1240.8 1770.14,1241.07 1770.61,1241.2 1771.08,1241.2 1771.55,1241.06 
  1772.07,1240.79 1772.54,1240.36 1773.01,1239.8 1773.53,1239.09 1774,1238.22 1774.47,1237.21 1774.95,1236.04 1775.46,1234.72 1775.94,1233.24 1776.41,1231.6 
  1776.88,1229.8 1777.4,1227.84 1777.87,1225.71 1778.34,1223.41 1778.86,1220.94 1779.33,1218.31 1779.8,1215.5 1780.27,1212.51 1780.79,1209.36 1781.26,1206.02 
  1781.73,1202.51 1782.11,1199.54 1782.54,1196.46 1782.91,1193.26 1783.38,1189.13 1783.9,1184.81 1784.37,1180.31 1784.85,1175.63 1785.32,1170.77 1785.84,1165.71 
  1786.31,1160.48 1786.78,1155.05 1787.25,1149.36 1787.77,1143.48 1788.24,1137.43 1788.71,1131.2 1789.23,1124.79 1789.7,1118.2 1790.17,1111.44 1790.64,1104.49 
  1791.16,1097.37 1791.63,1090.08 1792.11,1082.6 1792.58,1074.96 1793.1,1067.21 1793.57,1059.28 1794.04,1051.17 1794.51,1042.89 1795.03,1034.43 1795.5,1025.81 
  1795.97,1017.02 1796.49,1008.06 1796.96,998.94 1797.43,989.662 1797.9,980.227 1798.42,970.639 1798.89,960.902 1799.37,951.018 1799.84,940.992 1800.36,930.827 
  1800.83,920.527 1801.3,910.096 1801.82,899.538 1802.29,888.858 1802.76,878.059 1803.23,867.147 1803.75,856.126 1804.22,845.001 1804.69,833.777 1805.16,822.459 
  1805.68,811.052 1806.15,799.561 1806.63,787.992 1807.14,776.351 1807.62,764.643 1808.09,752.874 1808.56,741.05 1809.08,729.176 1809.55,717.259 1810.02,705.306 
  1810.4,695.67 1810.82,686.017 1811.2,676.352 1811.67,664.32 1812.19,652.28 1812.66,640.237 1813.13,628.199 1813.6,616.173 1814.12,604.165 1814.59,592.181 
  1815.06,580.23 1815.54,568.316 1816.05,556.449 1816.53,544.633 1817,532.877 1817.52,521.188 1817.99,509.572 1818.46,498.036 1818.93,486.587 1819.45,475.233 
  1819.92,463.98 1820.39,452.835 1820.86,441.806 1821.38,430.898 1821.85,420.12 1822.32,409.477 1822.8,398.977 1823.31,388.626 1823.79,378.43 1824.26,368.397 
  1824.78,358.533 1825.25,348.844 1825.72,339.337 1826.19,330.017 1826.71,320.892 1827.18,311.966 1827.65,303.246 1828.12,294.738 1828.64,286.447 1829.11,278.379 
  1829.58,270.539 1830.1,262.933 1830.57,255.565 1831.04,248.441 1831.52,241.566 1832.03,234.943 1832.51,228.578 1832.98,222.475 1833.45,216.639 1833.97,211.072 
  1834.44,205.78 1834.91,200.765 1835.43,196.031 1835.9,191.582 1836.37,187.42 1836.84,183.548 1837.36,179.97 1837.83,176.687 1838.3,173.703 1838.68,171.537 
  1839.11,169.567 1839.48,167.794 1839.95,165.843 1840.47,164.198 1840.94,162.86 1841.42,161.83 1841.89,161.109 1842.41,160.697 1842.88,160.594 1843.35,160.802 
  1843.82,161.319 1844.34,162.146 1844.81,163.281 1845.28,164.726 1845.8,166.478 1846.27,168.536 1846.74,170.9 1847.21,173.568 1847.73,176.538 1848.2,179.809 
  1848.68,183.378 1849.15,187.243 1849.67,191.403 1850.14,195.853 1850.61,200.593 1851.08,205.618 1851.6,210.925 1852.07,216.512 1852.54,222.374 1853.06,228.509 
  1853.53,234.913 1854,241.581 1854.47,248.509 1854.99,255.695 1855.46,263.132 1855.94,270.817 1856.41,278.745 1856.93,286.912 1857.4,295.311 1857.87,303.94 
  1858.39,312.792 1858.86,321.861 1859.33,331.144 1859.8,340.634 1860.32,350.325 1860.79,360.212 1861.26,370.29 1861.73,380.552 1862.25,390.992 1862.72,401.605 
  1863.2,412.385 1863.71,423.324 1864.19,434.418 1864.66,445.66 1865.13,457.043 1865.65,468.562 1866.12,480.209 1866.59,491.979 1866.97,501.533 1867.39,511.159 
  1867.77,520.853 1868.24,532.994 1868.76,545.228 1869.23,557.551 1869.7,569.954 1870.17,582.432 1870.69,594.978 1871.16,607.586 1871.63,620.25 1872.11,632.962 
  1872.62,645.717 1873.1,658.508 1873.57,671.329 1874.09,684.174 1874.56,697.037 1875.03,709.91 1875.5,722.789 1876.02,735.667 1876.49,748.538 1876.96,761.396 
  1877.43,774.236 1877.95,787.05 1878.42,799.835 1878.89,812.584 1879.37,825.291 1879.88,837.951 1880.36,850.558 1880.83,863.108 1881.35,875.594 1881.82,888.012 
  1882.29,900.357 1882.76,912.623 1883.28,924.806 1883.75,936.901 1884.22,948.903 1884.69,960.808 1885.21,972.61 1885.68,984.307 1886.15,995.893 1886.67,1007.36 
  1887.14,1018.72 1887.62,1029.95 1888.09,1041.05 1888.61,1052.02 1889.08,1062.86 1889.55,1073.56 1890.02,1084.12 1890.54,1094.54 1891.01,1104.81 1891.48,1114.92 
  1892,1124.89 1892.47,1134.7 1892.94,1144.35 1893.41,1153.84 1893.93,1163.16 1894.4,1172.32 1894.88,1181.31 1895.25,1188.4 1895.68,1195.39 1896.05,1202.26 
  1896.53,1210.66 1897.04,1218.88 1897.52,1226.92 1897.99,1234.78 1898.46,1242.46 1898.98,1249.96 1899.45,1257.27 1899.92,1264.4 1900.39,1271.34 1900.91,1278.1 
  1901.38,1284.67 1901.85,1291.05 1902.37,1297.24 1902.84,1303.24 1903.31,1309.05 1903.79,1314.67 1904.3,1320.1 1904.78,1325.35 1905.25,1330.4 1905.72,1335.26 
  1906.24,1339.93 1906.71,1344.42 1907.18,1348.72 1907.65,1352.82 1908.17,1356.75 1908.64,1360.48 1909.11,1364.03 1909.63,1367.39 1910.1,1370.58 1910.57,1373.57 
  1911.05,1376.39 1911.56,1379.03 1912.04,1381.48 1912.51,1383.76 1912.98,1385.87 1913.5,1387.8 1913.97,1389.55 1914.44,1391.14 1914.96,1392.56 1915.43,1393.8 
  1915.9,1394.89 1916.37,1395.8 1916.89,1396.56 1917.36,1397.15 1917.83,1397.59 1918.31,1397.87 1918.82,1398 1919.3,1397.98 1919.77,1397.81 1920.29,1397.49 
  1920.76,1397.02 1921.23,1396.41 1921.7,1395.67 1922.22,1394.78 1922.69,1393.76 1923.16,1392.61 1923.54,1391.58 1923.96,1390.47 1924.34,1389.28 1924.81,1387.7 
  1925.33,1385.99 1925.8,1384.16 1926.27,1382.21 1926.74,1380.15 1927.26,1377.98 1927.73,1375.7 1928.2,1373.31 1928.68,1370.82 1929.19,1368.23 1929.67,1365.53 
  1930.14,1362.75 1930.66,1359.86 1931.13,1356.88 1931.6,1353.82 1932.07,1350.67 1932.59,1347.43 1933.06,1344.11 1933.53,1340.71 1934,1337.23 1934.52,1333.68 
  1934.99,1330.05 1935.46,1326.36 1935.94,1322.59 1936.45,1318.76 1936.93,1314.86 1937.4,1310.91 1937.92,1306.89 1938.39,1302.81 1938.86,1298.68 1939.33,1294.49 
  1939.85,1290.25 1940.32,1285.96 1940.79,1281.63 1941.26,1277.24 1941.78,1272.81 1942.25,1268.34 1942.72,1263.83 1943.24,1259.27 1943.71,1254.68 1944.19,1250.05 
  1944.66,1245.39 1945.18,1240.69 1945.65,1235.96 1946.12,1231.2 1946.59,1226.41 1947.11,1221.6 1947.58,1216.75 1948.05,1211.89 1948.57,1206.99 1949.04,1202.08 
  1949.51,1197.14 1949.98,1192.19 1950.5,1187.21 1950.97,1182.22 1951.45,1177.21 1951.82,1173.17 1952.25,1169.13 1952.62,1165.07 1953.1,1160.01 1953.61,1154.94 
  1954.09,1149.86 1954.56,1144.77 1955.03,1139.68 1955.55,1134.58 1956.02,1129.47 1956.49,1124.36 1956.96,1119.24 1957.48,1114.13 1957.95,1109.01 1958.42,1103.9 
  1958.94,1098.79 1959.41,1093.68 1959.88,1088.58 1960.36,1083.48 1960.87,1078.39 1961.35,1073.32 1961.82,1068.25 1962.29,1063.19 1962.81,1058.15 1963.28,1053.12 
  1963.75,1048.11 1964.22,1043.11 1964.74,1038.14 1965.21,1033.18 1965.68,1028.25 1966.2,1023.34 1966.67,1018.46 1967.14,1013.6 1967.62,1008.77 1968.13,1003.97 
  1968.61,999.204 1969.08,994.471 1969.55,989.773 1970.07,985.111 1970.54,980.488 1971.01,975.905 1971.53,971.364 1972,966.867 1972.47,962.415 1972.94,958.01 
  1973.46,953.654 1973.93,949.349 1974.4,945.096 1974.88,940.897 1975.39,936.754 1975.87,932.668 1976.34,928.642 1976.86,924.676 1977.33,920.772 1977.8,916.933 
  1978.27,913.159 1978.79,909.452 1979.26,905.813 1979.73,902.245 1980.11,899.431 1980.53,896.663 1980.91,893.944 1981.38,890.625 1981.9,887.382 1982.37,884.216 
  1982.84,881.129 1983.31,878.12 1983.83,875.191 1984.3,872.343 1984.78,869.577 1985.25,866.893 1985.77,864.291 1986.24,861.773 1986.71,859.339 1987.23,856.989 
  1987.7,854.724 1988.17,852.544 1988.64,850.449 1989.16,848.44 1989.63,846.516 1990.1,844.677 1990.57,842.924 1991.09,841.256 1991.56,839.673 1992.04,838.175 
  1992.51,836.761 1993.03,835.43 1993.5,834.183 1993.97,833.018 1994.49,831.935 1994.96,830.933 1995.43,830.012 1995.9,829.169 1996.42,828.405 1996.89,827.718 
  1997.36,827.107 1997.83,826.571 1998.35,826.108 1998.82,825.718 1999.3,825.399 1999.81,825.149 2000.29,824.967 2000.76,824.851 2001.23,824.801 2001.75,824.813 
  2002.22,824.887 2002.69,825.021 2003.16,825.213 2003.68,825.462 2004.15,825.765 2004.62,826.121 2005.14,826.528 2005.61,826.983 2006.08,827.486 2006.56,828.035 
  2007.07,828.626 2007.55,829.259 2008.02,829.932 2008.39,830.5 2008.82,831.091 2009.2,831.704 2009.67,832.496 2010.19,833.32 2010.66,834.173 2011.13,835.054 
  2011.6,835.959 2012.12,836.889 2012.59,837.841 2013.06,838.812 2013.53,839.802 2014.05,840.809 2014.52,841.831 2014.99,842.866 2015.51,843.913 2015.98,844.969 
  2016.46,846.035 2016.93,847.107 2017.45,848.184 2017.92,849.265 2018.39,850.349 2018.86,851.434 2019.38,852.519 2019.85,853.602 2020.32,854.682 2020.79,855.758 
  2021.31,856.828 2021.78,857.892 2022.25,858.948 2022.77,859.996 2023.24,861.034 2023.71,862.061 2024.19,863.077 2024.7,864.079 2025.18,865.069 2025.65,866.044 
  2026.12,867.004 2026.64,867.949 2027.11,868.877 2027.58,869.788 2028.1,870.681 2028.57,871.556 2029.04,872.412 2029.51,873.248 2030.03,874.065 2030.5,874.862 
  2030.97,875.638 2031.45,876.393 2031.96,877.127 2032.44,877.84 2032.91,878.53 2033.43,879.199 2033.9,879.845 2034.37,880.469 2034.84,881.071 2035.36,881.65 
  2035.83,882.206 2036.3,882.74 2036.68,883.15 2037.1,883.545 2037.48,883.926 2037.95,884.382 2038.47,884.816 2038.94,885.227 2039.41,885.616 2039.88,885.982 
  2040.4,886.326 2040.87,886.649 2041.35,886.949 2041.82,887.228 2042.34,887.486 2042.81,887.723 2043.28,887.939 2043.8,888.134 2044.27,888.309 2044.74,888.464 
  2045.21,888.599 2045.73,888.715 2046.2,888.812 2046.67,888.89 2047.14,888.95 2047.66,888.991 2048.13,889.016 2048.61,889.023 2049.08,889.013 2049.6,888.986 
  2050.07,888.944 2050.54,888.886 2051.06,888.813 2051.53,888.725 2052,888.622 2052.47,888.506 2052.99,888.376 2053.46,888.233 2053.93,888.077 2054.4,887.909 
  2054.92,887.729 2055.39,887.538 2055.87,887.337 2056.38,887.124 2056.86,886.902 2057.33,886.67 2057.8,886.429 2058.32,886.18 2058.79,885.922 2059.26,885.657 
  2059.73,885.385 2060.25,885.105 2060.72,884.819 2061.19,884.528 2061.71,884.231 2062.18,883.929 2062.65,883.622 2063.13,883.312 2063.64,882.997 2064.12,882.68 
  2064.59,882.359 2064.96,882.1 2065.39,881.839 2065.77,881.578 2066.24,881.251 2066.76,880.924 2067.23,880.596 2067.7,880.268 2068.17,879.94 2068.69,879.613 
  2069.16,879.288 2069.63,878.963 2070.1,878.641 2070.62,878.321 2071.09,878.004 2071.56,877.689 2072.08,877.378 2072.55,877.071 2073.03,876.769 2073.5,876.471 
  2074.02,876.177 2074.49,875.889 2074.96,875.607 2075.43,875.331 2075.95,875.061 2076.42,874.797 2076.89,874.541 2077.36,874.292 2077.88,874.05 2078.35,873.817 
  2078.82,873.592 2079.34,873.375 2079.81,873.168 2080.29,872.969 2080.76,872.78 2081.28,872.601 2081.75,872.431 2082.22,872.272 2082.69,872.124 2083.21,871.987 
  2083.68,871.86 2084.15,871.745 2084.67,871.642 2085.14,871.551 2085.61,871.471 2086.08,871.404 2086.6,871.35 2087.07,871.308 2087.55,871.28 2088.02,871.265 
  2088.54,871.263 2089.01,871.275 2089.48,871.301 2090,871.341 2090.47,871.395 2090.94,871.463 2091.41,871.547 2091.93,871.645 2092.4,871.758 2092.87,871.886 
  2093.25,872.001 2093.67,872.126 2094.05,872.261 2094.52,872.442 2095.04,872.638 2095.51,872.851 2095.98,873.078 2096.46,873.322 2096.97,873.581 2097.45,873.857 
  2097.92,874.147 2098.39,874.454 2098.91,874.776 2099.38,875.114 2099.85,875.468 2100.37,875.837 2100.84,876.222 2101.31,876.621 2101.78,877.037 2102.3,877.467 
  2102.77,877.912 2103.24,878.373 2103.72,878.848 2104.23,879.337 2104.71,879.841 2105.18,880.359 2105.65,880.891 2106.17,881.437 2106.64,881.996 2107.11,882.569 
  2107.63,883.154 2108.1,883.752 2108.57,884.362 2109.04,884.984 2109.56,885.618 2110.03,886.263 2110.5,886.919 2110.98,887.586 2111.49,888.262 2111.97,888.949 
  2112.44,889.644 2112.96,890.349 2113.43,891.062 2113.9,891.783 2114.37,892.512 2114.89,893.248 2115.36,893.99 2115.83,894.738 2116.3,895.493 2116.82,896.252 
  2117.29,897.016 2117.76,897.785 2118.28,898.557 2118.75,899.332 2119.22,900.11 2119.7,900.891 2120.21,901.673 2120.69,902.457 2121.16,903.242 2121.53,903.873 
  2121.96,904.505 2122.34,905.136 2122.81,905.92 2123.33,906.704 2123.8,907.486 2124.27,908.266 2124.74,909.045 2125.26,909.821 2125.73,910.595 2126.2,911.366 
  2126.67,912.135 2127.19,912.901 2127.66,913.663 2128.13,914.423 2128.65,915.179 2129.12,915.931 2129.6,916.68 2130.07,917.425 2130.59,918.167 2131.06,918.905 
  2131.53,919.639 2132,920.37 2132.52,921.097 2132.99,921.82 2133.46,922.541 2133.93,923.257 2134.45,923.971 2134.92,924.682 2135.39,925.39 2135.91,926.096 
  2136.38,926.799 2136.86,927.501 2137.33,928.201 2137.85,928.9 2138.32,929.598 2138.79,930.295 2139.26,930.992 2139.78,931.69 2140.25,932.388 2140.72,933.087 
  2141.24,933.787 2141.71,934.49 2142.18,935.195 2142.65,935.903 2143.17,936.614 2143.64,937.329 2144.12,938.048 2144.59,938.772 2145.11,939.502 2145.58,940.237 
  2146.05,940.978 2146.57,941.725 2147.04,942.48 2147.51,943.243 2147.98,944.013 2148.5,944.792 2148.97,945.579 2149.44,946.375 2149.82,947.024 2150.24,947.679 
  2150.62,948.34 2151.09,949.171 2151.61,950.012 2152.08,950.864 2152.55,951.727 2153.03,952.601 2153.54,953.487 2154.02,954.384 2154.49,955.292 2154.96,956.212 
  2155.48,957.143 2155.95,958.086 2156.42,959.04 2156.94,960.006 2157.41,960.983 2157.88,961.972 2158.35,962.972 2158.87,963.982 2159.34,965.004 2159.81,966.035 
  2160.29,967.077 2160.8,968.13 2161.28,969.191 2161.75,970.262 2162.22,971.342 2162.74,972.43 2163.21,973.527 2163.68,974.631 2164.2,975.742 2164.67,976.86 
  2165.14,977.984 2165.61,979.113 2166.13,980.247 2166.6,981.386 2167.07,982.528 2167.55,983.674 2168.06,984.822 2168.54,985.971 2169.01,987.122 2169.53,988.274 
  2170,989.425 2170.47,990.575 2170.94,991.724 2171.46,992.871 2171.93,994.014 2172.4,995.154 2172.87,996.289 2173.39,997.419 2173.86,998.544 2174.33,999.662 
  2174.85,1000.77 2175.32,1001.88 2175.8,1002.97 2176.27,1004.05 2176.79,1005.13 2177.26,1006.19 2177.73,1007.25 2178.11,1008.09 2178.53,1008.92 2178.91,1009.74 
  2179.38,1010.75 2179.9,1011.74 2180.37,1012.73 2180.84,1013.7 2181.31,1014.65 2181.83,1015.58 2182.3,1016.5 2182.77,1017.41 2183.24,1018.29 2183.76,1019.16 
  2184.23,1020.01 2184.71,1020.84 2185.22,1021.66 2185.7,1022.45 2186.17,1023.23 2186.64,1023.98 2187.16,1024.71 2187.63,1025.43 2188.1,1026.12 2188.57,1026.8 
  2189.09,1027.45 2189.56,1028.08 2190.03,1028.69 2190.5,1029.28 2191.02,1029.84 2191.49,1030.39 2191.97,1030.91 2192.48,1031.41 2192.96,1031.89 2193.43,1032.35 
  2193.9,1032.79 2194.42,1033.2 2194.89,1033.59 2195.36,1033.96 2195.83,1034.31 2196.35,1034.64 2196.82,1034.94 2197.29,1035.23 2197.81,1035.49 2198.28,1035.73 
  2198.75,1035.94 2199.23,1036.14 2199.74,1036.32 2200.22,1036.47 2200.69,1036.6 2201.16,1036.71 2201.68,1036.81 2202.15,1036.88 2202.62,1036.93 2203.14,1036.96 
  2203.61,1036.97 2204.08,1036.96 2204.55,1036.93 2205.07,1036.88 2205.54,1036.81 2206.01,1036.72 2206.39,1036.64 2206.82,1036.54 2207.19,1036.43 2207.66,1036.28 
  2208.18,1036.11 2208.65,1035.92 2209.13,1035.71 2209.6,1035.49 2210.12,1035.24 2210.59,1034.99 2211.06,1034.71 2211.53,1034.42 2212.05,1034.1 2212.52,1033.78 
  2212.99,1033.44 2213.51,1033.08 2213.98,1032.7 2214.45,1032.31 2214.92,1031.9 2215.44,1031.48 2215.91,1031.05 2216.38,1030.59 2216.86,1030.13 2217.37,1029.65 
  2217.85,1029.15 2218.32,1028.64 2218.79,1028.12 2219.31,1027.59 2219.78,1027.04 2220.25,1026.47 2220.77,1025.9 2221.24,1025.31 2221.71,1024.71 2222.18,1024.09 
  2222.7,1023.46 2223.17,1022.83 2223.64,1022.18 2224.12,1021.51 2224.63,1020.84 2225.11,1020.15 2225.58,1019.46 2226.1,1018.75 2226.57,1018.03 2227.04,1017.31 
  2227.51,1016.57 2228.03,1015.82 2228.5,1015.06 2228.97,1014.29 2229.44,1013.51 2229.96,1012.73 2230.43,1011.93 2230.9,1011.12 2231.42,1010.31 2231.89,1009.48 
  2232.37,1008.65 2232.84,1007.81 2233.36,1006.96 2233.83,1006.11 2234.3,1005.24 2234.68,1004.54 2235.1,1003.84 2235.48,1003.12 2235.95,1002.23 2236.47,1001.34 
  2236.94,1000.43 2237.41,999.523 2237.88,998.606 2238.4,997.683 2238.87,996.754 2239.34,995.818 2239.81,994.877 2240.33,993.931 2240.8,992.978 2241.28,992.021 
  2241.79,991.058 2242.27,990.091 2242.74,989.119 2243.21,988.142 2243.73,987.161 2244.2,986.175 2244.67,985.186 2245.14,984.192 2245.66,983.195 2246.13,982.194 
  2246.6,981.19 2247.07,980.182 2247.59,979.172 2248.06,978.158 2248.54,977.142 2249.05,976.124 2249.53,975.102 2250,974.079 2250.47,973.053 2250.99,972.026 
  2251.46,970.997 2251.93,969.966 2252.4,968.934 2252.92,967.9 2253.39,966.866 2253.86,965.83 2254.38,964.794 2254.85,963.757 2255.32,962.719 2255.8,961.681 
  2256.31,960.643 2256.79,959.605 2257.26,958.567 2257.73,957.53 2258.25,956.493 2258.72,955.456 2259.19,954.42 2259.71,953.385 2260.18,952.351 2260.65,951.319 
  2261.12,950.287 2261.64,949.258 2262.11,948.229 2262.58,947.203 2262.96,946.379 2263.39,945.556 2263.76,944.735 2264.23,943.716 2264.75,942.699 2265.22,941.685 
  2265.7,940.673 2266.17,939.664 2266.69,938.659 2267.16,937.656 2267.63,936.657 2268.1,935.661 2268.62,934.668 2269.09,933.68 2269.56,932.695 2270.08,931.714 
  2270.55,930.737 2271.02,929.764 2271.49,928.795 2272.01,927.831 2272.48,926.871 2272.96,925.916 2273.43,924.966 2273.95,924.02 2274.42,923.08 2274.89,922.144 
  2275.36,921.214 2275.88,920.288 2276.35,919.369 2276.82,918.454 2277.34,917.545 2277.81,916.642 2278.28,915.744 2278.75,914.853 2279.27,913.967 2279.74,913.087 
  2280.22,912.213 2280.69,911.345 2281.21,910.483 2281.68,909.628 2282.15,908.778 2282.67,907.936 2283.14,907.099 2283.61,906.269 2284.08,905.446 2284.6,904.629 
  2285.07,903.818 2285.54,903.015 2286.01,902.218 2286.53,901.428 2287,900.644 2287.48,899.868 2287.99,899.098 2288.47,898.335 2288.94,897.579 2289.41,896.83 
  2289.93,896.088 2290.4,895.353 2290.87,894.624 2291.25,894.044 2291.67,893.468 
  "/>
</svg>
