<?xml version="1.0" encoding="utf-8"?>
<svg xmlns="http://www.w3.org/2000/svg" xmlns:xlink="http://www.w3.org/1999/xlink" width="600" height="400" viewBox="0 0 2400 1600">
<defs>
  <clipPath id="clip300">
    <rect x="0" y="0" width="2400" height="1600"/>
  </clipPath>
</defs>
<path clip-path="url(#clip300)" d="
M0 1600 L2400 1600 L2400 0 L0 0  Z
  " fill="#ffffff" fill-rule="evenodd" fill-opacity="1"/>
<defs>
  <clipPath id="clip301">
    <rect x="480" y="0" width="1681" height="1600"/>
  </clipPath>
</defs>
<path clip-path="url(#clip300)" d="
M223.103 1435.12 L2352.76 1435.12 L2352.76 123.472 L223.103 123.472  Z
  " fill="#ffffff" fill-rule="evenodd" fill-opacity="1"/>
<defs>
  <clipPath id="clip302">
    <rect x="223" y="123" width="2131" height="1313"/>
  </clipPath>
</defs>
<polyline clip-path="url(#clip302)" style="stroke:#000000; stroke-linecap:butt; stroke-linejoin:round; stroke-width:2; stroke-opacity:0.1; fill:none" points="
  283.376,1435.12 283.376,123.472 
  "/>
<polyline clip-path="url(#clip302)" style="stroke:#000000; stroke-linecap:butt; stroke-linejoin:round; stroke-width:2; stroke-opacity:0.1; fill:none" points="
  450.832,1435.12 450.832,123.472 
  "/>
<polyline clip-path="url(#clip302)" style="stroke:#000000; stroke-linecap:butt; stroke-linejoin:round; stroke-width:2; stroke-opacity:0.1; fill:none" points="
  618.289,1435.12 618.289,123.472 
  "/>
<polyline clip-path="url(#clip302)" style="stroke:#000000; stroke-linecap:butt; stroke-linejoin:round; stroke-width:2; stroke-opacity:0.1; fill:none" points="
  785.745,1435.12 785.745,123.472 
  "/>
<polyline clip-path="url(#clip302)" style="stroke:#000000; stroke-linecap:butt; stroke-linejoin:round; stroke-width:2; stroke-opacity:0.1; fill:none" points="
  953.202,1435.12 953.202,123.472 
  "/>
<polyline clip-path="url(#clip302)" style="stroke:#000000; stroke-linecap:butt; stroke-linejoin:round; stroke-width:2; stroke-opacity:0.1; fill:none" points="
  1120.66,1435.12 1120.66,123.472 
  "/>
<polyline clip-path="url(#clip302)" style="stroke:#000000; stroke-linecap:butt; stroke-linejoin:round; stroke-width:2; stroke-opacity:0.1; fill:none" points="
  1288.12,1435.12 1288.12,123.472 
  "/>
<polyline clip-path="url(#clip302)" style="stroke:#000000; stroke-linecap:butt; stroke-linejoin:round; stroke-width:2; stroke-opacity:0.1; fill:none" points="
  1455.57,1435.12 1455.57,123.472 
  "/>
<polyline clip-path="url(#clip302)" style="stroke:#000000; stroke-linecap:butt; stroke-linejoin:round; stroke-width:2; stroke-opacity:0.1; fill:none" points="
  1623.03,1435.12 1623.03,123.472 
  "/>
<polyline clip-path="url(#clip302)" style="stroke:#000000; stroke-linecap:butt; stroke-linejoin:round; stroke-width:2; stroke-opacity:0.1; fill:none" points="
  1790.49,1435.12 1790.49,123.472 
  "/>
<polyline clip-path="url(#clip302)" style="stroke:#000000; stroke-linecap:butt; stroke-linejoin:round; stroke-width:2; stroke-opacity:0.1; fill:none" points="
  1957.94,1435.12 1957.94,123.472 
  "/>
<polyline clip-path="url(#clip302)" style="stroke:#000000; stroke-linecap:butt; stroke-linejoin:round; stroke-width:2; stroke-opacity:0.1; fill:none" points="
  2125.4,1435.12 2125.4,123.472 
  "/>
<polyline clip-path="url(#clip300)" style="stroke:#000000; stroke-linecap:butt; stroke-linejoin:round; stroke-width:4; stroke-opacity:1; fill:none" points="
  223.103,1435.12 2352.76,1435.12 
  "/>
<polyline clip-path="url(#clip300)" style="stroke:#000000; stroke-linecap:butt; stroke-linejoin:round; stroke-width:4; stroke-opacity:1; fill:none" points="
  283.376,1435.12 283.376,1416.23 
  "/>
<polyline clip-path="url(#clip300)" style="stroke:#000000; stroke-linecap:butt; stroke-linejoin:round; stroke-width:4; stroke-opacity:1; fill:none" points="
  450.832,1435.12 450.832,1416.23 
  "/>
<polyline clip-path="url(#clip300)" style="stroke:#000000; stroke-linecap:butt; stroke-linejoin:round; stroke-width:4; stroke-opacity:1; fill:none" points="
  618.289,1435.12 618.289,1416.23 
  "/>
<polyline clip-path="url(#clip300)" style="stroke:#000000; stroke-linecap:butt; stroke-linejoin:round; stroke-width:4; stroke-opacity:1; fill:none" points="
  785.745,1435.12 785.745,1416.23 
  "/>
<polyline clip-path="url(#clip300)" style="stroke:#000000; stroke-linecap:butt; stroke-linejoin:round; stroke-width:4; stroke-opacity:1; fill:none" points="
  953.202,1435.12 953.202,1416.23 
  "/>
<polyline clip-path="url(#clip300)" style="stroke:#000000; stroke-linecap:butt; stroke-linejoin:round; stroke-width:4; stroke-opacity:1; fill:none" points="
  1120.66,1435.12 1120.66,1416.23 
  "/>
<polyline clip-path="url(#clip300)" style="stroke:#000000; stroke-linecap:butt; stroke-linejoin:round; stroke-width:4; stroke-opacity:1; fill:none" points="
  1288.12,1435.12 1288.12,1416.23 
  "/>
<polyline clip-path="url(#clip300)" style="stroke:#000000; stroke-linecap:butt; stroke-linejoin:round; stroke-width:4; stroke-opacity:1; fill:none" points="
  1455.57,1435.12 1455.57,1416.23 
  "/>
<polyline clip-path="url(#clip300)" style="stroke:#000000; stroke-linecap:butt; stroke-linejoin:round; stroke-width:4; stroke-opacity:1; fill:none" points="
  1623.03,1435.12 1623.03,1416.23 
  "/>
<polyline clip-path="url(#clip300)" style="stroke:#000000; stroke-linecap:butt; stroke-linejoin:round; stroke-width:4; stroke-opacity:1; fill:none" points="
  1790.49,1435.12 1790.49,1416.23 
  "/>
<polyline clip-path="url(#clip300)" style="stroke:#000000; stroke-linecap:butt; stroke-linejoin:round; stroke-width:4; stroke-opacity:1; fill:none" points="
  1957.94,1435.12 1957.94,1416.23 
  "/>
<polyline clip-path="url(#clip300)" style="stroke:#000000; stroke-linecap:butt; stroke-linejoin:round; stroke-width:4; stroke-opacity:1; fill:none" points="
  2125.4,1435.12 2125.4,1416.23 
  "/>
<path clip-path="url(#clip300)" d="M202.591 1572.31 L207.992 1566.91 L189.349 1548.27 L184.651 1555.32 L181.64 1552.31 L186.305 1545.29 L189.611 1541.98 L211.266 1563.63 L216.667 1558.23 L219.45 1561.02 L205.373 1575.09 L202.591 1572.31 Z" fill="#000000" fill-rule="evenodd" fill-opacity="1" /><path clip-path="url(#clip300)" d="M222.969 1531.14 Q225.85 1529.28 228.78 1529.56 Q231.726 1529.82 234.083 1532.18 Q237.7 1535.79 237.193 1540.26 Q236.686 1544.73 232.103 1549.31 Q230.564 1550.85 228.616 1552.18 Q226.701 1553.5 224.36 1554.63 L221.169 1551.44 Q223.346 1550.87 225.392 1549.64 Q227.438 1548.41 229.222 1546.63 Q232.332 1543.52 232.725 1540.67 Q233.134 1537.81 230.793 1535.47 Q228.633 1533.3 225.899 1533.62 Q223.166 1533.89 220.465 1536.59 L217.617 1539.44 L214.9 1536.73 L217.879 1533.75 Q220.318 1531.31 220.645 1529.05 Q220.956 1526.77 219.123 1524.94 Q217.24 1523.06 214.9 1523.4 Q212.559 1523.71 210.071 1526.2 Q208.713 1527.56 207.452 1529.41 Q206.192 1531.26 204.948 1533.75 L202.002 1530.8 Q203.36 1528.39 204.735 1526.5 Q206.126 1524.58 207.583 1523.12 Q211.348 1519.36 215.26 1518.88 Q219.155 1518.39 222.069 1521.31 Q224.099 1523.34 224.344 1525.91 Q224.573 1528.46 222.969 1531.14 Z" fill="#000000" fill-rule="evenodd" fill-opacity="1" /><path clip-path="url(#clip300)" d="M243.642 1528.51 L247.096 1525.06 L251.253 1529.21 L247.8 1532.67 L243.642 1528.51 M230.466 1515.33 L233.919 1511.88 L238.077 1516.04 L234.623 1519.49 L230.466 1515.33 Z" fill="#000000" fill-rule="evenodd" fill-opacity="1" /><path clip-path="url(#clip300)" d="M243.56 1492.38 Q241.007 1494.94 242.234 1498.75 Q243.462 1502.53 248.503 1507.57 Q253.528 1512.6 257.326 1513.84 Q261.123 1515.05 263.677 1512.5 Q266.246 1509.93 265.019 1506.15 Q263.791 1502.34 258.766 1497.31 Q253.725 1492.27 249.927 1491.06 Q246.13 1489.81 243.56 1492.38 M240.941 1489.77 Q245.05 1485.66 250.468 1486.75 Q255.885 1487.82 262.073 1494 Q268.243 1500.18 269.324 1505.61 Q270.404 1511.01 266.296 1515.12 Q262.187 1519.23 256.769 1518.16 Q251.351 1517.07 245.181 1510.9 Q238.994 1504.71 237.913 1499.31 Q236.833 1493.87 240.941 1489.77 Z" fill="#000000" fill-rule="evenodd" fill-opacity="1" /><path clip-path="url(#clip300)" d="M264.888 1471.06 Q262.334 1473.61 263.562 1477.42 Q264.79 1481.2 269.831 1486.25 Q274.856 1491.27 278.654 1492.52 Q282.451 1493.73 285.004 1491.17 Q287.574 1488.6 286.347 1484.82 Q285.119 1481.01 280.094 1475.98 Q275.053 1470.94 271.255 1469.73 Q267.458 1468.49 264.888 1471.06 M262.269 1468.44 Q266.377 1464.33 271.795 1465.43 Q277.213 1466.49 283.4 1472.68 Q289.571 1478.85 290.651 1484.28 Q291.732 1489.68 287.623 1493.79 Q283.515 1497.9 278.097 1496.84 Q272.679 1495.74 266.508 1489.57 Q260.321 1483.38 259.241 1477.98 Q258.161 1472.55 262.269 1468.44 Z" fill="#000000" fill-rule="evenodd" fill-opacity="1" /><path clip-path="url(#clip300)" d="M370.047 1572.31 L375.449 1566.91 L356.806 1548.27 L352.108 1555.32 L349.096 1552.31 L353.761 1545.29 L357.068 1541.98 L378.723 1563.63 L384.124 1558.23 L386.907 1561.02 L372.83 1575.09 L370.047 1572.31 Z" fill="#000000" fill-rule="evenodd" fill-opacity="1" /><path clip-path="url(#clip300)" d="M381.112 1523.7 L385.81 1545.09 L394.158 1536.74 L381.112 1523.7 M377.364 1521.68 L381.521 1517.53 L397.448 1533.45 L400.934 1529.97 L403.684 1532.72 L400.198 1536.2 L405.959 1541.96 L402.669 1545.25 L396.908 1539.49 L385.875 1550.52 L382.684 1547.33 L377.364 1521.68 Z" fill="#000000" fill-rule="evenodd" fill-opacity="1" /><path clip-path="url(#clip300)" d="M411.099 1528.51 L414.552 1525.06 L418.71 1529.21 L415.256 1532.67 L411.099 1528.51 M397.922 1515.33 L401.376 1511.88 L405.534 1516.04 L402.08 1519.49 L397.922 1515.33 Z" fill="#000000" fill-rule="evenodd" fill-opacity="1" /><path clip-path="url(#clip300)" d="M411.017 1492.38 Q408.463 1494.94 409.691 1498.75 Q410.919 1502.53 415.96 1507.57 Q420.985 1512.6 424.782 1513.84 Q428.58 1515.05 431.133 1512.5 Q433.703 1509.93 432.475 1506.15 Q431.248 1502.34 426.223 1497.31 Q421.181 1492.27 417.384 1491.06 Q413.587 1489.81 411.017 1492.38 M408.398 1489.77 Q412.506 1485.66 417.924 1486.75 Q423.342 1487.82 429.529 1494 Q435.7 1500.18 436.78 1505.61 Q437.861 1511.01 433.752 1515.12 Q429.644 1519.23 424.226 1518.16 Q418.808 1517.07 412.637 1510.9 Q406.45 1504.71 405.37 1499.31 Q404.29 1493.87 408.398 1489.77 Z" fill="#000000" fill-rule="evenodd" fill-opacity="1" /><path clip-path="url(#clip300)" d="M432.345 1471.06 Q429.791 1473.61 431.019 1477.42 Q432.246 1481.2 437.288 1486.25 Q442.313 1491.27 446.11 1492.52 Q449.908 1493.73 452.461 1491.17 Q455.031 1488.6 453.803 1484.82 Q452.576 1481.01 447.55 1475.98 Q442.509 1470.94 438.712 1469.73 Q434.914 1468.49 432.345 1471.06 M429.726 1468.44 Q433.834 1464.33 439.252 1465.43 Q444.67 1466.49 450.857 1472.68 Q457.028 1478.85 458.108 1484.28 Q459.188 1489.68 455.08 1493.79 Q450.971 1497.9 445.554 1496.84 Q440.136 1495.74 433.965 1489.57 Q427.778 1483.38 426.698 1477.98 Q425.617 1472.55 429.726 1468.44 Z" fill="#000000" fill-rule="evenodd" fill-opacity="1" /><path clip-path="url(#clip300)" d="M537.504 1572.31 L542.906 1566.91 L524.262 1548.27 L519.565 1555.32 L516.553 1552.31 L521.218 1545.29 L524.524 1541.98 L546.179 1563.63 L551.581 1558.23 L554.363 1561.02 L540.287 1575.09 L537.504 1572.31 Z" fill="#000000" fill-rule="evenodd" fill-opacity="1" /><path clip-path="url(#clip300)" d="M536.637 1529.87 L549.616 1516.89 L552.399 1519.67 L542.447 1529.62 L548.438 1535.61 Q548.913 1534.65 549.518 1533.81 Q550.107 1532.96 550.828 1532.24 Q554.92 1528.15 559.552 1528 Q564.184 1527.85 568.014 1531.68 Q571.959 1535.63 571.697 1540.28 Q571.419 1544.91 566.95 1549.38 Q565.412 1550.92 563.546 1552.26 Q561.696 1553.58 559.47 1554.76 L556.147 1551.44 Q558.422 1550.77 560.387 1549.59 Q562.351 1548.41 564.102 1546.66 Q566.934 1543.83 567.098 1540.69 Q567.261 1537.54 564.708 1534.99 Q562.154 1532.44 559.012 1532.6 Q555.869 1532.76 553.037 1535.6 Q551.712 1536.92 550.68 1538.54 Q549.666 1540.15 548.913 1542.14 L536.637 1529.87 Z" fill="#000000" fill-rule="evenodd" fill-opacity="1" /><path clip-path="url(#clip300)" d="M578.555 1528.51 L582.009 1525.06 L586.166 1529.21 L582.713 1532.67 L578.555 1528.51 M565.379 1515.33 L568.833 1511.88 L572.99 1516.04 L569.536 1519.49 L565.379 1515.33 Z" fill="#000000" fill-rule="evenodd" fill-opacity="1" /><path clip-path="url(#clip300)" d="M578.473 1492.38 Q575.92 1494.94 577.148 1498.75 Q578.375 1502.53 583.417 1507.57 Q588.442 1512.6 592.239 1513.84 Q596.036 1515.05 598.59 1512.5 Q601.16 1509.93 599.932 1506.15 Q598.704 1502.34 593.679 1497.31 Q588.638 1492.27 584.841 1491.06 Q581.043 1489.81 578.473 1492.38 M575.855 1489.77 Q579.963 1485.66 585.381 1486.75 Q590.799 1487.82 596.986 1494 Q603.157 1500.18 604.237 1505.61 Q605.317 1511.01 601.209 1515.12 Q597.1 1519.23 591.683 1518.16 Q586.265 1517.07 580.094 1510.9 Q573.907 1504.71 572.826 1499.31 Q571.746 1493.87 575.855 1489.77 Z" fill="#000000" fill-rule="evenodd" fill-opacity="1" /><path clip-path="url(#clip300)" d="M599.801 1471.06 Q597.248 1473.61 598.475 1477.42 Q599.703 1481.2 604.744 1486.25 Q609.769 1491.27 613.567 1492.52 Q617.364 1493.73 619.918 1491.17 Q622.487 1488.6 621.26 1484.82 Q620.032 1481.01 615.007 1475.98 Q609.966 1470.94 606.168 1469.73 Q602.371 1468.49 599.801 1471.06 M597.182 1468.44 Q601.291 1464.33 606.708 1465.43 Q612.126 1466.49 618.313 1472.68 Q624.484 1478.85 625.565 1484.28 Q626.645 1489.68 622.536 1493.79 Q618.428 1497.9 613.01 1496.84 Q607.592 1495.74 601.422 1489.57 Q595.234 1483.38 594.154 1477.98 Q593.074 1472.55 597.182 1468.44 Z" fill="#000000" fill-rule="evenodd" fill-opacity="1" /><path clip-path="url(#clip300)" d="M704.961 1572.31 L710.362 1566.91 L691.719 1548.27 L687.021 1555.32 L684.009 1552.31 L688.674 1545.29 L691.981 1541.98 L713.636 1563.63 L719.037 1558.23 L721.82 1561.02 L707.743 1575.09 L704.961 1572.31 Z" fill="#000000" fill-rule="evenodd" fill-opacity="1" /><path clip-path="url(#clip300)" d="M722.442 1533.32 Q720.216 1535.55 720.428 1538.38 Q720.658 1541.19 723.309 1543.85 Q725.945 1546.48 728.776 1546.73 Q731.608 1546.94 733.834 1544.71 Q736.06 1542.49 735.831 1539.67 Q735.602 1536.82 732.966 1534.19 Q730.315 1531.54 727.483 1531.32 Q724.668 1531.09 722.442 1533.32 M718.644 1516.4 L721.656 1519.41 Q719.823 1520.06 718.235 1521.03 Q716.664 1521.98 715.42 1523.22 Q712.146 1526.5 712.621 1530.44 Q713.112 1534.37 717.335 1539.08 Q716.877 1536.69 717.58 1534.48 Q718.268 1532.26 720.019 1530.51 Q723.702 1526.82 728.072 1526.94 Q732.443 1527.02 736.289 1530.87 Q740.054 1534.63 740.103 1539.13 Q740.152 1543.63 736.453 1547.33 Q732.214 1551.57 726.73 1550.57 Q721.231 1549.56 715.06 1543.39 Q709.265 1537.59 708.578 1531.41 Q707.874 1525.2 712.506 1520.57 Q713.75 1519.33 715.256 1518.31 Q716.778 1517.28 718.644 1516.4 Z" fill="#000000" fill-rule="evenodd" fill-opacity="1" /><path clip-path="url(#clip300)" d="M746.012 1528.51 L749.466 1525.06 L753.623 1529.21 L750.169 1532.67 L746.012 1528.51 M732.836 1515.33 L736.289 1511.88 L740.447 1516.04 L736.993 1519.49 L732.836 1515.33 Z" fill="#000000" fill-rule="evenodd" fill-opacity="1" /><path clip-path="url(#clip300)" d="M745.93 1492.38 Q743.377 1494.94 744.604 1498.75 Q745.832 1502.53 750.873 1507.57 Q755.898 1512.6 759.696 1513.84 Q763.493 1515.05 766.046 1512.5 Q768.616 1509.93 767.389 1506.15 Q766.161 1502.34 761.136 1497.31 Q756.095 1492.27 752.297 1491.06 Q748.5 1489.81 745.93 1492.38 M743.311 1489.77 Q747.42 1485.66 752.837 1486.75 Q758.255 1487.82 764.442 1494 Q770.613 1500.18 771.693 1505.61 Q772.774 1511.01 768.665 1515.12 Q764.557 1519.23 759.139 1518.16 Q753.721 1517.07 747.55 1510.9 Q741.363 1504.71 740.283 1499.31 Q739.203 1493.87 743.311 1489.77 Z" fill="#000000" fill-rule="evenodd" fill-opacity="1" /><path clip-path="url(#clip300)" d="M767.258 1471.06 Q764.704 1473.61 765.932 1477.42 Q767.159 1481.2 772.201 1486.25 Q777.226 1491.27 781.023 1492.52 Q784.821 1493.73 787.374 1491.17 Q789.944 1488.6 788.716 1484.82 Q787.489 1481.01 782.464 1475.98 Q777.422 1470.94 773.625 1469.73 Q769.827 1468.49 767.258 1471.06 M764.639 1468.44 Q768.747 1464.33 774.165 1465.43 Q779.583 1466.49 785.77 1472.68 Q791.941 1478.85 793.021 1484.28 Q794.101 1489.68 789.993 1493.79 Q785.885 1497.9 780.467 1496.84 Q775.049 1495.74 768.878 1489.57 Q762.691 1483.38 761.611 1477.98 Q760.53 1472.55 764.639 1468.44 Z" fill="#000000" fill-rule="evenodd" fill-opacity="1" /><path clip-path="url(#clip300)" d="M872.417 1572.31 L877.819 1566.91 L859.175 1548.27 L854.478 1555.32 L851.466 1552.31 L856.131 1545.29 L859.437 1541.98 L881.092 1563.63 L886.494 1558.23 L889.276 1561.02 L875.2 1575.09 L872.417 1572.31 Z" fill="#000000" fill-rule="evenodd" fill-opacity="1" /><path clip-path="url(#clip300)" d="M870.682 1530.73 L886.396 1515.02 L887.803 1516.43 L901.962 1548.33 L898.508 1551.78 L885.201 1521.78 L873.465 1533.52 L870.682 1530.73 Z" fill="#000000" fill-rule="evenodd" fill-opacity="1" /><path clip-path="url(#clip300)" d="M913.468 1528.51 L916.922 1525.06 L921.08 1529.21 L917.626 1532.67 L913.468 1528.51 M900.292 1515.33 L903.746 1511.88 L907.903 1516.04 L904.45 1519.49 L900.292 1515.33 Z" fill="#000000" fill-rule="evenodd" fill-opacity="1" /><path clip-path="url(#clip300)" d="M913.387 1492.38 Q910.833 1494.94 912.061 1498.75 Q913.288 1502.53 918.33 1507.57 Q923.355 1512.6 927.152 1513.84 Q930.95 1515.05 933.503 1512.5 Q936.073 1509.93 934.845 1506.15 Q933.618 1502.34 928.593 1497.31 Q923.551 1492.27 919.754 1491.06 Q915.956 1489.81 913.387 1492.38 M910.768 1489.77 Q914.876 1485.66 920.294 1486.75 Q925.712 1487.82 931.899 1494 Q938.07 1500.18 939.15 1505.61 Q940.23 1511.01 936.122 1515.12 Q932.014 1519.23 926.596 1518.16 Q921.178 1517.07 915.007 1510.9 Q908.82 1504.71 907.74 1499.31 Q906.659 1493.87 910.768 1489.77 Z" fill="#000000" fill-rule="evenodd" fill-opacity="1" /><path clip-path="url(#clip300)" d="M934.714 1471.06 Q932.161 1473.61 933.388 1477.42 Q934.616 1481.2 939.657 1486.25 Q944.682 1491.27 948.48 1492.52 Q952.277 1493.73 954.831 1491.17 Q957.401 1488.6 956.173 1484.82 Q954.945 1481.01 949.92 1475.98 Q944.879 1470.94 941.081 1469.73 Q937.284 1468.49 934.714 1471.06 M932.095 1468.44 Q936.204 1464.33 941.622 1465.43 Q947.039 1466.49 953.227 1472.68 Q959.397 1478.85 960.478 1484.28 Q961.558 1489.68 957.45 1493.79 Q953.341 1497.9 947.923 1496.84 Q942.506 1495.74 936.335 1489.57 Q930.148 1483.38 929.067 1477.98 Q927.987 1472.55 932.095 1468.44 Z" fill="#000000" fill-rule="evenodd" fill-opacity="1" /><path clip-path="url(#clip300)" d="M1039.87 1572.31 L1045.28 1566.91 L1026.63 1548.27 L1021.93 1555.32 L1018.92 1552.31 L1023.59 1545.29 L1026.89 1541.98 L1048.55 1563.63 L1053.95 1558.23 L1056.73 1561.02 L1042.66 1575.09 L1039.87 1572.31 Z" fill="#000000" fill-rule="evenodd" fill-opacity="1" /><path clip-path="url(#clip300)" d="M1058.88 1535.66 Q1056.52 1538.02 1056.42 1540.64 Q1056.34 1543.24 1058.55 1545.45 Q1060.76 1547.66 1063.36 1547.58 Q1065.98 1547.48 1068.34 1545.12 Q1070.69 1542.77 1070.79 1540.15 Q1070.88 1537.51 1068.68 1535.32 Q1066.47 1533.11 1063.85 1533.21 Q1061.25 1533.29 1058.88 1535.66 M1054.16 1537.56 Q1051.51 1539.16 1048.86 1538.9 Q1046.22 1538.62 1044.13 1536.53 Q1041.2 1533.6 1041.58 1529.82 Q1041.97 1526.02 1045.6 1522.39 Q1049.25 1518.74 1053.03 1518.36 Q1056.81 1517.98 1059.74 1520.91 Q1061.84 1523.01 1062.1 1525.66 Q1062.38 1528.3 1060.79 1530.93 Q1063.74 1529.1 1066.68 1529.39 Q1069.65 1529.67 1071.99 1532.01 Q1075.54 1535.56 1075.26 1539.64 Q1075 1543.7 1070.96 1547.74 Q1066.91 1551.78 1062.84 1552.06 Q1058.78 1552.32 1055.23 1548.77 Q1052.89 1546.43 1052.61 1543.47 Q1052.33 1540.51 1054.16 1537.56 M1047.73 1533.55 Q1049.63 1535.45 1051.87 1535.33 Q1054.13 1535.2 1056.27 1533.06 Q1058.4 1530.93 1058.53 1528.67 Q1058.68 1526.4 1056.78 1524.5 Q1054.88 1522.6 1052.61 1522.75 Q1050.35 1522.88 1048.22 1525.01 Q1046.08 1527.15 1045.95 1529.41 Q1045.83 1531.65 1047.73 1533.55 Z" fill="#000000" fill-rule="evenodd" fill-opacity="1" /><path clip-path="url(#clip300)" d="M1080.93 1528.51 L1084.38 1525.06 L1088.54 1529.21 L1085.08 1532.67 L1080.93 1528.51 M1067.75 1515.33 L1071.2 1511.88 L1075.36 1516.04 L1071.91 1519.49 L1067.75 1515.33 Z" fill="#000000" fill-rule="evenodd" fill-opacity="1" /><path clip-path="url(#clip300)" d="M1080.84 1492.38 Q1078.29 1494.94 1079.52 1498.75 Q1080.75 1502.53 1085.79 1507.57 Q1090.81 1512.6 1094.61 1513.84 Q1098.41 1515.05 1100.96 1512.5 Q1103.53 1509.93 1102.3 1506.15 Q1101.07 1502.34 1096.05 1497.31 Q1091.01 1492.27 1087.21 1491.06 Q1083.41 1489.81 1080.84 1492.38 M1078.22 1489.77 Q1082.33 1485.66 1087.75 1486.75 Q1093.17 1487.82 1099.36 1494 Q1105.53 1500.18 1106.61 1505.61 Q1107.69 1511.01 1103.58 1515.12 Q1099.47 1519.23 1094.05 1518.16 Q1088.63 1517.07 1082.46 1510.9 Q1076.28 1504.71 1075.2 1499.31 Q1074.12 1493.87 1078.22 1489.77 Z" fill="#000000" fill-rule="evenodd" fill-opacity="1" /><path clip-path="url(#clip300)" d="M1102.17 1471.06 Q1099.62 1473.61 1100.85 1477.42 Q1102.07 1481.2 1107.11 1486.25 Q1112.14 1491.27 1115.94 1492.52 Q1119.73 1493.73 1122.29 1491.17 Q1124.86 1488.6 1123.63 1484.82 Q1122.4 1481.01 1117.38 1475.98 Q1112.34 1470.94 1108.54 1469.73 Q1104.74 1468.49 1102.17 1471.06 M1099.55 1468.44 Q1103.66 1464.33 1109.08 1465.43 Q1114.5 1466.49 1120.68 1472.68 Q1126.85 1478.85 1127.93 1484.28 Q1129.01 1489.68 1124.91 1493.79 Q1120.8 1497.9 1115.38 1496.84 Q1109.96 1495.74 1103.79 1489.57 Q1097.6 1483.38 1096.52 1477.98 Q1095.44 1472.55 1099.55 1468.44 Z" fill="#000000" fill-rule="evenodd" fill-opacity="1" /><path clip-path="url(#clip300)" d="M1207.33 1572.31 L1212.73 1566.91 L1194.09 1548.27 L1189.39 1555.32 L1186.38 1552.31 L1191.04 1545.29 L1194.35 1541.98 L1216.01 1563.63 L1221.41 1558.23 L1224.19 1561.02 L1210.11 1575.09 L1207.33 1572.31 Z" fill="#000000" fill-rule="evenodd" fill-opacity="1" /><path clip-path="url(#clip300)" d="M1230.46 1553.73 L1227.45 1550.72 Q1229.28 1550.07 1230.87 1549.1 Q1232.46 1548.13 1233.68 1546.91 Q1236.96 1543.63 1236.48 1539.72 Q1236.01 1535.78 1231.77 1531.05 Q1232.23 1533.4 1231.52 1535.61 Q1230.82 1537.82 1229.05 1539.59 Q1225.38 1543.26 1221.03 1543.19 Q1216.68 1543.09 1212.83 1539.25 Q1209.07 1535.48 1209.02 1530.98 Q1208.97 1526.48 1212.67 1522.78 Q1216.91 1518.54 1222.39 1519.57 Q1227.87 1520.57 1234.06 1526.76 Q1239.84 1532.54 1240.54 1538.74 Q1241.25 1544.91 1236.61 1549.54 Q1235.37 1550.79 1233.85 1551.82 Q1232.32 1552.85 1230.46 1553.73 M1226.68 1536.79 Q1228.9 1534.56 1228.67 1531.75 Q1228.46 1528.92 1225.81 1526.27 Q1223.17 1523.63 1220.34 1523.42 Q1217.51 1523.17 1215.29 1525.4 Q1213.06 1527.62 1213.29 1530.47 Q1213.52 1533.29 1216.15 1535.92 Q1218.8 1538.58 1221.62 1538.8 Q1224.45 1539.02 1226.68 1536.79 Z" fill="#000000" fill-rule="evenodd" fill-opacity="1" /><path clip-path="url(#clip300)" d="M1248.38 1528.51 L1251.84 1525.06 L1255.99 1529.21 L1252.54 1532.67 L1248.38 1528.51 M1235.21 1515.33 L1238.66 1511.88 L1242.82 1516.04 L1239.36 1519.49 L1235.21 1515.33 Z" fill="#000000" fill-rule="evenodd" fill-opacity="1" /><path clip-path="url(#clip300)" d="M1248.3 1492.38 Q1245.75 1494.94 1246.97 1498.75 Q1248.2 1502.53 1253.24 1507.57 Q1258.27 1512.6 1262.07 1513.84 Q1265.86 1515.05 1268.42 1512.5 Q1270.99 1509.93 1269.76 1506.15 Q1268.53 1502.34 1263.51 1497.31 Q1258.46 1492.27 1254.67 1491.06 Q1250.87 1489.81 1248.3 1492.38 M1245.68 1489.77 Q1249.79 1485.66 1255.21 1486.75 Q1260.63 1487.82 1266.81 1494 Q1272.98 1500.18 1274.06 1505.61 Q1275.14 1511.01 1271.04 1515.12 Q1266.93 1519.23 1261.51 1518.16 Q1256.09 1517.07 1249.92 1510.9 Q1243.73 1504.71 1242.65 1499.31 Q1241.57 1493.87 1245.68 1489.77 Z" fill="#000000" fill-rule="evenodd" fill-opacity="1" /><path clip-path="url(#clip300)" d="M1269.63 1471.06 Q1267.07 1473.61 1268.3 1477.42 Q1269.53 1481.2 1274.57 1486.25 Q1279.6 1491.27 1283.39 1492.52 Q1287.19 1493.73 1289.74 1491.17 Q1292.31 1488.6 1291.09 1484.82 Q1289.86 1481.01 1284.83 1475.98 Q1279.79 1470.94 1275.99 1469.73 Q1272.2 1468.49 1269.63 1471.06 M1267.01 1468.44 Q1271.12 1464.33 1276.53 1465.43 Q1281.95 1466.49 1288.14 1472.68 Q1294.31 1478.85 1295.39 1484.28 Q1296.47 1489.68 1292.36 1493.79 Q1288.25 1497.9 1282.84 1496.84 Q1277.42 1495.74 1271.25 1489.57 Q1265.06 1483.38 1263.98 1477.98 Q1262.9 1472.55 1267.01 1468.44 Z" fill="#000000" fill-rule="evenodd" fill-opacity="1" /><path clip-path="url(#clip300)" d="M1377.06 1570.03 L1388.6 1558.5 L1391.38 1561.28 L1375.87 1576.79 L1373.08 1574.01 Q1373.02 1570.18 1372.99 1563.67 Q1372.95 1557.12 1372.84 1555.34 Q1372.64 1551.96 1372.04 1550.11 Q1371.43 1548.23 1370.24 1547.04 Q1368.29 1545.09 1365.69 1545.24 Q1363.1 1545.37 1360.91 1547.56 Q1359.35 1549.12 1358.16 1551.39 Q1356.98 1553.65 1356.11 1556.71 L1352.77 1553.37 Q1353.97 1550.57 1355.29 1548.43 Q1356.62 1546.28 1358.06 1544.84 Q1361.86 1541.05 1366.01 1540.69 Q1370.17 1540.33 1373.35 1543.5 Q1374.85 1545.01 1375.64 1546.94 Q1376.42 1548.84 1376.77 1552.16 Q1376.83 1553.04 1376.91 1557.51 Q1376.98 1561.97 1377.06 1570.03 Z" fill="#000000" fill-rule="evenodd" fill-opacity="1" /><path clip-path="url(#clip300)" d="M1383.13 1525.01 Q1380.58 1527.56 1381.81 1531.37 Q1383.04 1535.15 1388.08 1540.2 Q1393.1 1545.22 1396.9 1546.46 Q1400.7 1547.68 1403.25 1545.12 Q1405.82 1542.55 1404.59 1538.77 Q1403.37 1534.96 1398.34 1529.93 Q1393.3 1524.89 1389.5 1523.68 Q1385.7 1522.44 1383.13 1525.01 M1380.52 1522.39 Q1384.62 1518.28 1390.04 1519.38 Q1395.46 1520.44 1401.65 1526.63 Q1407.82 1532.8 1408.9 1538.23 Q1409.98 1543.63 1405.87 1547.74 Q1401.76 1551.85 1396.34 1550.79 Q1390.93 1549.69 1384.76 1543.52 Q1378.57 1537.33 1377.49 1531.93 Q1376.41 1526.5 1380.52 1522.39 Z" fill="#000000" fill-rule="evenodd" fill-opacity="1" /><path clip-path="url(#clip300)" d="M1415.84 1528.51 L1419.29 1525.06 L1423.45 1529.21 L1420 1532.67 L1415.84 1528.51 M1402.66 1515.33 L1406.12 1511.88 L1410.27 1516.04 L1406.82 1519.49 L1402.66 1515.33 Z" fill="#000000" fill-rule="evenodd" fill-opacity="1" /><path clip-path="url(#clip300)" d="M1415.76 1492.38 Q1413.2 1494.94 1414.43 1498.75 Q1415.66 1502.53 1420.7 1507.57 Q1425.72 1512.6 1429.52 1513.84 Q1433.32 1515.05 1435.87 1512.5 Q1438.44 1509.93 1437.22 1506.15 Q1435.99 1502.34 1430.96 1497.31 Q1425.92 1492.27 1422.12 1491.06 Q1418.33 1489.81 1415.76 1492.38 M1413.14 1489.77 Q1417.25 1485.66 1422.66 1486.75 Q1428.08 1487.82 1434.27 1494 Q1440.44 1500.18 1441.52 1505.61 Q1442.6 1511.01 1438.49 1515.12 Q1434.38 1519.23 1428.97 1518.16 Q1423.55 1517.07 1417.38 1510.9 Q1411.19 1504.71 1410.11 1499.31 Q1409.03 1493.87 1413.14 1489.77 Z" fill="#000000" fill-rule="evenodd" fill-opacity="1" /><path clip-path="url(#clip300)" d="M1437.08 1471.06 Q1434.53 1473.61 1435.76 1477.42 Q1436.99 1481.2 1442.03 1486.25 Q1447.05 1491.27 1450.85 1492.52 Q1454.65 1493.73 1457.2 1491.17 Q1459.77 1488.6 1458.54 1484.82 Q1457.32 1481.01 1452.29 1475.98 Q1447.25 1470.94 1443.45 1469.73 Q1439.65 1468.49 1437.08 1471.06 M1434.47 1468.44 Q1438.57 1464.33 1443.99 1465.43 Q1449.41 1466.49 1455.6 1472.68 Q1461.77 1478.85 1462.85 1484.28 Q1463.93 1489.68 1459.82 1493.79 Q1455.71 1497.9 1450.29 1496.84 Q1444.88 1495.74 1438.7 1489.57 Q1432.52 1483.38 1431.44 1477.98 Q1430.36 1472.55 1434.47 1468.44 Z" fill="#000000" fill-rule="evenodd" fill-opacity="1" /><path clip-path="url(#clip300)" d="M1544.52 1570.03 L1556.06 1558.5 L1558.84 1561.28 L1543.32 1576.79 L1540.54 1574.01 Q1540.48 1570.18 1540.44 1563.67 Q1540.41 1557.12 1540.3 1555.34 Q1540.1 1551.96 1539.49 1550.11 Q1538.89 1548.23 1537.69 1547.04 Q1535.75 1545.09 1533.14 1545.24 Q1530.56 1545.37 1528.36 1547.56 Q1526.81 1549.12 1525.61 1551.39 Q1524.44 1553.65 1523.57 1556.71 L1520.23 1553.37 Q1521.42 1550.57 1522.75 1548.43 Q1524.07 1546.28 1525.52 1544.84 Q1529.31 1541.05 1533.47 1540.69 Q1537.63 1540.33 1540.8 1543.5 Q1542.31 1545.01 1543.09 1546.94 Q1543.88 1548.84 1544.22 1552.16 Q1544.29 1553.04 1544.37 1557.51 Q1544.44 1561.97 1544.52 1570.03 Z" fill="#000000" fill-rule="evenodd" fill-opacity="1" /><path clip-path="url(#clip300)" d="M1563.57 1550.98 L1568.97 1545.58 L1550.33 1526.94 L1545.63 1533.99 L1542.62 1530.98 L1547.28 1523.96 L1550.59 1520.65 L1572.25 1542.31 L1577.65 1536.91 L1580.43 1539.69 L1566.35 1553.76 L1563.57 1550.98 Z" fill="#000000" fill-rule="evenodd" fill-opacity="1" /><path clip-path="url(#clip300)" d="M1583.29 1528.51 L1586.75 1525.06 L1590.91 1529.21 L1587.45 1532.67 L1583.29 1528.51 M1570.12 1515.33 L1573.57 1511.88 L1577.73 1516.04 L1574.28 1519.49 L1570.12 1515.33 Z" fill="#000000" fill-rule="evenodd" fill-opacity="1" /><path clip-path="url(#clip300)" d="M1583.21 1492.38 Q1580.66 1494.94 1581.89 1498.75 Q1583.11 1502.53 1588.16 1507.57 Q1593.18 1512.6 1596.98 1513.84 Q1600.78 1515.05 1603.33 1512.5 Q1605.9 1509.93 1604.67 1506.15 Q1603.44 1502.34 1598.42 1497.31 Q1593.38 1492.27 1589.58 1491.06 Q1585.78 1489.81 1583.21 1492.38 M1580.59 1489.77 Q1584.7 1485.66 1590.12 1486.75 Q1595.54 1487.82 1601.73 1494 Q1607.9 1500.18 1608.98 1505.61 Q1610.06 1511.01 1605.95 1515.12 Q1601.84 1519.23 1596.42 1518.16 Q1591 1517.07 1584.83 1510.9 Q1578.65 1504.71 1577.57 1499.31 Q1576.49 1493.87 1580.59 1489.77 Z" fill="#000000" fill-rule="evenodd" fill-opacity="1" /><path clip-path="url(#clip300)" d="M1604.54 1471.06 Q1601.99 1473.61 1603.21 1477.42 Q1604.44 1481.2 1609.48 1486.25 Q1614.51 1491.27 1618.31 1492.52 Q1622.1 1493.73 1624.66 1491.17 Q1627.23 1488.6 1626 1484.82 Q1624.77 1481.01 1619.75 1475.98 Q1614.71 1470.94 1610.91 1469.73 Q1607.11 1468.49 1604.54 1471.06 M1601.92 1468.44 Q1606.03 1464.33 1611.45 1465.43 Q1616.87 1466.49 1623.05 1472.68 Q1629.22 1478.85 1630.3 1484.28 Q1631.38 1489.68 1627.28 1493.79 Q1623.17 1497.9 1617.75 1496.84 Q1612.33 1495.74 1606.16 1489.57 Q1599.97 1483.38 1598.89 1477.98 Q1597.81 1472.55 1601.92 1468.44 Z" fill="#000000" fill-rule="evenodd" fill-opacity="1" /><path clip-path="url(#clip300)" d="M1711.98 1570.03 L1723.51 1558.5 L1726.3 1561.28 L1710.78 1576.79 L1708 1574.01 Q1707.93 1570.18 1707.9 1563.67 Q1707.87 1557.12 1707.75 1555.34 Q1707.56 1551.96 1706.95 1550.11 Q1706.34 1548.23 1705.15 1547.04 Q1703.2 1545.09 1700.6 1545.24 Q1698.01 1545.37 1695.82 1547.56 Q1694.27 1549.12 1693.07 1551.39 Q1691.89 1553.65 1691.02 1556.71 L1687.69 1553.37 Q1688.88 1550.57 1690.21 1548.43 Q1691.53 1546.28 1692.97 1544.84 Q1696.77 1541.05 1700.93 1540.69 Q1705.08 1540.33 1708.26 1543.5 Q1709.77 1545.01 1710.55 1546.94 Q1711.34 1548.84 1711.68 1552.16 Q1711.75 1553.04 1711.83 1557.51 Q1711.89 1561.97 1711.98 1570.03 Z" fill="#000000" fill-rule="evenodd" fill-opacity="1" /><path clip-path="url(#clip300)" d="M1733.3 1548.71 L1744.84 1537.17 L1747.63 1539.95 L1732.11 1555.47 L1729.33 1552.68 Q1729.26 1548.85 1729.23 1542.34 Q1729.19 1535.79 1729.08 1534.01 Q1728.88 1530.64 1728.28 1528.79 Q1727.67 1526.9 1726.48 1525.71 Q1724.53 1523.76 1721.93 1523.91 Q1719.34 1524.04 1717.15 1526.23 Q1715.59 1527.79 1714.4 1530.06 Q1713.22 1532.32 1712.35 1535.38 L1709.01 1532.04 Q1710.21 1529.25 1711.53 1527.1 Q1712.86 1524.96 1714.3 1523.52 Q1718.1 1519.72 1722.25 1519.36 Q1726.41 1519 1729.59 1522.17 Q1731.09 1523.68 1731.88 1525.61 Q1732.66 1527.51 1733.01 1530.83 Q1733.07 1531.72 1733.16 1536.19 Q1733.22 1540.64 1733.3 1548.71 Z" fill="#000000" fill-rule="evenodd" fill-opacity="1" /><path clip-path="url(#clip300)" d="M1750.75 1528.51 L1754.21 1525.06 L1758.36 1529.21 L1754.91 1532.67 L1750.75 1528.51 M1737.58 1515.33 L1741.03 1511.88 L1745.19 1516.04 L1741.73 1519.49 L1737.58 1515.33 Z" fill="#000000" fill-rule="evenodd" fill-opacity="1" /><path clip-path="url(#clip300)" d="M1750.67 1492.38 Q1748.12 1494.94 1749.34 1498.75 Q1750.57 1502.53 1755.61 1507.57 Q1760.64 1512.6 1764.44 1513.84 Q1768.23 1515.05 1770.79 1512.5 Q1773.36 1509.93 1772.13 1506.15 Q1770.9 1502.34 1765.88 1497.31 Q1760.83 1492.27 1757.04 1491.06 Q1753.24 1489.81 1750.67 1492.38 M1748.05 1489.77 Q1752.16 1485.66 1757.58 1486.75 Q1762.99 1487.82 1769.18 1494 Q1775.35 1500.18 1776.43 1505.61 Q1777.51 1511.01 1773.4 1515.12 Q1769.3 1519.23 1763.88 1518.16 Q1758.46 1517.07 1752.29 1510.9 Q1746.1 1504.71 1745.02 1499.31 Q1743.94 1493.87 1748.05 1489.77 Z" fill="#000000" fill-rule="evenodd" fill-opacity="1" /><path clip-path="url(#clip300)" d="M1772 1471.06 Q1769.44 1473.61 1770.67 1477.42 Q1771.9 1481.2 1776.94 1486.25 Q1781.97 1491.27 1785.76 1492.52 Q1789.56 1493.73 1792.11 1491.17 Q1794.68 1488.6 1793.46 1484.82 Q1792.23 1481.01 1787.2 1475.98 Q1782.16 1470.94 1778.36 1469.73 Q1774.57 1468.49 1772 1471.06 M1769.38 1468.44 Q1773.49 1464.33 1778.9 1465.43 Q1784.32 1466.49 1790.51 1472.68 Q1796.68 1478.85 1797.76 1484.28 Q1798.84 1489.68 1794.73 1493.79 Q1790.62 1497.9 1785.21 1496.84 Q1779.79 1495.74 1773.62 1489.57 Q1767.43 1483.38 1766.35 1477.98 Q1765.27 1472.55 1769.38 1468.44 Z" fill="#000000" fill-rule="evenodd" fill-opacity="1" /><path clip-path="url(#clip300)" d="M1879.43 1570.03 L1890.97 1558.5 L1893.75 1561.28 L1878.24 1576.79 L1875.45 1574.01 Q1875.39 1570.18 1875.36 1563.67 Q1875.32 1557.12 1875.21 1555.34 Q1875.01 1551.96 1874.41 1550.11 Q1873.8 1548.23 1872.61 1547.04 Q1870.66 1545.09 1868.06 1545.24 Q1865.47 1545.37 1863.28 1547.56 Q1861.72 1549.12 1860.53 1551.39 Q1859.35 1553.65 1858.48 1556.71 L1855.14 1553.37 Q1856.34 1550.57 1857.66 1548.43 Q1858.99 1546.28 1860.43 1544.84 Q1864.23 1541.05 1868.38 1540.69 Q1872.54 1540.33 1875.72 1543.5 Q1877.22 1545.01 1878.01 1546.94 Q1878.79 1548.84 1879.14 1552.16 Q1879.2 1553.04 1879.28 1557.51 Q1879.35 1561.97 1879.43 1570.03 Z" fill="#000000" fill-rule="evenodd" fill-opacity="1" /><path clip-path="url(#clip300)" d="M1897.54 1531.14 Q1900.42 1529.28 1903.35 1529.56 Q1906.29 1529.82 1908.65 1532.18 Q1912.27 1535.79 1911.76 1540.26 Q1911.25 1544.73 1906.67 1549.31 Q1905.13 1550.85 1903.18 1552.18 Q1901.27 1553.5 1898.93 1554.63 L1895.73 1551.44 Q1897.91 1550.87 1899.96 1549.64 Q1902 1548.41 1903.79 1546.63 Q1906.9 1543.52 1907.29 1540.67 Q1907.7 1537.81 1905.36 1535.47 Q1903.2 1533.3 1900.46 1533.62 Q1897.73 1533.89 1895.03 1536.59 L1892.18 1539.44 L1889.47 1536.73 L1892.44 1533.75 Q1894.88 1531.31 1895.21 1529.05 Q1895.52 1526.77 1893.69 1524.94 Q1891.81 1523.06 1889.47 1523.4 Q1887.12 1523.71 1884.64 1526.2 Q1883.28 1527.56 1882.02 1529.41 Q1880.76 1531.26 1879.51 1533.75 L1876.57 1530.8 Q1877.93 1528.39 1879.3 1526.5 Q1880.69 1524.58 1882.15 1523.12 Q1885.91 1519.36 1889.83 1518.88 Q1893.72 1518.39 1896.63 1521.31 Q1898.66 1523.34 1898.91 1525.91 Q1899.14 1528.46 1897.54 1531.14 Z" fill="#000000" fill-rule="evenodd" fill-opacity="1" /><path clip-path="url(#clip300)" d="M1918.21 1528.51 L1921.66 1525.06 L1925.82 1529.21 L1922.37 1532.67 L1918.21 1528.51 M1905.03 1515.33 L1908.49 1511.88 L1912.64 1516.04 L1909.19 1519.49 L1905.03 1515.33 Z" fill="#000000" fill-rule="evenodd" fill-opacity="1" /><path clip-path="url(#clip300)" d="M1918.13 1492.38 Q1915.57 1494.94 1916.8 1498.75 Q1918.03 1502.53 1923.07 1507.57 Q1928.09 1512.6 1931.89 1513.84 Q1935.69 1515.05 1938.24 1512.5 Q1940.81 1509.93 1939.58 1506.15 Q1938.36 1502.34 1933.33 1497.31 Q1928.29 1492.27 1924.49 1491.06 Q1920.7 1489.81 1918.13 1492.38 M1915.51 1489.77 Q1919.62 1485.66 1925.03 1486.75 Q1930.45 1487.82 1936.64 1494 Q1942.81 1500.18 1943.89 1505.61 Q1944.97 1511.01 1940.86 1515.12 Q1936.75 1519.23 1931.34 1518.16 Q1925.92 1517.07 1919.75 1510.9 Q1913.56 1504.71 1912.48 1499.31 Q1911.4 1493.87 1915.51 1489.77 Z" fill="#000000" fill-rule="evenodd" fill-opacity="1" /><path clip-path="url(#clip300)" d="M1939.45 1471.06 Q1936.9 1473.61 1938.13 1477.42 Q1939.36 1481.2 1944.4 1486.25 Q1949.42 1491.27 1953.22 1492.52 Q1957.02 1493.73 1959.57 1491.17 Q1962.14 1488.6 1960.91 1484.82 Q1959.68 1481.01 1954.66 1475.98 Q1949.62 1470.94 1945.82 1469.73 Q1942.02 1468.49 1939.45 1471.06 M1936.83 1468.44 Q1940.94 1464.33 1946.36 1465.43 Q1951.78 1466.49 1957.97 1472.68 Q1964.14 1478.85 1965.22 1484.28 Q1966.3 1489.68 1962.19 1493.79 Q1958.08 1497.9 1952.66 1496.84 Q1947.25 1495.74 1941.07 1489.57 Q1934.89 1483.38 1933.81 1477.98 Q1932.73 1472.55 1936.83 1468.44 Z" fill="#000000" fill-rule="evenodd" fill-opacity="1" /><path clip-path="url(#clip300)" d="M2031.63 1546.33 Q2029.08 1548.89 2030.31 1552.7 Q2031.54 1556.48 2036.58 1561.52 Q2041.6 1566.55 2045.4 1567.79 Q2049.2 1569 2051.75 1566.45 Q2054.32 1563.88 2053.09 1560.1 Q2051.86 1556.29 2046.84 1551.26 Q2041.8 1546.22 2038 1545.01 Q2034.2 1543.76 2031.63 1546.33 M2029.01 1543.71 Q2033.12 1539.61 2038.54 1540.7 Q2043.96 1541.77 2050.15 1547.95 Q2056.32 1554.12 2057.4 1559.56 Q2058.48 1564.96 2054.37 1569.07 Q2050.26 1573.18 2044.84 1572.11 Q2039.42 1571.02 2033.25 1564.85 Q2027.07 1558.66 2025.99 1553.26 Q2024.91 1547.82 2029.01 1543.71 Z" fill="#000000" fill-rule="evenodd" fill-opacity="1" /><path clip-path="url(#clip300)" d="M2052.96 1525.01 Q2050.41 1527.56 2051.64 1531.37 Q2052.86 1535.15 2057.9 1540.2 Q2062.93 1545.22 2066.73 1546.46 Q2070.52 1547.68 2073.08 1545.12 Q2075.65 1542.55 2074.42 1538.77 Q2073.19 1534.96 2068.17 1529.93 Q2063.13 1524.89 2059.33 1523.68 Q2055.53 1522.44 2052.96 1525.01 M2050.34 1522.39 Q2054.45 1518.28 2059.87 1519.38 Q2065.29 1520.44 2071.47 1526.63 Q2077.64 1532.8 2078.72 1538.23 Q2079.8 1543.63 2075.7 1547.74 Q2071.59 1551.85 2066.17 1550.79 Q2060.75 1549.69 2054.58 1543.52 Q2048.39 1537.33 2047.31 1531.93 Q2046.23 1526.5 2050.34 1522.39 Z" fill="#000000" fill-rule="evenodd" fill-opacity="1" /><path clip-path="url(#clip300)" d="M2085.66 1528.51 L2089.12 1525.06 L2093.28 1529.21 L2089.82 1532.67 L2085.66 1528.51 M2072.49 1515.33 L2075.94 1511.88 L2080.1 1516.04 L2076.65 1519.49 L2072.49 1515.33 Z" fill="#000000" fill-rule="evenodd" fill-opacity="1" /><path clip-path="url(#clip300)" d="M2085.58 1492.38 Q2083.03 1494.94 2084.26 1498.75 Q2085.48 1502.53 2090.53 1507.57 Q2095.55 1512.6 2099.35 1513.84 Q2103.15 1515.05 2105.7 1512.5 Q2108.27 1509.93 2107.04 1506.15 Q2105.81 1502.34 2100.79 1497.31 Q2095.75 1492.27 2091.95 1491.06 Q2088.15 1489.81 2085.58 1492.38 M2082.96 1489.77 Q2087.07 1485.66 2092.49 1486.75 Q2097.91 1487.82 2104.1 1494 Q2110.27 1500.18 2111.35 1505.61 Q2112.43 1511.01 2108.32 1515.12 Q2104.21 1519.23 2098.79 1518.16 Q2093.37 1517.07 2087.2 1510.9 Q2081.02 1504.71 2079.94 1499.31 Q2078.86 1493.87 2082.96 1489.77 Z" fill="#000000" fill-rule="evenodd" fill-opacity="1" /><path clip-path="url(#clip300)" d="M2106.91 1471.06 Q2104.36 1473.61 2105.58 1477.42 Q2106.81 1481.2 2111.85 1486.25 Q2116.88 1491.27 2120.68 1492.52 Q2124.47 1493.73 2127.03 1491.17 Q2129.6 1488.6 2128.37 1484.82 Q2127.14 1481.01 2122.12 1475.98 Q2117.08 1470.94 2113.28 1469.73 Q2109.48 1468.49 2106.91 1471.06 M2104.29 1468.44 Q2108.4 1464.33 2113.82 1465.43 Q2119.24 1466.49 2125.42 1472.68 Q2131.59 1478.85 2132.67 1484.28 Q2133.75 1489.68 2129.65 1493.79 Q2125.54 1497.9 2120.12 1496.84 Q2114.7 1495.74 2108.53 1489.57 Q2102.34 1483.38 2101.26 1477.98 Q2100.18 1472.55 2104.29 1468.44 Z" fill="#000000" fill-rule="evenodd" fill-opacity="1" /><polyline clip-path="url(#clip302)" style="stroke:#000000; stroke-linecap:butt; stroke-linejoin:round; stroke-width:2; stroke-opacity:0.1; fill:none" points="
  223.103,1227.96 2352.76,1227.96 
  "/>
<polyline clip-path="url(#clip302)" style="stroke:#000000; stroke-linecap:butt; stroke-linejoin:round; stroke-width:2; stroke-opacity:0.1; fill:none" points="
  223.103,997.731 2352.76,997.731 
  "/>
<polyline clip-path="url(#clip302)" style="stroke:#000000; stroke-linecap:butt; stroke-linejoin:round; stroke-width:2; stroke-opacity:0.1; fill:none" points="
  223.103,767.503 2352.76,767.503 
  "/>
<polyline clip-path="url(#clip302)" style="stroke:#000000; stroke-linecap:butt; stroke-linejoin:round; stroke-width:2; stroke-opacity:0.1; fill:none" points="
  223.103,537.275 2352.76,537.275 
  "/>
<polyline clip-path="url(#clip302)" style="stroke:#000000; stroke-linecap:butt; stroke-linejoin:round; stroke-width:2; stroke-opacity:0.1; fill:none" points="
  223.103,307.047 2352.76,307.047 
  "/>
<polyline clip-path="url(#clip300)" style="stroke:#000000; stroke-linecap:butt; stroke-linejoin:round; stroke-width:4; stroke-opacity:1; fill:none" points="
  223.103,1435.12 223.103,123.472 
  "/>
<polyline clip-path="url(#clip300)" style="stroke:#000000; stroke-linecap:butt; stroke-linejoin:round; stroke-width:4; stroke-opacity:1; fill:none" points="
  223.103,1227.96 242,1227.96 
  "/>
<polyline clip-path="url(#clip300)" style="stroke:#000000; stroke-linecap:butt; stroke-linejoin:round; stroke-width:4; stroke-opacity:1; fill:none" points="
  223.103,997.731 242,997.731 
  "/>
<polyline clip-path="url(#clip300)" style="stroke:#000000; stroke-linecap:butt; stroke-linejoin:round; stroke-width:4; stroke-opacity:1; fill:none" points="
  223.103,767.503 242,767.503 
  "/>
<polyline clip-path="url(#clip300)" style="stroke:#000000; stroke-linecap:butt; stroke-linejoin:round; stroke-width:4; stroke-opacity:1; fill:none" points="
  223.103,537.275 242,537.275 
  "/>
<polyline clip-path="url(#clip300)" style="stroke:#000000; stroke-linecap:butt; stroke-linejoin:round; stroke-width:4; stroke-opacity:1; fill:none" points="
  223.103,307.047 242,307.047 
  "/>
<path clip-path="url(#clip300)" d="M50.9921 1228.41 L80.6679 1228.41 L80.6679 1232.35 L50.9921 1232.35 L50.9921 1228.41 Z" fill="#000000" fill-rule="evenodd" fill-opacity="1" /><path clip-path="url(#clip300)" d="M100.76 1213.76 Q97.1493 1213.76 95.3206 1217.32 Q93.515 1220.86 93.515 1227.99 Q93.515 1235.1 95.3206 1238.66 Q97.1493 1242.21 100.76 1242.21 Q104.395 1242.21 106.2 1238.66 Q108.029 1235.1 108.029 1227.99 Q108.029 1220.86 106.2 1217.32 Q104.395 1213.76 100.76 1213.76 M100.76 1210.05 Q106.571 1210.05 109.626 1214.66 Q112.705 1219.24 112.705 1227.99 Q112.705 1236.72 109.626 1241.33 Q106.571 1245.91 100.76 1245.91 Q94.9502 1245.91 91.8715 1241.33 Q88.816 1236.72 88.816 1227.99 Q88.816 1219.24 91.8715 1214.66 Q94.9502 1210.05 100.76 1210.05 Z" fill="#000000" fill-rule="evenodd" fill-opacity="1" /><path clip-path="url(#clip300)" d="M120.922 1239.36 L125.807 1239.36 L125.807 1245.24 L120.922 1245.24 L120.922 1239.36 Z" fill="#000000" fill-rule="evenodd" fill-opacity="1" /><path clip-path="url(#clip300)" d="M145.992 1213.76 Q142.381 1213.76 140.552 1217.32 Q138.746 1220.86 138.746 1227.99 Q138.746 1235.1 140.552 1238.66 Q142.381 1242.21 145.992 1242.21 Q149.626 1242.21 151.431 1238.66 Q153.26 1235.1 153.26 1227.99 Q153.26 1220.86 151.431 1217.32 Q149.626 1213.76 145.992 1213.76 M145.992 1210.05 Q151.802 1210.05 154.857 1214.66 Q157.936 1219.24 157.936 1227.99 Q157.936 1236.72 154.857 1241.33 Q151.802 1245.91 145.992 1245.91 Q140.181 1245.91 137.103 1241.33 Q134.047 1236.72 134.047 1227.99 Q134.047 1219.24 137.103 1214.66 Q140.181 1210.05 145.992 1210.05 Z" fill="#000000" fill-rule="evenodd" fill-opacity="1" /><path clip-path="url(#clip300)" d="M166.2 1210.68 L184.556 1210.68 L184.556 1214.61 L170.482 1214.61 L170.482 1223.09 Q171.501 1222.74 172.519 1222.58 Q173.538 1222.39 174.556 1222.39 Q180.343 1222.39 183.723 1225.56 Q187.103 1228.73 187.103 1234.15 Q187.103 1239.73 183.63 1242.83 Q180.158 1245.91 173.839 1245.91 Q171.663 1245.91 169.394 1245.54 Q167.149 1245.17 164.742 1244.43 L164.742 1239.73 Q166.825 1240.86 169.047 1241.42 Q171.269 1241.97 173.746 1241.97 Q177.751 1241.97 180.089 1239.87 Q182.427 1237.76 182.427 1234.15 Q182.427 1230.54 180.089 1228.43 Q177.751 1226.33 173.746 1226.33 Q171.871 1226.33 169.996 1226.74 Q168.144 1227.16 166.2 1228.04 L166.2 1210.68 Z" fill="#000000" fill-rule="evenodd" fill-opacity="1" /><path clip-path="url(#clip300)" d="M99.765 983.529 Q96.1539 983.529 94.3252 987.094 Q92.5197 990.636 92.5197 997.765 Q92.5197 1004.87 94.3252 1008.44 Q96.1539 1011.98 99.765 1011.98 Q103.399 1011.98 105.205 1008.44 Q107.033 1004.87 107.033 997.765 Q107.033 990.636 105.205 987.094 Q103.399 983.529 99.765 983.529 M99.765 979.826 Q105.575 979.826 108.631 984.432 Q111.709 989.015 111.709 997.765 Q111.709 1006.49 108.631 1011.1 Q105.575 1015.68 99.765 1015.68 Q93.9549 1015.68 90.8762 1011.1 Q87.8206 1006.49 87.8206 997.765 Q87.8206 989.015 90.8762 984.432 Q93.9549 979.826 99.765 979.826 Z" fill="#000000" fill-rule="evenodd" fill-opacity="1" /><path clip-path="url(#clip300)" d="M119.927 1009.13 L124.811 1009.13 L124.811 1015.01 L119.927 1015.01 L119.927 1009.13 Z" fill="#000000" fill-rule="evenodd" fill-opacity="1" /><path clip-path="url(#clip300)" d="M144.996 983.529 Q141.385 983.529 139.556 987.094 Q137.751 990.636 137.751 997.765 Q137.751 1004.87 139.556 1008.44 Q141.385 1011.98 144.996 1011.98 Q148.63 1011.98 150.436 1008.44 Q152.265 1004.87 152.265 997.765 Q152.265 990.636 150.436 987.094 Q148.63 983.529 144.996 983.529 M144.996 979.826 Q150.806 979.826 153.862 984.432 Q156.941 989.015 156.941 997.765 Q156.941 1006.49 153.862 1011.1 Q150.806 1015.68 144.996 1015.68 Q139.186 1015.68 136.107 1011.1 Q133.052 1006.49 133.052 997.765 Q133.052 989.015 136.107 984.432 Q139.186 979.826 144.996 979.826 Z" fill="#000000" fill-rule="evenodd" fill-opacity="1" /><path clip-path="url(#clip300)" d="M175.158 983.529 Q171.547 983.529 169.718 987.094 Q167.913 990.636 167.913 997.765 Q167.913 1004.87 169.718 1008.44 Q171.547 1011.98 175.158 1011.98 Q178.792 1011.98 180.598 1008.44 Q182.427 1004.87 182.427 997.765 Q182.427 990.636 180.598 987.094 Q178.792 983.529 175.158 983.529 M175.158 979.826 Q180.968 979.826 184.024 984.432 Q187.103 989.015 187.103 997.765 Q187.103 1006.49 184.024 1011.1 Q180.968 1015.68 175.158 1015.68 Q169.348 1015.68 166.269 1011.1 Q163.214 1006.49 163.214 997.765 Q163.214 989.015 166.269 984.432 Q169.348 979.826 175.158 979.826 Z" fill="#000000" fill-rule="evenodd" fill-opacity="1" /><path clip-path="url(#clip300)" d="M100.76 753.301 Q97.1493 753.301 95.3206 756.866 Q93.515 760.408 93.515 767.537 Q93.515 774.644 95.3206 778.209 Q97.1493 781.75 100.76 781.75 Q104.395 781.75 106.2 778.209 Q108.029 774.644 108.029 767.537 Q108.029 760.408 106.2 756.866 Q104.395 753.301 100.76 753.301 M100.76 749.598 Q106.571 749.598 109.626 754.204 Q112.705 758.787 112.705 767.537 Q112.705 776.264 109.626 780.871 Q106.571 785.454 100.76 785.454 Q94.9502 785.454 91.8715 780.871 Q88.816 776.264 88.816 767.537 Q88.816 758.787 91.8715 754.204 Q94.9502 749.598 100.76 749.598 Z" fill="#000000" fill-rule="evenodd" fill-opacity="1" /><path clip-path="url(#clip300)" d="M120.922 778.903 L125.807 778.903 L125.807 784.783 L120.922 784.783 L120.922 778.903 Z" fill="#000000" fill-rule="evenodd" fill-opacity="1" /><path clip-path="url(#clip300)" d="M145.992 753.301 Q142.381 753.301 140.552 756.866 Q138.746 760.408 138.746 767.537 Q138.746 774.644 140.552 778.209 Q142.381 781.75 145.992 781.75 Q149.626 781.75 151.431 778.209 Q153.26 774.644 153.26 767.537 Q153.26 760.408 151.431 756.866 Q149.626 753.301 145.992 753.301 M145.992 749.598 Q151.802 749.598 154.857 754.204 Q157.936 758.787 157.936 767.537 Q157.936 776.264 154.857 780.871 Q151.802 785.454 145.992 785.454 Q140.181 785.454 137.103 780.871 Q134.047 776.264 134.047 767.537 Q134.047 758.787 137.103 754.204 Q140.181 749.598 145.992 749.598 Z" fill="#000000" fill-rule="evenodd" fill-opacity="1" /><path clip-path="url(#clip300)" d="M166.2 750.223 L184.556 750.223 L184.556 754.158 L170.482 754.158 L170.482 762.63 Q171.501 762.283 172.519 762.121 Q173.538 761.936 174.556 761.936 Q180.343 761.936 183.723 765.107 Q187.103 768.278 187.103 773.695 Q187.103 779.273 183.63 782.375 Q180.158 785.454 173.839 785.454 Q171.663 785.454 169.394 785.084 Q167.149 784.713 164.742 783.973 L164.742 779.273 Q166.825 780.408 169.047 780.963 Q171.269 781.519 173.746 781.519 Q177.751 781.519 180.089 779.412 Q182.427 777.306 182.427 773.695 Q182.427 770.084 180.089 767.977 Q177.751 765.871 173.746 765.871 Q171.871 765.871 169.996 766.287 Q168.144 766.704 166.2 767.584 L166.2 750.223 Z" fill="#000000" fill-rule="evenodd" fill-opacity="1" /><path clip-path="url(#clip300)" d="M99.765 523.074 Q96.1539 523.074 94.3252 526.638 Q92.5197 530.18 92.5197 537.31 Q92.5197 544.416 94.3252 547.981 Q96.1539 551.522 99.765 551.522 Q103.399 551.522 105.205 547.981 Q107.033 544.416 107.033 537.31 Q107.033 530.18 105.205 526.638 Q103.399 523.074 99.765 523.074 M99.765 519.37 Q105.575 519.37 108.631 523.976 Q111.709 528.56 111.709 537.31 Q111.709 546.036 108.631 550.643 Q105.575 555.226 99.765 555.226 Q93.9549 555.226 90.8762 550.643 Q87.8206 546.036 87.8206 537.31 Q87.8206 528.56 90.8762 523.976 Q93.9549 519.37 99.765 519.37 Z" fill="#000000" fill-rule="evenodd" fill-opacity="1" /><path clip-path="url(#clip300)" d="M119.927 548.675 L124.811 548.675 L124.811 554.555 L119.927 554.555 L119.927 548.675 Z" fill="#000000" fill-rule="evenodd" fill-opacity="1" /><path clip-path="url(#clip300)" d="M135.806 550.62 L143.445 550.62 L143.445 524.254 L135.135 525.921 L135.135 521.661 L143.399 519.995 L148.075 519.995 L148.075 550.62 L155.714 550.62 L155.714 554.555 L135.806 554.555 L135.806 550.62 Z" fill="#000000" fill-rule="evenodd" fill-opacity="1" /><path clip-path="url(#clip300)" d="M175.158 523.074 Q171.547 523.074 169.718 526.638 Q167.913 530.18 167.913 537.31 Q167.913 544.416 169.718 547.981 Q171.547 551.522 175.158 551.522 Q178.792 551.522 180.598 547.981 Q182.427 544.416 182.427 537.31 Q182.427 530.18 180.598 526.638 Q178.792 523.074 175.158 523.074 M175.158 519.37 Q180.968 519.37 184.024 523.976 Q187.103 528.56 187.103 537.31 Q187.103 546.036 184.024 550.643 Q180.968 555.226 175.158 555.226 Q169.348 555.226 166.269 550.643 Q163.214 546.036 163.214 537.31 Q163.214 528.56 166.269 523.976 Q169.348 519.37 175.158 519.37 Z" fill="#000000" fill-rule="evenodd" fill-opacity="1" /><path clip-path="url(#clip300)" d="M100.76 292.846 Q97.1493 292.846 95.3206 296.41 Q93.515 299.952 93.515 307.082 Q93.515 314.188 95.3206 317.753 Q97.1493 321.295 100.76 321.295 Q104.395 321.295 106.2 317.753 Q108.029 314.188 108.029 307.082 Q108.029 299.952 106.2 296.41 Q104.395 292.846 100.76 292.846 M100.76 289.142 Q106.571 289.142 109.626 293.748 Q112.705 298.332 112.705 307.082 Q112.705 315.808 109.626 320.415 Q106.571 324.998 100.76 324.998 Q94.9502 324.998 91.8715 320.415 Q88.816 315.808 88.816 307.082 Q88.816 298.332 91.8715 293.748 Q94.9502 289.142 100.76 289.142 Z" fill="#000000" fill-rule="evenodd" fill-opacity="1" /><path clip-path="url(#clip300)" d="M120.922 318.447 L125.807 318.447 L125.807 324.327 L120.922 324.327 L120.922 318.447 Z" fill="#000000" fill-rule="evenodd" fill-opacity="1" /><path clip-path="url(#clip300)" d="M136.802 320.392 L144.441 320.392 L144.441 294.026 L136.131 295.693 L136.131 291.434 L144.394 289.767 L149.07 289.767 L149.07 320.392 L156.709 320.392 L156.709 324.327 L136.802 324.327 L136.802 320.392 Z" fill="#000000" fill-rule="evenodd" fill-opacity="1" /><path clip-path="url(#clip300)" d="M166.2 289.767 L184.556 289.767 L184.556 293.702 L170.482 293.702 L170.482 302.174 Q171.501 301.827 172.519 301.665 Q173.538 301.48 174.556 301.48 Q180.343 301.48 183.723 304.651 Q187.103 307.822 187.103 313.239 Q187.103 318.818 183.63 321.92 Q180.158 324.998 173.839 324.998 Q171.663 324.998 169.394 324.628 Q167.149 324.257 164.742 323.517 L164.742 318.818 Q166.825 319.952 169.047 320.508 Q171.269 321.063 173.746 321.063 Q177.751 321.063 180.089 318.957 Q182.427 316.85 182.427 313.239 Q182.427 309.628 180.089 307.521 Q177.751 305.415 173.746 305.415 Q171.871 305.415 169.996 305.832 Q168.144 306.248 166.2 307.128 L166.2 289.767 Z" fill="#000000" fill-rule="evenodd" fill-opacity="1" /><path clip-path="url(#clip300)" d="M1162.03 63.9476 L1162.03 47.7034 L1148.66 47.7034 L1148.66 40.9789 L1170.13 40.9789 L1170.13 66.9452 Q1165.39 70.3075 1159.68 72.0494 Q1153.97 73.7508 1147.48 73.7508 Q1133.31 73.7508 1125.29 65.4869 Q1117.31 57.1826 1117.31 42.3968 Q1117.31 27.5705 1125.29 19.3066 Q1133.31 11.0023 1147.48 11.0023 Q1153.4 11.0023 1158.71 12.4606 Q1164.05 13.9189 1168.55 16.7545 L1168.55 25.464 Q1164.01 21.6156 1158.91 19.6712 Q1153.8 17.7268 1148.17 17.7268 Q1137.07 17.7268 1131.48 23.9246 Q1125.93 30.1225 1125.93 42.3968 Q1125.93 54.6305 1131.48 60.8284 Q1137.07 67.0263 1148.17 67.0263 Q1152.51 67.0263 1155.91 66.2971 Q1159.31 65.5274 1162.03 63.9476 Z" fill="#000000" fill-rule="evenodd" fill-opacity="1" /><path clip-path="url(#clip300)" d="M1205.37 49.7694 Q1196.34 49.7694 1192.85 51.8354 Q1189.37 53.9013 1189.37 58.8839 Q1189.37 62.8538 1191.96 65.2034 Q1194.6 67.5124 1199.09 67.5124 Q1205.29 67.5124 1209.02 63.1374 Q1212.78 58.7219 1212.78 51.4303 L1212.78 49.7694 L1205.37 49.7694 M1220.24 46.6907 L1220.24 72.576 L1212.78 72.576 L1212.78 65.6895 Q1210.23 69.8214 1206.43 71.8063 Q1202.62 73.7508 1197.11 73.7508 Q1190.14 73.7508 1186.01 69.8619 Q1181.92 65.9325 1181.92 59.3701 Q1181.92 51.7138 1187.02 47.825 Q1192.17 43.9361 1202.33 43.9361 L1212.78 43.9361 L1212.78 43.2069 Q1212.78 38.0623 1209.38 35.2672 Q1206.02 32.4315 1199.9 32.4315 Q1196.01 32.4315 1192.33 33.3632 Q1188.64 34.295 1185.24 36.1584 L1185.24 29.2718 Q1189.33 27.692 1193.18 26.9223 Q1197.03 26.1121 1200.67 26.1121 Q1210.52 26.1121 1215.38 31.2163 Q1220.24 36.3204 1220.24 46.6907 Z" fill="#000000" fill-rule="evenodd" fill-opacity="1" /><path clip-path="url(#clip300)" d="M1234.82 54.671 L1234.82 27.2059 L1242.28 27.2059 L1242.28 54.3874 Q1242.28 60.8284 1244.79 64.0691 Q1247.3 67.2693 1252.32 67.2693 Q1258.36 67.2693 1261.84 63.421 Q1265.37 59.5726 1265.37 52.9291 L1265.37 27.2059 L1272.82 27.2059 L1272.82 72.576 L1265.37 72.576 L1265.37 65.6084 Q1262.65 69.7404 1259.05 71.7658 Q1255.48 73.7508 1250.74 73.7508 Q1242.92 73.7508 1238.87 68.8897 Q1234.82 64.0286 1234.82 54.671 M1253.58 26.1121 L1253.58 26.1121 Z" fill="#000000" fill-rule="evenodd" fill-opacity="1" /><path clip-path="url(#clip300)" d="M1318.03 49.3643 Q1318.03 41.2625 1314.67 36.8065 Q1311.34 32.3505 1305.31 32.3505 Q1299.31 32.3505 1295.95 36.8065 Q1292.63 41.2625 1292.63 49.3643 Q1292.63 57.4256 1295.95 61.8816 Q1299.31 66.3376 1305.31 66.3376 Q1311.34 66.3376 1314.67 61.8816 Q1318.03 57.4256 1318.03 49.3643 M1325.48 66.9452 Q1325.48 78.5308 1320.34 84.1616 Q1315.19 89.8329 1304.58 89.8329 Q1300.65 89.8329 1297.17 89.2252 Q1293.68 88.6581 1290.4 87.4428 L1290.4 80.1917 Q1293.68 81.9741 1296.88 82.8248 Q1300.08 83.6755 1303.4 83.6755 Q1310.74 83.6755 1314.38 79.8271 Q1318.03 76.0193 1318.03 68.282 L1318.03 64.5957 Q1315.72 68.6061 1312.11 70.5911 Q1308.51 72.576 1303.48 72.576 Q1295.14 72.576 1290.04 66.2161 Q1284.93 59.8562 1284.93 49.3643 Q1284.93 38.832 1290.04 32.472 Q1295.14 26.1121 1303.48 26.1121 Q1308.51 26.1121 1312.11 28.0971 Q1315.72 30.082 1318.03 34.0924 L1318.03 27.2059 L1325.48 27.2059 L1325.48 66.9452 Z" fill="#000000" fill-rule="evenodd" fill-opacity="1" /><path clip-path="url(#clip300)" d="M1379.64 48.0275 L1379.64 51.6733 L1345.37 51.6733 Q1345.86 59.3701 1349.99 63.421 Q1354.16 67.4314 1361.57 67.4314 Q1365.87 67.4314 1369.88 66.3781 Q1373.93 65.3249 1377.9 63.2184 L1377.9 70.267 Q1373.89 71.9684 1369.68 72.8596 Q1365.46 73.7508 1361.13 73.7508 Q1350.27 73.7508 1343.91 67.4314 Q1337.59 61.1119 1337.59 50.3365 Q1337.59 39.1965 1343.59 32.6746 Q1349.62 26.1121 1359.83 26.1121 Q1368.99 26.1121 1374.29 32.0264 Q1379.64 37.9003 1379.64 48.0275 M1372.19 45.84 Q1372.11 39.7232 1368.74 36.0774 Q1365.42 32.4315 1359.91 32.4315 Q1353.68 32.4315 1349.91 35.9558 Q1346.18 39.4801 1345.61 45.8805 L1372.19 45.84 Z" fill="#000000" fill-rule="evenodd" fill-opacity="1" /><path clip-path="url(#clip300)" d="M1441.78 19.2256 L1421.12 51.5113 L1441.78 51.5113 L1441.78 19.2256 M1439.64 12.096 L1449.92 12.096 L1449.92 51.5113 L1458.55 51.5113 L1458.55 58.3168 L1449.92 58.3168 L1449.92 72.576 L1441.78 72.576 L1441.78 58.3168 L1414.48 58.3168 L1414.48 50.4176 L1439.64 12.096 Z" fill="#000000" fill-rule="evenodd" fill-opacity="1" /><polyline clip-path="url(#clip302)" style="stroke:#009af9; stroke-linecap:butt; stroke-linejoin:round; stroke-width:4; stroke-opacity:1; fill:none" points="
  283.376,997.731 283.422,997.731 285.329,997.731 287.237,997.731 289.144,997.731 291.051,997.731 292.958,997.731 294.912,997.731 296.819,997.731 298.726,997.731 
  300.633,997.731 302.54,997.731 304.447,997.731 306.354,997.731 308.262,997.731 310.169,997.731 311.285,997.731 313.192,997.731 315.099,997.731 317.007,997.731 
  318.914,997.731 320.821,997.731 322.775,997.731 324.682,997.731 326.589,997.731 328.496,997.731 330.403,997.731 332.31,997.731 334.217,997.731 336.125,997.731 
  338.032,997.731 339.195,997.731 341.102,997.731 343.009,997.731 344.916,997.731 346.823,997.731 348.73,997.731 350.684,997.731 352.591,997.731 354.498,997.731 
  356.405,997.731 358.313,997.731 360.22,997.731 362.127,997.731 364.034,997.731 365.941,997.731 367.104,997.731 369.011,997.731 370.918,997.731 372.825,997.731 
  374.733,997.731 376.64,997.731 378.593,997.731 380.501,997.731 382.408,997.731 384.315,997.731 386.222,997.731 388.129,997.731 390.036,997.731 391.943,997.731 
  393.851,997.731 395.013,997.731 396.921,997.731 398.828,997.731 400.735,997.731 402.642,997.731 404.549,997.731 406.503,997.731 408.41,997.731 410.317,997.731 
  412.224,997.731 414.131,997.731 416.039,997.731 417.946,997.731 419.853,997.731 421.76,997.731 422.923,997.731 424.83,997.731 426.737,997.731 428.644,997.731 
  430.551,997.731 432.459,997.731 434.412,997.731 436.319,997.731 438.227,997.731 440.134,997.731 442.041,997.731 443.948,997.731 445.855,997.731 447.762,997.731 
  449.669,997.731 450.832,997.731 452.739,997.731 454.647,997.731 456.554,997.731 458.461,997.731 460.368,997.731 462.322,997.731 464.229,997.731 466.136,997.731 
  468.043,997.731 469.95,997.731 471.857,997.731 473.765,997.731 475.672,997.731 477.579,997.731 478.742,997.731 480.649,997.731 482.556,997.731 484.463,997.731 
  486.37,997.731 488.277,997.731 490.231,997.731 492.138,997.731 494.045,997.731 495.953,997.731 497.86,997.731 499.767,997.731 501.674,997.731 503.581,997.731 
  505.488,997.731 506.651,997.731 508.558,997.731 510.465,997.731 512.373,997.731 514.28,997.731 516.187,997.731 518.141,997.731 520.048,997.731 521.955,997.731 
  523.862,997.731 525.769,997.731 527.676,997.731 529.583,997.731 531.491,997.731 533.398,997.731 534.561,997.731 536.468,997.731 538.375,997.731 540.282,997.731 
  542.189,997.731 544.096,997.731 546.05,997.731 547.957,997.731 549.864,997.731 551.771,997.731 553.679,997.731 555.586,997.731 557.493,997.731 559.4,997.731 
  561.307,997.731 562.47,997.731 564.377,997.731 566.284,997.731 568.191,997.731 570.099,997.731 572.006,997.731 573.959,997.731 575.867,997.731 577.774,997.731 
  579.681,997.731 581.588,997.731 583.495,997.731 585.402,997.731 587.309,997.731 589.217,997.731 590.379,997.731 592.287,997.731 594.194,997.731 596.101,997.731 
  598.008,997.731 599.915,997.731 601.869,997.731 603.776,997.731 605.683,997.731 607.59,997.731 609.497,997.731 611.405,997.731 613.312,997.731 615.219,997.731 
  617.126,997.731 618.289,997.731 620.196,997.731 622.103,997.731 624.01,997.731 625.917,997.731 627.825,997.731 629.778,997.731 631.685,997.731 633.593,997.731 
  635.5,997.731 637.407,997.731 639.314,997.731 641.221,997.731 643.128,997.731 645.035,997.731 646.198,997.731 648.105,997.731 650.013,997.731 651.92,997.731 
  653.827,997.731 655.734,997.731 657.688,997.731 659.595,997.731 661.502,997.731 663.409,997.731 665.316,997.731 667.223,997.731 669.131,997.731 671.038,997.731 
  672.945,997.731 674.108,997.731 676.015,997.731 677.922,997.731 679.829,997.731 681.736,997.731 683.643,997.731 685.597,997.731 687.504,997.731 689.411,997.731 
  691.319,997.731 693.226,997.731 695.133,997.731 697.04,997.731 698.947,997.731 700.854,997.731 702.017,997.731 703.924,997.731 705.831,997.731 707.739,997.731 
  709.646,997.731 711.553,997.731 713.507,997.731 715.414,997.731 717.321,997.731 719.228,997.731 721.135,997.731 723.042,997.731 724.949,997.731 726.857,997.731 
  728.764,997.731 729.927,997.731 731.834,997.731 733.741,997.731 735.648,997.731 737.555,997.731 739.462,997.731 741.416,997.731 743.323,997.731 745.23,997.731 
  747.137,997.731 749.045,997.731 750.952,997.731 752.859,997.731 754.766,997.731 756.673,997.731 757.836,997.731 759.743,997.731 761.65,997.731 763.557,997.731 
  765.465,997.731 767.372,997.731 769.279,997.731 771.233,997.731 773.14,997.731 775.047,997.731 776.954,997.731 778.861,997.731 780.768,997.731 782.675,997.731 
  784.583,997.731 785.745,997.731 787.653,997.731 789.56,997.731 791.467,997.731 793.374,997.731 795.281,997.731 797.188,997.731 799.142,997.731 801.049,997.731 
  802.956,997.731 804.863,997.731 806.771,997.731 808.678,997.731 810.585,997.731 812.492,997.731 813.655,997.731 815.562,997.731 817.469,997.731 819.376,997.731 
  821.284,997.731 823.191,997.731 825.098,997.731 827.051,997.731 828.959,997.731 830.866,997.731 832.773,997.731 834.68,997.731 836.587,997.731 838.494,997.731 
  840.401,997.731 841.564,997.731 843.472,997.731 845.379,997.731 847.286,997.731 849.193,997.731 851.1,997.731 853.007,997.731 854.961,997.731 856.868,997.731 
  858.775,997.731 860.682,997.731 862.589,997.731 864.497,997.731 866.404,997.731 868.311,997.731 869.474,997.731 871.381,997.731 873.288,997.731 875.195,997.731 
  877.102,997.731 879.01,997.731 880.917,997.731 882.87,997.731 884.777,997.731 886.685,997.731 888.592,997.731 890.499,997.731 892.406,997.731 894.313,997.731 
  896.22,997.731 897.383,997.731 899.29,997.731 901.198,997.731 903.105,997.731 905.012,997.731 906.919,997.731 908.826,997.731 910.78,997.731 912.687,997.731 
  914.594,997.731 916.501,997.731 918.408,997.731 920.315,997.731 922.223,997.731 924.13,997.731 925.293,997.731 927.2,997.731 929.107,997.731 931.014,997.731 
  932.921,997.731 934.828,997.731 936.736,997.731 938.689,997.731 940.596,997.731 942.503,997.731 944.411,997.731 946.318,997.731 948.225,997.731 950.132,997.731 
  952.039,997.731 953.202,997.731 955.109,997.731 957.016,997.731 958.924,997.731 960.831,997.731 962.738,997.731 964.645,997.731 966.599,997.731 968.506,997.731 
  970.413,997.731 972.32,997.731 974.227,997.731 976.134,997.731 978.041,997.731 979.949,997.731 981.112,997.731 983.019,997.731 984.926,997.731 986.833,997.731 
  988.74,997.731 990.647,997.731 992.554,997.731 994.508,997.731 996.415,997.731 998.322,997.731 1000.23,997.731 1002.14,997.731 1004.04,997.731 1005.95,997.731 
  1007.86,997.731 1009.02,997.731 1010.93,997.731 1012.84,997.731 1014.74,997.731 1016.65,997.731 1018.56,997.731 1020.46,997.731 1022.42,997.731 1024.32,997.731 
  1026.23,997.731 1028.14,997.731 1030.05,997.731 1031.95,997.731 1033.86,997.731 1035.77,997.731 1036.93,997.731 1038.84,997.731 1040.74,997.731 1042.65,997.731 
  1044.56,997.731 1046.47,997.731 1048.37,997.731 1050.33,997.731 1052.23,997.731 1054.14,997.731 1056.05,997.731 1057.96,997.731 1059.86,997.731 1061.77,997.731 
  1063.68,997.731 1064.84,997.731 1066.75,997.731 1068.65,997.731 1070.56,997.731 1072.47,997.731 1074.38,997.731 1076.28,997.731 1078.24,997.731 1080.14,997.731 
  1082.05,997.731 1083.96,997.731 1085.86,997.731 1087.77,997.731 1089.68,997.731 1091.59,997.731 1092.75,997.731 1094.66,997.731 1096.56,997.731 1098.47,997.731 
  1100.38,997.731 1102.28,997.731 1104.19,997.731 1106.15,997.731 1108.05,997.731 1109.96,997.731 1111.87,997.731 1113.77,997.731 1115.68,997.731 1117.59,997.731 
  1119.5,997.731 1120.66,997.731 1122.57,997.731 1124.47,997.731 1126.38,997.731 1128.29,997.731 1130.19,997.731 1132.1,997.731 1134.06,997.731 1135.96,997.731 
  1137.87,997.731 1139.78,997.731 1141.68,997.731 1143.59,997.731 1145.5,997.731 1147.41,997.731 1148.57,997.731 1150.48,997.731 1152.38,997.731 1154.29,997.731 
  1156.2,997.731 1158.1,997.731 1160.01,997.731 1161.96,997.731 1163.87,997.731 1165.78,997.731 1167.69,997.731 1169.59,997.731 1171.5,997.731 1173.41,997.731 
  1175.31,997.731 1176.48,997.731 1178.38,997.731 1180.29,997.731 1182.2,997.731 1184.11,997.731 1186.01,997.731 1187.92,997.731 1189.87,997.731 1191.78,997.731 
  1193.69,997.731 1195.6,997.731 1197.5,997.731 1199.41,997.731 1201.32,997.731 1203.22,997.731 1204.39,997.731 1206.29,997.731 1208.2,997.731 1210.11,997.731 
  1212.02,997.731 1213.92,997.731 1215.83,997.731 1217.78,997.731 1219.69,997.731 1220.16,997.731 1220.62,997.731 1221.09,997.731 1221.6,997.731 1222.06,997.731 
  1222.53,997.731 1223.04,997.731 1223.5,997.731 1223.97,997.731 1224.44,997.731 1224.95,997.731 1225.41,997.731 1225.88,997.731 1226.34,997.731 1226.85,997.731 
  1227.32,997.731 1227.78,997.731 1228.3,997.731 1228.76,997.731 1229.23,997.731 1229.69,997.731 1230.2,997.731 1230.67,997.731 1231.13,997.731 1231.74,997.731 
  1232.3,997.731 1232.76,997.731 1233.27,997.731 1233.74,997.731 1234.2,997.731 1234.67,997.731 1235.18,997.731 1235.65,997.731 1236.11,997.731 1236.58,997.731 
  1237.09,997.73 1237.55,997.73 1238.02,997.73 1238.53,997.73 1238.99,997.73 1239.46,997.73 1239.92,997.73 1240.44,997.73 1240.9,997.73 1241.37,997.73 
  1241.83,997.73 1242.34,997.73 1242.81,997.73 1243.27,997.73 1243.74,997.73 1244.25,997.73 1244.72,997.73 1245.18,997.73 1245.69,997.73 1246.16,997.73 
  1246.62,997.73 1247.09,997.73 1247.6,997.73 1249.51,997.73 1251.41,997.729 1253.32,997.729 1255.23,997.728 1257.14,997.728 1259.04,997.728 1259.65,997.728 
  1260.21,997.728 1260.67,997.728 1261.18,997.728 1261.65,997.726 1262.11,997.724 1262.58,997.72 1263.09,997.715 1263.55,997.709 1264.02,997.718 1265.93,997.611 
  1267.83,997.433 1269.74,997.169 1271.65,996.974 1273.6,996.657 1275.51,996.193 1277.42,995.537 1279.32,994.741 1281.23,993.991 1281.7,993.847 1282.16,993.69 
  1282.67,993.517 1283.14,993.327 1283.6,993.117 1284.11,992.886 1284.58,992.632 1285.05,992.354 1285.51,992.052 1286.02,991.724 1286.49,991.37 1286.95,990.988 
  1287.56,990.532 1288.12,990.045 1288.58,989.615 1289.09,989.161 1289.56,988.685 1290.02,988.185 1290.49,987.661 1291,987.111 1291.46,986.536 1291.93,985.935 
  1292.39,985.306 1292.91,984.65 1293.37,983.966 1293.84,983.253 1294.35,982.512 1294.81,981.741 1295.28,980.941 1295.74,980.112 1296.26,979.254 1296.72,978.367 
  1297.19,977.451 1297.65,976.507 1298.16,975.534 1298.63,974.535 1299.09,973.509 1299.56,972.457 1300.07,971.38 1300.53,970.278 1301,969.154 1301.51,968.007 
  1301.98,966.838 1302.44,965.649 1302.91,964.441 1303.42,963.215 1303.88,961.971 1304.35,960.712 1304.81,959.437 1305.33,958.148 1305.79,956.846 1306.26,955.532 
  1306.77,954.207 1307.23,952.872 1307.7,951.528 1308.16,950.177 1308.68,948.818 1309.14,947.453 1309.61,946.083 1310.07,944.709 1310.58,943.332 1311.05,941.953 
  1311.51,940.572 1312.02,939.192 1312.49,937.812 1312.95,936.434 1313.42,935.058 1313.93,933.687 1314.4,932.32 1314.86,930.959 1315.47,929.318 1316.02,927.687 
  1316.49,926.353 1317,925.029 1317.47,923.72 1317.93,922.426 1318.4,921.147 1318.91,919.883 1319.37,918.635 1319.84,917.404 1320.3,916.189 1320.82,914.992 
  1321.28,913.813 1321.75,912.653 1322.26,911.512 1322.72,910.392 1323.19,909.292 1323.65,908.214 1324.16,907.159 1324.63,906.127 1325.1,905.119 1325.56,904.135 
  1326.07,903.178 1326.54,902.246 1327,901.341 1327.47,900.464 1327.98,899.616 1328.44,898.796 1328.91,898.006 1329.42,897.247 1329.89,896.519 1330.35,895.822 
  1330.82,895.158 1331.33,894.528 1331.79,893.931 1332.26,893.369 1332.72,892.843 1333.24,892.353 1333.7,891.901 1334.17,891.486 1334.68,891.111 1335.14,890.775 
  1335.61,890.481 1336.07,890.228 1336.58,890.018 1337.05,889.851 1337.51,889.729 1337.98,889.653 1338.49,889.623 1338.96,889.641 1339.42,889.706 1339.93,889.821 
  1340.4,889.986 1340.86,890.203 1341.33,890.47 1341.84,890.791 1342.31,891.165 1342.77,891.592 1343.38,892.178 1343.93,892.844 1344.4,893.46 1344.91,894.134 
  1345.38,894.859 1345.84,895.637 1346.31,896.468 1346.82,897.355 1347.28,898.297 1347.75,899.296 1348.21,900.353 1348.73,901.467 1349.19,902.639 1349.66,903.87 
  1350.17,905.16 1350.63,906.508 1351.1,907.914 1351.56,909.379 1352.07,910.902 1352.54,912.482 1353,914.119 1353.47,915.812 1353.98,917.561 1354.45,919.365 
  1354.91,921.223 1355.38,923.133 1355.89,925.096 1356.35,927.11 1356.82,929.174 1357.33,931.286 1357.8,933.445 1358.26,935.65 1358.73,937.899 1359.24,940.19 
  1359.7,942.523 1360.17,944.894 1360.63,947.303 1361.14,949.748 1361.61,952.226 1362.08,954.735 1362.59,957.274 1363.05,959.839 1363.52,962.43 1363.98,965.043 
  1364.49,967.676 1364.96,970.327 1365.42,972.994 1365.89,975.673 1366.4,978.363 1366.87,981.06 1367.33,983.763 1367.84,986.469 1368.31,989.175 1368.77,991.878 
  1369.24,994.577 1369.75,997.268 1370.22,999.949 1370.68,1002.62 1371.29,1005.83 1371.84,1009.03 1372.31,1011.63 1372.82,1014.22 1373.29,1016.78 1373.75,1019.32 
  1374.22,1021.82 1374.73,1024.29 1375.19,1026.73 1375.66,1029.14 1376.12,1031.51 1376.63,1033.84 1377.1,1036.13 1377.56,1038.38 1378.08,1040.59 1378.54,1042.76 
  1379.01,1044.88 1379.47,1046.96 1379.98,1048.99 1380.45,1050.97 1380.91,1052.9 1381.38,1054.78 1381.89,1056.61 1382.36,1058.39 1382.82,1060.13 1383.29,1061.8 
  1383.8,1063.43 1384.26,1065 1384.73,1066.52 1385.24,1067.99 1385.71,1069.41 1386.17,1070.77 1386.64,1072.08 1387.15,1073.34 1387.61,1074.54 1388.08,1075.69 
  1388.54,1076.79 1389.05,1077.84 1389.52,1078.84 1389.98,1079.78 1390.5,1080.68 1390.96,1081.53 1391.43,1082.32 1391.89,1083.07 1392.4,1083.77 1392.87,1084.42 
  1393.33,1085.02 1393.8,1085.58 1394.31,1086.1 1394.78,1086.56 1395.24,1086.99 1395.75,1087.37 1396.22,1087.71 1396.68,1088 1397.15,1088.26 1397.66,1088.47 
  1398.12,1088.65 1398.59,1088.79 1399.19,1088.91 1399.75,1088.97 1400.22,1088.98 1400.73,1088.96 1401.19,1088.9 1401.66,1088.81 1402.13,1088.68 1402.64,1088.52 
  1403.1,1088.33 1403.57,1088.11 1404.03,1087.85 1404.54,1087.56 1405.01,1087.25 1405.47,1086.9 1405.99,1086.53 1406.45,1086.13 1406.92,1085.69 1407.38,1085.24 
  1407.89,1084.75 1408.36,1084.24 1408.82,1083.71 1409.29,1083.15 1409.8,1082.57 1410.27,1081.97 1410.73,1081.34 1411.2,1080.69 1411.71,1080.03 1412.17,1079.34 
  1412.64,1078.63 1413.15,1077.9 1413.61,1077.16 1414.08,1076.4 1414.54,1075.62 1415.06,1074.82 1415.52,1074.01 1415.99,1073.18 1416.45,1072.34 1416.96,1071.49 
  1417.43,1070.62 1417.89,1069.74 1418.41,1068.85 1418.87,1067.94 1419.34,1067.03 1419.8,1066.1 1420.31,1065.16 1420.78,1064.22 1421.24,1063.26 1421.71,1062.3 
  1422.22,1061.33 1422.69,1060.35 1423.15,1059.37 1423.66,1058.38 1424.13,1057.38 1424.59,1056.38 1425.06,1055.38 1425.57,1054.37 1426.03,1053.37 1426.5,1052.35 
  1426.87,1051.54 1427.29,1050.73 1427.66,1049.91 1428.13,1048.9 1428.64,1047.89 1429.1,1046.88 1429.57,1045.88 1430.03,1044.88 1430.55,1043.9 1431.01,1042.91 
  1431.48,1041.94 1431.94,1040.97 1432.45,1040.01 1432.92,1039.06 1433.38,1038.11 1433.9,1037.18 1434.36,1036.25 1434.83,1035.33 1435.29,1034.42 1435.8,1033.51 
  1436.27,1032.62 1436.73,1031.74 1437.2,1030.86 1437.71,1030 1438.17,1029.14 1438.64,1028.3 1439.11,1027.46 1439.62,1026.64 1440.08,1025.83 1440.55,1025.02 
  1441.06,1024.23 1441.52,1023.45 1441.99,1022.68 1442.45,1021.93 1442.97,1021.18 1443.43,1020.45 1443.9,1019.73 1444.36,1019.02 1444.87,1018.33 1445.34,1017.65 
  1445.8,1016.98 1446.32,1016.33 1446.78,1015.69 1447.25,1015.07 1447.71,1014.47 1448.22,1013.88 1448.69,1013.31 1449.15,1012.75 1449.62,1012.22 1450.13,1011.7 
  1450.59,1011.2 1451.06,1010.72 1451.57,1010.26 1452.04,1009.82 1452.5,1009.4 1452.97,1009.01 1453.48,1008.63 1453.94,1008.28 1454.41,1007.94 1454.78,1007.7 
  1455.2,1007.46 1455.57,1007.25 1456.04,1007 1456.55,1006.77 1457.01,1006.56 1457.48,1006.39 1457.94,1006.24 1458.46,1006.11 1458.92,1006.01 1459.39,1005.94 
  1459.85,1005.89 1460.36,1005.88 1460.83,1005.89 1461.29,1005.93 1461.8,1006 1462.27,1006.1 1462.74,1006.23 1463.2,1006.39 1463.71,1006.58 1464.18,1006.8 
  1464.64,1007.05 1465.11,1007.33 1465.62,1007.65 1466.08,1007.99 1466.55,1008.37 1467.01,1008.79 1467.53,1009.23 1467.99,1009.71 1468.46,1010.22 1468.97,1010.76 
  1469.43,1011.34 1469.9,1011.95 1470.36,1012.59 1470.88,1013.26 1471.34,1013.98 1471.81,1014.72 1472.27,1015.5 1472.78,1016.31 1473.25,1017.15 1473.71,1018.03 
  1474.22,1018.94 1474.69,1019.89 1475.15,1020.87 1475.62,1021.88 1476.13,1022.93 1476.6,1024.01 1477.06,1025.13 1477.53,1026.28 1478.04,1027.46 1478.5,1028.68 
  1478.97,1029.93 1479.48,1031.22 1479.95,1032.54 1480.41,1033.89 1480.88,1035.29 1481.39,1036.71 1481.85,1038.18 1482.32,1039.67 1482.69,1040.91 1483.11,1042.17 
  1483.48,1043.45 1483.95,1045.07 1484.46,1046.74 1484.92,1048.44 1485.39,1050.18 1485.85,1051.96 1486.37,1053.77 1486.83,1055.63 1487.3,1057.53 1487.76,1059.46 
  1488.27,1061.44 1488.74,1063.45 1489.2,1065.51 1489.71,1067.61 1490.18,1069.75 1490.64,1071.93 1491.11,1074.15 1491.62,1076.42 1492.09,1078.73 1492.55,1081.08 
  1493.02,1083.48 1493.53,1085.92 1493.99,1088.41 1494.46,1090.94 1494.92,1093.52 1495.44,1096.14 1495.9,1098.81 1496.37,1101.53 1496.88,1104.29 1497.34,1107.1 
  1497.81,1109.96 1498.27,1112.86 1498.78,1115.81 1499.25,1118.82 1499.72,1121.86 1500.18,1124.96 1500.69,1128.11 1501.16,1131.3 1501.62,1134.55 1502.13,1137.84 
  1502.6,1141.18 1503.06,1144.57 1503.53,1148 1504.04,1151.49 1504.51,1155.02 1504.97,1158.6 1505.44,1162.22 1505.95,1165.89 1506.41,1169.61 1506.88,1173.36 
  1507.39,1177.17 1507.86,1181.01 1508.32,1184.9 1508.79,1188.82 1509.3,1192.79 1509.76,1196.79 1510.23,1200.83 1510.6,1204.1 1511.02,1207.39 1511.39,1210.7 
  1511.86,1214.85 1512.37,1219.02 1512.83,1223.21 1513.3,1227.43 1513.76,1231.66 1514.27,1235.9 1514.74,1240.16 1515.21,1244.44 1515.67,1248.61 1516.18,1252.8 
  1516.65,1257.01 1517.11,1261.22 1517.62,1265.43 1518.09,1269.65 1518.55,1273.86 1519.02,1278.07 1519.53,1282.27 1520,1286.45 1520.46,1290.61 1520.93,1294.75 
  1521.44,1298.97 1521.9,1303.15 1522.37,1307.29 1522.83,1311.4 1523.35,1315.45 1523.81,1319.46 1524.28,1323.42 1524.79,1327.32 1525.25,1331.16 1525.72,1334.94 
  1526.18,1338.65 1526.69,1342.29 1527.16,1345.85 1527.62,1349.34 1528.09,1352.74 1528.6,1356.06 1529.07,1359.28 1529.53,1362.41 1530.04,1365.44 1530.51,1368.37 
  1530.97,1371.18 1531.44,1373.89 1531.95,1376.48 1532.42,1378.94 1532.88,1381.28 1533.35,1383.49 1533.86,1385.57 1534.32,1387.5 1534.79,1389.29 1535.3,1390.92 
  1535.76,1392.4 1536.23,1393.73 1536.7,1394.88 1537.21,1395.87 1537.67,1396.67 1538.14,1397.3 1538.51,1397.66 1538.93,1397.89 1539.3,1398 1539.77,1397.97 
  1540.28,1397.74 1540.74,1397.3 1541.21,1396.63 1541.67,1395.75 1542.18,1394.64 1542.65,1393.31 1543.11,1391.74 1543.58,1389.94 1544.09,1387.91 1544.56,1385.63 
  1545.02,1383.11 1545.53,1380.35 1546,1377.34 1546.46,1374.08 1546.93,1370.56 1547.44,1366.79 1547.91,1362.76 1548.37,1358.47 1548.84,1353.92 1549.35,1349.11 
  1549.81,1344.03 1550.28,1338.68 1550.74,1333.06 1551.25,1327.18 1551.72,1321.03 1552.19,1314.6 1552.7,1307.9 1553.16,1300.93 1553.63,1293.68 1554.09,1286.16 
  1554.6,1278.36 1555.07,1270.29 1555.53,1261.95 1556,1253.33 1556.51,1244.43 1556.98,1235.26 1557.44,1225.82 1557.95,1216.11 1558.42,1206.13 1558.88,1195.88 
  1559.35,1185.36 1559.86,1174.58 1560.33,1163.54 1560.79,1152.23 1561.26,1140.67 1561.77,1128.86 1562.23,1116.79 1562.7,1104.48 1563.21,1091.93 1563.67,1079.13 
  1564.14,1066.11 1564.6,1052.85 1565.12,1039.37 1565.58,1025.67 1566.05,1011.76 1566.42,1000.42 1566.84,988.954 1567.21,977.359 1567.67,962.778 1568.19,948.016 
  1568.65,933.099 1569.12,918.032 1569.58,902.821 1570.09,887.472 1570.56,871.993 1571.02,856.391 1571.49,840.674 1572,824.85 1572.47,808.928 1572.93,792.918 
  1573.44,776.83 1573.91,760.675 1574.37,744.462 1574.84,728.203 1575.35,711.91 1575.81,695.594 1576.28,679.267 1576.75,662.941 1577.26,646.63 1577.72,630.346 
  1578.19,614.102 1578.65,597.913 1579.16,581.791 1579.63,565.751 1580.09,549.806 1580.61,533.972 1581.07,518.264 1581.54,502.694 1582,487.28 1582.51,472.035 
  1582.98,456.976 1583.44,442.117 1583.91,427.475 1584.42,413.064 1584.89,398.9 1585.35,384.999 1585.86,371.376 1586.33,358.048 1586.79,345.029 1587.26,332.335 
  1587.77,319.981 1588.23,307.982 1588.7,296.354 1589.17,285.111 1589.68,274.268 1590.14,263.839 1590.61,253.838 1591.12,244.278 1591.58,235.174 1592.05,226.538 
  1592.51,218.382 1593.03,210.719 1593.49,203.561 1593.96,196.918 1594.33,191.997 1594.75,187.426 1595.12,183.208 1595.58,178.412 1596.1,174.172 1596.56,170.494 
  1597.03,167.384 1597.49,164.851 1598,162.9 1598.47,161.537 1598.93,160.767 1599.4,160.594 1599.91,161.021 1600.38,162.05 1600.84,163.682 1601.35,165.918 
  1601.82,168.758 1602.28,172.202 1602.75,176.245 1603.26,180.887 1603.72,186.124 1604.19,191.95 1604.65,198.362 1605.17,205.353 1605.63,212.916 1606.1,221.044 
  1606.56,229.729 1607.07,238.961 1607.54,248.731 1608,259.027 1608.52,269.839 1608.98,281.156 1609.45,292.963 1609.91,305.248 1610.42,317.997 1610.89,331.196 
  1611.35,344.828 1611.82,358.879 1612.33,373.332 1612.79,388.17 1613.26,403.376 1613.77,418.931 1614.24,434.819 1614.7,451.019 1615.17,467.513 1615.68,484.281 
  1616.14,501.305 1616.61,518.563 1617.07,536.035 1617.59,553.701 1618.05,571.541 1618.52,589.532 1619.03,607.655 1619.49,625.889 1619.96,644.211 1620.42,662.601 
  1620.94,681.039 1621.4,699.502 1621.87,717.971 1622.24,732.805 1622.66,747.616 1623.03,762.391 1623.49,780.714 1624.01,798.952 1624.47,817.079 1624.94,835.076 
  1625.4,852.925 1625.91,870.608 1626.38,888.107 1626.84,905.406 1627.31,922.486 1627.82,939.331 1628.28,955.926 1628.75,972.255 1629.26,988.303 1629.73,1004.06 
  1630.19,1019.5 1630.66,1034.62 1631.17,1049.4 1631.63,1063.84 1632.1,1077.92 1632.56,1091.63 1633.08,1104.96 1633.54,1117.9 1634.01,1130.44 1634.47,1142.57 
  1634.98,1154.3 1635.45,1165.6 1635.91,1176.47 1636.42,1186.92 1636.89,1196.93 1637.36,1206.5 1637.82,1215.62 1638.33,1224.3 1638.8,1232.53 1639.26,1240.31 
  1639.73,1247.64 1640.24,1254.52 1640.7,1260.95 1641.17,1266.93 1641.68,1272.46 1642.15,1277.54 1642.61,1282.18 1643.08,1286.38 1643.59,1290.15 1644.05,1293.48 
  1644.52,1296.38 1644.98,1298.87 1645.5,1300.93 1645.96,1302.59 1646.43,1303.84 1646.94,1304.69 1647.4,1305.16 1647.87,1305.24 1648.33,1304.96 1648.84,1304.3 
  1649.31,1303.29 1649.77,1301.94 1650.15,1300.58 1650.57,1299.01 1650.94,1297.23 1651.4,1294.78 1651.91,1292.02 1652.38,1288.97 1652.85,1285.65 1653.31,1282.06 
  1653.82,1278.21 1654.29,1274.13 1654.75,1269.81 1655.22,1265.27 1655.73,1260.53 1656.19,1255.59 1656.66,1250.47 1657.17,1245.18 1657.64,1239.74 1658.1,1234.15 
  1658.57,1228.43 1659.08,1222.59 1659.54,1216.64 1660.01,1210.61 1660.47,1204.49 1660.99,1198.3 1661.45,1192.06 1661.92,1185.78 1662.38,1179.46 1662.89,1173.13 
  1663.36,1166.79 1663.82,1160.46 1664.33,1154.15 1664.8,1147.86 1665.26,1141.62 1665.73,1135.43 1666.24,1129.3 1666.71,1123.24 1667.17,1117.27 1667.64,1111.39 
  1668.15,1105.61 1668.61,1099.95 1669.08,1094.41 1669.59,1088.99 1670.06,1083.72 1670.52,1078.6 1670.99,1073.63 1671.5,1068.82 1671.96,1064.18 1672.43,1059.71 
  1672.89,1055.43 1673.4,1051.33 1673.87,1047.42 1674.34,1043.71 1674.85,1040.19 1675.31,1036.88 1675.78,1033.77 1676.24,1030.86 1676.75,1028.17 1677.22,1025.68 
  1677.68,1023.41 1678.06,1021.74 1678.48,1020.21 1678.85,1018.81 1679.31,1017.24 1679.82,1015.88 1680.29,1014.72 1680.75,1013.74 1681.22,1012.95 1681.73,1012.35 
  1682.2,1011.92 1682.66,1011.67 1683.13,1011.59 1683.64,1011.66 1684.1,1011.9 1684.57,1012.28 1685.08,1012.8 1685.55,1013.45 1686.01,1014.22 1686.48,1015.11 
  1686.99,1016.09 1687.45,1017.16 1687.92,1018.32 1688.38,1019.54 1688.89,1020.81 1689.36,1022.13 1689.83,1023.47 1690.29,1024.84 1690.8,1026.2 1691.27,1027.56 
  1691.73,1028.89 1692.24,1030.19 1692.71,1031.43 1693.17,1032.61 1693.64,1033.71 1694.15,1034.72 1694.62,1035.62 1695.08,1036.4 1695.55,1037.05 1696.06,1037.56 
  1696.52,1037.91 1696.99,1038.08 1697.5,1038.08 1697.97,1037.88 1698.43,1037.48 1698.9,1036.86 1699.41,1036.02 1699.87,1034.95 1700.34,1033.64 1700.8,1032.07 
  1701.31,1030.26 1701.78,1028.18 1702.24,1025.84 1702.76,1023.23 1703.22,1020.34 1703.69,1017.18 1704.15,1013.75 1704.66,1010.03 1705.13,1006.04 1705.59,1001.77 
  1705.97,998.123 1706.38,994.299 1706.76,990.303 1707.22,985.113 1707.73,979.667 1708.2,973.99 1708.66,968.087 1709.13,961.966 1709.64,955.633 1710.11,949.095 
  1710.57,942.363 1711.04,935.447 1711.55,928.358 1712.01,921.108 1712.48,913.711 1712.99,906.181 1713.46,898.532 1713.92,890.782 1714.39,882.946 1714.9,875.043 
  1715.36,867.089 1715.83,859.103 1716.29,851.106 1716.8,843.115 1717.27,835.153 1717.73,827.238 1718.2,819.392 1718.71,811.635 1719.18,803.99 1719.64,796.477 
  1720.15,789.117 1720.62,781.932 1721.08,774.943 1721.55,768.171 1722.06,761.637 1722.53,755.36 1722.99,749.362 1723.46,743.662 1723.97,738.277 1724.43,733.228 
  1724.9,728.531 1725.41,724.203 1725.87,720.26 1726.34,716.718 1726.81,713.59 1727.32,710.889 1727.78,708.629 1728.25,706.819 1728.71,705.47 1729.22,704.591 
  1729.69,704.188 1730.15,704.268 1730.67,704.837 1731.13,705.898 1731.6,707.454 1732.06,709.505 1732.57,712.052 1733.04,715.093 1733.5,718.626 1733.88,721.852 
  1734.29,725.392 1734.67,729.24 1735.13,734.413 1735.64,740.049 1736.11,746.123 1736.57,752.627 1737.04,759.552 1737.55,766.888 1738.02,774.622 1738.48,782.743 
  1738.95,791.237 1739.46,800.087 1739.92,809.28 1740.39,818.797 1740.9,828.622 1741.36,838.735 1741.83,849.118 1742.29,859.751 1742.81,870.612 1743.27,881.682 
  1743.74,892.937 1744.2,904.357 1744.71,915.917 1745.18,927.597 1745.64,939.371 1746.11,951.217 1746.62,963.111 1747.09,975.03 1747.55,986.949 1748.06,998.845 
  1748.53,1010.69 1748.99,1022.47 1749.46,1034.16 1749.97,1045.73 1750.44,1057.16 1750.9,1068.42 1751.37,1079.51 1751.88,1090.39 1752.34,1101.04 1752.81,1111.45 
  1753.32,1121.59 1753.78,1131.45 1754.25,1141.01 1754.71,1150.25 1755.23,1159.16 1755.69,1167.71 1756.16,1175.91 1756.62,1183.72 1757.13,1191.15 1757.6,1198.18 
  1758.06,1204.79 1758.58,1210.98 1759.04,1216.75 1759.51,1222.08 1759.97,1226.97 1760.48,1231.42 1760.95,1235.41 1761.41,1238.95 1761.78,1241.44 1762.2,1243.63 
  1762.58,1245.53 1763.04,1247.52 1763.55,1249.05 1764.02,1250.14 1764.48,1250.79 1764.95,1251 1765.46,1250.77 1765.92,1250.12 1766.39,1249.05 1766.86,1247.56 
  1767.37,1245.67 1767.83,1243.38 1768.3,1240.71 1768.81,1237.66 1769.27,1234.24 1769.74,1230.47 1770.2,1226.36 1770.72,1221.92 1771.18,1217.16 1771.65,1212.1 
  1772.11,1206.76 1772.62,1201.14 1773.09,1195.26 1773.55,1189.14 1774.02,1182.79 1774.53,1176.23 1775,1169.48 1775.46,1162.54 1775.97,1155.44 1776.44,1148.2 
  1776.9,1140.82 1777.37,1133.33 1777.88,1125.74 1778.34,1118.07 1778.81,1110.33 1779.27,1102.55 1779.79,1094.73 1780.25,1086.89 1780.72,1079.04 1781.23,1071.21 
  1781.69,1063.41 1782.16,1055.64 1782.62,1047.93 1783.14,1040.3 1783.6,1032.74 1784.07,1025.28 1784.53,1017.92 1785.04,1010.69 1785.51,1003.59 1785.97,996.624 
  1786.48,989.816 1786.95,983.17 1787.42,976.697 1787.88,970.405 1788.39,964.303 1788.86,958.398 1789.32,952.698 1789.69,948.283 1790.11,944.01 1790.49,939.881 
  1790.95,934.932 1791.46,930.214 1791.93,925.731 1792.39,921.486 1792.86,917.484 1793.37,913.727 1793.83,910.217 1794.3,906.956 1794.76,903.946 1795.28,901.186 
  1795.74,898.677 1796.21,896.419 1796.72,894.412 1797.18,892.654 1797.65,891.143 1798.11,889.877 1798.63,888.855 1799.09,888.073 1799.56,887.528 1800.02,887.216 
  1800.53,887.133 1801,887.276 1801.46,887.639 1801.93,888.218 1802.44,889.007 1802.9,890.001 1803.37,891.194 1803.88,892.581 1804.35,894.155 1804.81,895.91 
  1805.28,897.84 1805.79,899.937 1806.25,902.196 1806.72,904.608 1807.18,907.169 1807.7,909.869 1808.16,912.703 1808.63,915.663 1809.14,918.742 1809.6,921.932 
  1810.07,925.227 1810.53,928.619 1811.04,932.101 1811.51,935.666 1811.98,939.306 1812.44,943.014 1812.95,946.783 1813.42,950.605 1813.88,954.474 1814.39,958.382 
  1814.86,962.322 1815.32,966.287 1815.79,970.269 1816.3,974.263 1816.77,978.259 1817.23,982.253 1817.6,985.456 1818.02,988.648 1818.39,991.824 1818.86,995.75 
  1819.37,999.642 1819.84,1003.49 1820.3,1007.28 1820.77,1011.01 1821.28,1014.67 1821.74,1018.26 1822.21,1021.77 1822.67,1025.19 1823.19,1028.51 1823.65,1031.73 
  1824.12,1034.85 1824.63,1037.85 1825.09,1040.72 1825.56,1043.47 1826.02,1046.08 1826.53,1048.55 1827,1050.87 1827.47,1053.03 1827.93,1055.03 1828.44,1056.86 
  1828.91,1058.51 1829.37,1059.99 1829.84,1061.28 1830.35,1062.39 1830.81,1063.3 1831.28,1064.01 1831.79,1064.52 1832.26,1064.82 1832.72,1064.91 1833.19,1064.79 
  1833.7,1064.46 1834.16,1063.91 1834.63,1063.14 1835.09,1062.15 1835.61,1060.95 1836.07,1059.52 1836.54,1057.87 1837.05,1055.99 1837.51,1053.9 1837.98,1051.59 
  1838.44,1049.07 1838.95,1046.33 1839.42,1043.37 1839.88,1040.21 1840.35,1036.85 1840.86,1033.28 1841.33,1029.52 1841.79,1025.56 1842.3,1021.42 1842.77,1017.11 
  1843.23,1012.62 1843.7,1007.96 1844.21,1003.15 1844.68,998.187 1845.14,993.086 1845.51,988.88 1845.93,984.595 1846.3,980.237 1846.77,974.731 1847.28,969.129 
  1847.75,963.459 1848.21,957.729 1848.68,951.951 1849.19,946.137 1849.65,940.297 1850.12,934.445 1850.58,928.593 1851.1,922.754 1851.56,916.944 1852.03,911.175 
  1852.54,905.463 1853,899.823 1853.47,894.271 1853.93,888.822 1854.44,883.493 1854.91,878.297 1855.37,873.253 1855.84,868.375 1856.35,863.678 1856.82,859.179 
  1857.28,854.892 1857.75,850.832 1858.26,847.013 1858.72,843.449 1859.19,840.154 1859.7,837.14 1860.17,834.419 1860.63,832.003 1861.1,829.903 1861.61,828.129 
  1862.07,826.691 1862.54,825.596 1863,824.853 1863.51,824.469 1863.98,824.45 1864.45,824.801 1864.96,825.526 1865.42,826.629 1865.89,828.112 1866.35,829.976 
  1866.86,832.223 1867.33,834.85 1867.79,837.857 1868.26,841.242 1868.77,845 1869.24,849.128 1869.7,853.619 1870.21,858.468 1870.68,863.667 1871.14,869.208 
  1871.61,875.081 1872.12,881.277 1872.59,887.784 1873.05,894.592 1873.42,900.294 1873.84,906.175 1874.21,912.227 1874.68,919.957 1875.19,927.925 1875.66,936.103 
  1876.12,944.476 1876.59,953.031 1877.1,961.751 1877.56,970.622 1878.03,979.627 1878.49,988.749 1879,997.971 1879.47,1007.28 1879.93,1016.65 1880.45,1026.06 
  1880.91,1035.5 1881.38,1044.96 1881.84,1054.4 1882.35,1063.81 1882.82,1073.18 1883.28,1082.47 1883.75,1091.69 1884.26,1100.79 1884.73,1109.78 1885.19,1118.62 
  1885.66,1127.3 1886.17,1135.81 1886.63,1144.12 1887.1,1152.22 1887.61,1160.1 1888.08,1167.73 1888.54,1175.11 1889.01,1182.22 1889.52,1189.05 1889.98,1195.57 
  1890.45,1201.79 1890.91,1207.7 1891.42,1213.27 1891.89,1218.5 1892.35,1223.38 1892.87,1227.91 1893.33,1232.08 1893.8,1235.88 1894.26,1239.31 1894.77,1242.36 
  1895.24,1245.03 1895.7,1247.32 1896.17,1249.23 1896.68,1250.75 1897.15,1251.9 1897.61,1252.66 1898.12,1253.05 1898.59,1253.06 1899.05,1252.7 1899.52,1251.97 
  1900.03,1250.89 1900.49,1249.46 1900.96,1247.68 1901.33,1245.98 1901.75,1244.07 1902.12,1241.95 1902.59,1239.07 1903.1,1235.88 1903.56,1232.4 1904.03,1228.65 
  1904.5,1224.63 1905.01,1220.36 1905.47,1215.84 1905.94,1211.1 1906.4,1206.14 1906.91,1200.97 1907.38,1195.61 1907.84,1190.08 1908.36,1184.39 1908.82,1178.54 
  1909.29,1172.57 1909.75,1166.47 1910.26,1160.27 1910.73,1153.97 1911.19,1147.6 1911.66,1141.17 1912.17,1134.69 1912.64,1128.18 1913.1,1121.65 1913.57,1115.12 
  1914.08,1108.59 1914.54,1102.09 1915.01,1095.62 1915.52,1089.21 1915.98,1082.85 1916.45,1076.57 1916.91,1070.38 1917.43,1064.29 1917.89,1058.31 1918.36,1052.44 
  1918.82,1046.72 1919.33,1041.13 1919.8,1035.69 1920.26,1030.42 1920.78,1025.32 1921.24,1020.39 1921.71,1015.65 1922.17,1011.1 1922.68,1006.76 1923.15,1002.62 
  1923.61,998.686 1924.08,994.972 1924.59,991.481 1925.06,988.214 1925.52,985.176 1926.03,982.371 1926.5,979.8 1926.96,977.465 1927.43,975.369 1927.94,973.511 
  1928.4,971.894 1928.87,970.515 1929.24,969.598 1929.66,968.835 1930.03,968.226 1930.5,967.66 1931.01,967.329 1931.47,967.229 1931.94,967.357 1932.4,967.712 
  1932.92,968.288 1933.38,969.081 1933.85,970.088 1934.31,971.303 1934.82,972.721 1935.29,974.337 1935.75,976.144 1936.27,978.137 1936.73,980.31 1937.2,982.655 
  1937.66,985.165 1938.17,987.834 1938.64,990.655 1939.1,993.618 1939.57,996.718 1940.08,999.946 1940.54,1003.29 1941.01,1006.75 1941.48,1010.32 1941.99,1013.98 
  1942.45,1017.72 1942.92,1021.55 1943.43,1025.44 1943.89,1029.4 1944.36,1033.41 1944.82,1037.47 1945.34,1041.56 1945.8,1045.68 1946.27,1049.83 1946.73,1053.98 
  1947.24,1058.15 1947.71,1062.3 1948.17,1066.45 1948.69,1070.58 1949.15,1074.69 1949.62,1078.76 1950.08,1082.8 1950.59,1086.78 1951.06,1090.72 1951.52,1094.59 
  1951.99,1098.41 1952.5,1102.15 1952.96,1105.81 1953.43,1109.39 1953.94,1112.88 1954.41,1116.28 1954.87,1119.58 1955.34,1122.78 1955.85,1125.88 1956.31,1128.86 
  1956.78,1131.73 1957.15,1133.94 1957.57,1136.08 1957.94,1138.13 1958.41,1140.59 1958.92,1142.91 1959.38,1145.1 1959.85,1147.16 1960.31,1149.09 1960.83,1150.88 
  1961.29,1152.54 1961.76,1154.05 1962.22,1155.43 1962.73,1156.66 1963.2,1157.76 1963.66,1158.72 1964.17,1159.53 1964.64,1160.21 1965.11,1160.75 1965.57,1161.15 
  1966.08,1161.41 1966.55,1161.54 1967.01,1161.53 1967.48,1161.39 1967.99,1161.13 1968.45,1160.73 1968.92,1160.21 1969.38,1159.56 1969.9,1158.8 1970.36,1157.92 
  1970.83,1156.92 1971.34,1155.81 1971.8,1154.6 1972.27,1153.28 1972.73,1151.86 1973.25,1150.34 1973.71,1148.73 1974.18,1147.04 1974.64,1145.26 1975.15,1143.39 
  1975.62,1141.45 1976.08,1139.44 1976.59,1137.36 1977.06,1135.22 1977.52,1133.02 1977.99,1130.77 1978.5,1128.46 1978.97,1126.11 1979.43,1123.72 1979.9,1121.3 
  1980.41,1118.84 1980.87,1116.36 1981.34,1113.85 1981.85,1111.33 1982.32,1108.79 1982.78,1106.25 1983.25,1103.7 1983.76,1101.15 1984.22,1098.6 1984.69,1096.07 
  1985.06,1094.04 1985.48,1092.02 1985.85,1090.02 1986.32,1087.55 1986.83,1085.1 1987.29,1082.68 1987.76,1080.3 1988.22,1077.95 1988.74,1075.65 1989.2,1073.38 
  1989.67,1071.17 1990.13,1069.01 1990.64,1066.89 1991.11,1064.84 1991.57,1062.84 1992.08,1060.91 1992.55,1059.03 1993.01,1057.23 1993.48,1055.49 1993.99,1053.82 
  1994.46,1052.22 1994.92,1050.69 1995.39,1049.23 1995.9,1047.86 1996.36,1046.55 1996.83,1045.32 1997.29,1044.17 1997.81,1043.1 1998.27,1042.11 1998.74,1041.19 
  1999.25,1040.35 1999.71,1039.58 2000.18,1038.9 2000.64,1038.29 2001.15,1037.75 2001.62,1037.29 2002.09,1036.9 2002.55,1036.59 2003.06,1036.34 2003.53,1036.16 
  2003.99,1036.05 2004.5,1036.01 2004.97,1036.02 2005.43,1036.1 2005.9,1036.24 2006.41,1036.43 2006.88,1036.67 2007.34,1036.96 2007.81,1037.31 2008.32,1037.69 
  2008.78,1038.12 2009.25,1038.58 2009.76,1039.08 2010.23,1039.62 2010.69,1040.18 2011.16,1040.76 2011.67,1041.37 2012.13,1041.99 2012.6,1042.63 2012.97,1043.15 
  2013.39,1043.67 2013.76,1044.2 2014.23,1044.86 2014.74,1045.51 2015.2,1046.16 2015.67,1046.8 2016.13,1047.43 2016.64,1048.04 2017.11,1048.63 2017.57,1049.2 
  2018.04,1049.74 2018.55,1050.25 2019.02,1050.72 2019.48,1051.16 2019.99,1051.56 2020.46,1051.92 2020.92,1052.23 2021.39,1052.49 2021.9,1052.7 2022.37,1052.85 
  2022.83,1052.95 2023.3,1053 2023.81,1052.98 2024.27,1052.89 2024.74,1052.75 2025.2,1052.53 2025.72,1052.25 2026.18,1051.9 2026.65,1051.48 2027.16,1050.99 
  2027.62,1050.42 2028.09,1049.78 2028.55,1049.07 2029.06,1048.29 2029.53,1047.43 2029.99,1046.5 2030.46,1045.49 2030.97,1044.41 2031.44,1043.26 2031.9,1042.04 
  2032.41,1040.74 2032.88,1039.38 2033.34,1037.95 2033.81,1036.45 2034.32,1034.88 2034.79,1033.25 2035.25,1031.56 2035.72,1029.8 2036.23,1027.99 2036.69,1026.13 
  2037.16,1024.2 2037.67,1022.23 2038.13,1020.21 2038.6,1018.14 2039.07,1016.03 2039.58,1013.88 2040.04,1011.69 2040.51,1009.47 2040.88,1007.65 2041.3,1005.82 
  2041.67,1003.96 2042.14,1001.64 2042.65,999.305 2043.11,996.948 2043.58,994.576 2044.04,992.193 2044.55,989.802 2045.02,987.406 2045.48,985.009 2045.95,982.612 
  2046.46,980.221 2046.93,977.837 2047.39,975.465 2047.9,973.106 2048.37,970.764 2048.83,968.441 2049.3,966.142 2049.81,963.867 2050.28,961.62 2050.74,959.403 
  2051.21,957.219 2051.72,955.07 2052.18,952.959 2052.65,950.887 2053.11,948.856 2053.62,946.868 2054.09,944.925 2054.55,943.028 2055.07,941.179 2055.53,939.379 
  2056,937.63 2056.46,935.932 2056.97,934.285 2057.44,932.692 2057.9,931.151 2058.37,929.665 2058.88,928.232 2059.35,926.853 2059.81,925.529 2060.32,924.258 
  2060.79,923.04 2061.25,921.875 2061.72,920.763 2062.23,919.702 2062.7,918.692 2063.16,917.732 2063.63,916.819 2064.14,915.954 2064.6,915.135 2065.07,914.36 
  2065.58,913.628 2066.04,912.936 2066.51,912.284 2066.97,911.668 2067.49,911.088 2067.95,910.541 2068.42,910.025 2068.79,909.63 2069.21,909.252 2069.58,908.89 
  2070.04,908.462 2070.56,908.055 2071.02,907.666 2071.49,907.294 2071.95,906.935 2072.46,906.588 2072.93,906.249 2073.39,905.917 2073.86,905.589 2074.37,905.263 
  2074.84,904.936 2075.3,904.606 2075.81,904.271 2076.28,903.929 2076.74,903.577 2077.21,903.214 2077.72,902.837 2078.18,902.445 2078.65,902.035 2079.12,901.606 
  2079.63,901.157 2080.09,900.685 2080.56,900.189 2081.02,899.669 2081.53,899.122 2082,898.547 2082.46,897.945 2082.98,897.313 2083.44,896.651 2083.91,895.959 
  2084.37,895.236 2084.88,894.481 2085.35,893.695 2085.81,892.877 2086.28,892.028 2086.79,891.147 2087.26,890.236 2087.72,889.294 2088.23,888.323 2088.7,887.322 
  2089.16,886.293 2089.63,885.237 2090.14,884.154 2090.6,883.047 2091.07,881.916 2091.53,880.764 2092.05,879.591 2092.51,878.399 2092.98,877.19 2093.49,875.966 
  2093.95,874.728 2094.42,873.48 2094.88,872.223 2095.4,870.959 2095.86,869.69 2096.33,868.419 2096.7,867.394 2097.12,866.371 2097.49,865.351 2097.95,864.091 
  2098.47,862.839 2098.93,861.599 2099.4,860.372 2099.86,859.162 2100.37,857.97 2100.84,856.8 2101.3,855.654 2101.77,854.534 2102.28,853.444 2102.75,852.385 
  2103.21,851.359 2103.72,850.371 2104.19,849.42 2104.65,848.511 2105.12,847.645 2105.63,846.825 2106.09,846.052 2106.56,845.328 2107.02,844.657 2107.54,844.038 
  2108,843.474 2108.47,842.968 2108.93,842.519 2109.44,842.131 2109.91,841.804 2110.37,841.539 2110.89,841.338 2111.35,841.201 2111.82,841.131 2112.28,841.126 
  2112.79,841.189 2113.26,841.32 2113.72,841.519 2114.19,841.786 2114.7,842.123 2115.16,842.528 2115.63,843.003 2116.14,843.546 2116.61,844.157 2117.07,844.838 
  2117.54,845.585 2118.05,846.401 2118.51,847.282 2118.98,848.23 2119.44,849.242 2119.96,850.319 2120.42,851.458 2120.89,852.66 2121.4,853.921 2121.86,855.242 
  2122.33,856.62 2122.79,858.055 2123.31,859.545 2123.77,861.087 2124.24,862.681 2124.61,864.003 2125.03,865.356 2125.4,866.738 2125.86,868.492 2126.38,870.29 
  2126.84,872.128 2127.31,874.006 2127.77,875.921 2128.28,877.871 2128.75,879.854 2129.21,881.869 2129.68,883.912 2130.19,885.983 2130.65,888.078 2131.12,890.197 
  2131.63,892.336 2132.1,894.493 2132.56,896.668 2133.03,898.857 2133.54,901.059 2134,903.272 2134.47,905.494 2134.93,907.723 2135.45,909.957 2135.91,912.195 
  2136.38,914.435 2136.84,916.675 2137.35,918.913 2137.82,921.149 2138.28,923.38 2138.79,925.605 2139.26,927.823 2139.73,930.032 2140.19,932.232 2140.7,934.421 
  2141.17,936.598 2141.63,938.763 2142.1,940.913 2142.61,943.049 2143.07,945.169 2143.54,947.274 2144.05,949.361 2144.52,951.431 2144.98,953.483 2145.45,955.517 
  2145.96,957.532 2146.42,959.529 2146.89,961.506 2147.35,963.464 2147.87,965.402 2148.33,967.321 2148.8,969.22 2149.31,971.1 2149.77,972.961 2150.24,974.803 
  2150.7,976.625 2151.21,978.429 2151.68,980.215 2152.14,981.982 2152.52,983.391 2152.94,984.788 2153.31,986.174 2153.77,987.881 2154.28,989.571 2154.75,991.246 
  2155.21,992.906 2155.68,994.55 2156.19,996.18 2156.66,997.796 2157.12,999.398 2157.59,1000.99 2158.1,1002.56 2158.56,1004.13 2159.03,1005.68 2159.54,1007.22 
  2160.01,1008.75 2160.47,1010.27 2160.94,1011.78 2161.45,1013.28 2161.91,1014.77 2162.38,1016.25 2162.84,1017.73 2163.36,1019.19 2163.82,1020.64 2164.29,1022.09 
  2164.75,1023.53 2165.26,1024.96 2165.73,1026.38 2166.19,1027.79 2166.7,1029.2 2167.17,1030.6 2167.63,1031.99 2168.1,1033.36 2168.61,1034.74 2169.08,1036.1 
  2169.54,1037.45 2170.01,1038.79 2170.52,1040.12 2170.98,1041.44 2171.45,1042.75 2171.96,1044.05 2172.43,1045.33 2172.89,1046.61 2173.36,1047.86 2173.87,1049.11 
  2174.33,1050.34 2174.8,1051.55 2175.26,1052.75 2175.77,1053.93 2176.24,1055.09 2176.71,1056.24 2177.22,1057.36 2177.68,1058.47 2178.15,1059.55 2178.61,1060.61 
  2179.12,1061.65 2179.59,1062.66 2180.05,1063.65 2180.43,1064.43 2180.84,1065.19 2181.22,1065.94 2181.68,1066.83 2182.19,1067.7 2182.66,1068.55 2183.12,1069.36 
  2183.59,1070.14 2184.1,1070.89 2184.57,1071.6 2185.03,1072.29 2185.5,1072.94 2186.01,1073.55 2186.47,1074.13 2186.94,1074.68 2187.45,1075.19 2187.92,1075.66 
  2188.38,1076.09 2188.85,1076.49 2189.36,1076.84 2189.82,1077.16 2190.29,1077.44 2190.75,1077.68 2191.26,1077.89 2191.73,1078.05 2192.19,1078.17 2192.66,1078.25 
  2193.17,1078.3 2193.64,1078.3 2194.1,1078.26 2194.61,1078.18 2195.08,1078.07 2195.54,1077.91 2196.01,1077.71 2196.52,1077.48 2196.99,1077.21 2197.45,1076.9 
  2197.92,1076.55 2198.43,1076.16 2198.89,1075.73 2199.36,1075.27 2199.87,1074.78 2200.34,1074.24 2200.8,1073.68 2201.27,1073.08 2201.78,1072.44 2202.24,1071.77 
  2202.71,1071.07 2203.17,1070.34 2203.68,1069.58 2204.15,1068.79 2204.61,1067.97 2205.13,1067.12 2205.59,1066.24 2206.06,1065.34 2206.52,1064.41 2207.03,1063.46 
  2207.5,1062.48 2207.96,1061.48 2208.34,1060.66 2208.75,1059.82 2209.13,1058.97 2209.59,1057.9 2210.1,1056.81 2210.57,1055.7 2211.03,1054.58 2211.5,1053.44 
  2212.01,1052.28 2212.48,1051.1 2212.94,1049.92 2213.41,1048.72 2213.92,1047.5 2214.38,1046.28 2214.85,1045.04 2215.36,1043.79 2215.82,1042.54 2216.29,1041.27 
  2216.76,1040 2217.27,1038.71 2217.73,1037.43 2218.2,1036.13 2218.66,1034.83 2219.17,1033.52 2219.64,1032.21 2220.1,1030.9 2220.57,1029.58 2221.08,1028.26 
  2221.55,1026.93 2222.01,1025.6 2222.52,1024.28 2222.99,1022.94 2223.45,1021.61 2223.92,1020.28 2224.43,1018.95 2224.9,1017.62 2225.36,1016.28 2225.83,1014.95 
  2226.34,1013.62 2226.8,1012.29 2227.27,1010.96 2227.78,1009.63 2228.24,1008.31 2228.71,1006.98 2229.17,1005.66 2229.69,1004.35 2230.15,1003.03 2230.62,1001.72 
  2231.08,1000.41 2231.59,999.105 2232.06,997.804 2232.52,996.507 2233.04,995.214 2233.5,993.926 2233.97,992.643 2234.43,991.365 2234.94,990.093 2235.41,988.826 
  2235.87,987.566 2236.25,986.558 2236.66,985.554 2237.04,984.555 2237.5,983.32 2238.01,982.092 2238.48,980.873 2238.94,979.662 2239.41,978.46 2239.92,977.268 
  2240.39,976.086 2240.85,974.915 2241.32,973.754 2241.83,972.605 2242.29,971.469 2242.76,970.345 2243.27,969.234 2243.73,968.138 2244.2,967.056 2244.66,965.99 
  2245.18,964.94 2245.64,963.906 2246.11,962.89 2246.57,961.891 2247.08,960.912 2247.55,959.952 2248.01,959.013 2248.48,958.094 2248.99,957.197 2249.46,956.323 
  2249.92,955.472 2250.43,954.646 2250.9,953.844 2251.36,953.067 2251.83,952.317 2252.34,951.594 2252.8,950.898 2253.27,950.231 2253.74,949.593 2254.25,948.985 
  2254.71,948.407 2255.18,947.86 2255.69,947.344 2256.15,946.861 2256.62,946.411 2257.08,945.994 2257.6,945.61 2258.06,945.26 2258.53,944.946 2258.99,944.665 
  2259.5,944.421 2259.97,944.211 2260.43,944.037 2260.95,943.899 2261.41,943.798 2261.88,943.732 2262.34,943.702 2262.85,943.709 2263.32,943.751 2263.78,943.829 
  2264.15,943.921 2264.57,944.037 2264.95,944.175 2265.41,944.374 2265.92,944.608 2266.39,944.877 2266.85,945.179 2267.32,945.514 2267.83,945.882 2268.29,946.282 
  2268.76,946.714 2269.22,947.176 2269.74,947.667 2270.2,948.188 2270.67,948.736 2271.18,949.311 2271.64,949.912 2272.11,950.539 2272.57,951.189 2273.09,951.861 
  2273.55,952.555 2274.02,953.269 2274.48,954.002 2274.99,954.752 2275.46,955.519 2275.92,956.3 2276.39,957.095 2276.9,957.901 2277.37,958.718 2277.83,959.544 
  2278.34,960.377 2278.81,961.216 2279.27,962.06 2279.74,962.906 2280.25,963.753 2280.71,964.599 2281.18,965.444 2281.64,966.285 2282.16,967.121 2282.62,967.95 
  2283.09,968.771 2283.6,969.582 2284.06,970.381 2284.53,971.168 2284.99,971.94 2285.51,972.696 2285.97,973.435 2286.44,974.155 2286.9,974.855 2287.41,975.534 
  2287.88,976.19 2288.34,976.822 2288.85,977.428 2289.32,978.009 2289.78,978.562 2290.25,979.086 2290.76,979.581 2291.23,980.045 2291.69,980.478 2292.06,980.801 
  2292.48,981.103 
  "/>
</svg>
