<?xml version="1.0" encoding="utf-8"?>
<svg xmlns="http://www.w3.org/2000/svg" xmlns:xlink="http://www.w3.org/1999/xlink" width="600" height="400" viewBox="0 0 2400 1600">
<defs>
  <clipPath id="clip390">
    <rect x="0" y="0" width="2400" height="1600"/>
  </clipPath>
</defs>
<path clip-path="url(#clip390)" d="
M0 1600 L2400 1600 L2400 0 L0 0  Z
  " fill="#ffffff" fill-rule="evenodd" fill-opacity="1"/>
<defs>
  <clipPath id="clip391">
    <rect x="480" y="0" width="1681" height="1600"/>
  </clipPath>
</defs>
<path clip-path="url(#clip390)" d="
M192.339 1435.12 L2352.76 1435.12 L2352.76 123.472 L192.339 123.472  Z
  " fill="#ffffff" fill-rule="evenodd" fill-opacity="1"/>
<defs>
  <clipPath id="clip392">
    <rect x="192" y="123" width="2161" height="1313"/>
  </clipPath>
</defs>
<polyline clip-path="url(#clip392)" style="stroke:#000000; stroke-linecap:butt; stroke-linejoin:round; stroke-width:2; stroke-opacity:0.1; fill:none" points="
  253.483,1435.12 253.483,123.472 
  "/>
<polyline clip-path="url(#clip392)" style="stroke:#000000; stroke-linecap:butt; stroke-linejoin:round; stroke-width:2; stroke-opacity:0.1; fill:none" points="
  423.358,1435.12 423.358,123.472 
  "/>
<polyline clip-path="url(#clip392)" style="stroke:#000000; stroke-linecap:butt; stroke-linejoin:round; stroke-width:2; stroke-opacity:0.1; fill:none" points="
  593.234,1435.12 593.234,123.472 
  "/>
<polyline clip-path="url(#clip392)" style="stroke:#000000; stroke-linecap:butt; stroke-linejoin:round; stroke-width:2; stroke-opacity:0.1; fill:none" points="
  763.109,1435.12 763.109,123.472 
  "/>
<polyline clip-path="url(#clip392)" style="stroke:#000000; stroke-linecap:butt; stroke-linejoin:round; stroke-width:2; stroke-opacity:0.1; fill:none" points="
  932.985,1435.12 932.985,123.472 
  "/>
<polyline clip-path="url(#clip392)" style="stroke:#000000; stroke-linecap:butt; stroke-linejoin:round; stroke-width:2; stroke-opacity:0.1; fill:none" points="
  1102.86,1435.12 1102.86,123.472 
  "/>
<polyline clip-path="url(#clip392)" style="stroke:#000000; stroke-linecap:butt; stroke-linejoin:round; stroke-width:2; stroke-opacity:0.1; fill:none" points="
  1272.74,1435.12 1272.74,123.472 
  "/>
<polyline clip-path="url(#clip392)" style="stroke:#000000; stroke-linecap:butt; stroke-linejoin:round; stroke-width:2; stroke-opacity:0.1; fill:none" points="
  1442.61,1435.12 1442.61,123.472 
  "/>
<polyline clip-path="url(#clip392)" style="stroke:#000000; stroke-linecap:butt; stroke-linejoin:round; stroke-width:2; stroke-opacity:0.1; fill:none" points="
  1612.49,1435.12 1612.49,123.472 
  "/>
<polyline clip-path="url(#clip392)" style="stroke:#000000; stroke-linecap:butt; stroke-linejoin:round; stroke-width:2; stroke-opacity:0.1; fill:none" points="
  1782.36,1435.12 1782.36,123.472 
  "/>
<polyline clip-path="url(#clip392)" style="stroke:#000000; stroke-linecap:butt; stroke-linejoin:round; stroke-width:2; stroke-opacity:0.1; fill:none" points="
  1952.24,1435.12 1952.24,123.472 
  "/>
<polyline clip-path="url(#clip392)" style="stroke:#000000; stroke-linecap:butt; stroke-linejoin:round; stroke-width:2; stroke-opacity:0.1; fill:none" points="
  2122.11,1435.12 2122.11,123.472 
  "/>
<polyline clip-path="url(#clip390)" style="stroke:#000000; stroke-linecap:butt; stroke-linejoin:round; stroke-width:4; stroke-opacity:1; fill:none" points="
  192.339,1435.12 2352.76,1435.12 
  "/>
<polyline clip-path="url(#clip390)" style="stroke:#000000; stroke-linecap:butt; stroke-linejoin:round; stroke-width:4; stroke-opacity:1; fill:none" points="
  253.483,1435.12 253.483,1416.23 
  "/>
<polyline clip-path="url(#clip390)" style="stroke:#000000; stroke-linecap:butt; stroke-linejoin:round; stroke-width:4; stroke-opacity:1; fill:none" points="
  423.358,1435.12 423.358,1416.23 
  "/>
<polyline clip-path="url(#clip390)" style="stroke:#000000; stroke-linecap:butt; stroke-linejoin:round; stroke-width:4; stroke-opacity:1; fill:none" points="
  593.234,1435.12 593.234,1416.23 
  "/>
<polyline clip-path="url(#clip390)" style="stroke:#000000; stroke-linecap:butt; stroke-linejoin:round; stroke-width:4; stroke-opacity:1; fill:none" points="
  763.109,1435.12 763.109,1416.23 
  "/>
<polyline clip-path="url(#clip390)" style="stroke:#000000; stroke-linecap:butt; stroke-linejoin:round; stroke-width:4; stroke-opacity:1; fill:none" points="
  932.985,1435.12 932.985,1416.23 
  "/>
<polyline clip-path="url(#clip390)" style="stroke:#000000; stroke-linecap:butt; stroke-linejoin:round; stroke-width:4; stroke-opacity:1; fill:none" points="
  1102.86,1435.12 1102.86,1416.23 
  "/>
<polyline clip-path="url(#clip390)" style="stroke:#000000; stroke-linecap:butt; stroke-linejoin:round; stroke-width:4; stroke-opacity:1; fill:none" points="
  1272.74,1435.12 1272.74,1416.23 
  "/>
<polyline clip-path="url(#clip390)" style="stroke:#000000; stroke-linecap:butt; stroke-linejoin:round; stroke-width:4; stroke-opacity:1; fill:none" points="
  1442.61,1435.12 1442.61,1416.23 
  "/>
<polyline clip-path="url(#clip390)" style="stroke:#000000; stroke-linecap:butt; stroke-linejoin:round; stroke-width:4; stroke-opacity:1; fill:none" points="
  1612.49,1435.12 1612.49,1416.23 
  "/>
<polyline clip-path="url(#clip390)" style="stroke:#000000; stroke-linecap:butt; stroke-linejoin:round; stroke-width:4; stroke-opacity:1; fill:none" points="
  1782.36,1435.12 1782.36,1416.23 
  "/>
<polyline clip-path="url(#clip390)" style="stroke:#000000; stroke-linecap:butt; stroke-linejoin:round; stroke-width:4; stroke-opacity:1; fill:none" points="
  1952.24,1435.12 1952.24,1416.23 
  "/>
<polyline clip-path="url(#clip390)" style="stroke:#000000; stroke-linecap:butt; stroke-linejoin:round; stroke-width:4; stroke-opacity:1; fill:none" points="
  2122.11,1435.12 2122.11,1416.23 
  "/>
<path clip-path="url(#clip390)" d="M172.698 1572.31 L178.099 1566.91 L159.456 1548.27 L154.758 1555.32 L151.747 1552.31 L156.412 1545.29 L159.718 1541.98 L181.373 1563.63 L186.774 1558.23 L189.557 1561.02 L175.48 1575.09 L172.698 1572.31 Z" fill="#000000" fill-rule="evenodd" fill-opacity="1" /><path clip-path="url(#clip390)" d="M193.076 1531.14 Q195.957 1529.28 198.887 1529.56 Q201.833 1529.82 204.19 1532.18 Q207.807 1535.79 207.3 1540.26 Q206.793 1544.73 202.21 1549.31 Q200.671 1550.85 198.723 1552.18 Q196.808 1553.5 194.467 1554.63 L191.276 1551.44 Q193.453 1550.87 195.499 1549.64 Q197.545 1548.41 199.329 1546.63 Q202.439 1543.52 202.832 1540.67 Q203.241 1537.81 200.9 1535.47 Q198.739 1533.3 196.006 1533.62 Q193.273 1533.89 190.572 1536.59 L187.724 1539.44 L185.007 1536.73 L187.986 1533.75 Q190.424 1531.31 190.752 1529.05 Q191.063 1526.77 189.23 1524.94 Q187.347 1523.06 185.007 1523.4 Q182.666 1523.71 180.178 1526.2 Q178.819 1527.56 177.559 1529.41 Q176.299 1531.26 175.055 1533.75 L172.109 1530.8 Q173.467 1528.39 174.842 1526.5 Q176.233 1524.58 177.69 1523.12 Q181.455 1519.36 185.367 1518.88 Q189.262 1518.39 192.176 1521.31 Q194.206 1523.34 194.451 1525.91 Q194.68 1528.46 193.076 1531.14 Z" fill="#000000" fill-rule="evenodd" fill-opacity="1" /><path clip-path="url(#clip390)" d="M213.749 1528.51 L217.203 1525.06 L221.36 1529.21 L217.907 1532.67 L213.749 1528.51 M200.573 1515.33 L204.026 1511.88 L208.184 1516.04 L204.73 1519.49 L200.573 1515.33 Z" fill="#000000" fill-rule="evenodd" fill-opacity="1" /><path clip-path="url(#clip390)" d="M213.667 1492.38 Q211.114 1494.94 212.341 1498.75 Q213.569 1502.53 218.61 1507.57 Q223.635 1512.6 227.433 1513.84 Q231.23 1515.05 233.784 1512.5 Q236.353 1509.93 235.126 1506.15 Q233.898 1502.34 228.873 1497.31 Q223.832 1492.27 220.034 1491.06 Q216.237 1489.81 213.667 1492.38 M211.048 1489.77 Q215.157 1485.66 220.575 1486.75 Q225.992 1487.82 232.18 1494 Q238.35 1500.18 239.431 1505.61 Q240.511 1511.01 236.403 1515.12 Q232.294 1519.23 226.876 1518.16 Q221.458 1517.07 215.288 1510.9 Q209.1 1504.71 208.02 1499.31 Q206.94 1493.87 211.048 1489.77 Z" fill="#000000" fill-rule="evenodd" fill-opacity="1" /><path clip-path="url(#clip390)" d="M234.995 1471.06 Q232.441 1473.61 233.669 1477.42 Q234.897 1481.2 239.938 1486.25 Q244.963 1491.27 248.76 1492.52 Q252.558 1493.73 255.111 1491.17 Q257.681 1488.6 256.453 1484.82 Q255.226 1481.01 250.201 1475.98 Q245.159 1470.94 241.362 1469.73 Q237.565 1468.49 234.995 1471.06 M232.376 1468.44 Q236.484 1464.33 241.902 1465.43 Q247.32 1466.49 253.507 1472.68 Q259.678 1478.85 260.758 1484.28 Q261.839 1489.68 257.73 1493.79 Q253.622 1497.9 248.204 1496.84 Q242.786 1495.74 236.615 1489.57 Q230.428 1483.38 229.348 1477.98 Q228.268 1472.55 232.376 1468.44 Z" fill="#000000" fill-rule="evenodd" fill-opacity="1" /><path clip-path="url(#clip390)" d="M342.573 1572.31 L347.975 1566.91 L329.332 1548.27 L324.634 1555.32 L321.622 1552.31 L326.287 1545.29 L329.593 1541.98 L351.248 1563.63 L356.65 1558.23 L359.433 1561.02 L345.356 1575.09 L342.573 1572.31 Z" fill="#000000" fill-rule="evenodd" fill-opacity="1" /><path clip-path="url(#clip390)" d="M353.638 1523.7 L358.336 1545.09 L366.684 1536.74 L353.638 1523.7 M349.89 1521.68 L354.047 1517.53 L369.974 1533.45 L373.46 1529.97 L376.21 1532.72 L372.723 1536.2 L378.485 1541.96 L375.195 1545.25 L369.433 1539.49 L358.401 1550.52 L355.21 1547.33 L349.89 1521.68 Z" fill="#000000" fill-rule="evenodd" fill-opacity="1" /><path clip-path="url(#clip390)" d="M383.625 1528.51 L387.078 1525.06 L391.236 1529.21 L387.782 1532.67 L383.625 1528.51 M370.448 1515.33 L373.902 1511.88 L378.059 1516.04 L374.606 1519.49 L370.448 1515.33 Z" fill="#000000" fill-rule="evenodd" fill-opacity="1" /><path clip-path="url(#clip390)" d="M383.543 1492.38 Q380.989 1494.94 382.217 1498.75 Q383.445 1502.53 388.486 1507.57 Q393.511 1512.6 397.308 1513.84 Q401.106 1515.05 403.659 1512.5 Q406.229 1509.93 405.001 1506.15 Q403.774 1502.34 398.749 1497.31 Q393.707 1492.27 389.91 1491.06 Q386.113 1489.81 383.543 1492.38 M380.924 1489.77 Q385.032 1485.66 390.45 1486.75 Q395.868 1487.82 402.055 1494 Q408.226 1500.18 409.306 1505.61 Q410.386 1511.01 406.278 1515.12 Q402.17 1519.23 396.752 1518.16 Q391.334 1517.07 385.163 1510.9 Q378.976 1504.71 377.896 1499.31 Q376.815 1493.87 380.924 1489.77 Z" fill="#000000" fill-rule="evenodd" fill-opacity="1" /><path clip-path="url(#clip390)" d="M404.87 1471.06 Q402.317 1473.61 403.545 1477.42 Q404.772 1481.2 409.814 1486.25 Q414.839 1491.27 418.636 1492.52 Q422.433 1493.73 424.987 1491.17 Q427.557 1488.6 426.329 1484.82 Q425.101 1481.01 420.076 1475.98 Q415.035 1470.94 411.238 1469.73 Q407.44 1468.49 404.87 1471.06 M402.252 1468.44 Q406.36 1464.33 411.778 1465.43 Q417.196 1466.49 423.383 1472.68 Q429.554 1478.85 430.634 1484.28 Q431.714 1489.68 427.606 1493.79 Q423.497 1497.9 418.08 1496.84 Q412.662 1495.74 406.491 1489.57 Q400.304 1483.38 399.223 1477.98 Q398.143 1472.55 402.252 1468.44 Z" fill="#000000" fill-rule="evenodd" fill-opacity="1" /><path clip-path="url(#clip390)" d="M512.449 1572.31 L517.85 1566.91 L499.207 1548.27 L494.509 1555.32 L491.498 1552.31 L496.163 1545.29 L499.469 1541.98 L521.124 1563.63 L526.526 1558.23 L529.308 1561.02 L515.232 1575.09 L512.449 1572.31 Z" fill="#000000" fill-rule="evenodd" fill-opacity="1" /><path clip-path="url(#clip390)" d="M511.581 1529.87 L524.561 1516.89 L527.344 1519.67 L517.392 1529.62 L523.383 1535.61 Q523.858 1534.65 524.463 1533.81 Q525.052 1532.96 525.773 1532.24 Q529.865 1528.15 534.497 1528 Q539.129 1527.85 542.959 1531.68 Q546.904 1535.63 546.642 1540.28 Q546.364 1544.91 541.895 1549.38 Q540.357 1550.92 538.491 1552.26 Q536.641 1553.58 534.415 1554.76 L531.092 1551.44 Q533.367 1550.77 535.332 1549.59 Q537.296 1548.41 539.047 1546.66 Q541.879 1543.83 542.042 1540.69 Q542.206 1537.54 539.653 1534.99 Q537.099 1532.44 533.957 1532.6 Q530.814 1532.76 527.982 1535.6 Q526.656 1536.92 525.625 1538.54 Q524.61 1540.15 523.858 1542.14 L511.581 1529.87 Z" fill="#000000" fill-rule="evenodd" fill-opacity="1" /><path clip-path="url(#clip390)" d="M553.5 1528.51 L556.954 1525.06 L561.111 1529.21 L557.658 1532.67 L553.5 1528.51 M540.324 1515.33 L543.778 1511.88 L547.935 1516.04 L544.481 1519.49 L540.324 1515.33 Z" fill="#000000" fill-rule="evenodd" fill-opacity="1" /><path clip-path="url(#clip390)" d="M553.418 1492.38 Q550.865 1494.94 552.093 1498.75 Q553.32 1502.53 558.362 1507.57 Q563.387 1512.6 567.184 1513.84 Q570.981 1515.05 573.535 1512.5 Q576.105 1509.93 574.877 1506.15 Q573.649 1502.34 568.624 1497.31 Q563.583 1492.27 559.786 1491.06 Q555.988 1489.81 553.418 1492.38 M550.799 1489.77 Q554.908 1485.66 560.326 1486.75 Q565.744 1487.82 571.931 1494 Q578.101 1500.18 579.182 1505.61 Q580.262 1511.01 576.154 1515.12 Q572.045 1519.23 566.627 1518.16 Q561.21 1517.07 555.039 1510.9 Q548.852 1504.71 547.771 1499.31 Q546.691 1493.87 550.799 1489.77 Z" fill="#000000" fill-rule="evenodd" fill-opacity="1" /><path clip-path="url(#clip390)" d="M574.746 1471.06 Q572.193 1473.61 573.42 1477.42 Q574.648 1481.2 579.689 1486.25 Q584.714 1491.27 588.512 1492.52 Q592.309 1493.73 594.862 1491.17 Q597.432 1488.6 596.205 1484.82 Q594.977 1481.01 589.952 1475.98 Q584.911 1470.94 581.113 1469.73 Q577.316 1468.49 574.746 1471.06 M572.127 1468.44 Q576.236 1464.33 581.653 1465.43 Q587.071 1466.49 593.258 1472.68 Q599.429 1478.85 600.509 1484.28 Q601.59 1489.68 597.481 1493.79 Q593.373 1497.9 587.955 1496.84 Q582.537 1495.74 576.366 1489.57 Q570.179 1483.38 569.099 1477.98 Q568.019 1472.55 572.127 1468.44 Z" fill="#000000" fill-rule="evenodd" fill-opacity="1" /><path clip-path="url(#clip390)" d="M682.324 1572.31 L687.726 1566.91 L669.083 1548.27 L664.385 1555.32 L661.373 1552.31 L666.038 1545.29 L669.345 1541.98 L691 1563.63 L696.401 1558.23 L699.184 1561.02 L685.107 1575.09 L682.324 1572.31 Z" fill="#000000" fill-rule="evenodd" fill-opacity="1" /><path clip-path="url(#clip390)" d="M699.806 1533.32 Q697.58 1535.55 697.792 1538.38 Q698.022 1541.19 700.673 1543.85 Q703.308 1546.48 706.14 1546.73 Q708.972 1546.94 711.198 1544.71 Q713.424 1542.49 713.195 1539.67 Q712.966 1536.82 710.33 1534.19 Q707.679 1531.54 704.847 1531.32 Q702.032 1531.09 699.806 1533.32 M696.008 1516.4 L699.02 1519.41 Q697.187 1520.06 695.599 1521.03 Q694.028 1521.98 692.784 1523.22 Q689.51 1526.5 689.985 1530.44 Q690.476 1534.37 694.699 1539.08 Q694.24 1536.69 694.944 1534.48 Q695.632 1532.26 697.383 1530.51 Q701.066 1526.82 705.436 1526.94 Q709.807 1527.02 713.653 1530.87 Q717.418 1534.63 717.467 1539.13 Q717.516 1543.63 713.817 1547.33 Q709.577 1551.57 704.094 1550.57 Q698.594 1549.56 692.424 1543.39 Q686.629 1537.59 685.942 1531.41 Q685.238 1525.2 689.87 1520.57 Q691.114 1519.33 692.62 1518.31 Q694.142 1517.28 696.008 1516.4 Z" fill="#000000" fill-rule="evenodd" fill-opacity="1" /><path clip-path="url(#clip390)" d="M723.376 1528.51 L726.829 1525.06 L730.987 1529.21 L727.533 1532.67 L723.376 1528.51 M710.199 1515.33 L713.653 1511.88 L717.811 1516.04 L714.357 1519.49 L710.199 1515.33 Z" fill="#000000" fill-rule="evenodd" fill-opacity="1" /><path clip-path="url(#clip390)" d="M723.294 1492.38 Q720.74 1494.94 721.968 1498.75 Q723.196 1502.53 728.237 1507.57 Q733.262 1512.6 737.06 1513.84 Q740.857 1515.05 743.41 1512.5 Q745.98 1509.93 744.753 1506.15 Q743.525 1502.34 738.5 1497.31 Q733.459 1492.27 729.661 1491.06 Q725.864 1489.81 723.294 1492.38 M720.675 1489.77 Q724.783 1485.66 730.201 1486.75 Q735.619 1487.82 741.806 1494 Q747.977 1500.18 749.057 1505.61 Q750.138 1511.01 746.029 1515.12 Q741.921 1519.23 736.503 1518.16 Q731.085 1517.07 724.914 1510.9 Q718.727 1504.71 717.647 1499.31 Q716.567 1493.87 720.675 1489.77 Z" fill="#000000" fill-rule="evenodd" fill-opacity="1" /><path clip-path="url(#clip390)" d="M744.622 1471.06 Q742.068 1473.61 743.296 1477.42 Q744.523 1481.2 749.565 1486.25 Q754.59 1491.27 758.387 1492.52 Q762.185 1493.73 764.738 1491.17 Q767.308 1488.6 766.08 1484.82 Q764.853 1481.01 759.828 1475.98 Q754.786 1470.94 750.989 1469.73 Q747.191 1468.49 744.622 1471.06 M742.003 1468.44 Q746.111 1464.33 751.529 1465.43 Q756.947 1466.49 763.134 1472.68 Q769.305 1478.85 770.385 1484.28 Q771.465 1489.68 767.357 1493.79 Q763.249 1497.9 757.831 1496.84 Q752.413 1495.74 746.242 1489.57 Q740.055 1483.38 738.975 1477.98 Q737.894 1472.55 742.003 1468.44 Z" fill="#000000" fill-rule="evenodd" fill-opacity="1" /><path clip-path="url(#clip390)" d="M852.2 1572.31 L857.602 1566.91 L838.958 1548.27 L834.261 1555.32 L831.249 1552.31 L835.914 1545.29 L839.22 1541.98 L860.875 1563.63 L866.277 1558.23 L869.059 1561.02 L854.983 1575.09 L852.2 1572.31 Z" fill="#000000" fill-rule="evenodd" fill-opacity="1" /><path clip-path="url(#clip390)" d="M850.465 1530.73 L866.178 1515.02 L867.586 1516.43 L881.745 1548.33 L878.291 1551.78 L864.984 1521.78 L853.248 1533.52 L850.465 1530.73 Z" fill="#000000" fill-rule="evenodd" fill-opacity="1" /><path clip-path="url(#clip390)" d="M893.251 1528.51 L896.705 1525.06 L900.863 1529.21 L897.409 1532.67 L893.251 1528.51 M880.075 1515.33 L883.529 1511.88 L887.686 1516.04 L884.232 1519.49 L880.075 1515.33 Z" fill="#000000" fill-rule="evenodd" fill-opacity="1" /><path clip-path="url(#clip390)" d="M893.169 1492.38 Q890.616 1494.94 891.844 1498.75 Q893.071 1502.53 898.113 1507.57 Q903.138 1512.6 906.935 1513.84 Q910.732 1515.05 913.286 1512.5 Q915.856 1509.93 914.628 1506.15 Q913.4 1502.34 908.375 1497.31 Q903.334 1492.27 899.537 1491.06 Q895.739 1489.81 893.169 1492.38 M890.551 1489.77 Q894.659 1485.66 900.077 1486.75 Q905.495 1487.82 911.682 1494 Q917.853 1500.18 918.933 1505.61 Q920.013 1511.01 915.905 1515.12 Q911.796 1519.23 906.379 1518.16 Q900.961 1517.07 894.79 1510.9 Q888.603 1504.71 887.522 1499.31 Q886.442 1493.87 890.551 1489.77 Z" fill="#000000" fill-rule="evenodd" fill-opacity="1" /><path clip-path="url(#clip390)" d="M914.497 1471.06 Q911.944 1473.61 913.171 1477.42 Q914.399 1481.2 919.44 1486.25 Q924.465 1491.27 928.263 1492.52 Q932.06 1493.73 934.614 1491.17 Q937.183 1488.6 935.956 1484.82 Q934.728 1481.01 929.703 1475.98 Q924.662 1470.94 920.864 1469.73 Q917.067 1468.49 914.497 1471.06 M911.878 1468.44 Q915.987 1464.33 921.405 1465.43 Q926.822 1466.49 933.01 1472.68 Q939.18 1478.85 940.261 1484.28 Q941.341 1489.68 937.232 1493.79 Q933.124 1497.9 927.706 1496.84 Q922.288 1495.74 916.118 1489.57 Q909.93 1483.38 908.85 1477.98 Q907.77 1472.55 911.878 1468.44 Z" fill="#000000" fill-rule="evenodd" fill-opacity="1" /><path clip-path="url(#clip390)" d="M1022.08 1572.31 L1027.48 1566.91 L1008.83 1548.27 L1004.14 1555.32 L1001.12 1552.31 L1005.79 1545.29 L1009.1 1541.98 L1030.75 1563.63 L1036.15 1558.23 L1038.93 1561.02 L1024.86 1575.09 L1022.08 1572.31 Z" fill="#000000" fill-rule="evenodd" fill-opacity="1" /><path clip-path="url(#clip390)" d="M1041.08 1535.66 Q1038.72 1538.02 1038.62 1540.64 Q1038.54 1543.24 1040.75 1545.45 Q1042.96 1547.66 1045.56 1547.58 Q1048.18 1547.48 1050.54 1545.12 Q1052.9 1542.77 1053 1540.15 Q1053.08 1537.51 1050.88 1535.32 Q1048.67 1533.11 1046.05 1533.21 Q1043.45 1533.29 1041.08 1535.66 M1036.37 1537.56 Q1033.71 1539.16 1031.06 1538.9 Q1028.43 1538.62 1026.33 1536.53 Q1023.4 1533.6 1023.78 1529.82 Q1024.17 1526.02 1027.8 1522.39 Q1031.45 1518.74 1035.24 1518.36 Q1039.02 1517.98 1041.95 1520.91 Q1044.04 1523.01 1044.3 1525.66 Q1044.58 1528.3 1042.99 1530.93 Q1045.94 1529.1 1048.89 1529.39 Q1051.85 1529.67 1054.19 1532.01 Q1057.74 1535.56 1057.46 1539.64 Q1057.2 1543.7 1053.16 1547.74 Q1049.12 1551.78 1045.04 1552.06 Q1040.98 1552.32 1037.43 1548.77 Q1035.09 1546.43 1034.81 1543.47 Q1034.53 1540.51 1036.37 1537.56 M1029.93 1533.55 Q1031.83 1535.45 1034.07 1535.33 Q1036.33 1535.2 1038.48 1533.06 Q1040.6 1530.93 1040.74 1528.67 Q1040.88 1526.4 1038.98 1524.5 Q1037.09 1522.6 1034.81 1522.75 Q1032.55 1522.88 1030.42 1525.01 Q1028.28 1527.15 1028.15 1529.41 Q1028.03 1531.65 1029.93 1533.55 Z" fill="#000000" fill-rule="evenodd" fill-opacity="1" /><path clip-path="url(#clip390)" d="M1063.13 1528.51 L1066.58 1525.06 L1070.74 1529.21 L1067.28 1532.67 L1063.13 1528.51 M1049.95 1515.33 L1053.4 1511.88 L1057.56 1516.04 L1054.11 1519.49 L1049.95 1515.33 Z" fill="#000000" fill-rule="evenodd" fill-opacity="1" /><path clip-path="url(#clip390)" d="M1063.05 1492.38 Q1060.49 1494.94 1061.72 1498.75 Q1062.95 1502.53 1067.99 1507.57 Q1073.01 1512.6 1076.81 1513.84 Q1080.61 1515.05 1083.16 1512.5 Q1085.73 1509.93 1084.5 1506.15 Q1083.28 1502.34 1078.25 1497.31 Q1073.21 1492.27 1069.41 1491.06 Q1065.61 1489.81 1063.05 1492.38 M1060.43 1489.77 Q1064.53 1485.66 1069.95 1486.75 Q1075.37 1487.82 1081.56 1494 Q1087.73 1500.18 1088.81 1505.61 Q1089.89 1511.01 1085.78 1515.12 Q1081.67 1519.23 1076.25 1518.16 Q1070.84 1517.07 1064.67 1510.9 Q1058.48 1504.71 1057.4 1499.31 Q1056.32 1493.87 1060.43 1489.77 Z" fill="#000000" fill-rule="evenodd" fill-opacity="1" /><path clip-path="url(#clip390)" d="M1084.37 1471.06 Q1081.82 1473.61 1083.05 1477.42 Q1084.27 1481.2 1089.32 1486.25 Q1094.34 1491.27 1098.14 1492.52 Q1101.94 1493.73 1104.49 1491.17 Q1107.06 1488.6 1105.83 1484.82 Q1104.6 1481.01 1099.58 1475.98 Q1094.54 1470.94 1090.74 1469.73 Q1086.94 1468.49 1084.37 1471.06 M1081.75 1468.44 Q1085.86 1464.33 1091.28 1465.43 Q1096.7 1466.49 1102.89 1472.68 Q1109.06 1478.85 1110.14 1484.28 Q1111.22 1489.68 1107.11 1493.79 Q1103 1497.9 1097.58 1496.84 Q1092.16 1495.74 1085.99 1489.57 Q1079.81 1483.38 1078.73 1477.98 Q1077.65 1472.55 1081.75 1468.44 Z" fill="#000000" fill-rule="evenodd" fill-opacity="1" /><path clip-path="url(#clip390)" d="M1191.95 1572.31 L1197.35 1566.91 L1178.71 1548.27 L1174.01 1555.32 L1171 1552.31 L1175.66 1545.29 L1178.97 1541.98 L1200.63 1563.63 L1206.03 1558.23 L1208.81 1561.02 L1194.73 1575.09 L1191.95 1572.31 Z" fill="#000000" fill-rule="evenodd" fill-opacity="1" /><path clip-path="url(#clip390)" d="M1215.08 1553.73 L1212.07 1550.72 Q1213.9 1550.07 1215.49 1549.1 Q1217.08 1548.13 1218.3 1546.91 Q1221.58 1543.63 1221.1 1539.72 Q1220.63 1535.78 1216.39 1531.05 Q1216.85 1533.4 1216.14 1535.61 Q1215.44 1537.82 1213.67 1539.59 Q1210.01 1543.26 1205.65 1543.19 Q1201.3 1543.09 1197.45 1539.25 Q1193.69 1535.48 1193.64 1530.98 Q1193.59 1526.48 1197.29 1522.78 Q1201.53 1518.54 1207.01 1519.57 Q1212.49 1520.57 1218.68 1526.76 Q1224.46 1532.54 1225.16 1538.74 Q1225.87 1544.91 1221.23 1549.54 Q1219.99 1550.79 1218.47 1551.82 Q1216.95 1552.85 1215.08 1553.73 M1211.3 1536.79 Q1213.52 1534.56 1213.3 1531.75 Q1213.08 1528.92 1210.43 1526.27 Q1207.8 1523.63 1204.96 1523.42 Q1202.13 1523.17 1199.91 1525.4 Q1197.68 1527.62 1197.91 1530.47 Q1198.14 1533.29 1200.77 1535.92 Q1203.43 1538.58 1206.24 1538.8 Q1209.07 1539.02 1211.3 1536.79 Z" fill="#000000" fill-rule="evenodd" fill-opacity="1" /><path clip-path="url(#clip390)" d="M1233 1528.51 L1236.46 1525.06 L1240.61 1529.21 L1237.16 1532.67 L1233 1528.51 M1219.83 1515.33 L1223.28 1511.88 L1227.44 1516.04 L1223.98 1519.49 L1219.83 1515.33 Z" fill="#000000" fill-rule="evenodd" fill-opacity="1" /><path clip-path="url(#clip390)" d="M1232.92 1492.38 Q1230.37 1494.94 1231.59 1498.75 Q1232.82 1502.53 1237.86 1507.57 Q1242.89 1512.6 1246.69 1513.84 Q1250.48 1515.05 1253.04 1512.5 Q1255.61 1509.93 1254.38 1506.15 Q1253.15 1502.34 1248.13 1497.31 Q1243.09 1492.27 1239.29 1491.06 Q1235.49 1489.81 1232.92 1492.38 M1230.3 1489.77 Q1234.41 1485.66 1239.83 1486.75 Q1245.25 1487.82 1251.43 1494 Q1257.6 1500.18 1258.68 1505.61 Q1259.76 1511.01 1255.66 1515.12 Q1251.55 1519.23 1246.13 1518.16 Q1240.71 1517.07 1234.54 1510.9 Q1228.35 1504.71 1227.27 1499.31 Q1226.19 1493.87 1230.3 1489.77 Z" fill="#000000" fill-rule="evenodd" fill-opacity="1" /><path clip-path="url(#clip390)" d="M1254.25 1471.06 Q1251.69 1473.61 1252.92 1477.42 Q1254.15 1481.2 1259.19 1486.25 Q1264.22 1491.27 1268.01 1492.52 Q1271.81 1493.73 1274.36 1491.17 Q1276.93 1488.6 1275.71 1484.82 Q1274.48 1481.01 1269.45 1475.98 Q1264.41 1470.94 1260.62 1469.73 Q1256.82 1468.49 1254.25 1471.06 M1251.63 1468.44 Q1255.74 1464.33 1261.16 1465.43 Q1266.57 1466.49 1272.76 1472.68 Q1278.93 1478.85 1280.01 1484.28 Q1281.09 1489.68 1276.98 1493.79 Q1272.88 1497.9 1267.46 1496.84 Q1262.04 1495.74 1255.87 1489.57 Q1249.68 1483.38 1248.6 1477.98 Q1247.52 1472.55 1251.63 1468.44 Z" fill="#000000" fill-rule="evenodd" fill-opacity="1" /><path clip-path="url(#clip390)" d="M1364.1 1570.03 L1375.64 1558.5 L1378.42 1561.28 L1362.91 1576.79 L1360.12 1574.01 Q1360.06 1570.18 1360.03 1563.67 Q1359.99 1557.12 1359.88 1555.34 Q1359.68 1551.96 1359.08 1550.11 Q1358.47 1548.23 1357.28 1547.04 Q1355.33 1545.09 1352.73 1545.24 Q1350.14 1545.37 1347.95 1547.56 Q1346.39 1549.12 1345.2 1551.39 Q1344.02 1553.65 1343.15 1556.71 L1339.81 1553.37 Q1341.01 1550.57 1342.33 1548.43 Q1343.66 1546.28 1345.1 1544.84 Q1348.9 1541.05 1353.05 1540.69 Q1357.21 1540.33 1360.39 1543.5 Q1361.89 1545.01 1362.68 1546.94 Q1363.46 1548.84 1363.81 1552.16 Q1363.87 1553.04 1363.95 1557.51 Q1364.02 1561.97 1364.1 1570.03 Z" fill="#000000" fill-rule="evenodd" fill-opacity="1" /><path clip-path="url(#clip390)" d="M1370.17 1525.01 Q1367.62 1527.56 1368.85 1531.37 Q1370.08 1535.15 1375.12 1540.2 Q1380.14 1545.22 1383.94 1546.46 Q1387.74 1547.68 1390.29 1545.12 Q1392.86 1542.55 1391.63 1538.77 Q1390.41 1534.96 1385.38 1529.93 Q1380.34 1524.89 1376.54 1523.68 Q1372.74 1522.44 1370.17 1525.01 M1367.56 1522.39 Q1371.66 1518.28 1377.08 1519.38 Q1382.5 1520.44 1388.69 1526.63 Q1394.86 1532.8 1395.94 1538.23 Q1397.02 1543.63 1392.91 1547.74 Q1388.8 1551.85 1383.38 1550.79 Q1377.97 1549.69 1371.79 1543.52 Q1365.61 1537.33 1364.53 1531.93 Q1363.45 1526.5 1367.56 1522.39 Z" fill="#000000" fill-rule="evenodd" fill-opacity="1" /><path clip-path="url(#clip390)" d="M1402.88 1528.51 L1406.33 1525.06 L1410.49 1529.21 L1407.04 1532.67 L1402.88 1528.51 M1389.7 1515.33 L1393.16 1511.88 L1397.31 1516.04 L1393.86 1519.49 L1389.7 1515.33 Z" fill="#000000" fill-rule="evenodd" fill-opacity="1" /><path clip-path="url(#clip390)" d="M1402.8 1492.38 Q1400.24 1494.94 1401.47 1498.75 Q1402.7 1502.53 1407.74 1507.57 Q1412.76 1512.6 1416.56 1513.84 Q1420.36 1515.05 1422.91 1512.5 Q1425.48 1509.93 1424.25 1506.15 Q1423.03 1502.34 1418 1497.31 Q1412.96 1492.27 1409.16 1491.06 Q1405.37 1489.81 1402.8 1492.38 M1400.18 1489.77 Q1404.29 1485.66 1409.7 1486.75 Q1415.12 1487.82 1421.31 1494 Q1427.48 1500.18 1428.56 1505.61 Q1429.64 1511.01 1425.53 1515.12 Q1421.42 1519.23 1416.01 1518.16 Q1410.59 1517.07 1404.42 1510.9 Q1398.23 1504.71 1397.15 1499.31 Q1396.07 1493.87 1400.18 1489.77 Z" fill="#000000" fill-rule="evenodd" fill-opacity="1" /><path clip-path="url(#clip390)" d="M1424.12 1471.06 Q1421.57 1473.61 1422.8 1477.42 Q1424.03 1481.2 1429.07 1486.25 Q1434.09 1491.27 1437.89 1492.52 Q1441.69 1493.73 1444.24 1491.17 Q1446.81 1488.6 1445.58 1484.82 Q1444.35 1481.01 1439.33 1475.98 Q1434.29 1470.94 1430.49 1469.73 Q1426.69 1468.49 1424.12 1471.06 M1421.5 1468.44 Q1425.61 1464.33 1431.03 1465.43 Q1436.45 1466.49 1442.64 1472.68 Q1448.81 1478.85 1449.89 1484.28 Q1450.97 1489.68 1446.86 1493.79 Q1442.75 1497.9 1437.33 1496.84 Q1431.92 1495.74 1425.74 1489.57 Q1419.56 1483.38 1418.48 1477.98 Q1417.4 1472.55 1421.5 1468.44 Z" fill="#000000" fill-rule="evenodd" fill-opacity="1" /><path clip-path="url(#clip390)" d="M1533.98 1570.03 L1545.52 1558.5 L1548.3 1561.28 L1532.78 1576.79 L1530 1574.01 Q1529.93 1570.18 1529.9 1563.67 Q1529.87 1557.12 1529.75 1555.34 Q1529.56 1551.96 1528.95 1550.11 Q1528.35 1548.23 1527.15 1547.04 Q1525.2 1545.09 1522.6 1545.24 Q1520.02 1545.37 1517.82 1547.56 Q1516.27 1549.12 1515.07 1551.39 Q1513.89 1553.65 1513.03 1556.71 L1509.69 1553.37 Q1510.88 1550.57 1512.21 1548.43 Q1513.53 1546.28 1514.97 1544.84 Q1518.77 1541.05 1522.93 1540.69 Q1527.09 1540.33 1530.26 1543.5 Q1531.77 1545.01 1532.55 1546.94 Q1533.34 1548.84 1533.68 1552.16 Q1533.75 1553.04 1533.83 1557.51 Q1533.9 1561.97 1533.98 1570.03 Z" fill="#000000" fill-rule="evenodd" fill-opacity="1" /><path clip-path="url(#clip390)" d="M1553.03 1550.98 L1558.43 1545.58 L1539.79 1526.94 L1535.09 1533.99 L1532.08 1530.98 L1536.74 1523.96 L1540.05 1520.65 L1561.71 1542.31 L1567.11 1536.91 L1569.89 1539.69 L1555.81 1553.76 L1553.03 1550.98 Z" fill="#000000" fill-rule="evenodd" fill-opacity="1" /><path clip-path="url(#clip390)" d="M1572.75 1528.51 L1576.21 1525.06 L1580.36 1529.21 L1576.91 1532.67 L1572.75 1528.51 M1559.58 1515.33 L1563.03 1511.88 L1567.19 1516.04 L1563.73 1519.49 L1559.58 1515.33 Z" fill="#000000" fill-rule="evenodd" fill-opacity="1" /><path clip-path="url(#clip390)" d="M1572.67 1492.38 Q1570.12 1494.94 1571.35 1498.75 Q1572.57 1502.53 1577.61 1507.57 Q1582.64 1512.6 1586.44 1513.84 Q1590.23 1515.05 1592.79 1512.5 Q1595.36 1509.93 1594.13 1506.15 Q1592.9 1502.34 1587.88 1497.31 Q1582.84 1492.27 1579.04 1491.06 Q1575.24 1489.81 1572.67 1492.38 M1570.05 1489.77 Q1574.16 1485.66 1579.58 1486.75 Q1585 1487.82 1591.18 1494 Q1597.35 1500.18 1598.44 1505.61 Q1599.52 1511.01 1595.41 1515.12 Q1591.3 1519.23 1585.88 1518.16 Q1580.46 1517.07 1574.29 1510.9 Q1568.11 1504.71 1567.02 1499.31 Q1565.94 1493.87 1570.05 1489.77 Z" fill="#000000" fill-rule="evenodd" fill-opacity="1" /><path clip-path="url(#clip390)" d="M1594 1471.06 Q1591.45 1473.61 1592.67 1477.42 Q1593.9 1481.2 1598.94 1486.25 Q1603.97 1491.27 1607.77 1492.52 Q1611.56 1493.73 1614.12 1491.17 Q1616.69 1488.6 1615.46 1484.82 Q1614.23 1481.01 1609.21 1475.98 Q1604.16 1470.94 1600.37 1469.73 Q1596.57 1468.49 1594 1471.06 M1591.38 1468.44 Q1595.49 1464.33 1600.91 1465.43 Q1606.32 1466.49 1612.51 1472.68 Q1618.68 1478.85 1619.76 1484.28 Q1620.84 1489.68 1616.73 1493.79 Q1612.63 1497.9 1607.21 1496.84 Q1601.79 1495.74 1595.62 1489.57 Q1589.43 1483.38 1588.35 1477.98 Q1587.27 1472.55 1591.38 1468.44 Z" fill="#000000" fill-rule="evenodd" fill-opacity="1" /><path clip-path="url(#clip390)" d="M1703.85 1570.03 L1715.39 1558.5 L1718.18 1561.28 L1702.66 1576.79 L1699.88 1574.01 Q1699.81 1570.18 1699.78 1563.67 Q1699.74 1557.12 1699.63 1555.34 Q1699.43 1551.96 1698.83 1550.11 Q1698.22 1548.23 1697.03 1547.04 Q1695.08 1545.09 1692.48 1545.24 Q1689.89 1545.37 1687.7 1547.56 Q1686.14 1549.12 1684.95 1551.39 Q1683.77 1553.65 1682.9 1556.71 L1679.56 1553.37 Q1680.76 1550.57 1682.08 1548.43 Q1683.41 1546.28 1684.85 1544.84 Q1688.65 1541.05 1692.8 1540.69 Q1696.96 1540.33 1700.14 1543.5 Q1701.64 1545.01 1702.43 1546.94 Q1703.21 1548.84 1703.56 1552.16 Q1703.62 1553.04 1703.71 1557.51 Q1703.77 1561.97 1703.85 1570.03 Z" fill="#000000" fill-rule="evenodd" fill-opacity="1" /><path clip-path="url(#clip390)" d="M1725.18 1548.71 L1736.72 1537.17 L1739.5 1539.95 L1723.99 1555.47 L1721.2 1552.68 Q1721.14 1548.85 1721.11 1542.34 Q1721.07 1535.79 1720.96 1534.01 Q1720.76 1530.64 1720.16 1528.79 Q1719.55 1526.9 1718.36 1525.71 Q1716.41 1523.76 1713.8 1523.91 Q1711.22 1524.04 1709.03 1526.23 Q1707.47 1527.79 1706.28 1530.06 Q1705.1 1532.32 1704.23 1535.38 L1700.89 1532.04 Q1702.09 1529.25 1703.41 1527.1 Q1704.74 1524.96 1706.18 1523.52 Q1709.97 1519.72 1714.13 1519.36 Q1718.29 1519 1721.47 1522.17 Q1722.97 1523.68 1723.76 1525.61 Q1724.54 1527.51 1724.89 1530.83 Q1724.95 1531.72 1725.03 1536.19 Q1725.1 1540.64 1725.18 1548.71 Z" fill="#000000" fill-rule="evenodd" fill-opacity="1" /><path clip-path="url(#clip390)" d="M1742.63 1528.51 L1746.08 1525.06 L1750.24 1529.21 L1746.79 1532.67 L1742.63 1528.51 M1729.45 1515.33 L1732.91 1511.88 L1737.06 1516.04 L1733.61 1519.49 L1729.45 1515.33 Z" fill="#000000" fill-rule="evenodd" fill-opacity="1" /><path clip-path="url(#clip390)" d="M1742.55 1492.38 Q1739.99 1494.94 1741.22 1498.75 Q1742.45 1502.53 1747.49 1507.57 Q1752.52 1512.6 1756.31 1513.84 Q1760.11 1515.05 1762.66 1512.5 Q1765.23 1509.93 1764.01 1506.15 Q1762.78 1502.34 1757.75 1497.31 Q1752.71 1492.27 1748.91 1491.06 Q1745.12 1489.81 1742.55 1492.38 M1739.93 1489.77 Q1744.04 1485.66 1749.45 1486.75 Q1754.87 1487.82 1761.06 1494 Q1767.23 1500.18 1768.31 1505.61 Q1769.39 1511.01 1765.28 1515.12 Q1761.17 1519.23 1755.76 1518.16 Q1750.34 1517.07 1744.17 1510.9 Q1737.98 1504.71 1736.9 1499.31 Q1735.82 1493.87 1739.93 1489.77 Z" fill="#000000" fill-rule="evenodd" fill-opacity="1" /><path clip-path="url(#clip390)" d="M1763.88 1471.06 Q1761.32 1473.61 1762.55 1477.42 Q1763.78 1481.2 1768.82 1486.25 Q1773.84 1491.27 1777.64 1492.52 Q1781.44 1493.73 1783.99 1491.17 Q1786.56 1488.6 1785.33 1484.82 Q1784.11 1481.01 1779.08 1475.98 Q1774.04 1470.94 1770.24 1469.73 Q1766.44 1468.49 1763.88 1471.06 M1761.26 1468.44 Q1765.36 1464.33 1770.78 1465.43 Q1776.2 1466.49 1782.39 1472.68 Q1788.56 1478.85 1789.64 1484.28 Q1790.72 1489.68 1786.61 1493.79 Q1782.5 1497.9 1777.08 1496.84 Q1771.67 1495.74 1765.5 1489.57 Q1759.31 1483.38 1758.23 1477.98 Q1757.15 1472.55 1761.26 1468.44 Z" fill="#000000" fill-rule="evenodd" fill-opacity="1" /><path clip-path="url(#clip390)" d="M1873.73 1570.03 L1885.27 1558.5 L1888.05 1561.28 L1872.53 1576.79 L1869.75 1574.01 Q1869.69 1570.18 1869.65 1563.67 Q1869.62 1557.12 1869.51 1555.34 Q1869.31 1551.96 1868.7 1550.11 Q1868.1 1548.23 1866.9 1547.04 Q1864.96 1545.09 1862.35 1545.24 Q1859.77 1545.37 1857.57 1547.56 Q1856.02 1549.12 1854.82 1551.39 Q1853.64 1553.65 1852.78 1556.71 L1849.44 1553.37 Q1850.63 1550.57 1851.96 1548.43 Q1853.28 1546.28 1854.73 1544.84 Q1858.52 1541.05 1862.68 1540.69 Q1866.84 1540.33 1870.01 1543.5 Q1871.52 1545.01 1872.3 1546.94 Q1873.09 1548.84 1873.43 1552.16 Q1873.5 1553.04 1873.58 1557.51 Q1873.65 1561.97 1873.73 1570.03 Z" fill="#000000" fill-rule="evenodd" fill-opacity="1" /><path clip-path="url(#clip390)" d="M1891.83 1531.14 Q1894.71 1529.28 1897.64 1529.56 Q1900.59 1529.82 1902.95 1532.18 Q1906.56 1535.79 1906.06 1540.26 Q1905.55 1544.73 1900.97 1549.31 Q1899.43 1550.85 1897.48 1552.18 Q1895.56 1553.5 1893.22 1554.63 L1890.03 1551.44 Q1892.21 1550.87 1894.25 1549.64 Q1896.3 1548.41 1898.08 1546.63 Q1901.19 1543.52 1901.59 1540.67 Q1902 1537.81 1899.66 1535.47 Q1897.5 1533.3 1894.76 1533.62 Q1892.03 1533.89 1889.33 1536.59 L1886.48 1539.44 L1883.76 1536.73 L1886.74 1533.75 Q1889.18 1531.31 1889.51 1529.05 Q1889.82 1526.77 1887.99 1524.94 Q1886.1 1523.06 1883.76 1523.4 Q1881.42 1523.71 1878.93 1526.2 Q1877.58 1527.56 1876.31 1529.41 Q1875.05 1531.26 1873.81 1533.75 L1870.86 1530.8 Q1872.22 1528.39 1873.6 1526.5 Q1874.99 1524.58 1876.45 1523.12 Q1880.21 1519.36 1884.12 1518.88 Q1888.02 1518.39 1890.93 1521.31 Q1892.96 1523.34 1893.21 1525.91 Q1893.44 1528.46 1891.83 1531.14 Z" fill="#000000" fill-rule="evenodd" fill-opacity="1" /><path clip-path="url(#clip390)" d="M1912.5 1528.51 L1915.96 1525.06 L1920.12 1529.21 L1916.66 1532.67 L1912.5 1528.51 M1899.33 1515.33 L1902.78 1511.88 L1906.94 1516.04 L1903.49 1519.49 L1899.33 1515.33 Z" fill="#000000" fill-rule="evenodd" fill-opacity="1" /><path clip-path="url(#clip390)" d="M1912.42 1492.38 Q1909.87 1494.94 1911.1 1498.75 Q1912.32 1502.53 1917.37 1507.57 Q1922.39 1512.6 1926.19 1513.84 Q1929.99 1515.05 1932.54 1512.5 Q1935.11 1509.93 1933.88 1506.15 Q1932.65 1502.34 1927.63 1497.31 Q1922.59 1492.27 1918.79 1491.06 Q1914.99 1489.81 1912.42 1492.38 M1909.8 1489.77 Q1913.91 1485.66 1919.33 1486.75 Q1924.75 1487.82 1930.94 1494 Q1937.11 1500.18 1938.19 1505.61 Q1939.27 1511.01 1935.16 1515.12 Q1931.05 1519.23 1925.63 1518.16 Q1920.21 1517.07 1914.04 1510.9 Q1907.86 1504.71 1906.78 1499.31 Q1905.7 1493.87 1909.8 1489.77 Z" fill="#000000" fill-rule="evenodd" fill-opacity="1" /><path clip-path="url(#clip390)" d="M1933.75 1471.06 Q1931.2 1473.61 1932.42 1477.42 Q1933.65 1481.2 1938.69 1486.25 Q1943.72 1491.27 1947.52 1492.52 Q1951.31 1493.73 1953.87 1491.17 Q1956.44 1488.6 1955.21 1484.82 Q1953.98 1481.01 1948.96 1475.98 Q1943.92 1470.94 1940.12 1469.73 Q1936.32 1468.49 1933.75 1471.06 M1931.13 1468.44 Q1935.24 1464.33 1940.66 1465.43 Q1946.08 1466.49 1952.26 1472.68 Q1958.43 1478.85 1959.51 1484.28 Q1960.59 1489.68 1956.49 1493.79 Q1952.38 1497.9 1946.96 1496.84 Q1941.54 1495.74 1935.37 1489.57 Q1929.18 1483.38 1928.1 1477.98 Q1927.02 1472.55 1931.13 1468.44 Z" fill="#000000" fill-rule="evenodd" fill-opacity="1" /><path clip-path="url(#clip390)" d="M2028.35 1546.33 Q2025.8 1548.89 2027.02 1552.7 Q2028.25 1556.48 2033.29 1561.52 Q2038.32 1566.55 2042.11 1567.79 Q2045.91 1569 2048.47 1566.45 Q2051.04 1563.88 2049.81 1560.1 Q2048.58 1556.29 2043.56 1551.26 Q2038.51 1546.22 2034.72 1545.01 Q2030.92 1543.76 2028.35 1546.33 M2025.73 1543.71 Q2029.84 1539.61 2035.26 1540.7 Q2040.67 1541.77 2046.86 1547.95 Q2053.03 1554.12 2054.11 1559.56 Q2055.19 1564.96 2051.08 1569.07 Q2046.98 1573.18 2041.56 1572.11 Q2036.14 1571.02 2029.97 1564.85 Q2023.78 1558.66 2022.7 1553.26 Q2021.62 1547.82 2025.73 1543.71 Z" fill="#000000" fill-rule="evenodd" fill-opacity="1" /><path clip-path="url(#clip390)" d="M2049.68 1525.01 Q2047.12 1527.56 2048.35 1531.37 Q2049.58 1535.15 2054.62 1540.2 Q2059.65 1545.22 2063.44 1546.46 Q2067.24 1547.68 2069.79 1545.12 Q2072.36 1542.55 2071.14 1538.77 Q2069.91 1534.96 2064.88 1529.93 Q2059.84 1524.89 2056.04 1523.68 Q2052.25 1522.44 2049.68 1525.01 M2047.06 1522.39 Q2051.17 1518.28 2056.58 1519.38 Q2062 1520.44 2068.19 1526.63 Q2074.36 1532.8 2075.44 1538.23 Q2076.52 1543.63 2072.41 1547.74 Q2068.3 1551.85 2062.89 1550.79 Q2057.47 1549.69 2051.3 1543.52 Q2045.11 1537.33 2044.03 1531.93 Q2042.95 1526.5 2047.06 1522.39 Z" fill="#000000" fill-rule="evenodd" fill-opacity="1" /><path clip-path="url(#clip390)" d="M2082.38 1528.51 L2085.83 1525.06 L2089.99 1529.21 L2086.54 1532.67 L2082.38 1528.51 M2069.2 1515.33 L2072.66 1511.88 L2076.82 1516.04 L2073.36 1519.49 L2069.2 1515.33 Z" fill="#000000" fill-rule="evenodd" fill-opacity="1" /><path clip-path="url(#clip390)" d="M2082.3 1492.38 Q2079.75 1494.94 2080.97 1498.75 Q2082.2 1502.53 2087.24 1507.57 Q2092.27 1512.6 2096.06 1513.84 Q2099.86 1515.05 2102.41 1512.5 Q2104.98 1509.93 2103.76 1506.15 Q2102.53 1502.34 2097.5 1497.31 Q2092.46 1492.27 2088.67 1491.06 Q2084.87 1489.81 2082.3 1492.38 M2079.68 1489.77 Q2083.79 1485.66 2089.21 1486.75 Q2094.62 1487.82 2100.81 1494 Q2106.98 1500.18 2108.06 1505.61 Q2109.14 1511.01 2105.03 1515.12 Q2100.93 1519.23 2095.51 1518.16 Q2090.09 1517.07 2083.92 1510.9 Q2077.73 1504.71 2076.65 1499.31 Q2075.57 1493.87 2079.68 1489.77 Z" fill="#000000" fill-rule="evenodd" fill-opacity="1" /><path clip-path="url(#clip390)" d="M2103.63 1471.06 Q2101.07 1473.61 2102.3 1477.42 Q2103.53 1481.2 2108.57 1486.25 Q2113.59 1491.27 2117.39 1492.52 Q2121.19 1493.73 2123.74 1491.17 Q2126.31 1488.6 2125.08 1484.82 Q2123.86 1481.01 2118.83 1475.98 Q2113.79 1470.94 2109.99 1469.73 Q2106.2 1468.49 2103.63 1471.06 M2101.01 1468.44 Q2105.12 1464.33 2110.53 1465.43 Q2115.95 1466.49 2122.14 1472.68 Q2128.31 1478.85 2129.39 1484.28 Q2130.47 1489.68 2126.36 1493.79 Q2122.25 1497.9 2116.84 1496.84 Q2111.42 1495.74 2105.25 1489.57 Q2099.06 1483.38 2097.98 1477.98 Q2096.9 1472.55 2101.01 1468.44 Z" fill="#000000" fill-rule="evenodd" fill-opacity="1" /><polyline clip-path="url(#clip392)" style="stroke:#000000; stroke-linecap:butt; stroke-linejoin:round; stroke-width:2; stroke-opacity:0.1; fill:none" points="
  192.339,1194.34 2352.76,1194.34 
  "/>
<polyline clip-path="url(#clip392)" style="stroke:#000000; stroke-linecap:butt; stroke-linejoin:round; stroke-width:2; stroke-opacity:0.1; fill:none" points="
  192.339,931.719 2352.76,931.719 
  "/>
<polyline clip-path="url(#clip392)" style="stroke:#000000; stroke-linecap:butt; stroke-linejoin:round; stroke-width:2; stroke-opacity:0.1; fill:none" points="
  192.339,669.094 2352.76,669.094 
  "/>
<polyline clip-path="url(#clip392)" style="stroke:#000000; stroke-linecap:butt; stroke-linejoin:round; stroke-width:2; stroke-opacity:0.1; fill:none" points="
  192.339,406.47 2352.76,406.47 
  "/>
<polyline clip-path="url(#clip392)" style="stroke:#000000; stroke-linecap:butt; stroke-linejoin:round; stroke-width:2; stroke-opacity:0.1; fill:none" points="
  192.339,143.845 2352.76,143.845 
  "/>
<polyline clip-path="url(#clip390)" style="stroke:#000000; stroke-linecap:butt; stroke-linejoin:round; stroke-width:4; stroke-opacity:1; fill:none" points="
  192.339,1435.12 192.339,123.472 
  "/>
<polyline clip-path="url(#clip390)" style="stroke:#000000; stroke-linecap:butt; stroke-linejoin:round; stroke-width:4; stroke-opacity:1; fill:none" points="
  192.339,1194.34 211.236,1194.34 
  "/>
<polyline clip-path="url(#clip390)" style="stroke:#000000; stroke-linecap:butt; stroke-linejoin:round; stroke-width:4; stroke-opacity:1; fill:none" points="
  192.339,931.719 211.236,931.719 
  "/>
<polyline clip-path="url(#clip390)" style="stroke:#000000; stroke-linecap:butt; stroke-linejoin:round; stroke-width:4; stroke-opacity:1; fill:none" points="
  192.339,669.094 211.236,669.094 
  "/>
<polyline clip-path="url(#clip390)" style="stroke:#000000; stroke-linecap:butt; stroke-linejoin:round; stroke-width:4; stroke-opacity:1; fill:none" points="
  192.339,406.47 211.236,406.47 
  "/>
<polyline clip-path="url(#clip390)" style="stroke:#000000; stroke-linecap:butt; stroke-linejoin:round; stroke-width:4; stroke-opacity:1; fill:none" points="
  192.339,143.845 211.236,143.845 
  "/>
<path clip-path="url(#clip390)" d="M50.9921 1194.8 L80.6679 1194.8 L80.6679 1198.73 L50.9921 1198.73 L50.9921 1194.8 Z" fill="#000000" fill-rule="evenodd" fill-opacity="1" /><path clip-path="url(#clip390)" d="M100.76 1180.14 Q97.1493 1180.14 95.3206 1183.71 Q93.515 1187.25 93.515 1194.38 Q93.515 1201.49 95.3206 1205.05 Q97.1493 1208.59 100.76 1208.59 Q104.395 1208.59 106.2 1205.05 Q108.029 1201.49 108.029 1194.38 Q108.029 1187.25 106.2 1183.71 Q104.395 1180.14 100.76 1180.14 M100.76 1176.44 Q106.571 1176.44 109.626 1181.05 Q112.705 1185.63 112.705 1194.38 Q112.705 1203.11 109.626 1207.71 Q106.571 1212.3 100.76 1212.3 Q94.9502 1212.3 91.8715 1207.71 Q88.816 1203.11 88.816 1194.38 Q88.816 1185.63 91.8715 1181.05 Q94.9502 1176.44 100.76 1176.44 Z" fill="#000000" fill-rule="evenodd" fill-opacity="1" /><path clip-path="url(#clip390)" d="M120.922 1205.74 L125.807 1205.74 L125.807 1211.62 L120.922 1211.62 L120.922 1205.74 Z" fill="#000000" fill-rule="evenodd" fill-opacity="1" /><path clip-path="url(#clip390)" d="M140.019 1207.69 L156.339 1207.69 L156.339 1211.62 L134.394 1211.62 L134.394 1207.69 Q137.056 1204.93 141.64 1200.3 Q146.246 1195.65 147.427 1194.31 Q149.672 1191.79 150.552 1190.05 Q151.455 1188.29 151.455 1186.6 Q151.455 1183.85 149.51 1182.11 Q147.589 1180.37 144.487 1180.37 Q142.288 1180.37 139.834 1181.14 Q137.404 1181.9 134.626 1183.45 L134.626 1178.73 Q137.45 1177.6 139.904 1177.02 Q142.357 1176.44 144.394 1176.44 Q149.765 1176.44 152.959 1179.12 Q156.154 1181.81 156.154 1186.3 Q156.154 1188.43 155.343 1190.35 Q154.556 1192.25 152.45 1194.84 Q151.871 1195.51 148.769 1198.73 Q145.668 1201.93 140.019 1207.69 Z" fill="#000000" fill-rule="evenodd" fill-opacity="1" /><path clip-path="url(#clip390)" d="M99.1632 917.518 Q95.5521 917.518 93.7234 921.083 Q91.9178 924.624 91.9178 931.754 Q91.9178 938.86 93.7234 942.425 Q95.5521 945.967 99.1632 945.967 Q102.797 945.967 104.603 942.425 Q106.432 938.86 106.432 931.754 Q106.432 924.624 104.603 921.083 Q102.797 917.518 99.1632 917.518 M99.1632 913.814 Q104.973 913.814 108.029 918.421 Q111.108 923.004 111.108 931.754 Q111.108 940.481 108.029 945.087 Q104.973 949.671 99.1632 949.671 Q93.353 949.671 90.2743 945.087 Q87.2188 940.481 87.2188 931.754 Q87.2188 923.004 90.2743 918.421 Q93.353 913.814 99.1632 913.814 Z" fill="#000000" fill-rule="evenodd" fill-opacity="1" /><path clip-path="url(#clip390)" d="M119.325 943.12 L124.209 943.12 L124.209 948.999 L119.325 948.999 L119.325 943.12 Z" fill="#000000" fill-rule="evenodd" fill-opacity="1" /><path clip-path="url(#clip390)" d="M144.394 917.518 Q140.783 917.518 138.955 921.083 Q137.149 924.624 137.149 931.754 Q137.149 938.86 138.955 942.425 Q140.783 945.967 144.394 945.967 Q148.029 945.967 149.834 942.425 Q151.663 938.86 151.663 931.754 Q151.663 924.624 149.834 921.083 Q148.029 917.518 144.394 917.518 M144.394 913.814 Q150.205 913.814 153.26 918.421 Q156.339 923.004 156.339 931.754 Q156.339 940.481 153.26 945.087 Q150.205 949.671 144.394 949.671 Q138.584 949.671 135.506 945.087 Q132.45 940.481 132.45 931.754 Q132.45 923.004 135.506 918.421 Q138.584 913.814 144.394 913.814 Z" fill="#000000" fill-rule="evenodd" fill-opacity="1" /><path clip-path="url(#clip390)" d="M100.76 654.893 Q97.1493 654.893 95.3206 658.458 Q93.515 662 93.515 669.129 Q93.515 676.236 95.3206 679.8 Q97.1493 683.342 100.76 683.342 Q104.395 683.342 106.2 679.8 Q108.029 676.236 108.029 669.129 Q108.029 662 106.2 658.458 Q104.395 654.893 100.76 654.893 M100.76 651.19 Q106.571 651.19 109.626 655.796 Q112.705 660.379 112.705 669.129 Q112.705 677.856 109.626 682.462 Q106.571 687.046 100.76 687.046 Q94.9502 687.046 91.8715 682.462 Q88.816 677.856 88.816 669.129 Q88.816 660.379 91.8715 655.796 Q94.9502 651.19 100.76 651.19 Z" fill="#000000" fill-rule="evenodd" fill-opacity="1" /><path clip-path="url(#clip390)" d="M120.922 680.495 L125.807 680.495 L125.807 686.374 L120.922 686.374 L120.922 680.495 Z" fill="#000000" fill-rule="evenodd" fill-opacity="1" /><path clip-path="url(#clip390)" d="M140.019 682.439 L156.339 682.439 L156.339 686.374 L134.394 686.374 L134.394 682.439 Q137.056 679.685 141.64 675.055 Q146.246 670.402 147.427 669.06 Q149.672 666.537 150.552 664.801 Q151.455 663.041 151.455 661.351 Q151.455 658.597 149.51 656.861 Q147.589 655.125 144.487 655.125 Q142.288 655.125 139.834 655.889 Q137.404 656.652 134.626 658.203 L134.626 653.481 Q137.45 652.347 139.904 651.768 Q142.357 651.19 144.394 651.19 Q149.765 651.19 152.959 653.875 Q156.154 656.56 156.154 661.051 Q156.154 663.18 155.343 665.101 Q154.556 667 152.45 669.592 Q151.871 670.263 148.769 673.481 Q145.668 676.675 140.019 682.439 Z" fill="#000000" fill-rule="evenodd" fill-opacity="1" /><path clip-path="url(#clip390)" d="M98.6771 392.268 Q95.066 392.268 93.2373 395.833 Q91.4317 399.375 91.4317 406.504 Q91.4317 413.611 93.2373 417.176 Q95.066 420.717 98.6771 420.717 Q102.311 420.717 104.117 417.176 Q105.946 413.611 105.946 406.504 Q105.946 399.375 104.117 395.833 Q102.311 392.268 98.6771 392.268 M98.6771 388.565 Q104.487 388.565 107.543 393.171 Q110.621 397.754 110.621 406.504 Q110.621 415.231 107.543 419.838 Q104.487 424.421 98.6771 424.421 Q92.8669 424.421 89.7882 419.838 Q86.7327 415.231 86.7327 406.504 Q86.7327 397.754 89.7882 393.171 Q92.8669 388.565 98.6771 388.565 Z" fill="#000000" fill-rule="evenodd" fill-opacity="1" /><path clip-path="url(#clip390)" d="M118.839 417.87 L123.723 417.87 L123.723 423.75 L118.839 423.75 L118.839 417.87 Z" fill="#000000" fill-rule="evenodd" fill-opacity="1" /><path clip-path="url(#clip390)" d="M146.756 393.264 L134.95 411.713 L146.756 411.713 L146.756 393.264 M145.529 389.19 L151.408 389.19 L151.408 411.713 L156.339 411.713 L156.339 415.602 L151.408 415.602 L151.408 423.75 L146.756 423.75 L146.756 415.602 L131.154 415.602 L131.154 411.088 L145.529 389.19 Z" fill="#000000" fill-rule="evenodd" fill-opacity="1" /><path clip-path="url(#clip390)" d="M99.0011 129.644 Q95.39 129.644 93.5613 133.208 Q91.7558 136.75 91.7558 143.88 Q91.7558 150.986 93.5613 154.551 Q95.39 158.093 99.0011 158.093 Q102.635 158.093 104.441 154.551 Q106.27 150.986 106.27 143.88 Q106.27 136.75 104.441 133.208 Q102.635 129.644 99.0011 129.644 M99.0011 125.94 Q104.811 125.94 107.867 130.546 Q110.946 135.13 110.946 143.88 Q110.946 152.606 107.867 157.213 Q104.811 161.796 99.0011 161.796 Q93.191 161.796 90.1123 157.213 Q87.0567 152.606 87.0567 143.88 Q87.0567 135.13 90.1123 130.546 Q93.191 125.94 99.0011 125.94 Z" fill="#000000" fill-rule="evenodd" fill-opacity="1" /><path clip-path="url(#clip390)" d="M119.163 155.245 L124.047 155.245 L124.047 161.125 L119.163 161.125 L119.163 155.245 Z" fill="#000000" fill-rule="evenodd" fill-opacity="1" /><path clip-path="url(#clip390)" d="M144.811 141.982 Q141.663 141.982 139.811 144.134 Q137.982 146.287 137.982 150.037 Q137.982 153.764 139.811 155.94 Q141.663 158.093 144.811 158.093 Q147.959 158.093 149.788 155.94 Q151.64 153.764 151.64 150.037 Q151.64 146.287 149.788 144.134 Q147.959 141.982 144.811 141.982 M154.093 127.329 L154.093 131.588 Q152.334 130.755 150.529 130.315 Q148.746 129.875 146.987 129.875 Q142.357 129.875 139.904 133 Q137.473 136.125 137.126 142.444 Q138.492 140.431 140.552 139.366 Q142.612 138.278 145.089 138.278 Q150.297 138.278 153.306 141.449 Q156.339 144.597 156.339 150.037 Q156.339 155.361 153.191 158.579 Q150.043 161.796 144.811 161.796 Q138.816 161.796 135.644 157.213 Q132.473 152.606 132.473 143.88 Q132.473 135.685 136.362 130.824 Q140.251 125.94 146.802 125.94 Q148.561 125.94 150.343 126.287 Q152.149 126.634 154.093 127.329 Z" fill="#000000" fill-rule="evenodd" fill-opacity="1" /><path clip-path="url(#clip390)" d="M1147.86 63.9476 L1147.86 47.7034 L1134.49 47.7034 L1134.49 40.9789 L1155.96 40.9789 L1155.96 66.9452 Q1151.22 70.3075 1145.51 72.0494 Q1139.8 73.7508 1133.32 73.7508 Q1119.14 73.7508 1111.12 65.4869 Q1103.14 57.1826 1103.14 42.3968 Q1103.14 27.5705 1111.12 19.3066 Q1119.14 11.0023 1133.32 11.0023 Q1139.23 11.0023 1144.54 12.4606 Q1149.89 13.9189 1154.38 16.7545 L1154.38 25.464 Q1149.85 21.6156 1144.74 19.6712 Q1139.64 17.7268 1134.01 17.7268 Q1122.91 17.7268 1117.32 23.9246 Q1111.77 30.1225 1111.77 42.3968 Q1111.77 54.6305 1117.32 60.8284 Q1122.91 67.0263 1134.01 67.0263 Q1138.34 67.0263 1141.74 66.2971 Q1145.15 65.5274 1147.86 63.9476 Z" fill="#000000" fill-rule="evenodd" fill-opacity="1" /><path clip-path="url(#clip390)" d="M1191.21 49.7694 Q1182.17 49.7694 1178.69 51.8354 Q1175.2 53.9013 1175.2 58.8839 Q1175.2 62.8538 1177.8 65.2034 Q1180.43 67.5124 1184.93 67.5124 Q1191.12 67.5124 1194.85 63.1374 Q1198.62 58.7219 1198.62 51.4303 L1198.62 49.7694 L1191.21 49.7694 M1206.07 46.6907 L1206.07 72.576 L1198.62 72.576 L1198.62 65.6895 Q1196.07 69.8214 1192.26 71.8063 Q1188.45 73.7508 1182.94 73.7508 Q1175.97 73.7508 1171.84 69.8619 Q1167.75 65.9325 1167.75 59.3701 Q1167.75 51.7138 1172.85 47.825 Q1178 43.9361 1188.17 43.9361 L1198.62 43.9361 L1198.62 43.2069 Q1198.62 38.0623 1195.22 35.2672 Q1191.85 32.4315 1185.74 32.4315 Q1181.85 32.4315 1178.16 33.3632 Q1174.47 34.295 1171.07 36.1584 L1171.07 29.2718 Q1175.16 27.692 1179.01 26.9223 Q1182.86 26.1121 1186.51 26.1121 Q1196.35 26.1121 1201.21 31.2163 Q1206.07 36.3204 1206.07 46.6907 Z" fill="#000000" fill-rule="evenodd" fill-opacity="1" /><path clip-path="url(#clip390)" d="M1220.66 54.671 L1220.66 27.2059 L1228.11 27.2059 L1228.11 54.3874 Q1228.11 60.8284 1230.62 64.0691 Q1233.13 67.2693 1238.16 67.2693 Q1244.19 67.2693 1247.67 63.421 Q1251.2 59.5726 1251.2 52.9291 L1251.2 27.2059 L1258.65 27.2059 L1258.65 72.576 L1251.2 72.576 L1251.2 65.6084 Q1248.48 69.7404 1244.88 71.7658 Q1241.31 73.7508 1236.58 73.7508 Q1228.76 73.7508 1224.71 68.8897 Q1220.66 64.0286 1220.66 54.671 M1239.41 26.1121 L1239.41 26.1121 Z" fill="#000000" fill-rule="evenodd" fill-opacity="1" /><path clip-path="url(#clip390)" d="M1303.86 49.3643 Q1303.86 41.2625 1300.5 36.8065 Q1297.18 32.3505 1291.14 32.3505 Q1285.15 32.3505 1281.78 36.8065 Q1278.46 41.2625 1278.46 49.3643 Q1278.46 57.4256 1281.78 61.8816 Q1285.15 66.3376 1291.14 66.3376 Q1297.18 66.3376 1300.5 61.8816 Q1303.86 57.4256 1303.86 49.3643 M1311.31 66.9452 Q1311.31 78.5308 1306.17 84.1616 Q1301.03 89.8329 1290.41 89.8329 Q1286.48 89.8329 1283 89.2252 Q1279.51 88.6581 1276.23 87.4428 L1276.23 80.1917 Q1279.51 81.9741 1282.72 82.8248 Q1285.92 83.6755 1289.24 83.6755 Q1296.57 83.6755 1300.22 79.8271 Q1303.86 76.0193 1303.86 68.282 L1303.86 64.5957 Q1301.55 68.6061 1297.95 70.5911 Q1294.34 72.576 1289.32 72.576 Q1280.97 72.576 1275.87 66.2161 Q1270.76 59.8562 1270.76 49.3643 Q1270.76 38.832 1275.87 32.472 Q1280.97 26.1121 1289.32 26.1121 Q1294.34 26.1121 1297.95 28.0971 Q1301.55 30.082 1303.86 34.0924 L1303.86 27.2059 L1311.31 27.2059 L1311.31 66.9452 Z" fill="#000000" fill-rule="evenodd" fill-opacity="1" /><path clip-path="url(#clip390)" d="M1365.48 48.0275 L1365.48 51.6733 L1331.2 51.6733 Q1331.69 59.3701 1335.82 63.421 Q1339.99 67.4314 1347.41 67.4314 Q1351.7 67.4314 1355.71 66.3781 Q1359.76 65.3249 1363.73 63.2184 L1363.73 70.267 Q1359.72 71.9684 1355.51 72.8596 Q1351.3 73.7508 1346.96 73.7508 Q1336.11 73.7508 1329.75 67.4314 Q1323.43 61.1119 1323.43 50.3365 Q1323.43 39.1965 1329.42 32.6746 Q1335.46 26.1121 1345.67 26.1121 Q1354.82 26.1121 1360.13 32.0264 Q1365.48 37.9003 1365.48 48.0275 M1358.02 45.84 Q1357.94 39.7232 1354.58 36.0774 Q1351.26 32.4315 1345.75 32.4315 Q1339.51 32.4315 1335.74 35.9558 Q1332.01 39.4801 1331.45 45.8805 L1358.02 45.84 Z" fill="#000000" fill-rule="evenodd" fill-opacity="1" /><path clip-path="url(#clip390)" d="M1403.07 12.096 L1441.96 12.096 L1441.96 15.5798 L1420 72.576 L1411.45 72.576 L1432.11 18.9825 L1403.07 18.9825 L1403.07 12.096 Z" fill="#000000" fill-rule="evenodd" fill-opacity="1" /><polyline clip-path="url(#clip392)" style="stroke:#009af9; stroke-linecap:butt; stroke-linejoin:round; stroke-width:4; stroke-opacity:1; fill:none" points="
  253.483,931.719 253.53,931.719 255.465,931.719 257.399,931.719 259.334,931.719 261.269,931.719 263.203,931.719 265.185,931.719 267.12,931.719 269.055,931.719 
  270.989,931.719 272.924,931.719 274.859,931.719 276.793,931.719 278.728,931.719 280.663,931.719 281.795,931.719 283.73,931.719 285.665,931.719 287.599,931.719 
  289.534,931.719 291.469,931.719 293.451,931.719 295.385,931.719 297.32,931.719 299.255,931.719 301.189,931.719 303.124,931.719 305.059,931.719 306.993,931.719 
  308.928,931.719 310.108,931.719 312.043,931.719 313.977,931.719 315.912,931.719 317.847,931.719 319.781,931.719 321.763,931.719 323.698,931.719 325.633,931.719 
  327.567,931.719 329.502,931.719 331.437,931.719 333.371,931.719 335.306,931.719 337.241,931.719 338.42,931.719 340.355,931.719 342.29,931.719 344.225,931.719 
  346.159,931.719 348.094,931.719 350.076,931.719 352.01,931.719 353.945,931.719 355.88,931.719 357.815,931.719 359.749,931.719 361.684,931.719 363.619,931.719 
  365.553,931.719 366.733,931.719 368.668,931.719 370.602,931.719 372.537,931.719 374.472,931.719 376.407,931.719 378.388,931.719 380.323,931.719 382.258,931.719 
  384.192,931.719 386.127,931.719 388.062,931.719 389.997,931.719 391.931,931.719 393.866,931.719 395.046,931.719 396.98,931.719 398.915,931.719 400.85,931.719 
  402.784,931.719 404.719,931.719 406.701,931.719 408.636,931.719 410.57,931.719 412.505,931.719 414.44,931.719 416.374,931.719 418.309,931.719 420.244,931.719 
  422.179,931.719 423.358,931.719 425.293,931.719 427.228,931.719 429.162,931.719 431.097,931.719 433.032,931.719 435.014,931.719 436.948,931.719 438.883,931.719 
  440.818,931.719 442.752,931.719 444.687,931.719 446.622,931.719 448.556,931.719 450.491,931.719 451.671,931.719 453.606,931.719 455.54,931.719 457.475,931.719 
  459.41,931.719 461.344,931.719 463.326,931.719 465.261,931.719 467.196,931.719 469.13,931.719 471.065,931.719 473,931.719 474.934,931.719 476.869,931.719 
  478.804,931.719 479.983,931.719 481.918,931.719 483.853,931.719 485.788,931.719 487.722,931.719 489.657,931.719 491.639,931.719 493.573,931.719 495.508,931.719 
  497.443,931.719 499.378,931.719 501.312,931.719 503.247,931.719 505.182,931.719 507.116,931.719 508.296,931.719 510.231,931.719 512.165,931.719 514.1,931.719 
  516.035,931.719 517.969,931.719 519.951,931.719 521.886,931.719 523.821,931.719 525.755,931.719 527.69,931.719 529.625,931.719 531.56,931.719 533.494,931.719 
  535.429,931.719 536.609,931.719 538.543,931.719 540.478,931.719 542.413,931.719 544.347,931.719 546.282,931.719 548.264,931.719 550.199,931.719 552.133,931.719 
  554.068,931.719 556.003,931.719 557.937,931.719 559.872,931.719 561.807,931.719 563.742,931.719 564.921,931.719 566.856,931.719 568.791,931.719 570.725,931.719 
  572.66,931.719 574.595,931.719 576.577,931.719 578.511,931.719 580.446,931.719 582.381,931.719 584.315,931.719 586.25,931.719 588.185,931.719 590.119,931.719 
  592.054,931.719 593.234,931.719 595.169,931.719 597.103,931.719 599.038,931.719 600.973,931.719 602.907,931.719 604.889,931.719 606.824,931.719 608.759,931.719 
  610.693,931.719 612.628,931.719 614.563,931.719 616.497,931.719 618.432,931.719 620.367,931.719 621.546,931.719 623.481,931.719 625.416,931.719 627.35,931.719 
  629.285,931.719 631.22,931.719 633.202,931.719 635.136,931.719 637.071,931.719 639.006,931.719 640.941,931.719 642.875,931.719 644.81,931.719 646.745,931.719 
  648.679,931.719 649.859,931.719 651.794,931.719 653.728,931.719 655.663,931.719 657.598,931.719 659.532,931.719 661.514,931.719 663.449,931.719 665.384,931.719 
  667.318,931.719 669.253,931.719 671.188,931.719 673.123,931.719 675.057,931.719 676.992,931.719 678.172,931.719 680.106,931.719 682.041,931.719 683.976,931.719 
  685.91,931.719 687.845,931.719 689.827,931.719 691.762,931.719 693.696,931.719 695.631,931.719 697.566,931.719 699.5,931.719 701.435,931.719 703.37,931.719 
  705.304,931.719 706.484,931.719 708.419,931.719 710.354,931.719 712.288,931.719 714.223,931.719 716.158,931.719 718.14,931.719 720.074,931.719 722.009,931.719 
  723.944,931.719 725.878,931.719 727.813,931.719 729.748,931.719 731.682,931.719 733.617,931.719 734.797,931.719 736.731,931.719 738.666,931.719 740.601,931.719 
  742.536,931.719 744.47,931.719 746.405,931.719 748.387,931.719 750.322,931.719 752.256,931.719 754.191,931.719 756.126,931.719 758.06,931.719 759.995,931.719 
  761.93,931.719 763.109,931.719 765.044,931.719 766.979,931.719 768.913,931.719 770.848,931.719 772.783,931.719 774.718,931.719 776.699,931.719 778.634,931.719 
  780.569,931.719 782.504,931.719 784.438,931.719 786.373,931.719 788.308,931.719 790.242,931.719 791.422,931.719 793.357,931.719 795.291,931.719 797.226,931.719 
  799.161,931.719 801.095,931.719 803.03,931.719 805.012,931.719 806.947,931.719 808.881,931.719 810.816,931.719 812.751,931.719 814.685,931.719 816.62,931.719 
  818.555,931.719 819.735,931.719 821.669,931.719 823.604,931.719 825.539,931.719 827.473,931.719 829.408,931.719 831.343,931.719 833.325,931.719 835.259,931.719 
  837.194,931.719 839.129,931.719 841.063,931.719 842.998,931.719 844.933,931.719 846.867,931.719 848.047,931.719 849.982,931.719 851.917,931.719 853.851,931.719 
  855.786,931.719 857.721,931.719 859.655,931.719 861.637,931.719 863.572,931.719 865.507,931.719 867.441,931.719 869.376,931.719 871.311,931.719 873.245,931.719 
  875.18,931.719 876.36,931.719 878.294,931.719 880.229,931.719 882.164,931.719 884.099,931.719 886.033,931.719 887.968,931.719 889.95,931.719 891.885,931.719 
  893.819,931.719 895.754,931.719 897.689,931.719 899.623,931.719 901.558,931.719 903.493,931.719 904.672,931.719 906.607,931.719 908.542,931.719 910.476,931.719 
  912.411,931.719 914.346,931.719 916.281,931.719 918.262,931.719 920.197,931.719 922.132,931.719 924.066,931.719 926.001,931.719 927.936,931.719 929.871,931.719 
  931.805,931.719 932.985,931.719 934.92,931.719 936.854,931.719 938.789,931.719 940.724,931.719 942.658,931.719 944.593,931.719 946.575,931.719 948.51,931.719 
  950.444,931.719 952.379,931.719 954.314,931.719 956.248,931.719 958.183,931.719 960.118,931.719 961.298,931.719 963.232,931.719 965.167,931.719 967.102,931.719 
  969.036,931.719 970.971,931.719 972.906,931.719 974.888,931.719 976.822,931.719 978.757,931.719 980.692,931.719 982.626,931.719 984.561,931.719 986.496,931.719 
  988.43,931.719 989.61,931.719 991.545,931.719 993.48,931.719 995.414,931.719 997.349,931.719 999.284,931.719 1001.22,931.719 1003.2,931.719 1005.13,931.719 
  1007.07,931.719 1009,931.719 1010.94,931.719 1012.87,931.719 1014.81,931.719 1016.74,931.719 1017.92,931.719 1019.86,931.719 1021.79,931.719 1023.73,931.719 
  1025.66,931.719 1027.6,931.719 1029.53,931.719 1031.51,931.719 1033.45,931.719 1035.38,931.719 1037.32,931.719 1039.25,931.719 1041.19,931.719 1043.12,931.719 
  1045.06,931.719 1046.24,931.719 1048.17,931.719 1050.1,931.719 1052.04,931.719 1053.97,931.719 1055.91,931.719 1057.84,931.719 1059.83,931.719 1061.76,931.719 
  1063.69,931.719 1065.63,931.719 1067.56,931.719 1069.5,931.719 1071.43,931.719 1073.37,931.719 1074.55,931.719 1076.48,931.719 1078.42,931.719 1080.35,931.719 
  1082.29,931.719 1084.22,931.719 1086.16,931.719 1088.14,931.719 1090.07,931.719 1092.01,931.719 1093.94,931.719 1095.88,931.719 1097.81,931.719 1099.75,931.719 
  1101.68,931.719 1102.86,931.719 1104.8,931.719 1106.73,931.719 1108.66,931.719 1110.6,931.719 1112.53,931.719 1114.47,931.719 1116.45,931.719 1118.39,931.719 
  1120.32,931.719 1122.25,931.719 1124.19,931.719 1126.12,931.719 1128.06,931.719 1129.99,931.719 1131.17,931.719 1133.11,931.719 1135.04,931.719 1136.98,931.719 
  1138.91,931.719 1140.85,931.719 1142.78,931.719 1144.76,931.719 1146.7,931.719 1148.63,931.719 1150.57,931.719 1152.5,931.719 1154.44,931.719 1156.37,931.719 
  1158.31,931.719 1159.49,931.719 1161.42,931.719 1163.36,931.719 1165.29,931.719 1167.22,931.719 1169.16,931.719 1171.09,931.719 1173.08,931.719 1175.01,931.719 
  1176.95,931.719 1178.88,931.719 1180.81,931.719 1182.75,931.719 1184.68,931.719 1186.62,931.719 1187.8,931.719 1189.73,931.719 1191.67,931.719 1193.6,931.719 
  1195.54,931.719 1197.47,931.719 1199.41,931.719 1201.39,931.719 1203.32,931.719 1205.26,931.719 1207.19,931.719 1209.13,931.719 1211.06,931.719 1213,931.719 
  1214.93,931.719 1216.11,931.719 1218.05,931.719 1219.98,931.719 1221.91,931.719 1223.85,931.719 1225.78,931.719 1227.72,931.719 1229.7,931.719 1231.64,931.719 
  1233.57,931.719 1235.51,931.719 1237.44,931.719 1239.37,931.719 1241.31,931.719 1243.24,931.719 1244.42,931.719 1246.36,931.719 1248.29,931.719 1250.23,931.719 
  1252.16,931.719 1254.1,931.719 1256.03,931.719 1258.01,931.719 1259.95,931.719 1261.88,931.719 1263.82,931.719 1265.75,931.719 1267.69,931.719 1269.62,931.719 
  1271.56,931.719 1272.74,931.719 1274.67,931.719 1276.61,931.719 1278.54,931.719 1280.47,931.719 1282.41,931.719 1284.34,931.719 1286.33,931.719 1288.26,931.719 
  1290.2,931.719 1292.13,931.719 1294.06,931.719 1296,931.719 1297.93,931.719 1299.87,931.719 1301.05,931.719 1302.98,931.719 1304.92,931.719 1306.85,931.719 
  1308.79,931.719 1310.72,931.719 1312.66,931.719 1314.64,931.719 1316.57,931.719 1318.51,931.719 1320.44,931.719 1322.38,931.719 1324.31,931.719 1326.25,931.719 
  1328.18,931.719 1329.36,931.719 1331.3,931.719 1333.23,931.719 1335.17,931.719 1337.1,931.719 1339.03,931.719 1340.97,931.719 1342.95,931.719 1344.89,931.719 
  1346.82,931.719 1348.76,931.719 1350.69,931.719 1352.62,931.719 1354.56,931.719 1356.49,931.719 1357.67,931.719 1359.61,931.719 1361.54,931.719 1363.48,931.719 
  1365.41,931.719 1367.35,931.719 1369.28,931.719 1371.26,931.719 1373.2,931.719 1375.13,931.719 1377.07,931.719 1379,931.719 1380.94,931.719 1382.87,931.719 
  1384.81,931.719 1385.99,931.719 1387.92,931.719 1389.86,931.719 1391.79,931.718 1393.73,931.718 1395.66,931.718 1397.59,931.717 1399.58,931.717 1401.51,931.716 
  1403.45,931.715 1405.38,931.714 1407.32,931.713 1407.79,931.713 1408.26,931.713 1408.78,931.713 1409.25,931.713 1409.72,931.712 1410.24,931.712 1410.71,931.712 
  1411.18,931.712 1411.66,931.712 1412.18,931.711 1412.65,931.711 1413.12,931.711 1413.5,931.711 1413.92,931.71 1414.3,931.71 1414.77,931.71 1415.29,931.71 
  1415.76,931.71 1416.23,931.709 1416.71,931.709 1417.22,931.709 1417.7,931.709 1418.17,931.708 1418.64,931.708 1419.16,931.708 1419.63,931.708 1420.1,931.707 
  1420.62,931.707 1421.09,931.707 1421.57,931.706 1422.04,931.706 1422.56,931.706 1423.03,931.706 1423.5,931.705 1423.97,931.705 1424.49,931.705 1424.96,931.704 
  1425.44,931.704 1425.91,931.704 1426.43,931.703 1426.9,931.703 1427.37,931.702 1427.89,931.702 1428.36,931.702 1428.83,931.701 1429.3,931.701 1429.82,931.7 
  1430.3,931.7 1430.77,931.699 1431.24,931.699 1431.76,931.698 1432.23,931.698 1432.7,931.697 1433.22,931.697 1433.69,931.696 1434.17,931.695 1434.64,931.695 
  1435.16,931.694 1435.63,931.693 1436.1,931.692 1436.57,931.691 1437.09,931.691 1437.56,931.69 1438.03,931.689 1438.55,931.688 1439.03,931.686 1439.5,931.685 
  1439.97,931.684 1440.49,931.683 1440.96,931.681 1441.43,931.68 1441.81,931.678 1442.23,931.677 1442.61,931.675 1443.08,931.674 1443.6,931.671 1444.07,931.669 
  1444.55,931.667 1445.02,931.665 1445.54,931.663 1446.01,931.661 1446.48,931.659 1446.95,931.656 1447.47,931.654 1447.94,931.651 1448.42,931.648 1448.93,931.645 
  1449.41,931.641 1449.88,931.638 1450.35,931.633 1450.87,931.628 1451.34,931.623 1451.81,931.617 1452.29,931.61 1452.8,931.603 1453.28,931.595 1453.75,931.586 
  1454.22,931.576 1454.74,931.565 1455.21,931.553 1455.68,931.54 1456.2,931.526 1456.67,931.51 1457.15,931.493 1457.62,931.474 1458.14,931.453 1458.61,931.43 
  1459.08,931.406 1459.55,931.379 1460.07,931.35 1460.54,931.319 1461.01,931.285 1461.53,931.248 1462.01,931.209 1462.48,931.167 1462.95,931.121 1463.47,931.072 
  1463.94,931.019 1464.41,930.962 1464.88,930.902 1465.4,930.837 1465.88,930.768 1466.35,930.694 1466.87,930.616 1467.34,930.532 1467.81,930.443 1468.28,930.348 
  1468.8,930.247 1469.27,930.14 1469.74,930.027 1470.12,929.931 1470.55,929.83 1470.92,929.725 1471.4,929.588 1471.92,929.443 1472.39,929.29 1472.86,929.128 
  1473.33,928.957 1473.85,928.777 1474.32,928.588 1474.79,928.388 1475.27,928.179 1475.78,927.959 1476.26,927.729 1476.73,927.488 1477.25,927.235 1477.72,926.971 
  1478.19,926.694 1478.66,926.406 1479.18,926.105 1479.65,925.791 1480.13,925.464 1480.6,925.124 1481.12,924.77 1481.59,924.401 1482.06,924.019 1482.53,923.622 
  1483.05,923.21 1483.52,922.782 1484,922.339 1484.51,921.881 1484.99,921.406 1485.46,920.916 1485.93,920.408 1486.45,919.884 1486.92,919.343 1487.39,918.785 
  1487.86,918.209 1488.38,917.616 1488.86,917.004 1489.33,916.375 1489.85,915.728 1490.32,915.062 1490.79,914.378 1491.26,913.676 1491.78,912.955 1492.25,912.215 
  1492.72,911.456 1493.2,910.679 1493.72,909.882 1494.19,909.067 1494.66,908.233 1495.18,907.38 1495.65,906.508 1496.12,905.618 1496.59,904.708 1497.11,903.781 
  1497.59,902.834 1498.06,901.87 1498.43,901.08 1498.86,900.278 1499.24,899.464 1499.71,898.439 1500.23,897.396 1500.7,896.336 1501.17,895.258 1501.64,894.165 
  1502.16,893.055 1502.63,891.929 1503.11,890.787 1503.58,889.63 1504.1,888.458 1504.57,887.272 1505.04,886.072 1505.56,884.859 1506.03,883.633 1506.5,882.394 
  1506.98,881.144 1507.49,879.882 1507.97,878.61 1508.44,877.328 1508.91,876.037 1509.43,874.737 1509.9,873.429 1510.37,872.113 1510.85,870.791 1511.36,869.464 
  1511.84,868.131 1512.31,866.794 1512.83,865.454 1513.3,864.111 1513.77,862.767 1514.24,861.421 1514.76,860.076 1515.23,858.732 1515.71,857.389 1516.18,856.049 
  1516.7,854.713 1517.17,853.382 1517.64,852.056 1518.16,850.736 1518.63,849.425 1519.1,848.122 1519.57,846.828 1520.09,845.545 1520.57,844.274 1521.04,843.015 
  1521.51,841.77 1522.03,840.54 1522.5,839.325 1522.97,838.127 1523.49,836.947 1523.96,835.786 1524.44,834.645 1524.91,833.525 1525.43,832.426 1525.9,831.351 
  1526.37,830.3 1526.75,829.474 1527.17,828.664 1527.55,827.872 1528.02,826.911 1528.54,825.979 1529.01,825.077 1529.48,824.206 1529.96,823.367 1530.48,822.561 
  1530.95,821.789 1531.42,821.052 1531.89,820.351 1532.41,819.687 1532.88,819.06 1533.35,818.472 1533.87,817.924 1534.34,817.415 1534.82,816.948 1535.29,816.523 
  1535.81,816.14 1536.28,815.8 1536.75,815.505 1537.22,815.254 1537.74,815.049 1538.21,814.891 1538.69,814.778 1539.16,814.714 1539.68,814.697 1540.15,814.729 
  1540.62,814.81 1541.14,814.941 1541.61,815.121 1542.08,815.353 1542.56,815.635 1543.07,815.968 1543.55,816.353 1544.02,816.79 1544.49,817.28 1545.01,817.822 
  1545.48,818.416 1545.95,819.064 1546.47,819.765 1546.94,820.519 1547.42,821.327 1547.89,822.187 1548.41,823.102 1548.88,824.07 1549.35,825.091 1549.82,826.166 
  1550.34,827.294 1550.81,828.475 1551.28,829.709 1551.8,830.995 1552.28,832.335 1552.75,833.726 1553.22,835.17 1553.74,836.665 1554.21,838.211 1554.68,839.808 
  1555.06,841.132 1555.48,842.489 1555.86,843.878 1556.33,845.645 1556.85,847.461 1557.32,849.325 1557.8,851.235 1558.27,853.193 1558.79,855.196 1559.26,857.245 
  1559.73,859.338 1560.2,861.475 1560.72,863.655 1561.19,865.877 1561.67,868.14 1562.19,870.443 1562.66,872.786 1563.13,875.168 1563.6,877.587 1564.12,880.043 
  1564.59,882.535 1565.06,885.061 1565.54,887.621 1566.05,890.213 1566.53,892.836 1567,895.49 1567.47,898.173 1567.99,900.884 1568.46,903.622 1568.93,906.385 
  1569.45,909.173 1569.92,911.983 1570.4,914.816 1570.87,917.67 1571.39,920.543 1571.86,923.434 1572.33,926.342 1572.8,929.265 1573.32,932.203 1573.79,935.154 
  1574.27,938.116 1574.78,941.088 1575.26,944.069 1575.73,947.058 1576.2,950.053 1576.72,953.052 1577.19,956.055 1577.66,959.061 1578.13,962.066 1578.65,965.071 
  1579.13,968.074 1579.6,971.074 1580.12,974.068 1580.59,977.056 1581.06,980.037 1581.53,983.009 1582.05,985.97 1582.52,988.919 1582.99,991.856 1583.37,994.208 
  1583.8,996.549 1584.17,998.88 1584.65,1001.76 1585.17,1004.62 1585.64,1007.47 1586.11,1010.29 1586.58,1013.08 1587.1,1015.86 1587.57,1018.6 1588.04,1021.32 
  1588.52,1024.02 1589.03,1026.68 1589.51,1029.31 1589.98,1031.91 1590.5,1034.48 1590.97,1037.01 1591.44,1039.51 1591.91,1041.98 1592.43,1044.4 1592.9,1046.79 
  1593.38,1049.14 1593.85,1051.45 1594.37,1053.72 1594.84,1055.94 1595.31,1058.12 1595.78,1060.26 1596.3,1062.35 1596.77,1064.4 1597.25,1066.4 1597.76,1068.35 
  1598.24,1070.25 1598.71,1072.11 1599.18,1073.91 1599.7,1075.67 1600.17,1077.37 1600.64,1079.02 1601.12,1080.62 1601.63,1082.17 1602.11,1083.66 1602.58,1085.1 
  1603.1,1086.48 1603.57,1087.81 1604.04,1089.08 1604.51,1090.3 1605.03,1091.46 1605.5,1092.56 1605.98,1093.61 1606.45,1094.59 1606.97,1095.52 1607.44,1096.4 
  1607.91,1097.21 1608.43,1097.97 1608.9,1098.67 1609.37,1099.31 1609.84,1099.89 1610.36,1100.41 1610.84,1100.88 1611.31,1101.28 1611.69,1101.57 1612.11,1101.81 
  1612.49,1102.02 1612.96,1102.22 1613.48,1102.37 1613.95,1102.46 1614.42,1102.5 1614.89,1102.48 1615.41,1102.4 1615.88,1102.26 1616.36,1102.07 1616.83,1101.82 
  1617.35,1101.52 1617.82,1101.16 1618.29,1100.75 1618.81,1100.29 1619.28,1099.77 1619.75,1099.19 1620.23,1098.57 1620.75,1097.89 1621.22,1097.17 1621.69,1096.39 
  1622.16,1095.56 1622.68,1094.68 1623.15,1093.76 1623.62,1092.79 1624.1,1091.77 1624.61,1090.7 1625.09,1089.59 1625.56,1088.44 1626.08,1087.24 1626.55,1085.99 
  1627.02,1084.71 1627.49,1083.39 1628.01,1082.02 1628.48,1080.62 1628.96,1079.17 1629.43,1077.69 1629.95,1076.18 1630.42,1074.63 1630.89,1073.04 1631.41,1071.42 
  1631.88,1069.77 1632.35,1068.08 1632.83,1066.37 1633.34,1064.62 1633.82,1062.85 1634.29,1061.05 1634.76,1059.22 1635.28,1057.37 1635.75,1055.49 1636.22,1053.59 
  1636.74,1051.67 1637.21,1049.73 1637.69,1047.77 1638.16,1045.78 1638.68,1043.78 1639.15,1041.76 1639.62,1039.73 1640,1038.08 1640.42,1036.42 1640.8,1034.75 
  1641.27,1032.67 1641.79,1030.58 1642.26,1028.48 1642.73,1026.36 1643.21,1024.24 1643.73,1022.11 1644.2,1019.97 1644.67,1017.83 1645.14,1015.68 1645.66,1013.53 
  1646.13,1011.38 1646.6,1009.22 1647.12,1007.07 1647.59,1004.91 1648.07,1002.75 1648.54,1000.6 1649.06,998.448 1649.53,996.299 1650,994.155 1650.47,992.015 
  1650.99,989.881 1651.46,987.753 1651.94,985.633 1652.41,983.521 1652.93,981.417 1653.4,979.323 1653.87,977.24 1654.39,975.167 1654.86,973.106 1655.33,971.057 
  1655.81,969.021 1656.32,966.999 1656.8,964.991 1657.27,962.998 1657.74,961.02 1658.26,959.058 1658.73,957.113 1659.2,955.185 1659.72,953.274 1660.19,951.381 
  1660.67,949.507 1661.14,947.652 1661.66,945.817 1662.13,944.002 1662.6,942.207 1663.07,940.433 1663.59,938.68 1664.06,936.949 1664.54,935.239 1665.05,933.553 
  1665.53,931.889 1666,930.248 1666.47,928.631 1666.99,927.037 1667.46,925.467 1667.93,923.922 1668.31,922.698 1668.73,921.49 1669.11,920.299 1669.58,918.839 
  1670.1,917.405 1670.58,915.996 1671.05,914.613 1671.52,913.256 1672.04,911.926 1672.51,910.622 1672.98,909.345 1673.45,908.095 1673.97,906.872 1674.44,905.676 
  1674.92,904.508 1675.44,903.367 1675.91,902.255 1676.38,901.171 1676.85,900.114 1677.37,899.087 1677.84,898.088 1678.31,897.118 1678.79,896.176 1679.3,895.264 
  1679.78,894.382 1680.25,893.529 1680.72,892.705 1681.24,891.911 1681.71,891.148 1682.18,890.414 1682.7,889.711 1683.17,889.039 1683.65,888.397 1684.12,887.787 
  1684.64,887.207 1685.11,886.659 1685.58,886.143 1686.05,885.658 1686.57,885.205 1687.04,884.785 1687.52,884.397 1688.03,884.042 1688.51,883.72 1688.98,883.431 
  1689.45,883.176 1689.97,882.955 1690.44,882.767 1690.91,882.614 1691.39,882.496 1691.9,882.412 1692.38,882.364 1692.85,882.352 1693.37,882.376 1693.84,882.435 
  1694.31,882.532 1694.78,882.665 1695.3,882.836 1695.77,883.045 1696.25,883.292 1696.62,883.52 1697.05,883.774 1697.43,884.054 1697.9,884.434 1698.42,884.854 
  1698.89,885.314 1699.36,885.816 1699.83,886.359 1700.35,886.943 1700.82,887.57 1701.29,888.24 1701.77,888.953 1702.29,889.709 1702.76,890.51 1703.23,891.355 
  1703.75,892.244 1704.22,893.179 1704.69,894.16 1705.16,895.187 1705.68,896.261 1706.15,897.382 1706.63,898.551 1707.1,899.767 1707.62,901.032 1708.09,902.345 
  1708.56,903.708 1709.03,905.121 1709.55,906.583 1710.02,908.096 1710.5,909.659 1711.02,911.274 1711.49,912.94 1711.96,914.657 1712.43,916.427 1712.95,918.249 
  1713.42,920.123 1713.89,922.051 1714.37,924.031 1714.88,926.064 1715.36,928.151 1715.83,930.291 1716.35,932.485 1716.82,934.733 1717.29,937.034 1717.76,939.39 
  1718.28,941.799 1718.75,944.262 1719.23,946.778 1719.7,949.348 1720.22,951.972 1720.69,954.649 1721.16,957.379 1721.68,960.163 1722.15,962.998 1722.62,965.886 
  1723.1,968.826 1723.61,971.818 1724.09,974.861 1724.56,977.954 1724.94,980.482 1725.36,983.042 1725.74,985.634 1726.21,988.895 1726.73,992.205 1727.2,995.562 
  1727.67,998.966 1728.14,1002.42 1728.66,1005.91 1729.14,1009.45 1729.61,1013.03 1730.08,1016.66 1730.6,1020.32 1731.07,1024.03 1731.54,1027.77 1732.06,1031.55 
  1732.53,1035.37 1733,1039.22 1733.48,1043.11 1734,1047.02 1734.47,1050.97 1734.94,1054.95 1735.41,1058.96 1735.93,1063 1736.4,1067.06 1736.87,1071.15 
  1737.35,1075.26 1737.86,1079.38 1738.34,1083.53 1738.81,1087.69 1739.33,1091.86 1739.8,1096.05 1740.27,1100.24 1740.74,1104.44 1741.26,1108.65 1741.73,1112.85 
  1742.21,1117.06 1742.68,1121.26 1743.2,1125.47 1743.67,1129.67 1744.14,1133.86 1744.66,1138.04 1745.13,1142.2 1745.6,1146.36 1746.08,1150.49 1746.59,1154.61 
  1747.07,1158.7 1747.54,1162.77 1748.01,1166.82 1748.53,1170.83 1749,1174.81 1749.47,1178.76 1749.99,1182.66 1750.46,1186.53 1750.94,1190.36 1751.41,1194.13 
  1751.93,1197.86 1752.4,1201.54 1752.87,1205.17 1753.25,1208.04 1753.67,1210.87 1754.05,1213.66 1754.52,1217.08 1755.04,1220.43 1755.51,1223.71 1755.98,1226.91 
  1756.46,1230.05 1756.98,1233.1 1757.45,1236.07 1757.92,1238.96 1758.39,1241.76 1758.91,1244.48 1759.38,1247.1 1759.85,1249.62 1760.37,1252.04 1760.85,1254.37 
  1761.32,1256.58 1761.79,1258.69 1762.31,1260.69 1762.78,1262.58 1763.25,1264.35 1763.72,1266 1764.24,1267.53 1764.71,1268.93 1765.19,1270.21 1765.66,1271.35 
  1766.18,1272.36 1766.65,1273.23 1767.12,1273.97 1767.64,1274.56 1768.11,1275.01 1768.58,1275.31 1769.06,1275.46 1769.57,1275.46 1770.05,1275.3 1770.52,1274.99 
  1770.99,1274.51 1771.51,1273.87 1771.98,1273.07 1772.45,1272.1 1772.97,1270.97 1773.44,1269.66 1773.92,1268.17 1774.39,1266.51 1774.91,1264.68 1775.38,1262.66 
  1775.85,1260.46 1776.32,1258.08 1776.84,1255.52 1777.31,1252.77 1777.79,1249.82 1778.3,1246.7 1778.78,1243.37 1779.25,1239.86 1779.72,1236.16 1780.24,1232.26 
  1780.71,1228.16 1781.18,1223.87 1781.56,1220.26 1781.99,1216.53 1782.36,1212.67 1782.83,1207.7 1783.35,1202.54 1783.83,1197.18 1784.3,1191.61 1784.77,1185.85 
  1785.29,1179.88 1785.76,1173.72 1786.23,1167.36 1786.7,1160.77 1787.22,1153.97 1787.7,1146.99 1788.17,1139.8 1788.69,1132.42 1789.16,1124.85 1789.63,1117.08 
  1790.1,1109.13 1790.62,1100.99 1791.09,1092.66 1791.56,1084.15 1792.04,1075.46 1792.56,1066.61 1793.03,1057.59 1793.5,1048.39 1793.97,1039.03 1794.49,1029.49 
  1794.96,1019.8 1795.43,1009.94 1795.95,999.922 1796.42,989.753 1796.9,979.433 1797.37,968.968 1797.89,958.361 1798.36,947.616 1798.83,936.738 1799.3,925.731 
  1799.82,914.599 1800.29,903.348 1800.77,891.982 1801.29,880.507 1801.76,868.927 1802.23,857.247 1802.7,845.474 1803.22,833.613 1803.69,821.67 1804.16,809.649 
  1804.64,797.558 1805.15,785.401 1805.63,773.186 1806.1,760.919 1806.62,748.605 1807.09,736.251 1807.56,723.863 1808.03,711.449 1808.55,699.014 1809.02,686.566 
  1809.5,674.111 1809.87,664.089 1810.3,654.071 1810.68,644.061 1811.15,631.635 1811.67,619.233 1812.14,606.863 1812.61,594.531 1813.08,582.244 1813.6,570.011 
  1814.07,557.836 1814.54,545.729 1815.02,533.695 1815.54,521.741 1816.01,509.875 1816.48,498.104 1817,486.435 1817.47,474.874 1817.94,463.429 1818.41,452.106 
  1818.93,440.912 1819.41,429.854 1819.88,418.938 1820.35,408.172 1820.87,397.561 1821.34,387.112 1821.81,376.832 1822.28,366.727 1822.8,356.802 1823.27,347.065 
  1823.75,337.52 1824.27,328.174 1824.74,319.033 1825.21,310.102 1825.68,301.386 1826.2,292.891 1826.67,284.622 1827.14,276.585 1827.62,268.783 1828.13,261.222 
  1828.61,253.907 1829.08,246.841 1829.6,240.029 1830.07,233.475 1830.54,227.184 1831.01,221.158 1831.53,215.401 1832,209.917 1832.48,204.709 1832.95,199.78 
  1833.47,195.132 1833.94,190.769 1834.41,186.693 1834.93,182.905 1835.4,179.409 1835.87,176.205 1836.35,173.296 1836.86,170.683 1837.34,168.367 1837.81,166.35 
  1838.19,164.96 1838.61,163.764 1838.99,162.763 1839.46,161.77 1839.98,161.077 1840.45,160.685 1840.92,160.594 1841.39,160.804 1841.91,161.312 1842.39,162.12 
  1842.86,163.226 1843.33,164.629 1843.85,166.328 1844.32,168.321 1844.79,170.606 1845.31,173.182 1845.78,176.046 1846.25,179.198 1846.73,182.633 1847.25,186.349 
  1847.72,190.345 1848.19,194.616 1848.66,199.161 1849.18,203.976 1849.65,209.057 1850.12,214.401 1850.6,220.004 1851.12,225.863 1851.59,231.974 1852.06,238.333 
  1852.58,244.936 1853.05,251.778 1853.52,258.856 1853.99,266.164 1854.51,273.698 1854.98,281.454 1855.46,289.427 1855.93,297.611 1856.45,306.002 1856.92,314.595 
  1857.39,323.385 1857.91,332.367 1858.38,341.535 1858.85,350.883 1859.33,360.407 1859.84,370.102 1860.32,379.961 1860.79,389.978 1861.26,400.149 1861.78,410.468 
  1862.25,420.928 1862.72,431.524 1863.24,442.251 1863.71,453.102 1864.19,464.072 1864.66,475.155 1865.18,486.345 1865.65,497.636 1866.12,509.022 1866.5,518.256 
  1866.92,527.544 1867.3,536.884 1867.77,548.55 1868.29,560.286 1868.76,572.085 1869.24,583.942 1869.71,595.852 1870.23,607.807 1870.7,619.803 1871.17,631.834 
  1871.64,643.895 1872.16,655.98 1872.63,668.083 1873.1,680.199 1873.62,692.322 1874.1,704.448 1874.57,716.572 1875.04,728.686 1875.56,740.788 1876.03,752.872 
  1876.5,764.932 1876.97,776.964 1877.49,788.964 1877.97,800.925 1878.44,812.844 1878.91,824.716 1879.43,836.537 1879.9,848.302 1880.37,860.007 1880.89,871.648 
  1881.36,883.22 1881.83,894.719 1882.31,906.142 1882.83,917.485 1883.3,928.743 1883.77,939.914 1884.24,950.993 1884.76,961.978 1885.23,972.865 1885.7,983.65 
  1886.22,994.33 1886.69,1004.9 1887.17,1015.37 1887.64,1025.71 1888.16,1035.95 1888.63,1046.06 1889.1,1056.05 1889.57,1065.92 1890.09,1075.66 1890.56,1085.28 
  1891.04,1094.76 1891.56,1104.11 1892.03,1113.33 1892.5,1122.4 1892.97,1131.35 1893.49,1140.15 1893.96,1148.81 1894.43,1157.32 1894.81,1164.06 1895.24,1170.71 
  1895.61,1177.26 1896.09,1185.28 1896.6,1193.15 1897.08,1200.87 1897.55,1208.44 1898.02,1215.86 1898.54,1223.12 1899.01,1230.24 1899.48,1237.2 1899.95,1244.01 
  1900.47,1250.67 1900.95,1257.17 1901.42,1263.51 1901.94,1269.71 1902.41,1275.75 1902.88,1281.63 1903.35,1287.36 1903.87,1292.94 1904.34,1298.36 1904.81,1303.63 
  1905.29,1308.75 1905.81,1313.71 1906.28,1318.52 1906.75,1323.18 1907.22,1327.69 1907.74,1332.05 1908.21,1336.26 1908.68,1340.32 1909.2,1344.23 1909.68,1347.99 
  1910.15,1351.61 1910.62,1355.08 1911.14,1358.41 1911.61,1361.59 1912.08,1364.63 1912.55,1367.53 1913.07,1370.29 1913.54,1372.91 1914.02,1375.39 1914.54,1377.74 
  1915.01,1379.95 1915.48,1382.02 1915.95,1383.97 1916.47,1385.78 1916.94,1387.46 1917.41,1389.01 1917.89,1390.43 1918.4,1391.72 1918.88,1392.89 1919.35,1393.94 
  1919.87,1394.86 1920.34,1395.67 1920.81,1396.35 1921.28,1396.91 1921.8,1397.36 1922.27,1397.69 1922.75,1397.91 1923.12,1397.99 1923.55,1398 1923.93,1397.94 
  1924.4,1397.78 1924.92,1397.5 1925.39,1397.12 1925.86,1396.63 1926.33,1396.04 1926.85,1395.35 1927.32,1394.55 1927.8,1393.65 1928.27,1392.65 1928.79,1391.55 
  1929.26,1390.35 1929.73,1389.06 1930.25,1387.67 1930.72,1386.19 1931.19,1384.61 1931.66,1382.93 1932.18,1381.17 1932.66,1379.31 1933.13,1377.36 1933.6,1375.32 
  1934.12,1373.2 1934.59,1370.98 1935.06,1368.68 1935.53,1366.28 1936.05,1363.81 1936.52,1361.24 1937,1358.6 1937.52,1355.86 1937.99,1353.05 1938.46,1350.14 
  1938.93,1347.16 1939.45,1344.1 1939.92,1340.95 1940.39,1337.72 1940.87,1334.41 1941.39,1331.02 1941.86,1327.55 1942.33,1324 1942.85,1320.37 1943.32,1316.66 
  1943.79,1312.88 1944.26,1309.02 1944.78,1305.08 1945.25,1301.06 1945.73,1296.97 1946.2,1292.8 1946.72,1288.56 1947.19,1284.24 1947.66,1279.85 1948.18,1275.39 
  1948.65,1270.85 1949.12,1266.24 1949.6,1261.56 1950.11,1256.81 1950.59,1251.99 1951.06,1247.1 1951.44,1243.11 1951.86,1239.07 1952.24,1235 1952.71,1229.87 
  1953.23,1224.69 1953.7,1219.43 1954.17,1214.11 1954.64,1208.73 1955.16,1203.28 1955.64,1197.77 1956.11,1192.21 1956.58,1186.58 1957.1,1180.89 1957.57,1175.15 
  1958.04,1169.35 1958.56,1163.5 1959.03,1157.6 1959.51,1151.65 1959.98,1145.65 1960.5,1139.6 1960.97,1133.5 1961.44,1127.37 1961.91,1121.19 1962.43,1114.97 
  1962.9,1108.72 1963.37,1102.43 1963.85,1096.1 1964.37,1089.75 1964.84,1083.36 1965.31,1076.95 1965.83,1070.52 1966.3,1064.06 1966.77,1057.58 1967.24,1051.08 
  1967.76,1044.57 1968.23,1038.05 1968.71,1031.52 1969.18,1024.98 1969.7,1018.43 1970.17,1011.88 1970.64,1005.33 1971.16,998.788 1971.63,992.248 1972.1,985.716 
  1972.58,979.195 1973.1,972.688 1973.57,966.197 1974.04,959.724 1974.51,953.274 1975.03,946.847 1975.5,940.447 1975.97,934.077 1976.49,927.74 1976.96,921.437 
  1977.44,915.172 1977.91,908.946 1978.43,902.764 1978.9,896.627 1979.37,890.538 1979.75,885.677 1980.17,880.851 1980.55,876.059 1981.02,870.152 1981.54,864.304 
  1982.01,858.517 1982.49,852.794 1982.96,847.137 1983.48,841.548 1983.95,836.029 1984.42,830.582 1984.89,825.21 1985.41,819.914 1985.88,814.695 1986.36,809.557 
  1986.87,804.5 1987.35,799.526 1987.82,794.638 1988.29,789.835 1988.81,785.121 1989.28,780.495 1989.75,775.961 1990.22,771.518 1990.74,767.168 1991.22,762.913 
  1991.69,758.753 1992.16,754.689 1992.68,750.722 1993.15,746.854 1993.62,743.085 1994.14,739.415 1994.61,735.846 1995.08,732.377 1995.56,729.011 1996.08,725.746 
  1996.55,722.583 1997.02,719.523 1997.49,716.567 1998.01,713.713 1998.48,710.963 1998.95,708.317 1999.47,705.774 1999.95,703.334 2000.42,700.998 2000.89,698.766 
  2001.41,696.636 2001.88,694.61 2002.35,692.687 2002.82,690.865 2003.34,689.146 2003.81,687.529 2004.29,686.013 2004.81,684.597 2005.28,683.282 2005.75,682.066 
  2006.22,680.949 2006.74,679.931 2007.21,679.01 2007.68,678.187 2008.06,677.599 2008.49,677.074 2008.86,676.61 2009.34,676.112 2009.85,675.707 2010.33,675.395 
  2010.8,675.174 2011.27,675.045 2011.79,675.005 2012.26,675.054 2012.73,675.191 2013.2,675.415 2013.72,675.726 2014.2,676.121 2014.67,676.6 2015.19,677.162 
  2015.66,677.805 2016.13,678.53 2016.6,679.334 2017.12,680.217 2017.59,681.177 2018.07,682.213 2018.54,683.325 2019.06,684.511 2019.53,685.77 2020,687.1 
  2020.47,688.501 2020.99,689.972 2021.46,691.511 2021.93,693.117 2022.45,694.789 2022.93,696.526 2023.4,698.326 2023.87,700.189 2024.39,702.113 2024.86,704.098 
  2025.33,706.141 2025.8,708.242 2026.32,710.399 2026.79,712.612 2027.27,714.879 2027.79,717.199 2028.26,719.571 2028.73,721.994 2029.2,724.466 2029.72,726.986 
  2030.19,729.553 2030.66,732.166 2031.14,734.824 2031.66,737.526 2032.13,740.27 2032.6,743.055 2033.12,745.881 2033.59,748.745 2034.06,751.647 2034.53,754.586 
  2035.05,757.56 2035.52,760.569 2036,763.611 2036.37,766.084 2036.8,768.577 2037.18,771.089 2037.65,774.235 2038.17,777.41 2038.64,780.611 2039.11,783.839 
  2039.58,787.091 2040.1,790.367 2040.57,793.666 2041.05,796.986 2041.52,800.327 2042.04,803.687 2042.51,807.065 2042.98,810.46 2043.5,813.872 2043.97,817.298 
  2044.44,820.739 2044.91,824.193 2045.43,827.658 2045.91,831.134 2046.38,834.621 2046.85,838.116 2047.37,841.618 2047.84,845.128 2048.31,848.644 2048.78,852.164 
  2049.3,855.688 2049.78,859.215 2050.25,862.744 2050.77,866.273 2051.24,869.803 2051.71,873.332 2052.18,876.858 2052.7,880.382 2053.17,883.902 2053.64,887.418 
  2054.12,890.928 2054.64,894.431 2055.11,897.927 2055.58,901.414 2056.1,904.893 2056.57,908.361 2057.04,911.819 2057.51,915.265 2058.03,918.698 2058.5,922.118 
  2058.98,925.524 2059.45,928.915 2059.97,932.291 2060.44,935.649 2060.91,938.99 2061.43,942.314 2061.9,945.618 2062.37,948.903 2062.85,952.167 2063.37,955.41 
  2063.84,958.632 2064.31,961.831 2064.69,964.387 2065.11,966.927 2065.49,969.452 2065.96,972.568 2066.48,975.66 2066.95,978.725 2067.42,981.763 2067.9,984.774 
  2068.41,987.757 2068.89,990.711 2069.36,993.636 2069.83,996.531 2070.35,999.395 2070.82,1002.23 2071.29,1005.03 2071.81,1007.8 2072.28,1010.54 2072.76,1013.24 
  2073.23,1015.91 2073.75,1018.55 2074.22,1021.15 2074.69,1023.72 2075.16,1026.25 2075.68,1028.74 2076.15,1031.2 2076.63,1033.62 2077.1,1036 2077.62,1038.35 
  2078.09,1040.66 2078.56,1042.93 2079.08,1045.16 2079.55,1047.35 2080.02,1049.5 2080.49,1051.61 2081.01,1053.68 2081.49,1055.71 2081.96,1057.7 2082.43,1059.65 
  2082.95,1061.56 2083.42,1063.43 2083.89,1065.25 2084.41,1067.03 2084.88,1068.77 2085.35,1070.46 2085.83,1072.12 2086.35,1073.73 2086.82,1075.29 2087.29,1076.81 
  2087.76,1078.29 2088.28,1079.73 2088.75,1081.12 2089.22,1082.47 2089.74,1083.77 2090.22,1085.03 2090.69,1086.24 2091.16,1087.41 2091.68,1088.53 2092.15,1089.61 
  2092.62,1090.64 2093,1091.44 2093.42,1092.21 2093.8,1092.95 2094.27,1093.83 2094.79,1094.66 2095.26,1095.45 2095.74,1096.19 2096.21,1096.89 2096.73,1097.55 
  2097.2,1098.16 2097.67,1098.73 2098.14,1099.25 2098.66,1099.72 2099.13,1100.15 2099.61,1100.54 2100.12,1100.88 2100.6,1101.18 2101.07,1101.43 2101.54,1101.63 
  2102.06,1101.8 2102.53,1101.91 2103,1101.98 2103.47,1102.01 2103.99,1101.99 2104.47,1101.93 2104.94,1101.82 2105.41,1101.66 2105.93,1101.47 2106.4,1101.22 
  2106.87,1100.94 2107.39,1100.61 2107.86,1100.23 2108.34,1099.81 2108.81,1099.35 2109.33,1098.84 2109.8,1098.29 2110.27,1097.7 2110.74,1097.06 2111.26,1096.38 
  2111.73,1095.66 2112.2,1094.89 2112.72,1094.09 2113.2,1093.24 2113.67,1092.35 2114.14,1091.41 2114.66,1090.44 2115.13,1089.43 2115.6,1088.37 2116.07,1087.28 
  2116.59,1086.14 2117.06,1084.97 2117.54,1083.76 2118.06,1082.51 2118.53,1081.23 2119,1079.9 2119.47,1078.54 2119.99,1077.15 2120.46,1075.71 2120.93,1074.25 
  2121.31,1073.04 2121.74,1071.81 2122.11,1070.56 2122.59,1068.98 2123.1,1067.37 2123.58,1065.73 2124.05,1064.05 2124.52,1062.35 2125.04,1060.61 2125.51,1058.85 
  2125.98,1057.05 2126.46,1055.23 2126.97,1053.39 2127.45,1051.51 2127.92,1049.62 2128.44,1047.7 2128.91,1045.76 2129.38,1043.8 2129.85,1041.82 2130.37,1039.82 
  2130.84,1037.8 2131.32,1035.77 2131.79,1033.72 2132.31,1031.66 2132.78,1029.59 2133.25,1027.5 2133.72,1025.4 2134.24,1023.3 2134.71,1021.18 2135.18,1019.06 
  2135.7,1016.94 2136.18,1014.81 2136.65,1012.67 2137.12,1010.54 2137.64,1008.4 2138.11,1006.25 2138.58,1004.09 2139.05,1001.94 2139.57,999.796 2140.05,997.655 
  2140.52,995.521 2141.04,993.395 2141.51,991.278 2141.98,989.172 2142.45,987.077 2142.97,984.995 2143.44,982.927 2143.91,980.886 2144.39,978.861 2144.91,976.852 
  2145.38,974.862 2145.85,972.89 2146.37,970.937 2146.84,969.005 2147.31,967.094 2147.78,965.205 2148.3,963.338 2148.77,961.496 2149.25,959.677 2149.62,958.233 
  2150.05,956.806 2150.43,955.395 2150.9,953.665 2151.42,951.961 2151.89,950.286 2152.36,948.64 2152.83,947.023 2153.35,945.435 2153.82,943.877 2154.3,942.35 
  2154.77,940.853 2155.29,939.387 2155.76,937.952 2156.23,936.547 2156.75,935.174 2157.22,933.833 2157.69,932.522 2158.17,931.244 2158.68,929.996 2159.16,928.78 
  2159.63,927.595 2160.1,926.441 2160.62,925.319 2161.09,924.227 2161.56,923.166 2162.03,922.135 2162.55,921.134 2163.03,920.164 2163.5,919.223 2164.02,918.312 
  2164.49,917.429 2164.96,916.575 2165.43,915.75 2165.95,914.952 2166.42,914.182 2166.9,913.439 2167.37,912.722 2167.89,912.032 2168.36,911.367 2168.83,910.727 
  2169.35,910.112 2169.82,909.521 2170.29,908.953 2170.76,908.409 2171.28,907.887 2171.76,907.387 2172.23,906.909 2172.7,906.452 2173.22,906.014 2173.69,905.597 
  2174.16,905.199 2174.68,904.82 2175.15,904.458 2175.62,904.115 2176.1,903.788 2176.62,903.478 2177.09,903.183 2177.56,902.904 2177.94,902.691 2178.36,902.488 
  2178.74,902.293 2179.21,902.062 2179.73,901.844 2180.2,901.639 2180.67,901.446 2181.15,901.264 2181.66,901.093 2182.14,900.933 2182.61,900.782 2183.08,900.641 
  2183.6,900.509 2184.07,900.386 2184.54,900.271 2185.06,900.163 2185.53,900.063 2186.01,899.97 2186.48,899.883 2187,899.803 2187.47,899.728 2187.94,899.658 
  2188.41,899.594 2188.93,899.534 2189.4,899.478 2189.88,899.426 2190.35,899.378 2190.87,899.333 2191.34,899.291 2191.81,899.252 2192.33,899.216 2192.8,899.181 
  2193.27,899.149 2193.74,899.118 2194.26,899.089 2194.74,899.061 2195.21,899.034 2195.68,899.007 2196.2,898.982 2196.67,898.957 2197.14,898.932 2197.66,898.907 
  2198.13,898.882 2198.61,898.857 2199.08,898.831 2199.6,898.805 2200.07,898.779 2200.54,898.751 2201.01,898.723 2201.53,898.695 2202,898.665 2202.47,898.634 
  2202.99,898.602 2203.47,898.568 2203.94,898.534 2204.41,898.498 2204.93,898.461 2205.4,898.423 2205.87,898.383 2206.25,898.351 2206.67,898.317 2207.05,898.282 
  2207.52,898.238 2208.04,898.193 2208.51,898.146 2208.99,898.098 2209.46,898.049 2209.98,897.998 2210.45,897.947 2210.92,897.894 2211.39,897.84 2211.91,897.785 
  2212.38,897.73 2212.86,897.673 2213.37,897.616 2213.85,897.558 2214.32,897.5 2214.79,897.441 2215.31,897.382 2215.78,897.322 2216.25,897.263 2216.73,897.203 
  2217.24,897.143 2217.72,897.084 2218.19,897.025 2218.66,896.966 2219.18,896.908 2219.65,896.851 2220.12,896.795 2220.64,896.74 2221.11,896.685 2221.59,896.632 
  2222.06,896.581 2222.58,896.531 2223.05,896.483 2223.52,896.437 2223.99,896.393 2224.51,896.351 2224.98,896.312 2225.45,896.275 2225.97,896.24 2226.45,896.209 
  2226.92,896.181 2227.39,896.156 2227.91,896.134 2228.38,896.116 2228.85,896.101 2229.32,896.091 2229.84,896.084 2230.32,896.082 2230.79,896.084 2231.31,896.09 
  2231.78,896.101 2232.25,896.117 2232.72,896.138 2233.24,896.164 2233.71,896.195 2234.18,896.232 2234.56,896.266 2234.99,896.304 2235.36,896.345 2235.84,896.401 
  2236.36,896.464 2236.83,896.532 2237.3,896.607 2237.77,896.689 2238.29,896.777 2238.76,896.871 2239.23,896.973 2239.71,897.081 2240.22,897.197 2240.7,897.32 
  2241.17,897.45 2241.69,897.587 2242.16,897.732 2242.63,897.884 2243.1,898.045 2243.62,898.213 2244.09,898.388 2244.57,898.572 2245.04,898.764 2245.56,898.963 
  2246.03,899.171 2246.5,899.387 2246.97,899.611 2247.49,899.843 2247.96,900.084 2248.44,900.333 2248.95,900.591 2249.43,900.857 2249.9,901.131 2250.37,901.414 
  2250.89,901.705 2251.36,902.004 2251.83,902.312 2252.3,902.629 2252.82,902.954 2253.3,903.287 2253.77,903.629 2254.29,903.979 2254.76,904.337 2255.23,904.704 
  2255.7,905.079 2256.22,905.462 2256.69,905.854 2257.17,906.253 2257.64,906.66 2258.16,907.076 2258.63,907.499 2259.1,907.93 2259.62,908.369 2260.09,908.815 
  2260.56,909.269 2261.03,909.731 2261.55,910.199 2262.03,910.675 2262.5,911.158 2262.87,911.553 2263.3,911.951 2263.68,912.354 2264.15,912.861 2264.67,913.374 
  2265.14,913.893 2265.61,914.418 2266.08,914.95 2266.6,915.488 2267.07,916.031 2267.55,916.581 2268.02,917.135 2268.54,917.695 2269.01,918.261 2269.48,918.831 
  2270,919.406 2270.47,919.986 2270.94,920.571 2271.42,921.159 2271.93,921.752 2272.41,922.349 2272.88,922.95 2273.35,923.555 2273.87,924.162 2274.34,924.774 
  2274.81,925.388 2275.29,926.005 2275.8,926.625 2276.28,927.247 2276.75,927.871 2277.27,928.498 2277.74,929.127 2278.21,929.757 2278.68,930.389 2279.2,931.022 
  2279.67,931.657 2280.15,932.292 2280.62,932.928 2281.14,933.565 2281.61,934.203 2282.08,934.84 2282.6,935.477 2283.07,936.115 2283.54,936.752 2284.01,937.388 
  2284.53,938.024 2285.01,938.659 2285.48,939.293 2285.95,939.925 2286.47,940.556 2286.94,941.186 2287.41,941.814 2287.93,942.44 2288.4,943.063 2288.88,943.685 
  2289.35,944.304 2289.87,944.92 2290.34,945.534 2290.81,946.145 2291.19,946.634 2291.61,947.121 
  "/>
</svg>
